<?xml version="1.0" encoding="utf-8"?><svg width="67" height="32" fill="none" xmlns="http://www.w3.org/2000/svg" viewBox="0 0 67 32"><mask id="afa" maskUnits="userSpaceOnUse" x="0" y="0" width="67" height="32" fill="#000"><path fill="#fff" d="M0 0h67v32H0z"/><path d="M13.84 30.64c-2.48 0-4.68-.573-6.6-1.72-1.893-1.147-3.387-2.813-4.48-5-1.067-2.187-1.6-4.827-1.6-7.92s.533-5.733 1.6-7.92c1.093-2.187 2.587-3.853 4.48-5 1.92-1.147 4.12-1.72 6.6-1.72 2.48 0 4.667.573 6.56 1.72 1.92 1.147 3.413 2.813 4.48 5 1.093 2.187 1.64 4.827 1.64 7.92s-.547 5.733-1.64 7.92c-1.067 2.187-2.56 3.853-4.48 5-1.893 1.147-4.08 1.72-6.56 1.72zm0-7.56c.613 0 1.16-.213 1.64-.64.48-.427.853-1.16 1.12-2.2.293-1.04.44-2.453.44-4.24 0-1.813-.147-3.227-.44-4.24-.267-1.04-.64-1.773-1.12-2.2-.48-.427-1.027-.64-1.64-.64s-1.16.213-1.64.64c-.48.427-.867 1.16-1.16 2.2-.267 1.013-.4 2.427-.4 4.24 0 1.787.133 3.2.4 4.24.293 1.04.68 1.773 1.16 2.2.48.427 1.027.64 1.64.64zm28.455 7.56c-2.666 0-5.013-.507-7.04-1.52-2-1.04-3.573-2.573-4.72-4.6-1.12-2.053-1.68-4.6-1.68-7.64 0-3.28.654-6.067 1.96-8.36 1.307-2.32 3.12-4.093 5.44-5.32 2.347-1.227 5.054-1.84 8.12-1.84 1.654 0 3.24.2 4.76.6 1.547.373 2.854.907 3.92 1.6l-3.4 6.6c-.826-.587-1.666-.973-2.52-1.16-.826-.213-1.68-.32-2.56-.32-1.893 0-3.413.573-4.56 1.72-1.12 1.12-1.68 2.76-1.68 4.92v2.36l-2.16-1.56c.534-.907 1.16-1.667 1.88-2.28.72-.64 1.574-1.12 2.56-1.44.987-.347 2.134-.52 3.44-.52 1.707 0 3.28.373 4.72 1.12a8.76 8.76 0 013.52 3.08c.907 1.333 1.36 2.92 1.36 4.76 0 2-.506 3.733-1.52 5.2-1.013 1.467-2.386 2.6-4.12 3.4-1.706.8-3.613 1.2-5.72 1.2zm-.64-6.52c.56 0 1.054-.107 1.48-.32.454-.24.8-.573 1.04-1 .24-.427.36-.933.36-1.52 0-.88-.266-1.573-.8-2.08-.533-.533-1.226-.8-2.08-.8-.56 0-1.053.12-1.48.36-.426.24-.773.573-1.04 1-.24.427-.36.933-.36 1.52s.12 1.093.36 1.52c.267.427.614.76 1.04 1 .427.213.92.32 1.48.32zm18.956 6.28c-1.493 0-2.746-.48-3.76-1.44-1.013-.987-1.52-2.24-1.52-3.76 0-1.547.507-2.787 1.52-3.72 1.014-.933 2.267-1.4 3.76-1.4 1.494 0 2.747.467 3.76 1.4 1.014.933 1.52 2.173 1.52 3.72 0 1.52-.506 2.773-1.52 3.76-1.013.96-2.266 1.44-3.76 1.44z"/></mask><path d="M7.24 28.92l-.518.855.005.004.513-.859zm-4.48-5l-.899.438.005.01.894-.448zm0-15.84l-.894-.447-.005.009.899.438zm4.48-5l-.513-.859-.005.004.518.855zm13.16 0l-.518.855.005.004.513-.859zm4.48 5l-.899.438.005.01.894-.448zm0 15.84l-.895-.447-.004.009.899.438zm-4.48 5l-.513-.859-.005.004.518.855zm-3.8-8.68l-.962-.271-.004.011-.003.012.969.248zm0-8.48l-.969.248.004.015.004.015.961-.278zm-1.12-2.2l.664-.747-.664.747zm-3.28 0l-.664-.747.664.747zm-1.16 2.2l-.962-.271-.003.008-.002.008.967.255zm0 8.48l-.969.248.003.012.004.012.962-.272zm2.8 9.4c-2.32 0-4.339-.534-6.087-1.579L6.727 29.78C8.82 31.027 11.2 31.64 13.84 31.64v-2zm-6.082-1.575c-1.715-1.04-3.086-2.556-4.104-4.592l-1.788.894c1.168 2.337 2.785 4.154 4.856 5.408l1.036-1.71zm-4.1-4.583C2.675 21.463 2.16 18.982 2.16 16h-2c0 3.205.552 6.003 1.701 8.358l1.798-.876zM2.16 16c0-2.981.514-5.463 1.499-7.482L1.86 7.642C.712 9.997.16 12.795.16 16h2zm1.494-7.473c1.018-2.036 2.389-3.553 4.104-4.592l-1.036-1.71c-2.071 1.254-3.688 3.07-4.856 5.408l1.788.894zM7.753 3.94C9.5 2.894 11.52 2.36 13.84 2.36v-2c-2.64 0-5.021.612-7.113 1.861L7.753 3.94zM13.84 2.36c2.32 0 4.323.534 6.042 1.575l1.036-1.71C18.85.972 16.48.36 13.84.36v2zm6.047 1.579c1.739 1.038 3.105 2.551 4.094 4.58l1.798-.877c-1.144-2.346-2.765-4.166-4.866-5.42l-1.026 1.717zm4.099 4.588c1.008 2.016 1.534 4.495 1.534 7.473h2c0-3.209-.567-6.01-1.746-8.367l-1.788.894zM25.52 16c0 2.978-.526 5.457-1.534 7.473l1.788.894c1.18-2.357 1.746-5.159 1.746-8.367h-2zm-1.539 7.482c-.99 2.028-2.355 3.541-4.094 4.58l1.026 1.716c2.101-1.255 3.722-3.074 4.866-5.42l-1.798-.876zm-4.099 4.583c-1.719 1.04-3.722 1.575-6.042 1.575v2c2.64 0 5.01-.612 7.078-1.865l-1.036-1.71zM13.84 24.08c.87 0 1.65-.312 2.304-.893l-1.328-1.494c-.307.272-.62.387-.976.387v2zm2.304-.893c.699-.62 1.138-1.582 1.425-2.699l-1.938-.496c-.247.963-.554 1.468-.815 1.7l1.328 1.495zm1.419-2.675c.329-1.168.477-2.685.477-4.512h-2c0 1.746-.145 3.055-.402 3.968l1.925.544zM18.04 16c0-1.85-.148-3.372-.48-4.518l-1.92.556c.254.881.4 2.186.4 3.962h2zm-.471-4.488c-.287-1.117-.726-2.078-1.425-2.7l-1.328 1.495c.261.233.568.738.815 1.701l1.938-.496zm-1.425-2.7c-.653-.58-1.433-.892-2.304-.892v2c.356 0 .67.115.976.387l1.328-1.494zM13.84 7.92c-.87 0-1.65.312-2.304.893l1.328 1.494c.307-.272.62-.387.976-.387v-2zm-2.304.893c-.69.613-1.145 1.563-1.458 2.675l1.925.543c.272-.968.591-1.484.861-1.724l-1.328-1.494zm-1.463 2.692C9.774 12.641 9.64 14.153 9.64 16h2c0-1.78.133-3.094.367-3.986l-1.934-.508zM9.64 16c0 1.823.135 3.331.431 4.488l1.938-.496c-.237-.923-.369-2.242-.369-3.992h-2zm.438 4.512c.313 1.111.768 2.062 1.458 2.675l1.328-1.494c-.27-.24-.589-.757-.862-1.725l-1.924.544zm1.458 2.675c.653.581 1.433.893 2.304.893v-2c-.356 0-.67-.115-.976-.387l-1.328 1.494zm23.72 5.933l-.462.887.007.004.007.003.447-.894zm-4.72-4.6l-.879.479.004.007.004.006.87-.492zm.28-16l.868.495.003-.004-.872-.491zm5.44-5.32l-.464-.886-.004.002.467.884zm12.88-1.24l-.255.967.01.003.01.002.234-.972zm3.92 1.6l.888.458.414-.804-.758-.492-.545.838zm-3.4 6.6l-.58.816.94.666.528-1.024-.889-.458zM47.135 9l-.25.968.017.005.019.004.213-.977zm-7.12 1.4l.706.707-.707-.707zm-1.68 7.28l-.586.81 1.585 1.146V17.68h-1zm-2.16-1.56l-.863-.507-.461.785.738.533.585-.811zm1.88-2.28l.648.761.008-.007.008-.007-.665-.747zm2.56-1.44l.308.951.011-.004.012-.003-.332-.944zm8.16.6l-.461.888.01.005.01.005.44-.898zm3.52 3.08l-.835.55.007.012.827-.562zm-.16 9.96l-.823-.568.822.568zm-4.12 3.4l-.42-.908-.005.003.424.905zm-4.88-5.64l.447.894.01-.005.01-.005-.468-.884zm.6-4.6l-.708.707.01.01.009.008.688-.725zm-4.6.56l-.849-.53-.012.02-.011.02.871.49zm0 3.04l-.872.49.011.02.012.02.848-.53zm1.04 1l-.49.872.02.011.022.011.447-.894zm2.12 5.84c-2.54 0-4.728-.482-6.593-1.414l-.895 1.788c2.188 1.095 4.693 1.626 7.487 1.626v-2zm-6.58-1.407c-1.822-.948-3.256-2.341-4.31-4.205l-1.741.984c1.239 2.19 2.951 3.863 5.129 4.995l.923-1.774zm-4.303-4.192c-1.02-1.869-1.558-4.24-1.558-7.161h-2c0 3.159.582 5.881 1.802 8.119l1.756-.958zm-1.558-7.161c0-3.148.627-5.755 1.83-7.865l-1.739-.99c-1.41 2.477-2.09 5.443-2.09 8.855h2zm1.832-7.87c1.214-2.155 2.888-3.79 5.036-4.926l-.935-1.768c-2.492 1.318-4.445 3.229-5.844 5.713l1.743.982zm5.032-4.924c2.182-1.14 4.725-1.726 7.656-1.726v-2c-3.202 0-6.072.641-8.583 1.954l.927 1.772zm7.656-1.726c1.572 0 3.073.19 4.506.567L49.39.993A19.628 19.628 0 0044.375.36v2zm4.526.572c1.463.353 2.658.848 3.61 1.466l1.09-1.676C52.417 1.953 51 1.382 49.37.988l-.47 1.944zm3.265.17l-3.4 6.6 1.778.916 3.4-6.6-1.778-.916zm-1.932 6.242c-.919-.652-1.881-1.101-2.885-1.32l-.427 1.953c.702.154 1.42.477 2.155.998l1.157-1.63zm-2.849-1.312a11.204 11.204 0 00-2.81-.352v2c.799 0 1.568.097 2.31.288l.5-1.936zm-2.81-.352c-2.11 0-3.901.647-5.267 2.013l1.414 1.414c.928-.928 2.177-1.427 3.853-1.427v-2zm-5.267 2.013c-1.367 1.367-1.973 3.3-1.973 5.627h2c0-1.994.515-3.34 1.387-4.213l-1.414-1.414zm-1.973 5.627V16.52h2v-.002-.003-.002-.002-.003-.002-.002-.003-.002-.002-.003-.002-.003-.002-.002-.002-.003-.002-.003-.002-.002-.003-.002-.002-.003-.002-.002-.003-.002-.002-.003-.002-.002-.003-.002-.002-.003-.002-.002-.003-.002-.002-.003-.002-.003-.002-.002-.003-.002-.002-.002-.003-.002-.003-.002-.002-.003-.002-.002-.003-.002-.002-.003-.002-.002-.003-.002-.002-.003-.002-.002-.003-.002-.002-.003-.002-.002-.003-.002-.003-.002-.002-.002-.003-.002-.003-.002-.002-.003-.002-.002-.003-.002-.002-.003-.002-.002-.003-.002-.002-.003-.002-.002-.003-.002-.002-.003-.002-.002-.003-.002-.003-.002-.002-.003-.002-.002-.003-.002-.002-.003-.002-.002-.003-.002-.002-.003-.002-.002-.003-.002-.002-.003-.002-.002-.003-.002-.002-.003-.002-.003-.002-.002-.002-.003-.002-.003-.002-.002-.003-.002-.002-.003-.002-.002-.003-.002-.002-.003-.002-.002-.003-.002-.002-.003-.002-.002-.003-.002-.002-.003-.002-.003-.002-.002-.002-.003-.002-.003-.002-.002-.003-.002-.002-.003-.002-.002-.003-.002-.002-.003-.002-.002-.003-.002-.002-.003-.002-.002-.003-.002-.002-.003-.002-.003-.002-.002-.003-.002-.002-.002-.003-.002-.003-.002-.002-.003-.002-.002-.003-.002V16v-.003-.002-.002-.003-.002-.002-.003-.002-.002-.003-.002-.002-.003-.002-.003-.002-.002-.003-.002-.002-.002-.003-.002-.003-.002-.002-.003-.002-.002-.003-.002-.002-.003-.002-.002-.003-.002-.002-.003-.002-.002-.003-.002-.002-.003-.002-.002-.003-.002-.002-.003-.002-.002-.003-.002-.003-.002-.002-.003-.002-.002-.003-.002-.002-.003-.002-.002-.003-.002-.002-.003-.002-.002-.003-.002-.002-.003-.002-.002-.003-.002-.003-.002-.002-.003-.002-.002-.003-.002-.002-.003-.002-.002-.003-.002-.002-.003-.002-.002-.003-.002-.002-.003-.002-.002-.003-.002-.002-.003-.002-.003-.002-.002-.002-.003-.002-.002-.003-.002-.003-.002-.002-.003-.002-.002-.003-.002-.002-.003-.002-.002-.003-.002-.002-.003-.002-.002-.003-.002-.002-.003-.002-.002-.003-.002-.002-.003-.002-.003-.002-.002-.003-.002-.002-.003-.002-.002-.003-.002-.002-.003-.002-.002-.003-.002-.002-.003-.002-.002-.003-.002-.002-.003-.002-.003-.002-.002-.003-.002-.002-.002-.003-.002-.003-.002-.002-.003-.002-.002-.003-.002-.002-.003-.002-.002-.003-.002-.002-.003-.002-.002-.003-.002-.002-.003-.002-.002-.003-.002-.002-.003-.002-.002-.003-.002-.003-.002-.002-.003-.002-.002-.003-.002-.002-.003-.002-.002-.003-.002-.002-.003-.002-.002-.003-.002-.002-.003-.002-.002-.003-.002-.003-.002-.002-.003-.002-.002-.003-.002-.002-.003-.002-.002-.003-.002-.002-.003-.002-.002-.003-.002-.002-.003-.002-.002-.003-.002-.002-.003-.002-.003-.002-.002-.002-.003-.002-.002-.003-.002-.003-.002-.002-.003-.002-.002-.003-.002-.002-.003-.002h-2zm0 1.2V17.68h2v-.002-.003-.002-.002-.003-.002-.002-.003-.002-.002-.003-.002-.002-.003-.002-.003-.002-.002-.003-.002-.002-.003-.002-.002-.002-.003-.002-.003-.002-.002-.002-.003-.002-.003-.002-.002-.003-.002-.002-.002-.003-.002-.003-.002-.002-.002-.003-.002-.003-.002-.002-.003-.002-.002-.002-.003-.002-.002-.003-.002-.002-.003-.002-.002-.003-.002-.002-.003-.002-.002-.003-.002-.002-.003-.002-.002-.003-.002-.002-.002-.003-.002-.003-.002-.002-.002-.003-.002-.002-.003-.002-.002-.003-.002-.002-.003-.002-.002-.003-.002-.002-.003-.002-.002-.002-.003-.002-.002-.003-.002-.002-.003-.002-.002-.002-.003-.002-.002-.003-.002-.002-.003-.002-.002-.003-.002-.002-.003-.002-.002-.002-.003-.002-.002-.003-.002-.002-.002-.003-.002-.002-.003-.002-.002-.003-.002-.002-.002-.003-.002-.002-.003-.002-.002-.003-.002-.002-.002-.003-.002-.002-.003-.002-.002-.003-.002-.002-.002-.003-.002-.002-.003-.002-.002-.003-.002-.002-.002-.003-.002-.002-.002-.003-.002-.002-.003-.002-.002-.003-.002-.002-.002-.003-.002-.002-.002-.003-.002-.002-.003-.002-.002-.003-.002-.002-.002-.003-.002-.002-.002-.003-.002-.002-.003-.002-.002-.002-.003-.002-.002-.003-.002-.002-.002-.003-.002-.002-.002-.003-.002-.002-.002-.003-.002-.002-.003-.002-.002-.002-.003-.002-.002-.003-.002-.002-.002-.003-.002-.002-.002-.003-.002-.002-.003-.002-.002-.002-.003-.002-.002-.002-.003-.002-.002-.002-.003-.002-.002-.002-.003-.002-.002-.002-.003-.002-.002-.003-.002-.002-.002-.003-.002-.002-.002-.003-.002-.002-.002-.003-.002-.002-.002-.003-.002-.002V17v-.003-.002-.002-.002-.003-.002-.002-.002-.003-.002-.002-.002-.003-.002-.002-.002-.003-.002-.002-.002-.003-.002-.002-.002-.003-.002-.002-.002-.003-.002-.002-.002-.003-.002-.002-.002-.003-.002-.002-.002-.003-.002-.002-.002-.003-.002-.002-.002-.002-.003-.002-.002-.002-.003-.002-.002-.002-.003-.002-.002-.002-.003-.002-.002-.002-.002-.003-.002-.002-.002-.003-.002-.002-.002-.003-.002-.002-.002-.002-.003-.002-.002-.002-.003-.002-.002-.002-.003-.002-.002-.002-.002-.003-.002-.002-.002-.003-.002-.002-.002-.002-.003-.002-.002-.002-.003-.002-.002-.002-.002-.003-.002-.002-.002-.003-.002-.002-.002-.002-.003-.002-.002-.002-.003-.002-.002-.002-.002-.002-.003-.002-.002-.002-.003-.002-.002-.002-.002-.003-.002-.002-.002-.003-.002-.002-.002-.002-.003-.002-.002-.002-.002-.003-.002-.002-.002-.002-.003-.002-.002-.002-.002-.003-.002-.002-.002-.002-.003-.002-.002-.002-.003-.002-.002-.002-.002-.003-.002-.002-.002-.002-.002-.003-.002-.002-.002-.002-.003-.002-.002-.002-.002-.003-.002-.002-.002-.002-.003-.002-.002-.002-.002-.002-.003-.002-.002-.002-.002-.003-.002-.002-.002-.002-.003-.002-.002h-2zm1.586.35l-2.16-1.56-1.171 1.62 2.16 1.56 1.17-1.62zm-1.884-.243c.483-.821 1.04-1.492 1.667-2.026l-1.297-1.522c-.814.693-1.51 1.542-2.094 2.534l1.724 1.014zm1.683-2.04c.609-.54 1.338-.955 2.204-1.236l-.617-1.902c-1.108.36-2.085.905-2.916 1.644l1.329 1.494zm2.227-1.243c.857-.302 1.887-.464 3.108-.464v-2c-1.392 0-2.655.184-3.771.576l.663 1.888zm3.108-.464c1.555 0 2.97.339 4.26 1.008l.92-1.776c-1.59-.824-3.321-1.232-5.18-1.232v2zm4.28 1.018c1.31.643 2.346 1.552 3.126 2.733l1.669-1.102a9.758 9.758 0 00-3.914-3.427l-.881 1.796zm3.133 2.744c.779 1.145 1.187 2.53 1.187 4.198h2c0-2.011-.498-3.8-1.533-5.322l-1.654 1.124zm1.187 4.198c0 1.823-.458 3.352-1.342 4.632l1.645 1.136c1.143-1.653 1.697-3.59 1.697-5.768h-2zm-1.342 4.632c-.905 1.308-2.134 2.33-3.717 3.06l.838 1.816c1.884-.87 3.402-2.115 4.524-3.74l-1.645-1.136zm-3.722 3.063c-1.56.73-3.318 1.105-5.296 1.105v2c2.236 0 4.29-.425 6.145-1.294l-.85-1.811zm-5.936-3.415c.689 0 1.34-.132 1.928-.426l-.895-1.788c-.266.132-.601.214-1.033.214v2zm1.948-.436a3.51 3.51 0 001.444-1.394l-1.743-.98a1.51 1.51 0 01-.637.606l.936 1.768zm1.444-1.394c.34-.603.488-1.286.488-2.01h-2c0 .449-.09.78-.231 1.03l1.743.98zm.488-2.01c0-1.096-.34-2.073-1.11-2.805l-1.378 1.45c.296.281.488.691.488 1.355h2zm-1.093-2.787c-.746-.746-1.706-1.093-2.787-1.093v2c.626 0 1.053.187 1.373.507l1.414-1.414zM41.655 17.4c-.706 0-1.373.153-1.97.488l.98 1.744c.257-.145.577-.232.99-.232v-2zm-1.97.488a3.872 3.872 0 00-1.398 1.342l1.696 1.06c.18-.289.406-.503.683-.658l-.98-1.744zm-1.421 1.382c-.34.603-.489 1.286-.489 2.01h2c0-.449.091-.78.232-1.03l-1.743-.98zm-.489 2.01c0 .724.15 1.407.489 2.01l1.743-.98c-.14-.25-.232-.581-.232-1.03h-2zm.512 2.05c.353.565.821 1.017 1.398 1.342l.98-1.744a1.872 1.872 0 01-.682-.658l-1.696 1.06zm1.441 1.364c.588.294 1.239.426 1.927.426v-2c-.431 0-.767-.082-1.032-.214l-.895 1.788zm17.123 4.266l-.697.716.01.01.687-.726zm0-7.48l-.677-.736.677.736zm7.52 0l.678-.736-.678.736zm0 7.48l.688.726.01-.01-.698-.716zm-3.76.44c-1.257 0-2.258-.395-3.072-1.166l-1.376 1.452c1.213 1.149 2.719 1.714 4.448 1.714v-2zm-3.062-1.156c-.805-.784-1.218-1.771-1.218-3.044h-2c0 1.768.6 3.287 1.823 4.477l1.395-1.433zM56.33 25.2c0-1.305.416-2.265 1.198-2.985l-1.355-1.47c-1.245 1.146-1.843 2.667-1.843 4.455h2zm1.198-2.985c.812-.748 1.817-1.135 3.082-1.135v-2c-1.721 0-3.223.546-4.437 1.665l1.355 1.47zm3.082-1.135c1.266 0 2.27.387 3.083 1.136l1.355-1.472c-1.215-1.118-2.716-1.664-4.438-1.664v2zm3.083 1.136c.781.72 1.197 1.679 1.197 2.984h2c0-1.788-.597-3.309-1.842-4.456l-1.355 1.471zM64.89 25.2c0 1.273-.413 2.26-1.217 3.044l1.395 1.433c1.222-1.19 1.822-2.71 1.822-4.477h-2zm-1.208 3.034c-.813.771-1.815 1.166-3.072 1.166v2c1.73 0 3.235-.565 4.448-1.714l-1.375-1.452z" fill="#78213A" mask="url(#afa)"/></svg>