<?xml version="1.0" encoding="utf-8"?><svg width="62" height="28" fill="none" xmlns="http://www.w3.org/2000/svg" viewBox="0 0 62 28"><path d="M.977 21.876v-4.828L12.729.69h7.673L8.986 17.048 5.468 16h20.473v5.876H.977zm13.848 5.015v-5.015L15.05 16v-4.454h6.999v15.346h-7.224zM32.182 27.228c-1.198 0-2.209-.399-3.032-1.197-.823-.799-1.235-1.81-1.235-3.032 0-1.273.412-2.283 1.235-3.032.824-.773 1.834-1.16 3.032-1.16 1.197 0 2.208.387 3.032 1.16.823.749 1.235 1.76 1.235 3.032 0 1.223-.412 2.233-1.235 3.032-.824.798-1.834 1.197-3.032 1.197zM50.37 27.416c-2.27 0-4.253-.337-5.95-1.011-1.697-.674-3.032-1.622-4.005-2.845-.948-1.247-1.422-2.707-1.422-4.379 0-1.647.474-3.044 1.422-4.192.973-1.173 2.308-2.058 4.005-2.657 1.721-.624 3.705-.936 5.95-.936 2.247 0 4.218.312 5.915.936 1.721.599 3.056 1.484 4.004 2.657.974 1.148 1.46 2.545 1.46 4.192 0 1.672-.474 3.132-1.422 4.38-.948 1.222-2.283 2.17-4.005 2.844-1.697.674-3.68 1.01-5.951 1.01zm0-5.203c1.199 0 2.147-.287 2.845-.86.724-.575 1.086-1.373 1.086-2.396 0-.998-.362-1.785-1.086-2.358-.698-.6-1.646-.899-2.844-.899s-2.159.3-2.882.899c-.699.573-1.048 1.36-1.048 2.358 0 1.023.35 1.821 1.048 2.395.724.574 1.684.86 2.882.86zm0-7.149c-2.045 0-3.854-.287-5.426-.86-1.547-.575-2.77-1.398-3.668-2.471-.899-1.098-1.348-2.408-1.348-3.93 0-1.572.437-2.92 1.31-4.042.899-1.123 2.134-1.997 3.706-2.62 1.572-.65 3.38-.974 5.427-.974 2.07 0 3.88.325 5.427.974 1.572.623 2.795 1.497 3.668 2.62.898 1.122 1.347 2.47 1.347 4.042 0 1.522-.449 2.832-1.347 3.93-.873 1.073-2.096 1.896-3.668 2.47-1.572.574-3.381.861-5.427.861zm0-4.192c.95 0 1.71-.237 2.284-.711.574-.5.86-1.173.86-2.021 0-.899-.299-1.585-.897-2.059-.574-.474-1.323-.711-2.246-.711s-1.672.237-2.246.711c-.574.474-.86 1.16-.86 2.059 0 .848.286 1.522.86 2.02.574.475 1.323.712 2.246.712z" fill="#fff"/></svg>