<?xml version="1.0" encoding="utf-8"?><svg width="54" height="54" fill="none" xmlns="http://www.w3.org/2000/svg" viewBox="0 0 54 54"><path d="M27 28.688a1.687 1.687 0 01-1.688 1.687H15.188a1.687 1.687 0 110-3.375h10.126A1.687 1.687 0 0127 28.688zm-1.688-8.438H15.188a1.687 1.687 0 100 3.375h10.126a1.687 1.687 0 100-3.375zm23.625 13.81v13.19a1.687 1.687 0 01-2.53 1.477l-5.063-2.899-5.063 2.899a1.688 1.688 0 01-2.531-1.477v-5.063H8.437a3.375 3.375 0 01-3.374-3.374v-27a3.375 3.375 0 013.375-3.376h37.124a3.375 3.375 0 013.376 3.376v6.44a10.945 10.945 0 010 15.807zM33.75 38.812V34.06a10.969 10.969 0 0111.813-18.029v-4.218H8.437v27H33.75zm11.813-2.53a10.943 10.943 0 01-8.438 0v8.061l3.375-1.932a1.687 1.687 0 011.675 0l3.375 1.932.013-8.062zm3.374-10.126a7.594 7.594 0 10-15.187 0 7.594 7.594 0 0015.188 0z" fill="#78213A"/></svg>