<?xml version="1.0" encoding="utf-8"?><svg width="24" height="24" fill="none" xmlns="http://www.w3.org/2000/svg" viewBox="0 0 24 24"><path d="M12 2.25a.75.75 0 00-.75.75v5.25A.75.75 0 0012 9a3 3 0 11-2.6 1.5.75.75 0 00-.274-1.025L4.579 6.85a.75.75 0 00-1.025.275A9.75 9.75 0 1012 2.25zM4.507 8.54l3.273 1.89a4.509 4.509 0 00-.261 1.994l-3.65.982a8.265 8.265 0 01.638-4.865zm-.25 6.31l3.656-.978a4.51 4.51 0 003.335 2.564v3.78a8.268 8.268 0 01-6.992-5.365zm8.491 5.365v-3.779a4.5 4.5 0 000-8.873v-3.78a8.25 8.25 0 010 16.432z" fill="#78213A"/></svg>