<?xml version="1.0" encoding="utf-8"?><svg width="54" height="54" fill="none" xmlns="http://www.w3.org/2000/svg" viewBox="0 0 54 54"><path d="M48.938 43.875a1.687 1.687 0 01-1.688 1.688H6.75a1.687 1.687 0 01-1.688-1.688v-33.75a1.687 1.687 0 013.375 0v22.927l10.62-10.62a1.686 1.686 0 012.387 0L27 27.988l11.114-11.114H33.75a1.687 1.687 0 110-3.375h8.438a1.687 1.687 0 011.687 1.688v8.437a1.687 1.687 0 11-3.375 0v-4.364L28.194 31.569a1.686 1.686 0 01-2.388 0L20.25 26.01 8.437 37.823v4.364H47.25a1.687 1.687 0 011.688 1.688z" fill="#78213A"/></svg>