<?xml version="1.0" encoding="utf-8"?><svg width="34" height="34" fill="none" xmlns="http://www.w3.org/2000/svg" viewBox="0 0 34 34"><path d="M30.813 18.15A13.828 13.828 0 1115.85 3.187a1.067 1.067 0 01.176 2.125 11.704 11.704 0 1012.662 12.663 1.066 1.066 0 012.125.175zM15.938 9.562V17A1.063 1.063 0 0017 18.062h7.438a1.062 1.062 0 100-2.125h-6.375V9.562a1.062 1.062 0 10-2.125 0zm5.312-3.187a1.594 1.594 0 100-3.188 1.594 1.594 0 000 3.188zm4.782 3.187a1.594 1.594 0 100-3.187 1.594 1.594 0 000 3.187zm3.187 4.782a1.594 1.594 0 100-3.188 1.594 1.594 0 000 3.188z" fill="#78213A"/></svg>