<?xml version="1.0" encoding="utf-8"?><svg width="24" height="24" fill="none" xmlns="http://www.w3.org/2000/svg" viewBox="0 0 24 24"><path d="M18.61 5.258c-1.131-1.94-2.68-3.008-4.36-3.008h-4.5c-1.68 0-3.229 1.069-4.36 3.008C4.332 7.071 3.75 9.468 3.75 12c0 2.531.582 4.93 1.64 6.742 1.131 1.94 2.68 3.008 4.36 3.008h4.5c1.68 0 3.229-1.069 4.36-3.008 1.058-1.813 1.64-4.21 1.64-6.742 0-2.531-.582-4.93-1.64-6.742zm.12 5.992h-3a14.323 14.323 0 00-.907-4.5h2.868c.573 1.254.952 2.813 1.04 4.5zm-1.93-6h-2.694a7.79 7.79 0 00-1.125-1.5h1.269c.938 0 1.819.563 2.55 1.5zM5.25 12c0-4.472 2.063-8.25 4.5-8.25 2.438 0 4.5 3.778 4.5 8.25 0 4.472-2.063 8.25-4.5 8.25-2.438 0-4.5-3.778-4.5-8.25zm9 8.25h-1.267a7.79 7.79 0 001.125-1.5h2.694c-.733.938-1.614 1.5-2.552 1.5zm3.44-3h-2.866c.542-1.441.849-2.961.907-4.5h3c-.088 1.688-.467 3.246-1.04 4.5z" fill="#78213A"/></svg>