<?xml version="1.0" encoding="utf-8"?><svg width="49" height="49" fill="none" xmlns="http://www.w3.org/2000/svg" viewBox="0 0 49 49"><g clip-path="url(#baclip0_2220_27437)"><path d="M44.087 27a4.677 4.677 0 00-4.066-.81l-8.008 1.841a5.359 5.359 0 00-5.216-6.593h-9.582a6.09 6.09 0 00-4.331 1.793l-4.33 4.331H3.062A3.063 3.063 0 000 30.625v7.656a3.063 3.063 0 003.063 3.063h19.906c.125 0 .25-.016.371-.046l12.25-3.063c.078-.018.154-.044.228-.076l7.44-3.166.084-.038A4.708 4.708 0 0044.094 27h-.007zM3.062 30.625h4.594v7.656H3.063v-7.656zM42 32.196l-7.273 3.097-11.95 2.988H10.72v-8.554l4.331-4.33a3.035 3.035 0 012.165-.897h9.582a2.297 2.297 0 010 4.594h-5.36a1.532 1.532 0 000 3.062h6.125c.116 0 .23-.013.343-.038l12.824-2.95.06-.015a1.646 1.646 0 011.206 3.043H42zM31.39 18.375c.379 0 .757-.03 1.13-.092a6.89 6.89 0 105.401-8.996 6.891 6.891 0 10-6.53 9.088zm11.485-2.297a3.827 3.827 0 11-7.655 0 3.827 3.827 0 017.655 0zM31.391 7.656a3.828 3.828 0 013.684 2.797 6.89 6.89 0 00-2.87 4.772 3.828 3.828 0 11-.813-7.568z" fill="#4988D1"/></g><defs><clipPath id="baclip0_2220_27437"><path fill="#fff" d="M0 0h49v49H0z"/></clipPath></defs></svg>