<?xml version="1.0" encoding="utf-8"?><svg width="85" height="85" fill="none" xmlns="http://www.w3.org/2000/svg" viewBox="0 0 85 85"><path d="M39.43.183c-7.521 1.029-14.212 5.594-17.831 12.185-4.731 8.567-3.802 18.926 2.374 26.596 3.951 4.88 10.326 8.25 16.535 8.716l.581.05.05 4.034.033 4.017H28.29c-9.645 0-13.065.05-13.58.2-.913.265-2.29 1.643-2.556 2.556-.133.465-.2 2.241-.2 5.678v4.98l-.564.1c-1.112.216-2.839 1.228-3.785 2.224-3.038 3.171-3.038 7.837-.017 11.007a7.836 7.836 0 0011.389 0c3.021-3.17 3.021-7.836-.017-11.007-.946-.996-2.672-2.008-3.785-2.224l-.564-.1v-9.944l.415-.398.398-.416h25.749v10.758l-.564.1c-1.112.216-2.84 1.228-3.785 2.224-3.038 3.171-3.038 7.837-.017 11.007a7.836 7.836 0 0011.389 0c3.021-3.17 3.021-7.836-.017-11.007-.946-.996-2.673-2.008-3.785-2.224l-.565-.1V58.437h25.75l.398.416.415.398v9.944l-.565.1c-1.112.216-2.838 1.228-3.785 2.224-3.038 3.171-3.038 7.837-.016 11.007a7.836 7.836 0 0011.388 0c3.022-3.17 3.022-7.836-.016-11.007-.946-.996-2.673-2.008-3.785-2.224l-.565-.1v-4.98c0-3.37-.066-5.213-.199-5.645-.1-.365-.515-1.029-.913-1.46-1.245-1.395-.481-1.329-15.19-1.329H43.829l.033-4.034.05-4.017.664-.05c6.076-.432 12.517-3.835 16.452-8.716 3.752-4.665 5.611-10.326 5.312-16.22-.182-3.503-.93-6.358-2.523-9.562C60.563 6.64 54.22 1.842 46.95.415 45.306.083 41.056-.05 39.43.183zm7.553 2.955c4.167.946 7.404 2.739 10.475 5.81 3.902 3.885 5.96 8.484 6.226 13.962.315 6.093-2.059 12.02-6.508 16.27l-1.311 1.245-.117-1.992c-.116-2.291-.282-3.105-.962-4.881-.615-1.577-1.528-2.939-2.856-4.317-.996-1.012-3.088-2.54-3.802-2.755-.298-.1-.199-.233.73-1.146 3.006-2.939 3.753-7.072 1.943-10.824-2.74-5.695-10.326-6.956-14.842-2.457-3.669 3.669-3.635 9.512.05 13.132l1.13 1.112-1.379.83c-2.374 1.411-4.4 3.686-5.412 6.093-.73 1.743-.98 2.905-1.096 5.13l-.116 2.075-1.311-1.245a21.151 21.151 0 01-4.284-24.82c1.943-3.884 5.612-7.52 9.58-9.512 1.909-.947 4.897-1.843 6.972-2.076 1.444-.166 5.479.05 6.89.366zm-1.76 9.446c1.51.697 2.474 1.66 3.22 3.154.582 1.196.615 1.345.615 2.856 0 1.51-.033 1.66-.614 2.855-.747 1.511-1.71 2.44-3.254 3.171-1.013.482-1.262.531-2.69.531-1.427 0-1.676-.05-2.656-.514-1.577-.764-2.54-1.677-3.27-3.188-.598-1.195-.631-1.345-.631-2.839 0-1.444.05-1.693.531-2.706.664-1.41 1.61-2.44 2.856-3.088 1.294-.697 2.025-.863 3.536-.796 1.012.05 1.527.182 2.357.564zm-.481 15.556c3.552.73 6.756 3.669 7.919 7.221.282.88.365 1.61.431 4.035l.067 2.938-1.378.647c-3.288 1.544-5.711 2.092-9.28 2.092-3.57 0-6.11-.58-9.248-2.092l-1.378-.664v-2.44c0-2.972.266-4.317 1.163-6.11a10.61 10.61 0 0111.704-5.627zM15.789 72.4c1.112.597 1.626 1.128 2.274 2.373.365.714.431 1.063.431 2.258.017 1.295-.033 1.494-.547 2.457-.631 1.162-1.162 1.66-2.408 2.325-.713.365-1.062.431-2.257.431-1.196 0-1.544-.066-2.258-.431-1.245-.665-1.777-1.163-2.407-2.325-.515-.963-.565-1.162-.548-2.457 0-1.66.398-2.656 1.477-3.735 1.66-1.66 4.134-2.009 6.243-.897zm29.218 0c1.113.597 1.627 1.128 2.275 2.373.365.714.431 1.063.431 2.258.017 1.295-.033 1.494-.548 2.457-.63 1.162-1.162 1.66-2.407 2.325-.714.365-1.062.431-2.258.431-1.195 0-1.544-.066-2.257-.431-1.246-.665-1.777-1.163-2.408-2.325-.514-.963-.564-1.162-.547-2.457 0-1.66.398-2.656 1.477-3.735 1.66-1.66 4.134-2.009 6.242-.897zm29.219 0c1.112.597 1.627 1.128 2.274 2.373.366.714.432 1.063.432 2.258.017 1.295-.033 1.494-.548 2.457-.63 1.162-1.162 1.66-2.407 2.325-.714.365-1.063.431-2.258.431s-1.544-.066-2.258-.431c-1.245-.665-1.776-1.163-2.407-2.325-.515-.963-.564-1.162-.548-2.457 0-1.66.399-2.656 1.478-3.735 1.66-1.66 4.134-2.009 6.242-.897z" fill="#4988D1"/><path d="M40.292 29.6c-.332.316-.481.98-1.096 4.649-.398 2.357-.664 4.45-.614 4.648.05.216.83 1.096 1.727 1.993 2.191 2.158 2.191 2.158 4.383 0 .896-.897 1.676-1.777 1.726-1.992.05-.2-.216-2.292-.614-4.649-.88-5.313-.697-5.03-3.304-5.03-1.693 0-1.876.033-2.208.382zm2.44 2.557c.034.166.283 1.56.532 3.088l.448 2.79-.598.613-.614.615-.614-.615-.598-.614.449-2.789c.514-3.154.564-3.37.763-3.37.083 0 .183.133.233.282z" fill="#4988D1"/></svg>