<?xml version="1.0" encoding="utf-8"?><svg width="219" height="76" fill="none" xmlns="http://www.w3.org/2000/svg" viewBox="0 0 219 76"><path fill-rule="evenodd" clip-rule="evenodd" d="M37.849 20.302l9.821 8.178c.563.469 1.141 3.173.38 4.106l-14.356 17.61-3.39-2.827 12.232-14.414c.363-.616.953-.561.681-1.622l-.826-.707-5.737-4.829c-.533-.322-.69-.756-1.636-.26l-.477.504-12.007 15.085-3.432-2.79 14.581-17.724c.556-.675 3.444-.91 4.165-.31z" fill="#4988D1"/><path fill-rule="evenodd" clip-rule="evenodd" d="M31.835 59.531l-9.821-8.178c-.563-.469-1.141-3.172-.38-4.105l14.355-17.61 3.391 2.826L27.148 46.88c-.364.615-.953.56-.681 1.622l.826.706 5.736 4.83c.533.322.691.756 1.636.26l.478-.503L47.15 38.708l3.432 2.79L36.001 59.22c-.557.676-3.444.91-4.165.31z" fill="#78213A"/><path d="M119.356 30.609h-5.915c-.496 3.94-2.632 6.06-6.219 6.06-4.388 0-7.173-3.56-7.173-9.129 0-4.508 2.022-9.168 7.25-9.168 3.205 0 5.417 1.743 6.028 4.698h5.838c-.458-5.569-5.228-9.66-11.752-9.66-8.318 0-13.354 6.25-13.354 14.092 0 8.524 5.227 14.168 13.125 14.168 7.44 0 11.561-4.47 12.172-11.061zm32.279.34c0-6.174-2.938-10.038-7.631-10.038-2.289 0-3.778.947-4.349 2.007h-.115v-8.864h-5.342v8.864h-.114c-.573-1.06-2.061-2.007-4.35-2.007-4.693 0-7.631 3.864-7.631 10.039 0 5.455 2.022 10.607 7.898 10.607 1.641 0 3.319-.871 4.083-1.818h.114v8.22h5.342v-8.22h.115c.762.947 2.441 1.818 4.082 1.818 5.876 0 7.898-5.152 7.898-10.607zm-5.342.114c0 3.22-.801 6.365-3.815 6.365-1.603 0-2.747-.91-2.938-1.895v-8.41c.496-1.553 1.946-2.083 3.09-2.083 2.557 0 3.663 2.235 3.663 6.024zm-12.095 4.47c-.19.985-1.335 1.895-2.938 1.895-3.014 0-3.816-3.144-3.816-6.364 0-3.789 1.107-6.024 3.664-6.024 1.144 0 2.594.53 3.09 2.084v8.41zm39.376-.568h-5.189c-.801 1.97-2.022 2.841-4.006 2.841-2.9 0-4.541-1.818-4.617-5.19h14.117v-.53c0-6.857-3.777-11.175-9.729-11.175-5.723 0-9.882 4.394-9.882 10.456 0 6.136 4.006 10.228 10.072 10.228 4.465 0 8.013-2.387 9.234-6.63zm-5.189-5.758h-8.623c.305-2.727 1.984-4.394 4.388-4.394 2.709 0 4.006 2.008 4.235 4.394zm13.698-7.728h-5.113v26.48h5.38v-9.357c1.45 2.008 3.587 2.917 6.067 2.917 5.151 0 8.546-4.015 8.546-10.152 0-6.29-3.471-10.418-8.775-10.418-2.518 0-4.655.947-6.105 2.954V21.48zm4.769 3.788c2.9 0 4.693 2.273 4.693 6.1 0 3.712-1.755 5.947-4.655 5.947-2.976 0-4.731-2.235-4.731-6.023s1.755-6.024 4.693-6.024zm31.745 15.76c-.725-1.667-.687-3.524-.687-5.304v-8.448c0-5.455-4.616-6.364-8.584-6.364-5.685 0-8.814 2.235-9.119 6.591h5.074c.381-2.235 1.412-2.992 3.892-2.992 2.404 0 3.548.833 3.548 2.614 0 1.59-1.297 1.894-4.807 2.349-3.892.492-8.585 1.098-8.585 6.212 0 3.675 2.671 5.91 7.02 5.91 2.366 0 4.694-.796 6.372-2.462.077.87.115 1.174.382 1.894h5.494zm-5.914-9.509v2.197c0 2.803-1.984 4.357-4.808 4.357-1.869 0-2.976-.985-2.976-2.614 0-2.386 2.099-2.614 3.969-2.917 1.373-.227 2.556-.303 3.815-1.023zM97.405 70.639l-.178.37c-.357.738-.833 1.447-1.577 1.447-.655 0-.997-.148-1.19-.266v1.181c.297.133.833.266 1.31.266 1.04 0 1.918-.59 2.81-2.393l4.121-8.373h-1.503l-3.034 6.41-3.094-6.41h-1.532l3.868 7.768zm13.998 2.747V62.87h-1.398v4.622c-.536.118-1.622.355-2.946.355-2.127 0-2.321-1.241-2.321-2.097v-2.88h-1.398v2.997c0 1.167.476 3.205 3.719 3.205 1.012 0 2.425-.251 2.946-.369v4.682h1.398zm9.668-10.515h-7.333v10.515h7.408v-1.211h-6.01v-3.633h5.549v-1.167h-5.549v-3.294h5.935v-1.21zm3.154 4.253V64.08h5.861v-1.21h-7.259v10.515h4.938c2.068 0 3.258-1.138 3.258-3.116 0-1.994-1.175-3.146-3.258-3.146h-3.54zm5.4 3.145c0 1.285-.774 1.906-2.321 1.906h-3.079v-3.84h3.079c1.562 0 2.321.635 2.321 1.934zm11.781-7.399h-1.398v4.387h-5.593V62.87h-1.399v10.516h1.399v-4.918h5.593v4.918h1.398V62.87zm11.573 0v10.516h1.398V62.87h-1.398zm-1.324 7.4c0-1.994-1.175-3.131-3.258-3.131h-3.242V62.87h-1.399v10.515h4.641c2.068 0 3.258-1.138 3.258-3.116zm-1.413 0c0 1.284-.773 1.905-2.32 1.905h-2.768v-3.84h2.768c1.561 0 2.32.635 2.32 1.934zm12.897-10.162h-.758c-.238.71-.714 1.152-1.488 1.152-.759 0-1.28-.443-1.488-1.152h-.758c.148 1.182 1.026 2.038 2.26 2.038 1.295 0 2.039-.856 2.232-2.038zm-6.426 13.278h1.755l5.206-8.936h.03v8.936h1.398V62.87h-1.77l-5.191 8.906h-.03V62.87h-1.398v10.516zM179.576 76h1.354v-3.826h-1.161V62.87h-1.398v9.304h-5.474V62.87h-1.398v10.516h8.077V76zm10.086-13.13h-7.334v10.516h7.408v-1.212h-6.01v-3.633h5.549v-1.166h-5.549V64.08h5.936v-1.21zm10.144 0h-1.398v4.387h-5.593V62.87h-1.398v10.516h1.398v-4.918h5.593v4.918h1.398V62.87zm9.699 0h-8.509v1.211h3.556v9.305h1.398V64.08h3.555v-1.21zm1.25 0v10.516h1.398v-4.313h2.871c2.067 0 3.614-.797 3.614-3.175 0-2.186-1.502-3.027-3.525-3.027h-4.358zm1.398 1.197h2.499c1.383 0 2.588.236 2.588 1.92 0 1.55-1.041 1.92-2.395 1.92h-2.692v-3.84z" fill="#000"/><path fill-rule="evenodd" clip-rule="evenodd" d="M44.33 63.952l.117 10.58c12.614-5.189 23.185-14.983 25.085-29.735 1.157-16.062-4.414-25.094-12.524-31.526l1.152-5.462-7.095-3.965-3.763 3.82a33.674 33.674 0 00-6.284-1.736l-1.8-5.084-8.142.089-1.246 4.83c-2.322.33-4.574.888-6.756 1.677L19.26 4.19l-7.006 4.12 1.242 4.405C6.861 17.806 1.554 26.603.324 34.784L0 44.89c.065 5.672.167 14.591.174 14.805l9.043-.098c-.022-.428-.203-19.331-.208-19.772-.05-4.559 1.064-8.84 3.35-12.796 2.29-3.966 5.422-7.125 9.386-9.479 3.936-2.345 8.227-3.546 12.86-3.607 4.63-.04 8.948 1.068 12.934 3.326 4.016 2.267 7.212 5.359 9.594 9.271 2.372 3.913 3.583 8.157 3.633 12.72.142 12.87-7.068 20.22-16.436 24.692zm-3.987 10.71l-.117-10.567-4.525.05.117 10.567 4.525-.05zm-8.228.09l-.117-10.567-4.525.05.117 10.567 4.525-.05zm-8.433.093l-.116-10.568-4.525.049.117 10.568 4.524-.05zm-8.08.089l-15.288.167-.117-10.57 15.288-.166.117 10.569z" fill="#4988D1"/></svg>