<?xml version="1.0" encoding="utf-8"?><svg width="22" height="23" fill="none" xmlns="http://www.w3.org/2000/svg" viewBox="0 0 22 23"><path d="M1.605 9.542l15.118-5.858.013-.005c.244-.087.506-.102.757-.042.25.06.48.194.662.384.182.19.31.43.368.691a1.5 1.5 0 01-.042.805l-5.608 15.806a1.413 1.413 0 01-.5.698c-.232.172-.51.263-.795.26h-.026a1.317 1.317 0 01-.805-.284 1.419 1.419 0 01-.484-.73l-.005-.018-1.877-7.008-6.703-1.962-.018-.005a1.377 1.377 0 01-.693-.509 1.485 1.485 0 01-.033-1.684c.165-.248.4-.436.673-.537l-.002-.002zm7.518 3.422a.681.681 0 01.3.184.726.726 0 01.176.314l1.977 7.382.005-.016 5.607-15.797-15.11 5.86-.014.005 7.06 2.068z" fill="#4988D1"/></svg>