<?xml version="1.0" encoding="utf-8"?><svg width="54" height="54" fill="none" xmlns="http://www.w3.org/2000/svg" viewBox="0 0 54 54"><path d="M35.438 27a1.687 1.687 0 01-1.688 1.688h-13.5a1.687 1.687 0 110-3.375h13.5A1.687 1.687 0 0135.438 27zm-1.688 5.063h-13.5a1.687 1.687 0 100 3.374h13.5a1.687 1.687 0 100-3.374zM45.563 8.436v33.75a6.75 6.75 0 01-6.75 6.75H15.186a6.75 6.75 0 01-6.75-6.75V8.438a1.687 1.687 0 011.688-1.687h5.063V5.062a1.687 1.687 0 113.374 0V6.75h6.75V5.062a1.687 1.687 0 113.375 0V6.75h6.75V5.062a1.687 1.687 0 113.376 0V6.75h5.062a1.687 1.687 0 011.688 1.688zm-3.376 1.688h-3.374v1.688a1.687 1.687 0 11-3.376 0v-1.688h-6.75v1.688a1.687 1.687 0 11-3.375 0v-1.688h-6.75v1.688a1.687 1.687 0 11-3.375 0v-1.688h-3.374v32.063a3.375 3.375 0 003.374 3.374h23.626a3.375 3.375 0 003.374-3.374V10.124z" fill="#78213A"/></svg>