<?xml version="1.0" encoding="utf-8"?><svg width="217" height="61" fill="none" xmlns="http://www.w3.org/2000/svg" viewBox="0 0 217 61"><g clip-path="url(#azclip0_2423_2789)"><path d="M67.314 22.62h-1.139v-6.989h1.14l2.34 3.177 2.34-3.177h1.14v6.99h-1.14v-5.338l-2.024 2.67h-.696l-2.024-2.67.063 5.338zM75.981 22.62H74.97v-6.989h1.139v5.147l3.986-5.147h1.012v6.99h-1.139v-5.147l-3.986 5.147zM84.016 22.62h-1.139v-6.989h1.14v2.796h3.795v-2.796h1.139v6.99h-1.139v-3.24h-3.796v3.24zM91.735 22.62h-.95v-6.989h1.14v5.147l3.985-5.147h1.012v6.99h-1.138v-5.147l-4.05 5.147zM102.173 22.748c-1.075 0-2.024-.318-2.72-1.017-.76-.699-1.076-1.588-1.076-2.605 0-1.08.38-1.906 1.076-2.605.759-.699 1.645-1.017 2.72-1.017.76 0 1.392.191 1.962.445v1.08c-.57-.38-1.202-.572-1.962-.572-.759 0-1.391.255-1.898.763-.506.508-.759 1.08-.759 1.843 0 .762.253 1.398.759 1.842.507.509 1.139.763 1.962.763.822 0 1.518-.19 2.087-.636v1.08a3.852 3.852 0 01-2.151.636zM105.21 16.648v-1.017h5.947v1.017h-2.404v6.037h-1.139v-6.037h-2.404zM117.673 22.62h-5.314v-6.989h5.188v1.017h-4.049v1.78h3.289v1.016h-3.289v2.16h4.175v1.017zM120.014 22.62h-1.076v-6.989h3.164c.759 0 1.392.191 1.771.572.443.381.696.89.696 1.462s-.253 1.08-.696 1.525c-.443.38-1.012.572-1.771.572h-2.025v2.859h-.063zm0-5.972v2.097h1.898c.443 0 .759-.127 1.012-.254a.908.908 0 00.38-.763.908.908 0 00-.38-.762c-.253-.19-.569-.254-1.012-.254l-1.898-.064zM129.314 22.748c-1.076 0-2.024-.318-2.72-1.017-.76-.699-1.076-1.588-1.076-2.605 0-1.08.38-1.906 1.076-2.605.759-.699 1.644-1.017 2.72-1.017.759 0 1.392.191 1.961.445v1.08c-.569-.38-1.202-.572-1.961-.572-.759 0-1.392.255-1.898.763s-.759 1.08-.759 1.843c0 .762.253 1.398.759 1.842.506.509 1.139.763 1.961.763.823 0 1.519-.19 2.088-.636v1.08c-.633.446-1.329.636-2.151.636zM132.351 16.648v-1.017h5.947v1.017h-2.405v6.037h-1.138v-6.037h-2.404zM143.043 22.62H139.5v-6.989h3.29c.696 0 1.139.191 1.581.445.38.318.57.763.57 1.271 0 .318-.127.635-.253.89-.19.254-.38.444-.696.508.443.063.822.318 1.075.635.253.318.443.763.443 1.271 0 .572-.253 1.08-.696 1.462-.379.317-.949.508-1.771.508zm-2.404-5.972v1.78h1.961c.38 0 .696-.064.886-.255.19-.19.316-.381.316-.699 0-.318-.126-.508-.316-.699-.19-.19-.506-.254-.886-.254h-1.961v.127zm0 2.732v2.224h2.214c.443 0 .823-.127 1.012-.317.253-.191.38-.445.38-.826 0-.318-.127-.572-.38-.826-.253-.191-.569-.255-1.012-.255h-2.214zM152.975 21.732c-.695.698-1.581 1.016-2.657 1.016-1.075 0-1.961-.318-2.657-1.017-.696-.699-1.012-1.588-1.012-2.605 0-1.016.316-1.906 1.012-2.541.696-.7 1.582-1.08 2.657-1.08 1.076 0 1.962.38 2.657 1.08.696.699 1.076 1.588 1.076 2.541 0 .953-.38 1.906-1.076 2.605zm-4.428-.763c.506.508 1.075.762 1.771.762s1.329-.254 1.772-.762a2.551 2.551 0 00.759-1.843c0-.762-.253-1.398-.759-1.842-.506-.509-1.076-.763-1.772-.763s-1.328.254-1.771.763c-.506.508-.759 1.08-.759 1.842 0 .763.253 1.335.759 1.843zM159.428 22.62h-1.138v-6.989h1.138v2.796h3.796v-2.796h1.139v6.99h-1.139v-3.24h-3.796v3.24zM166.704 22.621h-1.202l3.163-7.053h1.076l3.163 7.053h-1.202l-.822-1.716h-3.417l-.759 1.716zm2.531-5.655l-1.329 2.923h2.657l-1.328-2.923zM175.118 22.748c-.443 0-.822-.064-1.012-.19V21.54c.253.127.506.19.822.19a1.1 1.1 0 00.759-.254c.19-.127.38-.445.633-.953l-2.847-4.956h1.329l2.151 3.812 1.771-3.812h1.202l-2.657 5.528c-.569 1.144-1.265 1.652-2.151 1.652zM182.141 22.62h-1.139v-6.989h1.139v2.86l2.973-2.86h1.455l-3.353 3.177 3.923 3.813h-1.519l-3.416-3.368v3.368h-.063zM189.163 22.62h-.949v-6.989h1.139v5.147l3.985-5.147h1.013v6.99h-1.139v-5.147l-4.049 5.147zM67.188 34.758h-.95v-6.99h1.14v5.147l3.985-5.147h1.013v6.99h-1.14V29.61l-4.048 5.147zM80.41 34.758h-3.543v-6.99h3.29c.696 0 1.139.19 1.582.445.38.318.569.762.569 1.27 0 .318-.127.636-.253.89a.98.98 0 01-.696.509c.443.063.823.317 1.076.635.253.318.442.762.442 1.27 0 .573-.253 1.081-.695 1.462-.443.318-1.013.509-1.772.509zm-2.404-6.037v1.78h1.961c.38 0 .696-.064.886-.255.19-.19.316-.381.316-.699 0-.317-.126-.508-.316-.699-.19-.19-.506-.254-.886-.254h-1.961v.127zm0 2.796v2.224h2.214c.443 0 .823-.127 1.013-.318.253-.19.38-.445.38-.826 0-.318-.127-.572-.38-.826-.254-.19-.57-.254-1.013-.254h-2.214zM87.053 34.758h-2.784v-6.99h1.139v2.415h1.645c.822 0 1.518.19 2.024.635s.76.953.76 1.652c0 .7-.254 1.207-.76 1.652-.57.445-1.202.636-2.024.636zm-1.645-3.559v2.542h1.582c.506 0 .885-.127 1.202-.318.316-.19.442-.508.442-.953 0-.445-.126-.762-.442-.953a2.243 2.243 0 00-1.202-.318h-1.582zm6.453 3.559h-1.139v-6.99h1.139v6.99zM97.112 34.884c-1.076 0-2.025-.317-2.72-1.016-.76-.7-1.076-1.589-1.076-2.606 0-1.08.38-1.906 1.075-2.605.76-.699 1.645-1.016 2.72-1.016.76 0 1.393.19 1.962.444v1.08c-.57-.38-1.202-.571-1.961-.571-.76 0-1.392.254-1.898.762-.506.509-.76 1.08-.76 1.843 0 .762.254 1.398.76 1.843.506.508 1.139.762 1.961.762.823 0 1.519-.19 2.088-.635v1.08c-.633.445-1.329.635-2.151.635zM109.512 34.758h-8.857v-6.99h1.139v6.036h2.72v-6.036h1.139v6.036h2.72v-6.036h1.139v6.99zM116.534 34.758h-5.314v-6.99h5.188v1.017h-4.049V30.5h3.29v1.017h-3.29v2.224h4.175v1.017zM118.939 34.758H117.8v-6.99h5.124v1.017h-3.985v5.973zM129.947 33.868c-.696.699-1.582 1.016-2.657 1.016-1.076 0-1.962-.317-2.658-1.016-.696-.7-1.012-1.589-1.012-2.606 0-1.016.316-1.906 1.012-2.541.696-.7 1.582-1.08 2.658-1.08 1.075 0 1.961.38 2.657 1.08.696.699 1.075 1.588 1.075 2.541 0 .954-.379 1.907-1.075 2.606zm-4.492-.763c.506.509 1.075.763 1.771.763s1.329-.255 1.772-.763a2.55 2.55 0 00.759-1.842c0-.763-.253-1.398-.759-1.843-.506-.509-1.076-.763-1.772-.763s-1.328.255-1.771.763c-.506.508-.759 1.08-.759 1.842.063.763.253 1.335.759 1.843zM141.334 33.868c-.696.699-1.581 1.016-2.657 1.016-1.075 0-1.961-.317-2.657-1.016-.696-.7-1.012-1.589-1.012-2.606 0-1.016.316-1.906 1.012-2.541.696-.7 1.582-1.08 2.657-1.08 1.076 0 1.961.38 2.657 1.08.696.699 1.076 1.588 1.076 2.541 0 .954-.38 1.907-1.076 2.606zm-4.491-.763c.506.509 1.075.763 1.771.763s1.329-.255 1.771-.763c.506-.508.76-1.143.76-1.842 0-.763-.254-1.398-.76-1.843-.506-.509-1.075-.763-1.771-.763s-1.329.255-1.771.763c-.507.508-.76 1.08-.76 1.842.064.763.317 1.335.76 1.843zM146.902 34.758h-3.037v-6.99h5.125v1.017h-3.986v1.461h1.961c.823 0 1.455.19 1.961.636.443.38.76.953.76 1.652s-.253 1.207-.76 1.652c-.506.381-1.202.572-2.024.572zm-1.961-3.495v2.478h1.834a2.24 2.24 0 001.202-.318c.254-.254.443-.508.443-.89 0-.38-.126-.698-.443-.952-.316-.255-.695-.318-1.202-.318h-1.834zM152.026 34.758h-1.138v-6.99h3.1c.759 0 1.392.19 1.771.572.443.381.696.89.696 1.461 0 .572-.253 1.08-.696 1.525-.443.382-1.012.572-1.771.572h-2.025v2.86h.063zm0-6.037v2.097h1.898c.443 0 .76-.127 1.013-.254.253-.127.379-.445.379-.763a.907.907 0 00-.379-.762c-.253-.19-.57-.254-1.013-.254l-1.898-.064zM157.53 34.758h-1.202l3.163-7.053h1.076l3.163 7.053h-1.139l-.822-1.716h-3.416l-.823 1.716zm2.531-5.719l-1.329 2.923h2.657l-1.328-2.923zM167.21 34.884c-1.012 0-1.835-.19-2.531-.571v-1.08c.317.19.696.38 1.139.444.443.127.822.19 1.265.19.57 0 1.076-.126 1.455-.317.38-.254.507-.508.507-.89 0-.317-.19-.571-.507-.826-.316-.19-.759-.317-1.328-.317h-.823V30.5h1.013c.442 0 .822-.127 1.012-.254.253-.19.379-.381.379-.7 0-.317-.126-.507-.442-.698-.253-.19-.696-.254-1.139-.254-.759 0-1.519.19-2.214.508v-1.017c.695-.38 1.455-.508 2.277-.508.823 0 1.455.19 1.898.508.506.318.759.826.759 1.398 0 .382-.126.7-.379.953-.253.255-.506.445-.76.509.38.127.696.318 1.013.635.316.318.443.7.443 1.144 0 .635-.254 1.144-.823 1.589-.633.38-1.328.571-2.214.571zM177.649 33.868c-.696.699-1.582 1.016-2.657 1.016-1.076 0-1.962-.317-2.657-1.016-.696-.7-1.013-1.589-1.013-2.606 0-1.016.317-1.906 1.013-2.541.695-.7 1.581-1.08 2.657-1.08 1.075 0 1.961.38 2.657 1.08.696.699 1.075 1.588 1.075 2.541 0 .954-.379 1.907-1.075 2.606zm-4.492-.763c.506.509 1.075.763 1.771.763s1.329-.255 1.772-.763a2.55 2.55 0 00.759-1.842c0-.763-.253-1.398-.759-1.843-.506-.445-1.076-.763-1.772-.763s-1.328.255-1.771.763c-.506.508-.759 1.08-.759 1.842.063.763.316 1.335.759 1.843zM183.722 34.758h-3.543v-6.99h3.29c.696 0 1.139.19 1.582.445.379.318.569.762.569 1.27 0 .318-.127.636-.253.89-.19.254-.38.445-.696.509a1.71 1.71 0 011.076.635c.253.318.442.762.442 1.27 0 .573-.253 1.081-.695 1.462-.443.318-1.076.509-1.772.509zm-2.467-6.037v1.78h1.961c.38 0 .696-.064.886-.255.189-.19.316-.381.316-.699 0-.317-.127-.508-.316-.699-.19-.19-.506-.254-.886-.254h-1.961v.127zm0 2.796v2.224h2.214c.443 0 .822-.127 1.012-.318.253-.19.38-.445.38-.826 0-.318-.127-.572-.38-.826-.253-.19-.569-.254-1.012-.254h-2.214zM188.024 34.758h-1.202l3.164-7.053h1.075l3.163 7.053h-1.202l-.822-1.716h-3.417l-.759 1.716zm2.531-5.719l-1.329 2.923h2.657l-1.328-2.923zM196.565 34.758h-1.139v-6.99h1.139V30.5h3.796v-2.795h1.139v6.99h-1.139v-3.242h-3.796v3.305zM204.22 34.758h-.949v-6.99h1.139v5.147l3.985-5.147h1.013v6.99h-1.139V29.61l-4.049 5.147zM211.939 34.758h-1.392l2.341-3.05c-.506-.127-.886-.318-1.202-.7-.317-.317-.443-.762-.443-1.207 0-.571.19-1.08.632-1.461.443-.381 1.013-.509 1.772-.509h3.29v6.99h-1.139v-3.05h-1.708l-2.151 2.987zm1.771-3.94h2.151v-2.097h-2.151c-.379 0-.759.127-.949.254-.253.19-.316.445-.316.763 0 .317.126.572.316.762.253.19.57.318.949.318zM67.314 46.894h-1.139v-6.99h3.164c.759 0 1.391.19 1.771.572.443.381.696.89.696 1.462s-.253 1.08-.696 1.525c-.443.38-1.012.572-1.771.572h-2.025v2.859zm0-6.037v2.097h1.898c.443 0 .76-.127 1.012-.254a.907.907 0 00.38-.762.907.907 0 00-.38-.763c-.253-.19-.57-.254-1.012-.254l-1.898-.064zM79.145 45.941c-.696.699-1.582 1.017-2.657 1.017-1.076 0-1.962-.318-2.657-1.017-.696-.699-1.013-1.589-1.013-2.605 0-1.017.317-1.907 1.013-2.542.695-.699 1.581-1.08 2.657-1.08 1.075 0 1.961.381 2.657 1.08.696.699 1.075 1.589 1.075 2.542 0 1.016-.38 1.906-1.075 2.605zm-4.429-.763c.506.509 1.076.763 1.772.763s1.328-.254 1.771-.763a2.55 2.55 0 00.76-1.842c0-.7-.254-1.398-.76-1.843-.506-.508-1.075-.763-1.771-.763s-1.329.255-1.772.763c-.506.508-.759 1.08-.759 1.843 0 .762.253 1.398.76 1.842zM85.281 47.021c-1.075 0-2.024-.318-2.72-1.017-.76-.698-1.076-1.588-1.076-2.605 0-1.08.38-1.906 1.076-2.605.759-.699 1.645-1.017 2.72-1.017.76 0 1.392.191 1.962.445v1.08c-.57-.38-1.203-.572-1.962-.572-.759 0-1.392.255-1.898.763s-.759 1.08-.759 1.843c0 .762.253 1.398.76 1.842.505.509 1.138.763 1.96.763.823 0 1.519-.19 2.088-.636v1.08c-.632.446-1.328.636-2.15.636zM92.177 47.021c-1.075 0-2.024-.318-2.72-1.017-.76-.698-1.076-1.588-1.076-2.605 0-1.08.38-1.906 1.076-2.605.759-.699 1.645-1.017 2.72-1.017.76 0 1.392.191 1.961.445v1.08c-.569-.38-1.202-.572-1.96-.572-.76 0-1.393.255-1.899.763s-.759 1.08-.759 1.843c0 .762.253 1.398.76 1.842.505.509 1.138.763 1.96.763.823 0 1.519-.19 2.088-.636v1.08a3.854 3.854 0 01-2.15.636zM96.606 46.894h-.95v-6.99h1.14v5.147l3.985-5.147h1.012v6.99h-1.138v-5.147l-4.05 5.147zM104.514 46.894h-.949v-6.99h1.139v5.147l3.985-5.146h1.013v6.99h-1.139v-5.148l-4.049 5.147zm2.088-7.498c-.506 0-1.013-.19-1.329-.445a1.631 1.631 0 01-.506-1.207h.949c0 .254.063.445.253.572.19.19.38.254.633.254s.506-.063.632-.254a.777.777 0 00.253-.572h.949c0 .508-.189.89-.506 1.207-.316.318-.759.445-1.328.445zM114.953 47.021c-1.076 0-2.025-.318-2.721-1.017-.759-.698-1.075-1.588-1.075-2.605 0-1.08.379-1.906 1.075-2.605.759-.699 1.645-1.017 2.721-1.017.759 0 1.391.191 1.961.445v1.08c-.57-.38-1.202-.572-1.961-.572-.76 0-1.392.255-1.898.763s-.759 1.08-.759 1.843c0 .762.253 1.398.759 1.842.506.509 1.138.763 1.961.763.822 0 1.518-.19 2.088-.636v1.08c-.633.446-1.329.636-2.151.636zM119.634 46.894h-1.138v-6.99h1.138v2.86l2.974-2.86h1.455l-3.353 3.177 3.922 3.813h-1.581l-3.417-3.368v3.368zM131.022 45.941c-.696.699-1.581 1.017-2.657 1.017-1.075 0-1.961-.318-2.657-1.017-.696-.699-1.012-1.589-1.012-2.605 0-1.017.316-1.907 1.012-2.542.696-.699 1.582-1.08 2.657-1.08 1.076 0 1.961.381 2.657 1.08.696.699 1.076 1.589 1.076 2.542-.063 1.016-.38 1.906-1.076 2.605zm-4.492-.763c.507.509 1.076.763 1.772.763s1.328-.254 1.771-.763c.506-.508.76-1.143.76-1.842 0-.7-.254-1.398-.76-1.843-.506-.508-1.075-.763-1.771-.763s-1.329.255-1.772.763c-.506.508-.759 1.08-.759 1.843.064.762.253 1.398.759 1.842zM134.502 46.894h-1.012v-6.99h1.139v5.147l3.985-5.146h1.012v6.99h-1.138v-5.148l-3.986 5.147zm2.024-7.498c-.506 0-1.012-.19-1.328-.445a1.631 1.631 0 01-.506-1.207h.949c0 .254.063.445.253.572a.81.81 0 00.632.254c.254 0 .507-.063.633-.254a.777.777 0 00.253-.572h.949c0 .508-.19.89-.506 1.207-.38.318-.759.445-1.329.445zM148.547 47.085h-1.139v-.763c-1.139-.063-2.024-.317-2.657-.89-.569-.571-.886-1.27-.886-2.096 0-.381.064-.763.253-1.08.127-.382.38-.7.633-.953.253-.318.696-.509 1.139-.7.443-.19 1.012-.254 1.581-.317v-.7h1.139v.7c.57 0 1.076.127 1.582.254.443.19.822.381 1.139.699.316.318.506.572.632.953.127.381.253.763.253 1.08 0 .318-.063.763-.253 1.08-.19.318-.379.7-.632.954-.317.317-.696.508-1.139.699-.443.19-1.012.254-1.582.254l-.063.826zm-1.139-1.716v-4.13c-.759 0-1.392.19-1.771.572-.38.381-.57.89-.57 1.461 0 .572.19 1.08.57 1.462.379.381 1.012.572 1.771.635zm1.139-4.13v4.13c.822 0 1.392-.19 1.771-.572.38-.38.57-.89.57-1.461 0-.572-.19-1.08-.57-1.462-.379-.444-1.012-.635-1.771-.635zM158.732 46.894h-5.314v-6.99h5.188v1.017h-4.049v1.78h3.29v1.016h-3.29v2.224h4.175v.953zM160.757 48.355h-1.075v-2.478h.696c.379-.572.695-1.207.822-1.97.19-.762.253-1.779.253-3.05v-.953h4.808v6.037h1.012v2.478h-1.075v-1.525h-5.504l.063 1.461zm.823-2.541h3.542v-5.02h-2.593c0 1.144-.064 2.16-.253 2.923-.064.89-.317 1.588-.696 2.097zM173.789 46.894h-5.314v-6.99h5.188v1.017h-4.049v1.78h3.29v1.016h-3.29v2.224h4.175v.953zM176.193 46.894h-1.138v-6.99h3.163c.759 0 1.392.19 1.771.572.443.381.696.89.696 1.462s-.253 1.08-.696 1.525c-.442.38-1.012.572-1.771.572h-2.025v2.859zm0-6.037v2.097h1.898c.443 0 .76-.127 1.013-.254a.907.907 0 00.379-.762.907.907 0 00-.379-.763c-.253-.19-.57-.254-1.013-.254l-1.898-.064zM181.698 46.894h-1.202l3.163-7.053h1.075l3.164 7.053h-1.202l-.823-1.716h-3.416l-.759 1.716zm2.53-5.719l-1.328 2.923h2.657l-1.329-2.923zM195.996 48.355h-1.076V46.83h-5.82v-6.99h1.138v6.037h3.543v-6.036h1.139v6.036h1.012v2.478h.064zM198.147 46.894h-.949v-6.99h1.139v5.147l3.985-5.147h1.012v6.99h-1.138v-5.147l-4.049 5.147zM206.055 46.894h-.949v-6.99h1.139v5.147l3.985-5.147h1.013v6.99h-1.139v-5.147l-4.049 5.147z" fill="#fff"/><path d="M42.704 45.496c-.19 0-.316.127-.316.317s.126.318.316.318.316-.127.316-.318c0-.127-.126-.317-.316-.317zM43.78 48.61c0 .19.126.317.316.317s.316-.127.316-.318c0-.19-.126-.318-.316-.318s-.316.128-.316.318zM42.704 48.291c-.19 0-.316.128-.316.318s.126.318.316.318.316-.127.316-.318c0-.19-.126-.318-.316-.318zM45.171 48.61c0 .19.127.317.317.317s.316-.127.316-.318c0-.19-.127-.318-.316-.318-.19 0-.317.128-.317.318zM42.261 42.382l.063.826-.696-.063v.89l.696-.128-.063.826h.886l-.063-.826.695.127v-.89l-.696.064.064-.826h-.886zM43.273 45.242v2.86h2.72a3.368 3.368 0 00-2.72-2.86zM42.704 46.894c-.19 0-.316.127-.316.317s.126.318.316.318.316-.127.316-.318c0-.19-.126-.317-.316-.317zM43.843 50.516c-.063 0-.316.699-.063 1.207.126.254.38.381.632.318.253-.064.317-.318.317-.445-.064-.572-.506-1.08-.886-1.08zM41.565 50.516c-.38 0-.822.508-.822 1.08 0 .19.063.381.316.445.253.063.506-.064.633-.318.126-.508-.064-1.207-.127-1.207zM42.704 50.134c-.253 0-1.012 1.462-.443 2.16.127.128.253.191.443.191s.38-.063.443-.19c.506-.7-.19-2.16-.443-2.16z" fill="#4988D1"/><path d="M39.351 48.61c0-.318.063-.573.063-.573h2.72v-2.859a3.473 3.473 0 00-2.72 2.605c-.063.127-.316.19-.506.127-1.012-.127-3.037-.508-3.037-.953 0-.635.443-.89.823-.89.57 0 1.202.318 1.708-.444-1.835.063-.443-2.605-1.961-3.114.063.7 0 1.907-.253 2.542 0 0-.57-.572-1.14-.826.064.508-.062 1.525-.252 2.033 0 0-.633-.635-1.329-.826.633.89.633 2.224.443 2.987-.063.254.127.508.57.508.759-.064 3.29.063 4.365.508.316.127.633.318.759.572.127.318.38.826.76 1.08.189-.572.822-1.207 1.265-1.143.126 0 .253.254.316.444.063-.19.38-.762.696-.762.316 0 .632.445.759.826.063-.254.19-.508.316-.508.443 0 1.012.38 1.202 1.08.19-.19.95-1.207 1.013-1.906h-6.58v-.509z" fill="#4988D1"/><path d="M40.996 48.61c0 .19.127.317.316.317.19 0 .317-.127.317-.318 0-.19-.127-.318-.317-.318s-.316.128-.316.318zM39.667 48.61c0 .19.127.317.317.317s.316-.127.316-.318c0-.19-.126-.318-.316-.318s-.317.128-.317.318zM13.476 50.007c-.127.127-.38.826-.254 1.271.064.19.127.254.317.254s.253-.127.316-.317c.063-.445-.253-1.144-.38-1.208zM15.816 51.977c-.126.19-.316.254-.38.318.064.063.254.19.443.19a.482.482 0 00.317-.127c.19-.381 0-.699-.064-.826-.063.127-.126.318-.316.445zM14.93 51.087c.254-.254.317-.444.254-.571-.064-.191-.633-.763-1.266-1.462 0 .127-.063.254-.063.381.443.636.633 1.271.506 1.843.063.064.063.064.127.064.126.127.316-.064.443-.255zM15.816 51.151c0-.127 0-.19-.063-.254h-.063c-.064 0-.127.127-.19.19-.063.064-.127.191-.253.318l-.316.318c-.127.064-.19.19-.19.254v.064c.063.063.063.063.126.063s.253-.063.57-.381c.316-.318.38-.445.38-.572zM11.64 47.783s-.063.064-.126.191c.127 0 .317 0 .443.064v-.445c-.127 0-.253.127-.316.19z" fill="#4988D1"/><path d="M13.349 47.974s1.329 1.144 1.771 1.588c.127.127.254.127.38.064.063-.064.19-.064.316-.127 1.329-.445 3.48-.509 4.24-.509.505 0 .632-.254.569-.508-.127-.762-.19-2.097.442-2.986-.695.254-1.328.826-1.328.826-.253-.445-.317-1.525-.253-2.034-.633.191-1.139.826-1.139.826-.253-.635-.316-1.842-.253-2.541-1.518.508-.127 3.24-1.961 3.113.506.763 1.139.445 1.708.445.38 0 .886.254.822.89-.063.444-2.53.953-3.543.953-.695 0-1.202-.19-1.518-.7-.19-.253-.316-.317-.506-.317-.253.064-.506.254-.506.89 0 .381.19 1.27.633 1.27.253.064.253-.698.126-1.143zM10.818 47.593h.19c-.19.254-.19.444-.126.508.126.127.19-.127.506-.445s.506-.445.442-.572c-.063-.063-.253-.063-.506.127 0-.063.064-.127 0-.19-.126-.318-.57-.7-.885-.7h-.127c.127-.19.063-.317 0-.444-.063-.064-.127 0-.253.127 0-.064 0-.19-.063-.318-.38-.635-2.53-2.669-3.037-2.86-.316-.126-.38.064-.38.064s-.19.127-.063.382c.19.508 2.278 2.605 2.847 2.986.127.064.253.127.316.064-.126.127-.19.127-.063.254.063.063.19.127.38 0v.127c.126.254.506.762.822.89zM12.337 49.118c0-.19-.38-.572-.886-.572-.696 0-1.012.445-1.012.699 0 .445.443.508.57.508.442 0 1.265-.508 1.328-.635zM11.704 50.198c-.19.254-.253.508-.19.699.064.254.317.381.57.381a.778.778 0 00.633-.317c.252-.445.252-1.398.19-1.462-.254 0-.886.254-1.203.699zM5.504 40.285c-.19-.19-.632.128-.885-.063.126-.636.569 0 .949-.381.19-.191.063-.445 0-.509-.19.19-.443.127-.507 0 .443-1.143-.442-2.35-1.328-2.224.19.255.253 1.08.126 1.271.317.254.127.826-.253.636-.253-.127-.696-.763-.19-1.144 0-.19-.316-.19-.569.19.19-.699-1.139-.508-1.392-.317-.126.318-.316 1.652.38 1.398-.38.317-.316.635-.19.635.443-.508 1.012-.127 1.139.127.19.381-.38.636-.633.318-.19.063-1.012.063-1.202-.127-.126.89 1.139 1.843 2.215 1.334.126 0 .19.318 0 .508.063.128.38.191.506 0 .442-.444-.19-.89.38-1.016.126.254-.127.699.062.89.317.317.696-.318 1.14-.318 0-.509.569-.89.252-1.208zm-3.29-1.461s-.19-.127.064-.445c.253-.254.38-.063.38-.063s.252.508.316.762c-.253 0-.76-.254-.76-.254zm2.025 1.589c-.127 0-.443.317-.57.127l-.695-.7.38-.38.379-.382.696.7c.063.19-.19.507-.19.635zM5.694 41.556c-.063 0-.127 0-.19.064-.063.063-.063.19-.063.317 0 .128.126.255.253.382.063.19.253.254.38.254.063 0 .126 0 .19-.064.126-.127.063-.508-.127-.699-.127-.127-.316-.254-.443-.254z" fill="#4988D1"/><path d="M3.67 39.46l-.19.19-.19.19s.38.51.696.318c.19-.317-.316-.699-.316-.699zM40.616 37.553c0 .127-.506.382-.886-.317-.38-.064-.759-.191-1.012-.318.443.89.823 1.652 1.455 2.033.95.572 2.404.445 2.847-.19-.822-.445-1.771-1.589-2.277-2.67-.127.255-.317.7-.443 1.017.063.128.19.318.316.445zM49.41 23.637c1.013-.445 2.468-1.461 3.164-2.097.063.128.316.7-.443 1.335-.57.445-1.708 1.017-2.53 1.334-.38.572-1.14 1.207-2.152 1.906 2.025-.317 4.429-1.143 5.63-2.287 2.215-2.224 1.076-4.893.76-5.528-1.455 1.842-4.239 3.749-6.833 4.765.886.127 1.772.318 2.404.572zM47.766 19.57c1.328-1.08 2.72-3.24 2.973-4.002.316.19.443.825.063 1.525-.696 1.207-1.961 2.287-3.036 3.177-.064.762-.38 1.715-.76 2.414 1.582-1.08 3.417-2.669 4.24-3.749 1.075-1.398 1.517-2.796 1.328-4.194.063-1.588-1.076-3.177-1.519-3.558-.316 1.716-2.024 4.639-3.542 6.29.126.573.253 1.399.253 2.098zM46.753 29.61c.316.382.633.826.886 1.208 1.202.254 2.657.19 2.657.19s-.063.636-.886.7c-.38 0-1.518-.191-1.961-.318-.19.063-1.075.317-1.961.444 1.265.445 3.1.89 4.239.89h.316c1.835-.19 2.784-1.906 2.847-2.86-.57.128-1.519.191-2.468.191-.885 0-2.467-.063-3.669-.445zM54.408 24.781c-1.645.89-4.555 1.78-6.896 1.78.57.38 1.139.762 1.518 1.143.95-.063 2.278-.381 3.037-.635 0 .127 0 .762-.886 1.016-.632.191-1.518.191-2.214.191-.57.381-1.392.699-2.088.953a23.06 23.06 0 002.151.127c1.203 0 2.341-.127 3.037-.381.633-.19 2.72-1.08 2.341-4.194zM45.551 33.55c.696.318 1.455.572 2.088.636 0 0-.127.635-1.076.508-.57-.064-1.202-.509-1.328-.572-.443.063-1.329.063-1.645 0 1.075.763 2.72 1.652 4.112 1.78h.19c1.455 0 2.594-1.462 2.91-2.161-1.455 0-3.986-.636-5.504-1.462.063.254.19.763.253 1.271zM43.02 35.52c.38.444 1.012.699 1.012.699s-.19.317-.569.317c-.126 0-.253-.063-.38-.127-.252-.127-.632-.572-.632-.572-.506-.063-.95-.127-1.392-.254.76.953 2.025 2.16 3.416 2.478.19.064.38.064.633.064 1.202 0 2.214-.89 2.467-1.462-1.391-.19-3.416-1.27-4.428-2.287 0 .381-.063.826-.127 1.144zM33.974 51.087c.696 0 1.139-.254 1.455-.953-.95.445-1.961.19-3.86-.381 0 0-.695.318-1.138.381 1.139.318 2.784.89 3.037 1.525.126.508-.19.636-.19.636-.633-.763-1.392-1.208-3.037-1.716 0 .318-.063.508-.063.508s-.317.064-1.076-.063c.633.508 2.151 1.843 2.341 3.24.127.953-.57 1.017-.57 1.017-.063-1.461-.695-2.351-2.087-3.812 0 0-.253.317-.506.508 0 0-.506-.064-.886-.381.19 1.906.253 6.48.127 7.18a1.21 1.21 0 01-.38.762s-.316-.19-.38-.762c-.126-.763 0-5.338.127-7.18-.443.254-.886.38-.886.38-.316-.19-.506-.507-.506-.507-1.328 1.461-1.961 2.414-2.088 3.812 0 0-.632-.063-.569-1.017.19-1.398 1.708-2.732 2.34-3.24-.695.127-1.075.063-1.075.063s-.063-.19-.063-.508c-1.645.508-2.34.953-3.037 1.716 0 0-.316-.064-.19-.636.254-.635 1.898-1.144 3.037-1.525-.38-.063-1.139-.381-1.139-.381-1.834.572-2.91.826-3.859.381.253.7.76.953 1.455.953-.885.318-1.708 1.208-1.96 2.097.632 2.351 2.656 3.05 2.656 3.05-.506-1.144-.316-3.367 2.72-4.892-1.834 1.842-2.593 3.558-2.087 5.146.443 1.462 1.961 2.034 3.037 2.097-.76-2.414-.443-4.638 1.202-6.354-.696 1.906-1.708 7.816 1.139 8.769 2.846-.953 1.834-6.863 1.138-8.769 1.645 1.78 1.962 3.94 1.202 6.354 1.14 0 2.594-.635 3.037-2.097.506-1.588-.19-3.304-2.088-5.146 3.037 1.525 3.227 3.812 2.72 4.892 0 0 2.025-.699 2.658-3.05 0-.89-.886-1.715-1.708-2.097zM14.361 38.951c.633-.381 1.012-1.144 1.455-2.033a3.806 3.806 0 01-1.012.318c-.38.699-.886.444-.886.317.127-.127.253-.317.317-.444a16.203 16.203 0 00-.443-1.017c-.506 1.144-1.519 2.224-2.278 2.669.443.635 1.898.762 2.847.19zM7.022 26.116c-1.075-.7-1.771-1.334-2.15-1.906-.886-.318-2.025-.89-2.531-1.335-.76-.635-.506-1.207-.443-1.334.633.699 2.088 1.652 3.163 2.097.633-.254 1.519-.445 2.404-.572-2.594-.953-5.377-2.923-6.832-4.702-.317.572-1.519 3.304.759 5.528 1.139 1.08 3.606 1.906 5.63 2.224zM7.465 22.62c-.38-.698-.696-1.588-.759-2.414C5.631 19.38 4.43 18.3 3.67 17.03c-.38-.699-.253-1.334.064-1.525.253.763 1.644 2.923 2.973 4.003 0-.699.127-1.525.316-2.097-1.518-1.652-3.29-4.575-3.542-6.29-.443.38-1.582 1.97-1.519 3.558-.19 1.398.253 2.796 1.329 4.194.759 1.08 2.594 2.732 4.175 3.749zM6.833 30.818c.19-.382.57-.826.885-1.208-1.202.318-2.783.382-3.606.382-1.012 0-1.96-.064-2.467-.191.063 1.017 1.012 2.732 2.847 2.86h.316c1.14 0 2.974-.445 4.24-.89-.887-.127-1.772-.318-1.962-.445-.506.254-1.645.445-2.025.381-.822-.063-.885-.699-.885-.699s1.455.064 2.657-.19zM2.404 29.038c.696.255 1.772.382 3.037.382.76 0 1.518-.064 2.15-.127-.695-.255-1.517-.572-2.087-.953-.696 0-1.645-.064-2.214-.191-.886-.254-.886-.89-.886-1.017.76.318 2.088.636 3.037.636.38-.318.886-.763 1.518-1.144-2.277 0-5.25-.89-6.896-1.78-.38 3.05 1.709 3.94 2.341 4.194zM6.643 35.837h.19c1.391-.127 3.036-1.016 4.112-1.779-.317.064-1.266.064-1.645 0-.127.127-.823.508-1.329.572-1.012.127-1.075-.508-1.075-.508.632-.064 1.392-.318 2.087-.636.064-.508.19-1.016.317-1.334-1.582.89-4.112 1.525-5.568 1.525.317.699 1.456 2.16 2.91 2.16zM9.363 38.125c.19 0 .443 0 .633-.064 1.329-.317 2.657-1.525 3.416-2.478-.443.127-.885.254-1.392.254 0 0-.316.382-.632.572-.127.064-.253.127-.38.127-.38 0-.57-.317-.57-.317s.633-.318 1.013-.7a6.319 6.319 0 01-.126-1.143c-1.076 1.08-3.037 2.097-4.429 2.288.253.571 1.202 1.46 2.467 1.46zM26.698 3.368a.5.5 0 00.506.508c.253 0 .506-.254.506-.508a.5.5 0 00-.506-.509c-.253-.063-.506.191-.506.509zM26.888 2.224h.696l-.064-.89.76.127V.762l-.76.064.064-.826h-.696l.063.826-.76-.064v.7l.76-.128-.063.89zM24.42 10.611c.064 0 .19.064.253.064h5.062c.126 0 .19 0 .253-.064.19-.063.253-.19.316-.381h-6.2c.063.254.19.318.316.381zM29.988 9.85c.063 0 .063-.064.063-.064v-.382c0-.063-.063-.063-.063-.063h-5.504c-.064 0-.064.063-.064.063v.382c0 .063.064.063.064.063h5.504zM30.557 8.896c.127-.191.823-1.525.823-2.923 0-1.271-1.582-1.97-2.467-1.97-.127 1.78-.823 4.575-1.709 4.575-.822 0-1.581-2.796-1.708-4.575-.949 0-2.467.699-2.467 1.97 0 1.398.696 2.796.822 2.923h6.706z" fill="#4988D1"/><path d="M27.204 7.689c.443 0 .95-1.335 1.139-2.67 0-.253-.443-.635-1.139-.698-.696 0-1.139.381-1.139.699.19 1.207.76 2.669 1.14 2.669zM35.239 28.53c0-.19-.127-.318-.317-.318H19.55c-.19 0-.317.128-.317.318V39.27s0 .572.253 1.207c.317.762 1.645 2.033 3.29 2.923 2.341 1.207 3.733 2.16 4.429 2.732.696-.572 2.088-1.525 4.428-2.732 1.709-.89 2.974-2.16 3.29-2.923.317-.699.253-1.207.253-1.207l.064-10.739zm-5.188 3.876v.064c.19.762.38 1.588.443 2.35a20.745 20.745 0 011.708 1.526c.949-1.08 1.455-2.097 1.455-2.923a.84.84 0 01-.822-.826c0-.19.063-.318.126-.445-.443-.19-.949-.254-1.392-.254-.38 0-.759.063-1.202.127h-.063l-.127.063.064-.063c.063-.127.063-.19.126-.318 1.265-.254 2.278-.127 2.91.254.127-.063.253-.127.38-.127a.84.84 0 01.822.826c0 .318-.19.572-.443.7 0 .889-.506 2.033-1.581 3.303l.19.191.126.127v.064l-.19.19h-.063-.063c-.063-.063-.063-.063-.063-.127-.064-.063-.064-.127-.127-.19l-.38.38-.126.191c-.19.128-.38.191-.506.128h-.063l.063-.064c.316-.254.57-.572.822-.762-.38-.445-.885-.89-1.392-1.335.064.445.064.89.064 1.334 0 .382 0 .827-.064 1.271-.063.064-.19.127-.253.191l-.063.063v-.063c.063-.508.063-1.017.063-1.462v-.571c0-.318-.063-1.208-.126-1.78-.063-.508-.19-1.016-.316-1.525v-.063l.19-.19-.127-.255zm-5.188-1.144c.633-1.525 1.518-2.35 2.404-2.35.886 0 1.771.825 2.404 2.35v.064h-.063c-.063 0-.127.064-.253.127h-.063v-.063c-.57-1.335-1.329-2.097-2.088-2.097-.76 0-1.518.762-2.088 2.097v.063h-.063c-.063-.127-.19-.127-.19-.19zm-.253.382c.19.127.76.444 1.392.254.57-.19 1.202-.19 1.202-.19s.696 0 1.202.19c.633.19 1.202-.127 1.392-.254.063 0 .063 0 .063.063-.063.254-.253.89-1.202 1.144-.886.19-1.329 1.207-1.455 1.652 0 .064-.063.064-.127 0-.126-.445-.57-1.461-1.455-1.652-.949-.19-1.139-.89-1.202-1.144.127-.063.19-.063.19-.063zm1.518 2.541c.127 0 .317-.063.443-.127.063.127.127.318.19.445-.19.127-.38.19-.633.19a1.204 1.204 0 01-1.202-1.207c0-.19.064-.317.127-.444.126.063.253.127.443.19-.064.064-.064.19-.064.254-.063.382.317.7.696.7zm-.316-.762v-.127c.19.063.38.254.506.381-.063.063-.126.063-.19.063-.19 0-.316-.127-.316-.317zm.316 1.652c.253 0 .57-.064.823-.254.063.063.19.317.253.317.126 0 .19-.254.253-.317.253.127.57.254.822.254.443 0 .823-.19 1.14-.445v.064c.126.508.189 1.143.126 1.398 0 .254-.127.508-.19.762-.127.318-.19.572-.19.572s0 .063-.063.19c-.064.255-.253.7-.506 1.144-.506-.317-1.013-.444-1.645-.444-.57 0-1.076.127-1.519.38-.19-.444-.38-.825-.442-1.016-.064-.127-.064-.19-.064-.19s-.126-.255-.253-.636a2.296 2.296 0 01-.126-.699c0-.19-.064-.826.126-1.398 0-.063.064-.127.064-.19.442.254.949.508 1.391.508zm2.215-.89c.442 0 .759-.317.759-.762 0-.127 0-.19-.064-.254.127-.064.317-.127.443-.191.064.127.127.318.127.445 0 .699-.57 1.207-1.202 1.207-.253 0-.443-.063-.633-.19.064-.128.127-.255.19-.445.063.127.253.19.38.19zm-.19-.508a.985.985 0 01.506-.381v.127c0 .19-.127.317-.316.317-.064 0-.127 0-.19-.063zm-7.339-1.78c.19 0 .316.064.443.128.443-.254.949-.381 1.645-.381.38 0 .759.063 1.202.127h.063c0 .063.063.19.127.317l.063.064-.127-.064h-.126c-.38-.063-.76-.127-1.139-.127-.443 0-1.012.064-1.392.318.064.127.127.254.127.445a.84.84 0 01-.823.826c0 .762.506 1.78 1.455 2.923.506-.508 1.076-1.08 1.709-1.525.063-.763.253-1.589.442-2.351v-.064l.064.064.19.19.063.064v.063c-.127.509-.253.954-.317 1.462v.064c-.063.38-.126.89-.126 1.397 0 .382-.063.7-.063.953 0 .382 0 .763.063 1.271v.064h-.063c-.127-.064-.19-.064-.253-.064h-.064v-.063c0-.318-.063-.763-.063-1.207 0-.445 0-.89.063-1.335-.506.445-1.012.89-1.392 1.334.317.382.76.763 1.266 1.208l.063.063h-.063a.539.539 0 01-.443 0c-.38-.38-.696-.635-1.012-.953-.064.064-.127.127-.127.19l-.063.064c-.063 0-.127.064-.253.127l-.063-.063s-.064 0-.064-.064h-.063V37.3c.127-.19.253-.318.38-.445-1.076-1.207-1.582-2.351-1.582-3.24a.781.781 0 01-.443-.7c-.126-.635.253-1.016.696-1.016zm8.984 9.85c-.443 1.27-1.076 2.16-1.772 2.541-.063.382-.38.7-.759.7-.38 0-.696-.318-.76-.7-.695-.38-1.328-1.207-1.77-2.478v-.063l.38-.127v.063c.379 1.08.885 1.843 1.454 2.224.127-.317.38-.572.76-.572.379 0 .632.255.759.509.569-.382 1.075-1.144 1.455-2.16v-.064h.063c0 .063.063.063.19.127zm-3.227-.064c0-.254.063-.953.19-1.207.127-.064.316-.127.506-.127s.38.063.57.19c.063.255.19.89.19 1.144 0 .254-.633.445-.697.509-.19-.064-.759-.191-.759-.509zm8.098-2.541c-.063.063-.126.127-.19.127-.063 0-.126.063-.253.063h-.063c-.127 0-.253 0-.316-.063-.064 0-.064-.064-.127-.064-.19 0-.633.127-.759.19.063 0 .633.064 1.012.382.19.127.57.19.696.19 0 .064-.633.509-1.834.255l-.317-.064a7.268 7.268 0 00-1.645-.19c.063 0 .127.063.127.063.126.064.316.127.443.19 0 0 .063 0 .063.064h.063c.063 0 .127 0 .127.064.063 0 .126.063.19.063.063.064.19.127.19.191s.063.064.063.127c0 .127 0 .19-.064.318-.19.254-.443.254-.696 0l-.063-.064a.878.878 0 01-.19-.254v-.063h-.063c-.127-.064-.19-.191-.316-.191-.19-.064-.443-.127-.633-.19h-.19c.19.126.38.253.443.38v.064c.127.19.127.381.19.572.19.381.253.445.443.572-.19.063-1.139.063-1.582-.636 0 0-.063-.063-.063-.127-.127-.254-.19-.508-.253-.699-.064-.19.063-.38-.064-.444-.126-.064-.19 0-.19 0l-.063.063v.064c0 .063-.063.063-.063.063v.064s0 .063-.063.063h-.19-.063s-.063 0-.063.064c-.064 0-.127.063-.19.063s-.127-.063-.127-.127v-.127H27.9c-.063 0-.063 0-.127-.063v-.127-.064c-.063.064-.063.064-.126.064h-.127c-.063 0-.063-.064-.063-.128v-.063-.064h-.127c-.063 0-.19-.063-.253-.063h-.063c-.063 0-.19.063-.253.063h-.127v-.063-.064l.064-.063v-.064h-.127v.064h-.063v.127c0 .063 0 .127-.063.127-.064.063-.064.063-.127 0 0 0-.063 0-.063-.064 0 0-.063 0-.063-.063 0 0 0 .063.063.063v.127c-.063.064-.063.064-.127.064h-.126c0 .064.063.064 0 .127 0 .064-.063.064-.127.064h-.126-.127l-.063-.064h-.127s-.063 0-.063-.063l-.063-.064v-.064c-.127-.127-.316.318-.316.318-.57 1.207-1.962 1.462-1.962 1.398 0 0 .317-.127.443-.572.064-.254.064-.317.19-.572 0-.063.063-.063.063-.127.064-.127.253-.19.38-.317h-.19c-.19.063-.38.063-.633.19-.126.064-.19.127-.316.19h-.063v.064c0 .064-.064.127-.127.255l-.063.063c-.253.254-.443.254-.696 0l-.063-.063a.194.194 0 010-.255c0-.063.063-.127.126-.19.064-.064.127-.064.19-.127.063-.064.127-.064.19-.064s.063 0 .127-.063h.126s0-.064.063-.064c.064 0 .127-.064.19-.064s.127-.063.19-.063c0 0 .063 0 .126-.064-.506 0-1.012.064-1.581.191-.063 0-.19.064-.317.064-.632.127-1.834-.191-1.834-.255 0-.063.316-.063.632-.254.253-.127.38-.254.57-.317.316.254.696.254.759.254-.127-.064-.696-.127-.886-.19 0 0-.063.063-.126.063-.127.063-.253.063-.38.063-.063 0-.19 0-.253-.063-.063 0-.127-.064-.19-.127-.063-.064-.063-.128-.063-.318.063-.254.316-.381.633-.318.19.064.316.127.38.19l.063.064c.19 0 .442.127.695.19.254.128.443.192.57.192-.063 0-.127-.064-.19-.064s-.127-.064-.127-.064c-.063-.063-.126-.063-.19-.127-.379-.19-.759-.38-1.012-.635-.19-.254-.253-.381-.316-.635-.063-.572-.316-.826-.316-.89.063-.064.949.381 1.265.699.19.254.253.445.316.635v.064c.064.19.254.381.57.572.063 0 .063.063.126.063-.063-.127-.126-.19-.19-.317v-.064l-.063-.063s-.063-.064-.063-.128c-.063-.063-.063-.127-.127-.19-.063-.19-.063-.381 0-.445.064-.063.127-.127.254-.19.253-.064.442.063.506.444v.508c.126.382.442.7.822.954-.443-.382-.696-1.271-.633-1.271.064-.064.443.19.823.381.19.064.38.19.57.318.126.063.252.19.316.254.126.063.19.19.253.254l.19.19.126.128c.127.063.316 0 .316 0 .064 0 .127 0 .19-.064l.063-.063c.064-.064.127-.064.19-.064v-.063c0-.127.064-.191.19-.255 0 0 .063 0 .063-.063h.19c0-.064.063-.064.127-.127a.388.388 0 01.442.063c.064.064.064.127.127.191v.318h.38c.063 0 .126 0 .19.063.063 0 .126-.063.19-.063h.189v-.19c0-.064 0-.128.063-.192 0 0 0-.063.064-.063l.063-.064a.402.402 0 01.38 0c.063 0 .063.064.126.127h.253c.127.064.19.128.19.255h.126s.317 0 .38.063h.316l.127-.127.253-.254c.126-.064.19-.19.316-.254.19-.127.443-.19.633-.254.632-.255.696-.636.759-.636.063.064-.127 1.08-.57 1.462.317-.255.633-.572.823-.953v-.128-.19-.19c.127-.319.253-.51.506-.446.127.064.19.127.253.191.063.127.063.254 0 .445 0 .063-.063.127-.126.19l-.127.127-.063.064v.064c-.063.127-.127.19-.253.317l.126-.127c.317-.254.506-.445.57-.635.063-.19.126-.381.316-.636.316-.317.38-.444.696-.635.063-.064.506-.127.57-.127.063.063-.317.19-.444.826-.063.19-.126.508-.316.762-.253.318-.506.382-.822.572l-.064.064c-.063.063-.126.063-.253.127-.126.063-.19.127-.253.127.19-.064.38-.127.633-.19.19-.128.443-.191.696-.191 0 0 0-.064.063-.064.063-.063.19-.127.38-.19.316-.127.57 0 .632.317.064.19 0 .318-.063.382z" fill="#4988D1"/><path d="M45.74 26.37c.95-.445 2.531-1.525 3.164-2.288-.886-.318-2.657-.508-3.67-.508 2.088-1.462 2.151-4.512 1.582-6.736-.506 1.78-1.771 3.241-2.594 4.13.063.89-.19 2.415-.696 3.305.696.254 1.519.635 2.088 1.08-.38.508-1.202 1.207-1.708 1.652.443.445 1.139 1.27 1.518 1.78-.506.38-1.518.762-2.087.952.253.572.632 1.525.759 2.224-.633.127-1.455.19-2.341.19.063.636-.063 1.653-.19 2.288-.822-.063-1.771-.38-2.214-.635-.253.89-.823 1.78-.823 1.843-.759-.89-1.518-1.208-2.214-1.208v-.572c.696 0 1.455.255 2.025.827.253-.445.506-1.271.632-1.78.506.255 1.329.572 2.025.7.063-.636.126-1.462.063-2.097a9.277 9.277 0 002.278-.064c-.127-.572-.633-1.525-.95-2.033.697-.191 1.582-.572 2.025-.826-.38-.509-1.012-1.208-1.455-1.652.506-.382 1.328-1.017 1.645-1.398a11.485 11.485 0 00-1.961-1.017c.885-1.207 1.075-3.686.885-4.83-.759 2.606-3.036 4.512-4.428 5.402-.063.063-.127.127-.19.127-.063.063-.316.381-.19.762 0 .128.063.191.063.318.127.508.127 1.27-.632 1.97a2.298 2.298 0 01-1.835.572V27.45c0-.19-.126-.318-.316-.318h-.95l-.442-.445h.949c.506-.063 1.075-.317 1.075-.317s-.569 0-.822-.064c-.316.064-1.012-.254-1.582-.89-.19-.254-.38-.508-.506-.762-.506-.445-1.075-1.017-1.455-1.843-.253-.572-.38-1.398-.443-1.906-.19.127-.38.381-.632.699-.443.572-.633 1.398-.633 1.398l-.19.635-.316-.572s-.443-.762-.506-1.715c0-.445 0-.826.063-1.144-.127.064-.316.19-.506.318-.76.572-1.202 1.143-1.202 1.143-.38.509-.633.954-.696 1.144-.063-.254-.316-.635-.696-1.143 0 0-.38-.636-1.202-1.144-.19-.127-.38-.254-.506-.318.063.318.063.763.063 1.144-.063.953-.506 1.652-.506 1.715l-.316.509-.19-.636s-.253-.826-.633-1.397c-.253-.318-.443-.572-.633-.7-.063.509-.19 1.398-.442 1.907-.38.826-.886 1.461-1.455 1.842-.127.255-.317.509-.506.763-.57.635-1.266.953-1.582 1.017-.253.063-.823.063-.823.063s.57.254 1.076.318c.506.063.949 0 .949 0l-.443.445h-.949c-.19 0-.316.127-.316.317v1.398c-.443.064-1.266 0-1.835-.572-.696-.698-.76-1.461-.633-1.97.064-.063.064-.19.064-.317.126-.381-.127-.699-.19-.763-.063-.063-.127-.127-.19-.127-1.392-.89-3.606-2.796-4.428-5.4-.19 1.143.063 3.558.885 4.828-.633.255-1.455.636-1.961 1.017.316.381 1.139 1.08 1.645 1.398-.443.381-1.139 1.144-1.455 1.652.443.254 1.328.636 2.024.826-.316.508-.822 1.462-.949 2.034.76.127 1.582.127 2.278.063-.063.636 0 1.525.063 2.097.696-.127 1.518-.381 2.025-.699.126.445.38 1.334.632 1.78a2.866 2.866 0 012.025-.827v.572c-.696 0-1.455.318-2.215 1.207 0-.063-.569-.953-.822-1.843-.443.191-1.392.572-2.214.636-.127-.636-.19-1.652-.19-2.288-.886 0-1.708-.063-2.34-.19.126-.7.505-1.652.758-2.224-.57-.19-1.581-.635-2.088-.953.317-.509 1.076-1.335 1.519-1.78-.506-.38-1.329-1.143-1.708-1.652.57-.444 1.391-.826 2.088-1.08-.507-.953-.76-2.478-.697-3.304-.885-.89-2.15-2.35-2.593-4.13-.633 2.224-.506 5.337 1.581 6.735-1.012 0-2.783.255-3.67.509.634.762 2.215 1.779 3.164 2.287-.759.254-2.088 1.017-2.657 1.525.696.445 2.278.953 3.037 1.144-.443.381-1.329 1.398-1.645 1.906.633.19 1.898.381 2.72.381-.253.572-.57 1.525-.632 2.097.38.064 1.708 0 2.404-.19-.064.572-.064 1.525.063 1.97.633-.064 1.582-.382 2.024-.509.127.509.57 1.525.76 1.78.316-.064.632-.128.949-.255.885-.318 1.834.064 2.214.89.633 1.461.38 3.177-.823 2.86-1.391.253-.442 2.032-1.265 2.604 1.076.763 1.392-1.016 2.784-.699-.127.636-.127 1.843 0 2.351.443-.317 1.075-.571 1.455-.635-.127.381-.19 1.27-.063 1.843.253-.191 2.087-.7 2.087-.7s-.695 1.399-.253 2.797c.253.19 1.898-.636 1.898-1.08.064.571-.632 1.842-1.708 2.096 1.139 1.144 2.151 1.08 2.278 1.08.19 0 .316 0 .443-.127-.064.318-.127.763-.064 1.017h.19c.316 0 .57-.063.76-.127.063.318.19.635.379.89l.126.127c.253 0 .886-.318 1.013-.509.126.19.759.509 1.012.509.063-.064.126-.064.126-.127.253-.255.38-.636.38-.89.253.127.506.127.76.127h.189c.063-.254.063-.699-.063-1.017.126.064.316.127.443.127.126 0 1.138.064 2.277-1.08-1.075-.254-1.771-1.525-1.708-2.097 0 .509 1.645 1.271 1.898 1.08.443-1.397-.253-2.795-.253-2.795s1.771.445 2.088.699c.126-.572.063-1.462-.064-1.843.38 0 1.013.318 1.456.635.126-.508.126-1.652 0-2.35 1.328-.318 1.644 1.46 2.783.698-.76-.572.19-2.35-1.265-2.605-1.202.381-1.455-1.398-.823-2.86.38-.825 1.392-1.207 2.215-.889.316.127.632.19.949.254.126-.254.632-1.27.759-1.779.443.19 1.392.445 2.024.509.064-.445.127-1.398.064-1.97.632.127 2.024.19 2.404.19-.064-.635-.38-1.588-.633-2.097.822-.063 2.088-.19 2.72-.38-.316-.573-1.202-1.59-1.645-1.907.76-.19 2.341-.699 3.037-1.144-.443-.572-1.771-1.334-2.53-1.588zM35.493 40.666c-.064.128-.127.191-.19.318 0 .064-.063.064-.063.127a.876.876 0 00-.19.255l-.127.127c-.063.127-.19.19-.253.317l-.19.19-.19.191-.252.255-.127.127a2.81 2.81 0 01-.696.508 5.455 5.455 0 01-1.012.636l-.38.19c-2.847 1.462-4.238 2.605-4.681 2.923h-.064c-.443-.381-1.834-1.461-4.681-2.923l-.38-.19a5.459 5.459 0 01-1.012-.636c-.253-.19-.443-.381-.696-.508-.063-.064-.127-.064-.127-.127-.063-.064-.19-.127-.253-.255l-.19-.19-.19-.19c-.126-.128-.189-.191-.252-.319l-.127-.127a.878.878 0 01-.19-.254c0-.063-.063-.063-.063-.127-.063-.127-.126-.19-.19-.318-.38-.825-.316-1.524-.316-1.524v-11.12c0-.19.127-.318.316-.318H35.43c.19 0 .316.127.316.318v11.12c.063 0 .126.698-.253 1.524zM35.112 10.166c.253 0 .38-.19.38-.444 0-.255-.19-.445-.38-.445-.253 0-.38.19-.38.445 0 .254.19.444.38.444zM35.112 12.518c.253 0 .506-1.08.506-1.589a.5.5 0 00-.506-.508.5.5 0 00-.506.508c0 .509.253 1.589.506 1.589zM34.86 8.641h.569l-.127-.698.696.063v-.572l-.696.127.127-.699h-.57l.063.7-.695-.128v.572l.696-.063-.064.698z" fill="#4988D1"/><path d="M32.645 13.789c.19.063.38.063.57.127H34.037c.506 0 1.012-.127 1.518-.255.506-.127 1.013-.254 1.582-.254h.379c.127-.572.317-1.207.317-1.588 0-.763-.443-1.589-1.898-1.843 0 .953-.443 3.177-.95 3.177h-.062c-.507 0-.95-2.224-.95-3.177-1.454.254-1.897 1.08-1.897 1.843 0 .445.19 1.27.38 1.842.19.064.19.064.19.128zM40.237 9.785s-.38-1.016.253-1.334c.696-.254-.253-.127.253-1.525.57-1.652 1.834-1.271 1.834-1.271-.885-.699-1.581-.635-2.087-.254-.317.254-.76.762-1.076 1.779-.253 1.27.19 2.478.823 2.605z" fill="#4988D1"/><path d="M43.526 7.307c.064 2.097 3.543 2.987 3.543 2.987s-2.024-1.462-1.645-2.542c0 0 1.329.572 2.847.318-3.226-.7-2.15-1.716-2.973-2.542-.823-.89-2.088-.953-2.404-1.017-.823-.063-.886-.063-1.835.191 2.214.064 2.467 1.207 2.467 2.605zM43.084 11.247c.443-1.652-.38-2.415-.38-2.415-.253-.317-1.581-.254-2.087.064 0 0 1.265 0 1.075 1.843-.19 1.842-2.72 2.224-3.416 2.287l-.064.254c1.202 0 4.366-.38 4.872-2.033zM29.861 11.183h-1.265c.632 1.78 2.467 2.351 3.67 2.542l-.064-.19c-1.265-.51-1.898-1.018-2.341-2.352zM19.36 10.166c.252 0 .379-.19.379-.444 0-.255-.19-.445-.38-.445-.253 0-.38.19-.38.445-.063.254.127.444.38.444zM19.36 12.518c.252 0 .505-1.08.505-1.589a.5.5 0 00-.506-.508.5.5 0 00-.506.508c0 .509.19 1.589.506 1.589zM19.043 8.641h.57l-.064-.698.696.063v-.572l-.696.127.063-.699h-.569l.127.7-.696-.128v.572l.696-.063-.127.698z" fill="#4988D1"/><path d="M16.829 13.407h.379c.57.064 1.139.127 1.582.254.443.128 1.012.255 1.518.255h.823c.19 0 .38-.064.569-.127 0-.064 0-.064.063-.064.19-.572.38-1.398.38-1.843 0-.762-.38-1.588-1.898-1.842 0 .89-.443 3.177-.95 3.177h-.062c-.506 0-.95-2.224-.95-3.177-1.454.254-1.897 1.08-1.897 1.842 0 .382.126 1.017.316 1.589.063-.064.063-.064.127-.064zM11.83 5.655s1.266-.381 1.835 1.27c.506 1.399-.443 1.272.253 1.526s.253 1.334.253 1.334c.696-.127 1.14-1.334.76-2.668-.317-1.017-.76-1.525-1.076-1.78-.506-.317-1.139-.38-2.024.318z" fill="#4988D1"/><path d="M8.983 7.752c.38 1.08-1.644 2.542-1.644 2.542s3.542-.89 3.542-2.987c.064-1.398.253-2.542 2.405-2.605-.95-.19-1.013-.19-1.835-.19-.317 0-1.582.126-2.404 1.016-.76.826.253 1.843-2.974 2.542 1.582.254 2.91-.318 2.91-.318zM12.78 10.739c-.19-1.843 1.075-1.843 1.075-1.843-.443-.318-1.771-.318-2.088-.064 0 0-.822.7-.38 2.415.444 1.652 3.67 2.033 4.872 2.033l-.063-.254c-.696-.063-3.227-.445-3.416-2.287zM25.875 11.183H24.61c-.443 1.335-1.075 1.843-2.34 2.351l-.064.19c1.265-.19 3.037-.762 3.67-2.54zM28.849 19c-.38.571-.696 1.206-.95 1.842.19-.254.507-.508.823-.763.57-.38 1.076-.635 1.076-.635l.506-.19-.127.508s-.19.826-.126 1.525c0 .317.127.635.19.826.126-.318.316-.636.506-.953.633-.826 1.139-1.144 1.139-1.144l.38-.19v.444s.126 1.462.442 2.224c.57 1.27 1.645 1.97 2.278 2.288l-.317-.318c-.316-.318-.632-.89-.822-2.097-.127-1.017.253-2.033.38-2.351.063.254.19.508.316.572 0 0 0-.254.063-.509.127-.699.886-1.779 1.898-2.414.19-.127.38-.254.506-.318.19-.063.316-.19.443-.318-.19 0-.443.064-.633.064h-.633c-.505 0-1.075-.064-1.518-.445-.443-.381-.632-.762-.696-1.016h-.759c-.38 0-.696-.128-.886-.128-.506.318-1.012.445-1.644.509h-.254c.19.19.443.317.633.444h.063l-.126.064c.063-.064-.823.445-2.151 2.478zM37.137 15.44h-.696v.382c.063.19.126.317.253.445.19-.128.38-.445.443-.827z" fill="#4988D1"/><path d="M37.643 13.98c-.063 0-.063 0 0 0h-.063-.19c-.506 0-1.013.126-1.519.253s-1.075.255-1.581.255h-.759-.064-.063c-1.139-.128-1.898-.509-2.278-.7.064.128.19.255.38.445l.19.191c.126.127.316.254.506.381.253.127 1.329.572 2.72.382 1.582-.255 1.898-.191 2.278-.191h.127c.569.063 1.391.381 1.708.572.126-.318.316-.636.38-.953a1.575 1.575 0 00-.444-.318c-.063-.064-.126-.064-.253-.127a1.26 1.26 0 00-.57-.127c-.252-.064-.379-.064-.505-.064zM42.071 19.19c-.063 0-.633.317-1.834-.445-1.203-.763-2.088-1.08-2.594-1.207-.127.063-.19.127-.317.19-.126.064-.316.19-.506.318-.063.064-.126.064-.19.127h.127c1.139.127 2.024.763 2.088 1.017h.063c.127-.382-.063-.7-.063-.7s.506.318 1.518.89c1.075.7 1.518.064 1.708-.19zM36.061 16.076c-.063-.063-.127-.19-.19-.254-.063-.127-.063-.19-.063-.254-.253 0-.57.063-.949.127h-.253c.19.381.506.762 1.139.89h.253c.253.063.57.063.759.063.443 0 .949-.064 1.455-.19.127-.128.19-.318.316-.445 0 0-.063-.064-.126-.064-.127-.063-.443-.254-.633-.318-.063.191-.19.382-.316.509-.19.127-.443.19-.696.19-.253 0-.506-.063-.633-.19-.063 0-.063-.064-.063-.064zM39.414 15.123c-.38 1.017-1.012 1.78-1.455 2.16 2.847-.762 3.353.7 3.353.763 0 .064 0 .064.063 0 .064-.064 1.013-1.08.317-2.033-.57-.763-1.835-.89-2.278-.89zm0 .763c.127-.127.19-.382.19-.382.19 0 .57.064.57.318-.254-.063-.57-.063-.76.064zM18.03 15.822v-.382h-.696c.064.382.253.7.443.827.127-.128.19-.255.253-.445zM21.257 14.424c-.063 0-.063 0 0 0h-.063-.823c-.57 0-1.075-.127-1.581-.254-.57-.064-1.076-.19-1.582-.19h-.127-.379a1.26 1.26 0 00-.57.126c-.063.064-.19.064-.253.127-.19.127-.316.191-.442.318.063.318.253.7.38.953.315-.19 1.138-.572 1.707-.572h.127c.38 0 .696-.063 2.277.191 1.392.19 2.404-.254 2.72-.381.19-.127.38-.254.507-.382l.19-.19c.126-.19.253-.318.38-.445-.57.19-1.33.572-2.468.7zM12.4 19.19c.19.19.633.89 1.645.317 1.012-.572 1.518-.89 1.518-.89s-.19.318-.063.7h.063c.127-.255 1.012-.954 2.088-1.017h.127c-.064-.064-.127-.064-.19-.127-.19-.127-.38-.254-.507-.318-.126-.063-.19-.127-.316-.19-.506.063-1.392.444-2.594 1.207-1.138.635-1.708.318-1.771.318z" fill="#4988D1"/><path d="M16.702 15.631l-.633.318c-.063 0-.063.064-.126.064.126.19.19.317.316.444a6.11 6.11 0 001.455.191c.253 0 .506 0 .76-.064h.253c.632-.127 1.012-.571 1.138-.889h-.253c-.38-.064-.696-.127-.949-.127 0 .063-.063.19-.063.254a.876.876 0 01-.19.254l-.063.064c-.19.127-.38.19-.633.19a1.27 1.27 0 01-.696-.19c-.19-.127-.253-.318-.316-.509zM12.716 16.013c-.696.953.253 1.97.317 2.033.063.064.063 0 .063 0 0-.064.506-1.525 3.353-.762-.443-.382-1.076-1.144-1.455-2.161-.38 0-1.708.127-2.278.89zm2.341-.128c-.19-.127-.506-.127-.76-.063 0-.254.38-.318.57-.318 0 0 .063.255.19.382z" fill="#4988D1"/><path d="M23.977 16.013h-.253c-.632 0-1.138-.19-1.644-.509-.19.064-.57.128-.886.128h-.76a1.831 1.831 0 01-.695 1.016c-.443.381-1.012.445-1.519.445H17.588c-.127 0-.38-.064-.633-.064.19.128.316.191.443.318.127.064.316.19.506.318 1.012.699 1.771 1.715 1.898 2.414.063.255.063.509.063.509.127-.064.253-.318.317-.572.126.318.569 1.334.38 2.35-.19 1.208-.507 1.78-.823 2.098l-.317.318c.633-.318 1.709-1.017 2.278-2.288.316-.699.443-2.16.443-2.16v-.445l.38.19s.569.318 1.138 1.144c.19.318.38.636.506.953.064-.254.127-.508.19-.826.063-.762-.126-1.525-.126-1.525l-.127-.508.506.19s.506.191 1.076.636c.38.254.632.508.822.762-.253-.635-.506-1.27-.949-1.842-1.328-2.034-2.15-2.478-2.15-2.478l-.127-.064h.063c.19-.19.443-.381.633-.508z" fill="#4988D1"/></g><defs><clipPath id="azclip0_2423_2789"><path fill="#fff" d="M0 0h217v61H0z"/></clipPath></defs></svg>