<?xml version="1.0" encoding="utf-8"?><svg width="322" height="299" fill="none" xmlns="http://www.w3.org/2000/svg" viewBox="0 0 322 299"><path fill-rule="evenodd" clip-rule="evenodd" d="M-35.758 121.242l-57.008-14.605c9.793 74.962 47.256 145.618 123.784 177.019 84.628 29.311 141.139 12.505 187.32-21.63l27.692 14.031 31.47-32.255-15.127-25.638a185.873 185.873 0 0018.339-31.123l29.894-2.313 11.194-43.687-24.163-13.624a186.534 186.534 0 00.677-38.561l22.921-15.725-12.08-43.413-25.451.302c-17.837-42.836-57.483-83.895-99.672-102.253l-53.831-16.28c-30.563-7.816-78.626-20.108-79.787-20.378L37.98-60.368c2.331.5 104.142 26.74 106.52 27.35 24.559 6.291 45.965 18.42 63.94 36.346 18.021 17.964 30.502 39.266 37.462 63.865 6.955 24.436 7.26 49.125.942 73.995-6.42 24.84-18.561 46.344-36.41 64.423-17.935 18.224-39.128 30.869-63.562 37.988-24.422 7.054-48.954 7.425-73.544 1.126C3.981 226.96-25.168 177.801-35.758 121.242zm-51.824-36.757l56.94 14.587 6.222-24.28-56.94-14.586-6.222 24.28zm11.313-44.15l56.94 14.586 6.223-24.282-56.941-14.587-6.222 24.282zm11.596-45.252L-7.733 9.67l6.221-24.278-56.94-14.587-6.221 24.278zM-53.57-48.28l21.023-82.04 56.948 14.589-21.023 82.04-56.948-14.59z" fill="#397BC7"/><path fill-rule="evenodd" clip-rule="evenodd" d="M5.903 60.75l58.016-40.78c3.327-2.337 18.678-1.539 22.601 3.876l74.027 102.163-20.051 14.072-59.902-86.2c-2.783-2.83-1.646-5.907-7.736-5.98l-4.979 3.405-34.168 23.742c-2.496 2.388-5.055 2.607-3.745 8.378l2.02 3.278 63.828 85.962-19.907 14.348L1.597 83.481c-2.833-3.95.046-19.738 4.306-22.731z" fill="#397BC7"/><path fill-rule="evenodd" clip-rule="evenodd" d="M208.03 149.391l-58.015 40.78c-3.325 2.338-18.679 1.538-22.602-3.876L53.39 84.132l20.049-14.073 59.9 86.198c2.785 2.83 1.645 5.909 7.736 5.982l4.982-3.406 34.165-23.744c2.496-2.387 5.057-2.603 3.743-8.375l-2.019-3.28-63.827-85.96 19.908-14.348 74.309 103.533c2.831 3.948-.045 19.736-4.306 22.732z" fill="#397BC7"/></svg>