<?xml version="1.0" encoding="utf-8"?><svg width="52" height="52" fill="none" xmlns="http://www.w3.org/2000/svg" viewBox="0 0 52 52"><rect width="52" height="52" rx="26" fill="#fff"/><g clip-path="url(#dgclip0_587_7847)"><mask id="dga" style="mask-type:luminance" maskUnits="userSpaceOnUse" x="16" y="16" width="20" height="20"><path d="M36 16H16v20h20V16z" fill="#fff"/></mask><g mask="url(#dga)"><mask id="dgb" style="mask-type:luminance" maskUnits="userSpaceOnUse" x="16" y="16" width="20" height="20"><path d="M31.151 16H20.85A4.848 4.848 0 0016 20.849V31.15A4.848 4.848 0 0020.849 36H31.15A4.848 4.848 0 0036 31.151V20.85A4.848 4.848 0 0031.151 16z" fill="#fff"/></mask><g mask="url(#dgb)" fill="#131413"><path d="M28.354 25.543h-5.909v-2.338h5.91c.344 0 .584.06.705.166.12.105.195.3.195.584v.84c0 .3-.075.494-.195.6-.12.104-.36.148-.706.148zm.405-4.542h-8.82V31h2.506v-3.253h4.618L29.255 31h2.806l-2.416-3.268c.89-.132 1.29-.405 1.62-.855.33-.45.496-1.17.496-2.13v-.749c0-.57-.06-1.019-.166-1.364a2.274 2.274 0 00-.54-.914 2.441 2.441 0 00-.93-.555c-.36-.105-.811-.164-1.366-.164z"/><path d="M46 16c0 5.523-4.477 10-10 10a9.987 9.987 0 01-3.21-.526 8.07 8.07 0 00.031-.726v-.75c0-.637-.066-1.198-.212-1.673a3.334 3.334 0 00-.784-1.334l-.02-.021-.021-.02a3.5 3.5 0 00-1.324-.79l-.019-.007-.02-.006c-.48-.14-1.034-.208-1.662-.208H27.7l-.893.001A9.967 9.967 0 0126 16c0-5.523 4.477-10 10-10s10 4.477 10 10z"/></g><path d="M31 16H20.697A4.697 4.697 0 0016 20.697V31a4.697 4.697 0 004.697 4.697H31A4.697 4.697 0 0035.697 31V20.697A4.697 4.697 0 0031 16z" stroke="#131413" stroke-width=".303"/></g></g><defs><clipPath id="dgclip0_587_7847"><path fill="#fff" transform="translate(16 16)" d="M0 0h20v20H0z"/></clipPath></defs></svg>