<?xml version="1.0" encoding="utf-8"?><svg width="2000" height="661.57" fill="none" xmlns="http://www.w3.org/2000/svg" viewBox="0 0 3008 995"><g clip-path="url(#cnclip0_87_111)" fill-rule="evenodd" clip-rule="evenodd"><path d="M507 0h15c7.5 23 15.5 45.833 24 68.5A447.622 447.622 0 01627.5 91 870.78 870.78 0 00677 41.5l2-.5a6367.81 6367.81 0 0193 52l1 2c-5.167 24-10 48-14.5 72 107.22 85.78 162.887 197.78 167 336 7.42 137.08-36.58 254.413-132 352A631.671 631.671 0 01591 987c-1.3-47.22-2.3-94.387-3-141.5a533.044 533.044 0 00110-72c73.613-68.087 109.947-152.587 109-253.5-3.74-122-55.407-217.5-155-286.5-90.98-57.867-188.313-71.533-292-41C248.74 231.433 173.907 306.6 135.5 418A353.495 353.495 0 00120 520.5a43367.471 43367.471 0 013 266.5c-40.04.46-80.04 1.127-120 2-1.287-45.16-2.287-90.16-3-135v-87c1.6-38.167 3.1-76.5 4.5-115a478.829 478.829 0 0180-192A502.727 502.727 0 01179 159a548.49 548.49 0 01-15.5-59A4351.738 4351.738 0 01256 45a1690.14 1690.14 0 0051.5 43A469.086 469.086 0 01394 66.5a4.575 4.575 0 002.5-2.5A2125.31 2125.31 0 00412 2c31.813-.667 63.48-1.333 95-2z" fill="#4887D0"/><path opacity=".99" d="M1740 160h71v33a251.992 251.992 0 01103 25.5c46.3 26.073 69.3 65.907 69 119.5-.92 65.073-31.92 108.573-93 130.5a289.917 289.917 0 01-79 14.5v36h-71v-37a239.534 239.534 0 01-107-26.5c-44.42-26.333-66.42-65.5-66-117.5.04-61.267 28.37-103.433 85-126.5a289.135 289.135 0 0187-18 285.927 285.927 0 001-33.5zm-2 94c2 55.66 2.67 111.66 2 168a143.194 143.194 0 01-72-24.5c-22.8-21.413-30.97-47.58-24.5-78.5 5.89-27.267 22.06-45.433 48.5-54.5a229.576 229.576 0 0146-10.5zm73 0a166.037 166.037 0 0162 17.5c24.14 15.447 35.81 37.613 35 66.5.29 34.587-15.38 58.753-47 72.5a170.53 170.53 0 01-50 11.5V254zM1400 168c45.38-3.16 86.71 8.007 124 33.5a134.574 134.574 0 0126 25.5 3169.732 3169.732 0 01-49.5 46c-30.4-33.913-67.9-45.746-112.5-35.5-40.87 11.874-65.37 38.707-73.5 80.5-6.59 38.5 3.58 71.667 30.5 99.5 31.88 25.44 67.55 32.44 107 21a118.342 118.342 0 0048.5-33.5 1014.167 1014.167 0 0149.5 45.5c-29.48 34.074-66.81 53.407-112 58-57.06 6.754-107.39-8.246-151-45-40.14-39.74-57.31-87.906-51.5-144.5 11.43-76.666 54.59-125.166 129.5-145.5a344.06 344.06 0 0135-5.5zM2039 174h250v62h-173v70h153v61h-153v75h179v62h-256V174zM2356 174c54.33-.167 108.66 0 163 .5 33.14 1.933 62.47 13.267 88 34 29.41 29.92 40.57 65.753 33.5 107.5-7.71 39.38-29.88 67.213-66.5 83.5a174.575 174.575 0 01-55 13c-28.67.5-57.33.667-86 .5v91h-77V174zm77 63c25-.167 50 0 75 .5 42.29 4.94 60.45 28.44 54.5 70.5-4 16.667-13.83 28.5-29.5 35.5a97.749 97.749 0 01-25 6c-25 .5-50 .667-75 .5V237zM3008 501v3c-27.01.333-54.01 0-81-1-9.73-22.88-19.07-45.88-28-69-51-.167-102 0-153 .5l-29 69c-26.34.833-52.67.667-79-.5a70859.402 70859.402 0 00146-329c25.91-.333 51.74 0 77.5 1A73875.938 73875.938 0 003008 501zm-186-250a25316.5 25316.5 0 0152 123.5c-34.33.667-68.66.667-103 0 17.14-41.12 34.14-82.287 51-123.5z" fill="#1D2A3B"/><path opacity=".99" d="M472 256a81.016 81.016 0 0130 3.5 9770.189 9770.189 0 00128 107 31.933 31.933 0 0111.5 21.5 67.872 67.872 0 011 30 35.25 35.25 0 01-5 10c-63 78-126.333 155.667-190 233L404 625.5a2.696 2.696 0 01-.884-.57 2.676 2.676 0 01-.616-2.93 24869.473 24869.473 0 01171-202c2.213-5.646 1.047-10.48-3.5-14.5l-88-74c-9.187-4.16-16.687-1.993-22.5 6.5L300 539.5a1.249 1.249 0 01-2 0l-45-37L447.5 264a62.448 62.448 0 0124.5-8z" fill="#4887D0"/><path d="M477 386a4.999 4.999 0 013 .5 1050.044 1050.044 0 0042 35 2.685 2.685 0 011.48 1.437 2.682 2.682 0 01.02 2.063l-171 202c-2.113 5.06-1.28 9.56 2.5 13.5l89 75c9.187 4.16 16.687 1.993 22.5-6.5L625 508a1.994 1.994 0 011.385-.942 2.012 2.012 0 011.615.442c14.98 12 29.647 24.333 44 37a16643.056 16643.056 0 01-196 240 75.001 75.001 0 01-52 3A10596.44 10596.44 0 01290.5 675a68.099 68.099 0 01-7.687-25.501A68.088 68.088 0 01285.5 623c63.84-79.027 127.674-158.027 191.5-237z" fill="#791F39"/><path opacity=".93" d="M2162 646h11c2.1 11.16 8.93 16.494 20.5 16 11.2.454 18.03-4.713 20.5-15.5a61.39 61.39 0 0111-.5c-.67 13.48-7.67 21.647-21 24.5-8.34.874-16.76.537-25-1-11.25-3.76-16.91-11.593-17-23.5z" fill="#1D2A3B"/><path opacity=".94" d="M1235 680a64.98 64.98 0 0116 1c14.99 30 30.49 59.666 46.5 89a5563.47 5563.47 0 0147-89c5.08-1.3 10.42-1.3 15.5 0-21.03 38.54-41.87 77.206-62.5 116-12.26 20.2-29.09 25.7-50.5 16.5a34.86 34.86 0 015-11.5c11.96 5.4 22.13 3.066 30.5-7 2.04-3.58 4.21-7.08 6.5-10.5a5170.06 5170.06 0 01-54-104.5zM1373 680h15c-.45 18.68.05 37.371 1.5 56 7.24 14.393 19.07 21.06 35.5 20a98.078 98.078 0 0039-9c1-22.32 1.33-44.653 1-67h15v136h-15v-55a107.669 107.669 0 01-64 5.5c-15.15-4.807-24.32-14.973-27.5-30.5-.5-18.667-.67-37.333-.5-56z" fill="#1D2A3B"/><path opacity=".97" d="M1524 680h94v14h-78v46h69v14h-69v49h81v13h-97V680z" fill="#1D2A3B"/><path opacity=".94" d="M1651 680h100v13h-85v43c16-.167 32 0 48 .5 33.62.607 48.12 17.44 43.5 50.5-3.81 13.14-12.31 21.64-25.5 25.5a94.158 94.158 0 01-17 3c-21.33.5-42.67.667-64 .5V680zm15 69c17.33-.167 34.67 0 52 .5 16.26 1.427 24.93 10.26 26 26.5-1.62 15.12-9.95 23.953-25 26.5-17.66.5-35.33.667-53 .5v-54z" fill="#1D2A3B"/><path opacity=".93" d="M1791 680h15v60h83v-60h15v136h-15v-62h-83v62h-15V680z" fill="#1D2A3B"/><path opacity=".94" d="M1949 680h15v48c16-.167 32 0 48 .5 32 2.42 46.17 19.587 42.5 51.5-2.06 15.3-10.23 25.8-24.5 31.5a77.64 77.64 0 01-19 4c-20.67.5-41.33.667-62 .5V680zm15 61c16-.167 32 0 48 .5 22.97 4.08 31.8 17.58 26.5 40.5-3.87 11.873-12.03 18.707-24.5 20.5-16.67.5-33.33.667-50 .5v-62z" fill="#1D2A3B"/><path opacity=".93" d="M2077 680h15v136h-15V680z" fill="#1D2A3B"/><path opacity=".94" d="M2137 680h15c-.17 36.667-.01 73.333.5 110 27.78-36.78 55.95-73.28 84.5-109.5a97.72 97.72 0 0114-.5v136h-15c.17-36.667.01-73.333-.5-110-28.24 36.147-56.24 72.48-84 109-4.77.97-9.64 1.307-14.5 1V680z" fill="#1D2A3B"/><path opacity=".96" d="M2345 680h15v123h81V680h15v123h21v44h-14v-31h-118V680z" fill="#1D2A3B"/><path opacity=".97" d="M2504 680h94v14h-78v46h69v14h-69v49h81v13h-97V680z" fill="#1D2A3B"/><path opacity=".95" d="M2631 680h15v60h84v-60h15v136h-15v-62h-84v62h-15V680z" fill="#1D2A3B"/><path opacity=".93" d="M2768 680h110v14h-47v122h-15V694h-48v-14z" fill="#1D2A3B"/><path opacity=".95" d="M3008 717v20c-6.11 20.927-20.11 32.76-42 35.5-16.33.5-32.66.667-49 .5v43h-15V680c19.33-.167 38.67 0 58 .5a45.61 45.61 0 0148 36.5zm-91-23c15.67-.167 31.34 0 47 .5 21.59 4.333 31.09 17.5 28.5 39.5-4.61 16.24-15.44 24.74-32.5 25.5-14.33.5-28.66.667-43 .5v-66z" fill="#1D2A3B"/><path opacity=".99" d="M522 846h13c.333 47.7 1 95.367 2 143h-62c-.1-47.333-.433-94.667-1-142 16.173.333 32.173 0 48-1z" fill="#4887D0"/><path opacity=".98" d="M365 848h61c.32 47.333.653 94.667 1 142-20.353-.26-40.687.073-61 1-.487-47.66-.82-95.327-1-143zM253 849h61l1 142c-20.333.233-40.667.567-61 1-.46-47.667-.793-95.333-1-143z" fill="#4887D0"/><path opacity=".99" d="M10 995H4c-.453-47.667-1.12-95.333-2-143 68-.547 136-1.213 204-2 .92 47.333 1.587 94.667 2 142-66.16.88-132.16 1.88-198 3z" fill="#4887D0"/></g><defs><clipPath id="cnclip0_87_111"><path fill="#fff" d="M0 0h3008v995H0z"/></clipPath></defs></svg>