<?xml version="1.0" encoding="utf-8"?><svg width="136" height="136" fill="none" xmlns="http://www.w3.org/2000/svg" viewBox="0 0 136 136"><path d="M110.5 89.521c11.974-23.56 2.582-52.366-20.979-64.34-23.56-11.975-52.366-2.582-64.34 20.978-11.974 23.56-2.582 52.366 20.979 64.34 23.56 11.975 52.366 2.582 64.34-20.978z" fill="#EFD05D"/><path d="M95.973 78.872c-6.013 15.571-23.51 23.319-39.081 17.306-15.571-6.013-23.32-23.51-17.306-39.081l56.387 21.775z" fill="#403E41"/><path d="M64.821 75.64c-8.807-3.401-18.112-3.225-26.324-.195 2.34 9.15 8.913 17.072 18.393 20.733 9.481 3.662 19.673 2.213 27.554-2.99C80.4 85.425 73.63 79.042 64.821 75.64z" fill="#C83F5F"/><path d="M69.91 42.347a7.827 7.827 0 00-8.92-10.477 7.827 7.827 0 00-13.634 7.432l-.008.004 5.75 12.984 12.362-5.474a7.802 7.802 0 004.45-4.469zM106 56.284a7.828 7.828 0 00-8.92-10.477 7.827 7.827 0 00-13.634 7.431l-.008.004 5.75 12.984 12.362-5.474a7.805 7.805 0 004.45-4.468z" fill="#E04F49"/></svg>