<?xml version="1.0" encoding="utf-8"?><svg width="78" height="9" fill="none" xmlns="http://www.w3.org/2000/svg" viewBox="0 0 78 9"><path fill-rule="evenodd" clip-rule="evenodd" d="M13.039 9c1.37 0 2.518-.437 3.441-1.31.924-.874 1.386-1.937 1.386-3.19 0-1.261-.458-2.326-1.373-3.196C15.578.434 14.435 0 13.064 0c-1.37 0-2.518.437-3.441 1.31-.924.874-1.386 1.937-1.386 3.19 0 1.26.458 2.326 1.373 3.196.915.87 2.058 1.304 3.429 1.304zm1.666-2.843c-.421.453-.968.68-1.64.68-.665 0-1.212-.23-1.642-.687a2.324 2.324 0 01-.645-1.65c0-.651.21-1.203.632-1.657.422-.453.965-.68 1.629-.68s1.213.23 1.647.687c.434.457.651 1.007.651 1.65 0 .651-.21 1.203-.632 1.657z" fill="#8A48B8"/><path d="M2.682 2.275v6.552h2.477V2.275h2.682V.173H0v2.102h2.682z" fill="#8A48B8"/><path fill-rule="evenodd" clip-rule="evenodd" d="M19.156.173v8.654h2.477V6.354h1.226c1.15 0 2.077-.272 2.784-.816.707-.543 1.06-1.31 1.06-2.3 0-.963-.334-1.715-1.003-2.255-.668-.54-1.572-.81-2.713-.81h-3.831zm3.652 4.302h-1.175V2.188h1.162c.451 0 .802.097 1.054.29.251.194.377.477.377.848 0 .354-.126.634-.377.84-.252.206-.598.31-1.04.31z" fill="#8A48B8"/><path fill-rule="evenodd" clip-rule="evenodd" d="M49.81.173v8.654h2.477V6.206h1.085l1.8 2.621h2.861l-2.132-3.016c1.225-.503 1.838-1.39 1.838-2.658 0-.858-.263-1.541-.791-2.053-.639-.618-1.61-.927-2.912-.927H49.81zm4.111 4.154h-1.634V2.25h1.622c.425 0 .755.087.99.26.233.173.35.428.35.766 0 .33-.117.587-.35.773-.235.185-.56.278-.978.278z" fill="#fff"/><path d="M72.303 8.827H68L71.806.111h2.389L78 8.827h-4.34v-2.02h.856c-.221-.55-.439-1.101-.657-1.652-.29-.734-.581-1.468-.878-2.2-.367.895-.724 1.786-1.081 2.677l-.472 1.174h.875v2.021zM43.244 8.827H38.94L42.747.111h2.388l3.806 8.716H44.6v-2.02h.855c-.22-.55-.438-1.101-.656-1.652-.29-.734-.581-1.468-.878-2.2-.37.9-.729 1.798-1.088 2.694l-.465 1.157h.875v2.021zM28.572.173v8.654h2.426V3.882l2.273 3.362h.052l2.285-3.387v4.97h2.465V.173h-2.618l-2.132 3.35L31.19.173h-2.618zM58.991.173v8.654h2.477V6.589l.907-.976 2.248 3.214h2.975L64.1 3.894l3.384-3.72h-2.937l-3.078 3.51V.174h-2.477z" fill="#fff"/></svg>