<?xml version="1.0" encoding="utf-8"?><svg width="54" height="54" fill="none" xmlns="http://www.w3.org/2000/svg" viewBox="0 0 54 54"><g clip-path="url(#alclip0_429_851)"><path d="M53.506 28.194l-5.062 5.063a1.689 1.689 0 01-2.388 0l-5.062-5.063a1.688 1.688 0 112.387-2.388l2.181 2.183V27a18.563 18.563 0 00-33.646-10.827 1.688 1.688 0 01-2.742-1.97A21.938 21.938 0 0148.937 27v.99l2.182-2.184a1.688 1.688 0 112.387 2.388zM44.82 39.796A21.938 21.938 0 015.062 27v-.99l-2.18 2.184a1.689 1.689 0 01-2.388-2.388l5.062-5.062a1.687 1.687 0 012.388 0l5.062 5.062a1.689 1.689 0 01-2.387 2.388l-2.182-2.183V27a18.482 18.482 0 004.692 12.32 16.804 16.804 0 017.606-6.064 10.125 10.125 0 1112.53 0 16.788 16.788 0 017.61 6.07c.427-.479.83-.98 1.205-1.5a1.688 1.688 0 012.742 1.97l-.002-.001zM27 32.063a6.75 6.75 0 100-13.5 6.75 6.75 0 000 13.5zm0 13.5a18.605 18.605 0 0011.374-3.9 13.5 13.5 0 00-22.748 0A18.472 18.472 0 0027 45.562z" fill="#78213A"/></g><defs><clipPath id="alclip0_429_851"><path fill="#fff" d="M0 0h54v54H0z"/></clipPath></defs></svg>