<?xml version="1.0" encoding="utf-8"?><svg width="24" height="24" fill="none" xmlns="http://www.w3.org/2000/svg" viewBox="0 0 24 24"><path d="M10.992 14.805a5.625 5.625 0 10-6.234 0A8.984 8.984 0 00.33 18.34a.75.75 0 101.256.82 7.5 7.5 0 0112.576 0 .75.75 0 001.256-.82 8.984 8.984 0 00-4.427-3.535zm-7.242-4.68a4.125 4.125 0 118.25 0 4.125 4.125 0 01-8.25 0zm19.7 9.253a.75.75 0 01-1.037-.218 7.483 7.483 0 00-6.288-3.41.75.75 0 110-1.5A4.124 4.124 0 0018.1 6.506a4.125 4.125 0 00-3.508-.213.75.75 0 11-.557-1.392 5.625 5.625 0 015.206 9.904 8.984 8.984 0 014.427 3.535.75.75 0 01-.218 1.038z" fill="#78213A"/></svg>