<?xml version="1.0" encoding="utf-8"?><svg width="43" height="43" fill="none" xmlns="http://www.w3.org/2000/svg" viewBox="0 0 43 43"><rect x=".16" width="42.319" height="42.319" rx="21.16" fill="#fff"/><path fill-rule="evenodd" clip-rule="evenodd" d="M25.588 14.412a20.267 20.267 0 00-8.134 0l-.288.059a4.296 4.296 0 00-2 .991 3.77 3.77 0 00-1.136 1.807 14.034 14.034 0 000 7.485 3.76 3.76 0 001.062 1.738c.515.483 1.16.832 1.87 1.013l.395 2.17a.378.378 0 00.094.186.428.428 0 00.185.117.462.462 0 00.424-.077l2.325-1.91a20.353 20.353 0 005.203-.38l.29-.059a4.295 4.295 0 001.999-.991 3.77 3.77 0 001.136-1.807 14.032 14.032 0 000-7.485 3.77 3.77 0 00-1.137-1.806 4.295 4.295 0 00-2-.991l-.288-.06zm-7.415 2.793a.75.75 0 00-.457.083h-.012c-.32.172-.607.389-.852.643-.205.217-.315.436-.344.647a.82.82 0 00.035.371l.015.008c.23.62.53 1.216.895 1.777a10.573 10.573 0 001.728 2.169l.02.026.033.022.02.021.024.02a11.582 11.582 0 002.368 1.593c.983.492 1.58.724 1.938.821v.005c.105.03.2.043.296.043.306-.02.595-.134.82-.324.277-.225.512-.49.694-.784v-.006c.17-.297.113-.577-.134-.767a10.237 10.237 0 00-1.601-1.055c-.381-.19-.769-.075-.925.118l-.335.387c-.172.192-.483.166-.483.166l-.009.005c-2.325-.545-2.945-2.706-2.945-2.706s-.03-.294.186-.444l.419-.31c.2-.15.34-.504.125-.855a9.443 9.443 0 00-1.146-1.469.65.65 0 00-.375-.205m3.93-.939a.445.445 0 00-.302.115.375.375 0 00-.124.276c0 .103.044.203.124.276.08.073.188.115.301.115 1.077 0 1.97.322 2.678.941.364.339.647.74.833 1.179.186.44.271.91.25 1.38a.363.363 0 00.111.281.45.45 0 00.602.023.379.379 0 00.137-.271 3.91 3.91 0 00-.307-1.696 4.204 4.204 0 00-1.025-1.449l-.008-.008c-.878-.77-1.989-1.162-3.27-1.162zm-.03 1.285a.446.446 0 00-.3.114.375.375 0 00-.125.277c0 .103.045.203.124.276.08.073.189.114.301.114h.015c.776.051 1.341.289 1.737.679.406.402.616.9.6 1.518a.374.374 0 00.118.28.444.444 0 00.298.12.447.447 0 00.304-.108.377.377 0 00.132-.274 2.72 2.72 0 00-.828-2.068v-.001c-.576-.568-1.367-.868-2.319-.926l-.014-.002h-.043zm-.016 1.309a.462.462 0 00-.316.094.398.398 0 00-.104.124.366.366 0 00.072.438.457.457 0 00.304.124c.356.017.583.116.726.248.144.133.251.346.27.68a.366.366 0 00.038.152.393.393 0 00.098.126.434.434 0 00.313.105.457.457 0 00.299-.134.382.382 0 00.083-.136.36.36 0 00.02-.155c-.028-.469-.188-.883-.516-1.188-.33-.305-.778-.453-1.287-.478z" fill="#1B2A3B"/></svg>