<svg width="24" height="24" viewBox="0 0 24 24" fill="none" xmlns="http://www.w3.org/2000/svg">
<path d="M12.0004 3.74993C10.2204 3.74993 8.48033 4.27777 7.00029 5.2667C5.52024 6.25563 4.36669 7.66124 3.6855 9.30578C3.00431 10.9503 2.82608 12.7599 3.17335 14.5057C3.52062 16.2516 4.37778 17.8552 5.63646 19.1139C6.89513 20.3726 8.49878 21.2297 10.2446 21.577C11.9904 21.9243 13.8 21.746 15.4446 21.0648C17.0891 20.3837 18.4947 19.2301 19.4836 17.7501C20.4726 16.27 21.0004 14.53 21.0004 12.7499C20.9977 10.3638 20.0486 8.07622 18.3614 6.38898C16.6741 4.70175 14.3865 3.75266 12.0004 3.74993ZM12.0004 20.2499C10.5171 20.2499 9.06701 19.8101 7.83364 18.9859C6.60027 18.1618 5.63898 16.9905 5.07132 15.6201C4.50366 14.2496 4.35514 12.7416 4.64453 11.2868C4.93392 9.83189 5.64822 8.49552 6.69712 7.44663C7.74601 6.39773 9.08238 5.68343 10.5372 5.39404C11.9921 5.10465 13.5001 5.25317 14.8705 5.82083C16.241 6.38849 17.4123 7.34978 18.2364 8.58315C19.0606 9.81652 19.5004 11.2666 19.5004 12.7499C19.4982 14.7384 18.7073 16.6447 17.3013 18.0508C15.8952 19.4568 13.9889 20.2477 12.0004 20.2499ZM5.78104 3.53055L2.78104 6.53055C2.64031 6.67128 2.44944 6.75035 2.25042 6.75035C2.05139 6.75035 1.86052 6.67128 1.71979 6.53055C1.57906 6.38982 1.5 6.19895 1.5 5.99993C1.5 5.80091 1.57906 5.61003 1.71979 5.4693L4.71979 2.4693C4.86052 2.32857 5.05139 2.24951 5.25042 2.24951C5.44944 2.24951 5.64031 2.32857 5.78104 2.4693C5.92177 2.61003 6.00083 2.80091 6.00083 2.99993C6.00083 3.19895 5.92177 3.38982 5.78104 3.53055ZM22.281 6.53055C22.2114 6.60029 22.1287 6.6556 22.0376 6.69335C21.9466 6.73109 21.849 6.75052 21.7504 6.75052C21.6519 6.75052 21.5543 6.73109 21.4632 6.69335C21.3722 6.6556 21.2894 6.60029 21.2198 6.53055L18.2198 3.53055C18.0791 3.38982 18 3.19895 18 2.99993C18 2.80091 18.0791 2.61003 18.2198 2.4693C18.3605 2.32857 18.5514 2.24951 18.7504 2.24951C18.9494 2.24951 19.1403 2.32857 19.281 2.4693L22.281 5.4693C22.3508 5.53896 22.4061 5.62167 22.4438 5.71272C22.4816 5.80377 22.501 5.90137 22.501 5.99993C22.501 6.09849 22.4816 6.19608 22.4438 6.28713C22.4061 6.37818 22.3508 6.4609 22.281 6.53055ZM17.2504 11.9999C17.4493 11.9999 17.6401 12.0789 17.7807 12.2196C17.9214 12.3602 18.0004 12.551 18.0004 12.7499C18.0004 12.9488 17.9214 13.1396 17.7807 13.2803C17.6401 13.4209 17.4493 13.4999 17.2504 13.4999H12.0004C11.8015 13.4999 11.6107 13.4209 11.4701 13.2803C11.3294 13.1396 11.2504 12.9488 11.2504 12.7499V7.49993C11.2504 7.30102 11.3294 7.11025 11.4701 6.9696C11.6107 6.82895 11.8015 6.74993 12.0004 6.74993C12.1993 6.74993 12.3901 6.82895 12.5307 6.9696C12.6714 7.11025 12.7504 7.30102 12.7504 7.49993V11.9999H17.2504Z" fill="#78213A"/>
</svg>
