<svg width="24" height="24" viewBox="0 0 24 24" fill="none" xmlns="http://www.w3.org/2000/svg">
<path d="M11.9993 2.25C11.8004 2.25 11.6096 2.32902 11.469 2.46967C11.3283 2.61032 11.2493 2.80109 11.2493 3V8.25C11.2493 8.44891 11.3283 8.63968 11.469 8.78033C11.6096 8.92098 11.8004 9 11.9993 9C12.6597 9.00015 13.3016 9.21819 13.8254 9.6203C14.3492 10.0224 14.7257 10.5861 14.8965 11.224C15.0674 11.8619 15.0229 12.5384 14.7701 13.1484C14.5173 13.7585 14.0703 14.2681 13.4983 14.5982C12.9264 14.9284 12.2615 15.0606 11.6068 14.9743C10.9521 14.8881 10.3441 14.5882 9.8772 14.1212C9.41027 13.6542 9.11047 13.0462 9.02429 12.3915C8.93812 11.7368 9.07038 11.0719 9.40056 10.5C9.44983 10.4147 9.4818 10.3205 9.49466 10.2228C9.50752 10.1252 9.50101 10.0259 9.4755 9.93075C9.44999 9.83559 9.40598 9.7464 9.34599 9.66825C9.286 9.59011 9.21121 9.52454 9.12588 9.47531L4.579 6.85031C4.49369 6.80105 4.3995 6.76907 4.30183 6.75622C4.20416 6.74336 4.10491 6.74987 4.00975 6.77538C3.9146 6.80089 3.8254 6.84489 3.74725 6.90488C3.66911 6.96487 3.60354 7.03967 3.55431 7.125C2.48119 8.98371 2.05134 11.1446 2.33145 13.2725C2.61156 15.4004 3.58597 17.3764 5.10355 18.8941C6.62113 20.4118 8.59708 21.3863 10.725 21.6665C12.8528 21.9468 15.0137 21.5171 16.8725 20.4441C18.7313 19.3711 20.1841 17.7147 21.0056 15.7319C21.8271 13.7491 21.9714 11.5506 21.4161 9.47742C20.8608 7.40424 19.6369 5.57222 17.9344 4.26547C16.2318 2.95872 14.1456 2.25028 11.9993 2.25ZM4.50775 8.54062L7.78056 10.4306C7.59432 10.9329 7.49908 11.4643 7.49931 12C7.49931 12.1434 7.50681 12.2812 7.51994 12.4237L3.86931 13.4062C3.58462 11.7571 3.80725 10.0605 4.50775 8.54062ZM4.25744 14.8509L7.91369 13.8722C8.21937 14.5385 8.68291 15.1203 9.26414 15.5671C9.84538 16.0139 10.5268 16.3122 11.2493 16.4363V20.2153C9.69665 20.0714 8.21633 19.4914 6.97918 18.5422C5.74203 17.593 4.79849 16.3134 4.25744 14.8509ZM12.7493 20.2153V16.4363C13.7975 16.2586 14.7489 15.7156 15.4349 14.9035C16.1209 14.0914 16.4973 13.0626 16.4973 11.9995C16.4973 10.9364 16.1209 9.90768 15.4349 9.09557C14.7489 8.28347 13.7975 7.74047 12.7493 7.56281V3.78375C14.7989 3.97101 16.7044 4.91756 18.0919 6.43761C19.4794 7.95767 20.2487 9.94144 20.2487 11.9995C20.2487 14.0576 19.4794 16.0414 18.0919 17.5614C16.7044 19.0815 14.7989 20.0281 12.7493 20.2153Z" fill="#78213A"/>
</svg>
