<svg width="34" height="34" viewBox="0 0 34 34" fill="none" xmlns="http://www.w3.org/2000/svg">
<path d="M30.813 18.1501C30.5873 20.7744 29.6167 23.2797 28.0155 25.3712C26.4143 27.4627 24.2491 29.0533 21.7746 29.956C19.3 30.8587 16.6192 31.0359 14.0474 30.4668C11.4756 29.8976 9.11983 28.6057 7.25729 26.7432C5.39475 24.8807 4.1029 22.5249 3.53373 19.9531C2.96456 17.3813 3.14175 14.7004 4.04445 12.2259C4.94715 9.75139 6.53781 7.58616 8.62928 5.98495C10.7208 4.38375 13.226 3.41318 15.8504 3.18745C15.9899 3.17594 16.1303 3.19202 16.2637 3.23478C16.397 3.27754 16.5206 3.34614 16.6274 3.43666C16.7342 3.52719 16.8221 3.63786 16.8861 3.76236C16.9501 3.88687 16.989 4.02276 17.0005 4.16229C17.012 4.30182 16.996 4.44225 16.9532 4.57556C16.9104 4.70888 16.8418 4.83246 16.7513 4.93927C16.6608 5.04607 16.5501 5.13399 16.4256 5.19803C16.3011 5.26206 16.1652 5.30094 16.0257 5.31245C13.8045 5.50329 11.6841 6.32457 9.9138 7.67965C8.14355 9.03473 6.79716 10.8672 6.03304 12.9616C5.26893 15.0559 5.11888 17.3249 5.60055 19.5016C6.08223 21.6783 7.17558 23.6721 8.75198 25.2485C10.3284 26.8249 12.3222 27.9183 14.4989 28.3999C16.6756 28.8816 18.9446 28.7316 21.0389 27.9674C23.1332 27.2033 24.9658 25.8569 26.3208 24.0867C27.6759 22.3164 28.4972 20.196 28.688 17.9748C28.7113 17.693 28.8455 17.432 29.0612 17.2492C29.2769 17.0663 29.5564 16.9767 29.8382 16.9999C30.12 17.0232 30.381 17.1574 30.5638 17.3731C30.7466 17.5888 30.8363 17.8683 30.813 18.1501ZM15.938 9.56245V16.9999C15.938 17.2817 16.05 17.552 16.2492 17.7512C16.4485 17.9505 16.7187 18.0624 17.0005 18.0624H24.438C24.7198 18.0624 24.9901 17.9505 25.1893 17.7512C25.3886 17.552 25.5005 17.2817 25.5005 16.9999C25.5005 16.7182 25.3886 16.4479 25.1893 16.2486C24.9901 16.0494 24.7198 15.9374 24.438 15.9374H18.063V9.56245C18.063 9.28066 17.9511 9.0104 17.7518 8.81115C17.5526 8.61189 17.2823 8.49995 17.0005 8.49995C16.7187 8.49995 16.4485 8.61189 16.2492 8.81115C16.05 9.0104 15.938 9.28066 15.938 9.56245ZM21.2505 6.37495C21.5657 6.37495 21.8739 6.28148 22.136 6.10635C22.3981 5.93123 22.6023 5.68232 22.723 5.3911C22.8436 5.09988 22.8752 4.77943 22.8137 4.47027C22.7522 4.16112 22.6004 3.87714 22.3775 3.65425C22.1546 3.43136 21.8706 3.27957 21.5615 3.21807C21.2523 3.15658 20.9319 3.18814 20.6406 3.30876C20.3494 3.42939 20.1005 3.63367 19.9254 3.89576C19.7503 4.15785 19.6568 4.46598 19.6568 4.7812C19.6568 5.20389 19.8247 5.60926 20.1236 5.90815C20.4225 6.20704 20.8278 6.37495 21.2505 6.37495ZM26.0318 9.56245C26.347 9.56245 26.6551 9.46898 26.9172 9.29385C27.1793 9.11873 27.3836 8.86982 27.5042 8.5786C27.6248 8.28738 27.6564 7.96693 27.5949 7.65777C27.5334 7.34862 27.3816 7.06464 27.1587 6.84175C26.9358 6.61886 26.6519 6.46707 26.3427 6.40557C26.0336 6.34408 25.7131 6.37564 25.4219 6.49626C25.1307 6.61689 24.8818 6.82117 24.7066 7.08326C24.5315 7.34535 24.438 7.65348 24.438 7.9687C24.438 8.39139 24.6059 8.79676 24.9048 9.09565C25.2037 9.39454 25.6091 9.56245 26.0318 9.56245ZM29.2193 14.3437C29.5345 14.3437 29.8426 14.2502 30.1047 14.0751C30.3668 13.9 30.5711 13.6511 30.6917 13.3598C30.8123 13.0686 30.8439 12.7482 30.7824 12.439C30.7209 12.1299 30.5691 11.8459 30.3462 11.623C30.1233 11.4001 29.8394 11.2483 29.5302 11.1868C29.2211 11.1253 28.9006 11.1569 28.6094 11.2775C28.3182 11.3981 28.0693 11.6024 27.8941 11.8645C27.719 12.1266 27.6255 12.4347 27.6255 12.7499C27.6255 13.1726 27.7934 13.578 28.0923 13.8769C28.3912 14.1758 28.7966 14.3437 29.2193 14.3437Z" fill="#78213A"/>
</svg>
