<svg width="691" height="507" viewBox="0 0 691 507" fill="none" xmlns="http://www.w3.org/2000/svg">
<path fill-rule="evenodd" clip-rule="evenodd" d="M498.064 17.0215L627.312 124.618C634.722 130.785 642.328 166.359 632.316 178.638L443.395 410.333L398.775 373.138L559.743 183.489C564.525 175.392 572.291 176.111 568.713 162.148L557.835 152.85L482.343 89.3206C475.33 85.0789 473.259 79.3599 460.822 85.8957L454.539 92.5174L296.53 290.993L251.365 254.288L443.252 21.1002C450.572 12.2136 488.569 9.11981 498.064 17.0215Z" fill="#3A7AC5"/>
<path fill-rule="evenodd" clip-rule="evenodd" d="M418.939 533.157L289.69 425.559C282.28 419.387 274.675 383.821 284.686 371.541L473.604 139.839L518.224 177.037L357.251 366.693C352.469 374.784 344.708 374.07 348.286 388.03L359.162 397.322L434.651 460.861C441.666 465.103 443.742 470.815 456.178 464.29L462.458 457.667L620.469 259.187L665.634 295.889L473.747 529.077C466.427 537.97 428.427 541.059 418.939 533.157Z" fill="#3A7AC5"/>
<path fill-rule="evenodd" clip-rule="evenodd" d="M583.365 591.315L584.906 730.522C750.897 662.247 889.998 533.383 915 339.292C930.225 127.968 856.914 9.13005 750.189 -75.4943L765.36 -147.361L671.993 -199.522L622.463 -149.261C595.652 -159.542 568.083 -167.169 539.77 -172.109L516.08 -239L408.949 -237.831L392.543 -174.277C361.996 -169.944 332.36 -162.591 303.641 -152.214L253.463 -194.962L161.273 -140.777L177.613 -82.8057C90.2852 -15.8207 20.4452 99.9093 4.2574 207.551L0 340.524C0.855628 415.144 2.20216 532.496 2.2955 535.314L121.287 534.016C121 528.385 118.614 279.68 118.55 273.873C117.888 213.901 132.56 157.563 162.64 105.515C192.783 53.3383 233.989 11.776 286.158 -19.189C337.954 -50.0425 394.42 -65.8562 455.376 -66.6472C516.322 -67.1843 573.132 -52.6078 625.594 -22.892C678.44 6.93027 720.487 47.6141 751.846 99.0891C783.05 150.574 798.985 206.403 799.649 266.447C801.523 435.783 706.642 532.488 583.365 591.315ZM530.885 732.238L529.347 593.198L469.807 593.848L471.346 732.888L530.885 732.238ZM422.616 733.42L421.078 594.38L361.531 595.028L363.07 734.071L422.616 733.42ZM311.649 734.63L310.111 595.588L250.575 596.238L252.113 735.279L311.649 734.63ZM205.313 735.807L4.12949 738L2.59108 598.941L203.774 596.748L205.313 735.807Z" fill="#3A7AC5"/>
</svg>
