<svg width="20" height="20" viewBox="0 0 20 20" fill="none" xmlns="http://www.w3.org/2000/svg">
<path d="M12.9427 15.8079C13.0007 15.866 13.0468 15.9349 13.0782 16.0108C13.1097 16.0867 13.1258 16.168 13.1258 16.2501C13.1258 16.3322 13.1097 16.4135 13.0782 16.4894C13.0468 16.5653 13.0007 16.6342 12.9427 16.6923C12.8846 16.7504 12.8157 16.7964 12.7398 16.8278C12.6639 16.8593 12.5826 16.8755 12.5005 16.8755C12.4184 16.8755 12.3371 16.8593 12.2612 16.8278C12.1853 16.7964 12.1164 16.7504 12.0583 16.6923L5.8083 10.4423C5.75019 10.3842 5.70409 10.3153 5.67264 10.2394C5.64119 10.1636 5.625 10.0822 5.625 10.0001C5.625 9.91797 5.64119 9.83664 5.67264 9.76077C5.70409 9.68489 5.75019 9.61596 5.8083 9.55792L12.0583 3.30792C12.1756 3.19064 12.3346 3.12476 12.5005 3.12476C12.6663 3.12476 12.8254 3.19064 12.9427 3.30792C13.06 3.42519 13.1258 3.58425 13.1258 3.7501C13.1258 3.91596 13.06 4.07502 12.9427 4.19229L7.13409 10.0001L12.9427 15.8079Z" fill="#1B2A3B"/>
</svg>
