<svg width="322" height="299" viewBox="0 0 322 299" fill="none" xmlns="http://www.w3.org/2000/svg">
<path fill-rule="evenodd" clip-rule="evenodd" d="M-35.7579 121.242L-92.7665 106.637C-82.9727 181.599 -45.5099 252.255 31.0175 283.656C115.646 312.967 172.157 296.161 218.338 262.026L246.03 276.057L277.5 243.802L262.373 218.164C269.493 208.388 275.61 198.013 280.712 187.041L310.606 184.728L321.8 141.041L297.637 127.417C299.196 114.523 299.422 101.668 298.314 88.8556L321.235 73.1306L309.155 29.7184L283.704 30.0195C265.867 -12.8162 226.221 -53.8746 184.032 -72.2334L130.201 -88.5128C99.6384 -96.3291 51.5748 -108.621 50.4142 -108.891L37.9802 -60.3681C40.311 -59.8687 142.122 -33.6281 144.5 -33.0188C169.059 -26.7265 190.465 -14.5971 208.44 3.32779C226.461 21.2921 238.942 42.5938 245.902 67.1933C252.857 91.6288 253.162 116.318 246.844 141.188C240.424 166.028 228.283 187.532 210.434 205.611C192.499 223.835 171.306 236.48 146.872 243.599C122.45 250.653 97.9179 251.024 73.3284 244.725C3.98114 226.96 -25.168 177.801 -35.7579 121.242ZM-87.5818 84.4853L-30.6414 99.0721L-24.4202 74.7924L-81.3607 60.2057L-87.5818 84.4853ZM-76.269 40.3344L-19.3285 54.9212L-13.106 30.6389L-70.0471 16.052L-76.269 40.3344ZM-64.6734 -4.9166L-7.73231 9.67032L-1.51158 -14.6079L-58.452 -29.1946L-64.6734 -4.9166ZM-53.569 -48.2812L-32.5462 -130.321L24.4019 -115.732L3.37911 -33.6924L-53.569 -48.2812Z" fill="#017AA9"/>
<path fill-rule="evenodd" clip-rule="evenodd" d="M5.90283 60.7497L63.9185 19.9702C67.246 17.6325 82.5966 18.4313 86.5202 23.8456L160.547 126.009L140.496 140.081L80.5939 53.8802C77.8113 51.051 78.9483 47.9735 72.8582 47.9009L67.8794 51.3064L33.7107 75.0481C31.2146 77.436 28.656 77.6551 29.9655 83.4258L31.9858 86.7038L95.8137 172.666L75.9073 187.014L1.59775 83.481C-1.23608 79.5315 1.64275 63.7429 5.90283 60.7497Z" fill="#017AA9"/>
<path fill-rule="evenodd" clip-rule="evenodd" d="M208.03 149.391L150.015 190.171C146.69 192.509 131.336 191.709 127.413 186.295L53.3897 84.1316L73.4385 70.0586L133.339 156.257C136.124 159.087 134.984 162.166 141.075 162.239L146.057 158.833L180.222 135.089C182.718 132.702 185.279 132.486 183.965 126.714L181.946 123.434L118.119 37.4737L138.027 23.1257L212.336 126.659C215.167 130.607 212.291 146.395 208.03 149.391Z" fill="#017AA9"/>
</svg>
