<svg width="52" height="52" viewBox="0 0 52 52" fill="none" xmlns="http://www.w3.org/2000/svg">
<rect width="52" height="52" rx="26" fill="white"/>
<g clip-path="url(#clip0_587_7847)">
<mask id="mask0_587_7847" style="mask-type:luminance" maskUnits="userSpaceOnUse" x="16" y="16" width="20" height="20">
<path d="M36 16H16V36H36V16Z" fill="white"/>
</mask>
<g mask="url(#mask0_587_7847)">
<mask id="mask1_587_7847" style="mask-type:luminance" maskUnits="userSpaceOnUse" x="16" y="16" width="20" height="20">
<path d="M31.1515 16H20.8485C18.1707 16 16 18.1707 16 20.8485V31.1515C16 33.8293 18.1707 36 20.8485 36H31.1515C33.8293 36 36 33.8293 36 31.1515V20.8485C36 18.1707 33.8293 16 31.1515 16Z" fill="white"/>
</mask>
<g mask="url(#mask1_587_7847)">
<path d="M28.3541 25.5434H22.4453V23.2053H28.3541C28.6992 23.2053 28.9392 23.2654 29.0596 23.3705C29.1801 23.4755 29.2547 23.6704 29.2547 23.955V24.7946C29.2547 25.0945 29.1801 25.2893 29.0596 25.3944C28.9392 25.4994 28.6992 25.5434 28.3541 25.5434ZM28.7594 21.0009H19.9395V31H22.4453V27.7469H27.0634L29.2547 31H32.0607L29.6447 27.7316C30.5354 27.5996 30.9354 27.3267 31.2652 26.8768C31.5951 26.427 31.7606 25.7077 31.7606 24.7479V23.9981C31.7606 23.4288 31.7002 22.979 31.5951 22.6342C31.4899 22.2894 31.3102 21.9895 31.0549 21.7201C30.7853 21.4651 30.4851 21.2855 30.1247 21.1652C29.7643 21.0602 29.314 21.0009 28.7594 21.0009Z" fill="#131413"/>
<path d="M46 16C46 21.5229 41.5229 26 36 26C34.8771 26 33.7976 25.8149 32.79 25.4736C32.8115 25.236 32.8211 24.993 32.8211 24.7479V23.9981C32.8211 23.3615 32.7545 22.8004 32.6095 22.3248C32.453 21.8119 32.1848 21.3706 31.8247 20.9906L31.8047 20.9695L31.7836 20.9495C31.4 20.5867 30.9651 20.3276 30.4604 20.1592L30.441 20.1527L30.4214 20.147C29.941 20.007 29.3865 19.9394 28.7593 19.9394H27.6987L26.8062 19.9403C26.2873 18.7312 26 17.3991 26 16C26 10.4771 30.4772 6 36 6C41.5229 6 46 10.4771 46 16Z" fill="#131413"/>
</g>
<path d="M31 16H20.697C18.1029 16 16 18.1029 16 20.697V31C16 33.5941 18.1029 35.697 20.697 35.697H31C33.5941 35.697 35.697 33.5941 35.697 31V20.697C35.697 18.1029 33.5941 16 31 16Z" stroke="#131413" stroke-width="0.30303"/>
</g>
</g>
<defs>
<clipPath id="clip0_587_7847">
<rect width="20" height="20" fill="white" transform="translate(16 16)"/>
</clipPath>
</defs>
</svg>
