<svg width="52" height="52" viewBox="0 0 52 52" fill="none" xmlns="http://www.w3.org/2000/svg">
<rect width="52" height="52" rx="26" fill="#4988D1"/>
<path d="M29.1381 26.8099H20.0552V23.2375H29.1381C29.6686 23.2375 30.0375 23.3294 30.2227 23.4899C30.4078 23.6505 30.5225 23.9481 30.5225 24.383V25.6657C30.5225 26.1239 30.4078 26.4216 30.2227 26.5822C30.0375 26.7427 29.6686 26.8099 29.1381 26.8099ZM29.7612 19.8695H16.2031V35.1468H20.0552V30.1765H27.154L30.5225 35.1468H34.836L31.1221 30.1532C32.4913 29.9514 33.1062 29.5345 33.6132 28.8471C34.1202 28.1598 34.3746 27.061 34.3746 25.5944V24.4489C34.3746 23.5791 34.2819 22.8918 34.1202 22.365C33.9587 21.8382 33.6823 21.38 33.2899 20.9684C32.8754 20.5788 32.414 20.3044 31.8599 20.1206C31.3059 19.9601 30.6137 19.8695 29.7612 19.8695Z" fill="white"/>
<path d="M37.7992 19.8681C39.4336 19.8681 40.7586 18.5674 40.7586 16.963C40.7586 15.3585 39.4336 14.0579 37.7992 14.0579C36.1648 14.0579 34.8398 15.3585 34.8398 16.963C34.8398 18.5674 36.1648 19.8681 37.7992 19.8681Z" fill="white"/>
</svg>
