<svg width="24" height="24" viewBox="0 0 24 24" fill="none" xmlns="http://www.w3.org/2000/svg">
<path d="M10.9921 14.805C11.9973 14.1358 12.7605 13.1609 13.1687 12.0244C13.577 10.888 13.6087 9.6503 13.2591 8.49443C12.9095 7.33856 12.1973 6.32587 11.2276 5.60611C10.258 4.88635 9.0825 4.49774 7.87492 4.49774C6.66735 4.49774 5.49184 4.88635 4.52221 5.60611C3.55258 6.32587 2.84032 7.33856 2.49076 8.49443C2.1412 9.6503 2.17288 10.888 2.58114 12.0244C2.9894 13.1609 3.75255 14.1358 4.75774 14.805C2.93945 15.4752 1.38659 16.7153 0.330862 18.3403C0.275377 18.4228 0.236837 18.5155 0.217482 18.613C0.198127 18.7105 0.198344 18.8108 0.218119 18.9082C0.237895 19.0056 0.276835 19.0981 0.332676 19.1804C0.388516 19.2626 0.460144 19.3329 0.543396 19.3872C0.626647 19.4415 0.719861 19.4787 0.81762 19.4967C0.915378 19.5146 1.01573 19.513 1.11285 19.4918C1.20996 19.4706 1.3019 19.4304 1.38332 19.3734C1.46473 19.3164 1.53401 19.2437 1.58711 19.1597C2.2681 18.1123 3.19995 17.2516 4.29802 16.6558C5.3961 16.06 6.62562 15.7479 7.87492 15.7479C9.12423 15.7479 10.3538 16.06 11.4518 16.6558C12.5499 17.2516 13.4817 18.1123 14.1627 19.1597C14.2727 19.3232 14.4427 19.4368 14.6358 19.476C14.8289 19.5152 15.0297 19.4769 15.1947 19.3692C15.3598 19.2616 15.4758 19.0933 15.5178 18.9008C15.5598 18.7082 15.5243 18.5069 15.419 18.3403C14.3633 16.7153 12.8104 15.4752 10.9921 14.805ZM3.74992 10.125C3.74992 9.30918 3.99185 8.51165 4.44511 7.8333C4.89837 7.15494 5.54261 6.62623 6.29636 6.31402C7.0501 6.00181 7.8795 5.92012 8.67967 6.07929C9.47984 6.23845 10.2148 6.63132 10.7917 7.20821C11.3686 7.7851 11.7615 8.5201 11.9207 9.32028C12.0798 10.1204 11.9981 10.9498 11.6859 11.7036C11.3737 12.4573 10.845 13.1016 10.1667 13.5548C9.4883 14.0081 8.69077 14.25 7.87492 14.25C6.78129 14.2488 5.7328 13.8138 4.95948 13.0405C4.18616 12.2672 3.75117 11.2187 3.74992 10.125ZM23.4506 19.3781C23.284 19.4868 23.081 19.5248 22.8864 19.4838C22.6918 19.4429 22.5214 19.3263 22.4127 19.1597C21.7326 18.1117 20.8008 17.2506 19.7025 16.6551C18.6042 16.0595 17.3743 15.7484 16.1249 15.75C15.926 15.75 15.7352 15.671 15.5946 15.5304C15.4539 15.3897 15.3749 15.1989 15.3749 15C15.3749 14.8011 15.4539 14.6103 15.5946 14.4697C15.7352 14.329 15.926 14.25 16.1249 14.25C16.7324 14.2495 17.3322 14.1147 17.8816 13.8554C18.431 13.5962 18.9163 13.2188 19.3029 12.7502C19.6895 12.2816 19.9678 11.7334 20.118 11.1448C20.2682 10.5562 20.2865 9.94168 20.1716 9.34516C20.0568 8.74865 19.8116 8.18486 19.4536 7.69408C19.0956 7.20331 18.6337 6.79766 18.1007 6.50612C17.5678 6.21458 16.977 6.04435 16.3707 6.00759C15.7643 5.97082 15.1573 6.06844 14.5931 6.29346C14.501 6.33323 14.402 6.35416 14.3018 6.35501C14.2016 6.35585 14.1022 6.3366 14.0095 6.29839C13.9169 6.26018 13.8328 6.20379 13.7623 6.13254C13.6918 6.06129 13.6363 5.97664 13.5991 5.88358C13.5619 5.79052 13.5437 5.69094 13.5456 5.59073C13.5475 5.49052 13.5695 5.39171 13.6102 5.30014C13.651 5.20856 13.7097 5.12609 13.7828 5.05758C13.856 4.98907 13.9421 4.93592 14.0362 4.90127C15.3275 4.38626 16.7639 4.36773 18.0681 4.84925C19.3723 5.33077 20.452 6.27823 21.0989 7.50885C21.7458 8.73947 21.914 10.1661 21.5711 11.5134C21.2283 12.8607 20.3986 14.0333 19.2421 14.805C21.0604 15.4752 22.6133 16.7153 23.669 18.3403C23.7776 18.5069 23.8156 18.7099 23.7747 18.9045C23.7337 19.0991 23.6171 19.2695 23.4506 19.3781Z" fill="#78213A"/>
</svg>
