<svg width="52" height="52" viewBox="0 0 52 52" fill="none" xmlns="http://www.w3.org/2000/svg">
<rect width="52" height="52" rx="26" fill="#4988D1"/>
<path fill-rule="evenodd" clip-rule="evenodd" d="M35.8282 21.0695C35.9747 20.5813 35.8282 20.2219 35.1264 20.2219H32.8093C32.2197 20.2219 31.9478 20.5321 31.8004 20.8746C31.8004 20.8746 30.622 23.7324 28.9528 25.5887C28.4126 26.127 28.1672 26.2978 27.8724 26.2978C27.725 26.2978 27.5034 26.127 27.5034 25.6379V21.0695C27.5034 20.483 27.341 20.2219 26.8502 20.2219H23.2065C22.8384 20.2219 22.6168 20.4937 22.6168 20.7521C22.6168 21.3074 23.4519 21.4362 23.5375 22.9992V26.3953C23.5375 27.1401 23.4024 27.2752 23.1076 27.2752C22.322 27.2752 20.411 24.4039 19.2767 21.1187C19.0569 20.4794 18.8345 20.2219 18.2422 20.2219H15.9233C15.2613 20.2219 15.1289 20.5321 15.1289 20.8746C15.1289 21.4844 15.9145 24.5139 18.7877 28.5208C20.7031 31.2569 23.3998 32.7404 25.8563 32.7404C27.3296 32.7404 27.5114 32.4113 27.5114 31.8435V29.7753C27.5114 29.1163 27.6509 28.9848 28.1178 28.9848C28.4621 28.9848 29.0508 29.1565 30.4261 30.4754C31.9973 32.0393 32.2559 32.7404 33.1404 32.7404H35.4574C36.1195 32.7404 36.4513 32.4113 36.2607 31.7604C36.0506 31.113 35.3003 30.1732 34.3055 29.0582C33.7653 28.4233 32.955 27.7392 32.7087 27.3968C32.3653 26.9577 32.4633 26.7619 32.7087 26.3711C32.7087 26.3711 35.5333 22.4135 35.8273 21.0695H35.8282Z" fill="white"/>
</svg>
