<svg width="52" height="52" viewBox="0 0 52 52" fill="none" xmlns="http://www.w3.org/2000/svg">
<rect width="52" height="52" rx="26" fill="#4988D1"/>
<path d="M35.1903 20.7019C35.6304 22.4179 35.6304 26.0001 35.6304 26.0001C35.6304 26.0001 35.6304 29.5823 35.1903 31.2983C34.9457 32.2468 34.2302 32.9931 33.3241 33.2454C31.6784 33.7038 26.0007 33.7038 26.0007 33.7038C26.0007 33.7038 20.326 33.7038 18.6774 33.2454C17.7674 32.9893 17.0529 32.2439 16.8112 31.2983C16.3711 29.5823 16.3711 26.0001 16.3711 26.0001C16.3711 26.0001 16.3711 22.4179 16.8112 20.7019C17.0558 19.7533 17.7712 19.007 18.6774 18.7547C20.326 18.2964 26.0007 18.2964 26.0007 18.2964C26.0007 18.2964 31.6784 18.2964 33.3241 18.7547C34.2341 19.0109 34.9486 19.7562 35.1903 20.7019ZM24.0748 29.3705L29.8526 26.0001L24.0748 22.6297V29.3705Z" fill="white"/>
</svg>
