<svg width="737" height="258" viewBox="0 0 737 258" fill="none" xmlns="http://www.w3.org/2000/svg"><g clip-path="url(#clip0_8330_9870)"><path d="M248.092 14.936c0 6.164-4.46 11.03-13.423 11.03v1.298c.973.244 2.11.77 2.879 1.298l-.243 1.541h-9.935l-.283-1.541c.769-.527 1.946-1.054 2.919-1.298v-1.297c-9.124 0-13.463-4.705-13.463-10.463 0-6.164 4.501-11.03 13.463-11.03V3.175c-.973-.244-2.15-.77-2.919-1.298l.283-1.541h9.935l.243 1.54a9.764 9.764 0 01-2.879 1.299v1.297c9.085 0 13.423 4.705 13.423 10.463zm-26.561.406c0 5.15 2.757 8.11 8.597 8.11V6.988c-5.678 0-8.597 3.122-8.597 8.354zm21.573-.244c0-5.15-2.717-8.11-8.597-8.11v16.464c5.678 0 8.597-3.122 8.597-8.354zm33.281 6.327l1.987.243-.527 7.746h-20.398l-.284-1.541c.771-.528 1.947-1.014 2.92-1.258V3.826c-.973-.244-2.149-.73-2.92-1.258l.284-1.54h20.155l.324 7.745-1.987.243c-.811-1.257-1.582-3-2.028-5.272h-8.962v9.976l8.557-.932v3.933l-8.557-.851v10.828h9.206c.527-2.312 1.297-4.015 2.23-5.272zm32.252-1.176l2.027.121.284 7.908c-1.663.892-5.312 1.541-8.638 1.541-8.435 0-14.274-5.799-14.274-14.193 0-8.882 5.799-15.005 14.274-15.005 3.326 0 6.975.649 8.841 1.622l-.487 7.624-1.987.122c-.851-1.5-1.42-3.731-1.662-6.043-1.217-.527-2.758-.81-4.462-.81-5.718 0-9.326 4.703-9.326 12.084 0 7.38 3.608 12.085 9.326 12.085 1.825 0 3.285-.244 4.502-.77.243-2.312.811-4.705 1.582-6.286zm31.309-16.506h-5.474v22.873c.973.243 2.149.73 2.919 1.257l-.284 1.54H326.97l-.284-1.54c.77-.528 1.946-1.014 2.919-1.258V3.744h-5.474c-.486 2.312-1.257 4.096-2.109 5.435l-1.987-.284.365-7.868h23.277l.365 7.868-1.987.284c-.852-1.339-1.622-3.123-2.109-5.435zm22.859 25.67h-9.854l-.284-1.54c.77-.528 1.946-1.014 2.919-1.258V3.826c-.973-.244-2.149-.73-2.919-1.258l.284-1.54h9.854l.283 1.54c-.73.487-1.825 1.014-2.757 1.257v17.479h.243l12.247-17.195v-.284c-.933-.243-2.068-.77-2.758-1.257l.244-1.54h9.894l.244 1.54c-.73.528-1.906 1.014-2.879 1.257v22.791c.973.244 2.149.73 2.879 1.258l-.244 1.54h-9.894l-.244-1.54c.69-.487 1.825-1.014 2.758-1.258V9.137h-.284l-12.206 17.195v.284c.932.243 2.027.77 2.757 1.257l-.283 1.54zm43.208-15.207v.284c4.177.77 6.772 3.325 6.772 7.137 0 4.826-3.933 7.787-10.868 7.787h-11.76l-.283-1.541c.77-.528 1.946-1.014 2.919-1.258V3.826c-.973-.244-2.149-.73-2.919-1.258l.283-1.54h11.315c6.285 0 10.097 2.716 10.097 7.096 0 3.123-2.069 5.394-5.556 6.083zm.649-5.677c0-3.204-2.068-4.988-5.677-4.988h-3.407v9.935h3.407c3.568 0 5.677-1.865 5.677-4.947zm-9.084 18.37h3.812c4.177 0 6.407-1.987 6.407-5.515 0-3.528-2.271-5.515-6.407-5.515h-3.812v11.03zm37.957-25.873l9.287 25.59c1.054.243 2.108.73 2.839 1.257l-.244 1.54h-10.179l-.284-1.54c.69-.487 1.704-1.014 2.555-1.258l-2.068-5.88h-10.016l-2.027 5.88c.851.244 1.864.77 2.554 1.258l-.284 1.54h-8.15l-.244-1.54c.73-.528 1.784-1.014 2.839-1.258l9.205-25.589h4.217zm-3.244 5.637l-3.934 11.396h8.151l-3.974-11.396h-.243zm44.906-2.839v22.791c.973.244 2.108.73 2.879 1.258l-.243 1.54h-10.016l-.284-1.54c.729-.487 1.824-1.014 2.797-1.258V3.744h-7.744l-.244 5.597c-.649 14.193-2.595 20.48-7.664 20.48-.973 0-2.028-.325-2.636-.812V24.75h4.906c1.258-2.109 2.19-7.624 2.515-15.41l.243-5.516c-.974-.243-2.109-.73-2.879-1.257l.243-1.54h20.763l.243 1.54c-.771.528-1.906 1.014-2.879 1.257zm20.085 8.192h3.892c6.773 0 10.787 3.245 10.787 8.679 0 5.393-4.056 8.719-10.746 8.719h-11.436l-.283-1.541c.769-.528 1.946-1.014 2.919-1.258V3.826c-.973-.244-2.15-.73-2.919-1.258l.283-1.54h10.138l.244 1.54c-.771.528-1.906 1.014-2.879 1.257v8.192zm0 14.883h3.406c3.933 0 6.244-2.311 6.244-6.204 0-4.015-2.148-6.164-6.244-6.164h-3.406v12.368zM21.119 142.866H.87l-.757-3.974c1.892-1.324 4.636-2.46 6.907-3.028V83.631c-2.27-.567-5.015-1.703-6.907-3.028L.87 76.63h20.06l19.208 41.446h.662L59.157 76.63h20.911l.757 3.974c-1.892 1.325-4.636 2.46-6.907 3.029v52.232c2.27.568 5.015 1.704 6.907 3.028l-.757 3.974h-26.02l-.663-3.974c1.798-1.324 4.542-2.46 6.813-3.028V94.419h-.663l-17.978 40.404h-7.002L15.631 94.419h-.662v41.445c2.27.568 5.014 1.704 6.812 3.028l-.662 3.974zm106.316.947c-19.397 0-32.739-13.626-32.739-33.119 0-20.628 13.531-35.01 32.739-35.01 19.398 0 32.834 13.53 32.834 33.118 0 20.627-13.531 35.011-32.834 35.011zm0-6.529c11.071 0 18.167-10.504 18.167-27.536 0-17.127-7.096-27.536-18.167-27.536-10.976 0-18.167 10.41-18.167 27.536 0 17.032 7.191 27.536 18.167 27.536zm95.502-16.181l5.488.284.662 18.641c-4.163 2.176-12.774 3.785-20.533 3.785-20.533 0-34.158-13.342-34.158-33.119 0-20.818 13.72-35.01 34.158-35.01 7.854 0 16.465 1.608 21.006 3.973l-1.135 17.979-5.394.284c-2.176-3.69-3.501-8.706-4.068-13.91-2.65-1.136-5.867-1.798-9.463-1.798-12.584 0-20.532 10.692-20.532 27.536 0 16.938 7.948 27.536 20.532 27.536 3.785 0 6.908-.568 9.463-1.704.662-5.298 1.986-10.598 3.974-14.477zm77.645 14.761c2.177.568 4.827 1.798 6.624 3.028l-.662 3.974h-16.843c-7.191-8.799-13.531-19.587-17.978-29.428l-6.339-.189v22.615c2.175.568 4.73 1.798 6.339 3.028l-.663 3.974h-25.548l-.756-3.974c1.893-1.324 4.636-2.46 6.907-3.028V83.631c-2.271-.567-5.014-1.703-6.907-3.028l.756-3.974h25.548l.663 3.974c-1.609 1.23-4.164 2.46-6.339 3.029v22.425l6.812-.946 11.828-19.114c4.352-7.475 7.475-10.314 12.868-10.314 2.46 0 4.826.852 6.056 1.609v11.07h-11.922l-10.787 16.466c5.393 10.597 12.963 21.858 20.343 31.036zm48.211 7.949c-19.398 0-32.739-13.626-32.739-33.119 0-20.628 13.53-35.01 32.739-35.01 19.397 0 32.833 13.53 32.833 33.118 0 20.627-13.531 35.011-32.833 35.011zm0-6.529c11.07 0 18.167-10.504 18.167-27.536 0-17.127-7.097-27.536-18.167-27.536-10.977 0-18.168 10.41-18.168 27.536 0 17.032 7.191 27.536 18.168 27.536zm85.849-29.901v.662c9.746 1.797 16.465 7.759 16.465 16.748 0 11.071-9.463 18.073-26.021 18.073h-28.86l-.757-3.974c1.892-1.324 4.636-2.46 6.908-3.028V83.631c-2.272-.567-5.016-1.703-6.908-3.028l.757-3.974h27.725c15.044 0 24.317 6.435 24.317 16.56 0 7.381-5.204 12.584-13.626 14.194zm-.094-13.06c0-7.095-4.637-11.165-12.49-11.165h-6.246v22.332h6.34c7.664 0 12.396-4.164 12.396-11.166zm-18.736 42.014h7.286c9.084 0 14.004-4.542 14.004-12.395 0-7.855-5.014-12.302-14.004-12.302h-7.286v24.697zm97.37-15.234l5.489.284.662 18.641c-4.164 2.176-12.775 3.785-20.534 3.785-20.532 0-34.158-13.342-34.158-33.119 0-20.818 13.721-35.01 34.158-35.01 7.854 0 16.465 1.608 21.007 3.973l-1.135 17.979-5.394.284c-2.176-3.69-3.501-8.706-4.069-13.91-2.65-1.136-5.867-1.798-9.462-1.798-12.585 0-20.533 10.692-20.533 27.536 0 16.938 7.948 27.536 20.533 27.536 3.785 0 6.907-.568 9.462-1.704.662-5.298 1.987-10.598 3.974-14.477zm77.646 14.761c2.176.568 4.826 1.798 6.623 3.028l-.662 3.974h-16.842c-7.191-8.799-13.531-19.587-17.978-29.428l-6.34-.189v22.615c2.177.568 4.731 1.798 6.34 3.028l-.662 3.974h-25.548l-.758-3.974c1.893-1.324 4.637-2.46 6.908-3.028V83.631c-2.271-.567-5.015-1.703-6.908-3.028l.758-3.974h25.548l.662 3.974c-1.609 1.23-4.163 2.46-6.34 3.029v22.425l6.813-.946 11.827-19.114c4.353-7.475 7.475-10.314 12.869-10.314 2.46 0 4.826.852 6.055 1.609v11.07h-11.922l-10.787 16.466c5.394 10.597 12.964 21.858 20.344 31.036zm48.21 7.949c-19.398 0-32.739-13.626-32.739-33.119 0-20.628 13.531-35.01 32.739-35.01 19.397 0 32.834 13.53 32.834 33.118 0 20.627-13.531 35.011-32.834 35.011zm0-6.529c11.071 0 18.168-10.504 18.168-27.536 0-17.127-7.097-27.536-18.168-27.536-10.976 0-18.167 10.41-18.167 27.536 0 17.032 7.191 27.536 18.167 27.536zm92.284-13.721l5.394.663-1.23 18.64h-49.015l-.756-3.974c1.892-1.324 4.636-2.46 6.907-3.028V83.631c-2.271-.567-5.015-1.703-6.907-3.028l.756-3.974h48.446l.758 18.641-5.394.663c-1.986-3.029-3.785-6.908-5.014-12.018h-18.925v21.764l19.019-2.271v10.504l-19.019-2.272v23.94h19.492c1.23-5.109 3.217-8.989 5.488-12.017zm-587.081 93.014h9.557c16.274 0 25.453 8.422 25.453 19.871 0 11.45-9.179 19.871-25.453 19.871h-29.427l-.758-3.974c1.893-1.325 4.637-2.461 6.907-3.028v-52.233c-2.27-.567-5.014-1.703-6.907-3.028l.758-3.974h48.446l.946 18.641-5.299.663c-2.082-3.029-3.974-6.908-5.205-12.018h-19.018v19.209zm0 33.213h7.948c8.042 0 13.058-5.204 13.058-13.342 0-8.137-5.016-13.247-13.058-13.247h-7.948v26.589zm81.616-59.708l21.479 59.235c2.271.567 4.636 1.703 6.435 3.028l-.757 3.974h-25.927l-.757-3.974c1.704-1.23 4.163-2.461 6.151-3.028l-4.353-12.491h-22.52l-4.352 12.491c1.987.567 4.447 1.798 6.15 3.028l-.757 3.974h-19.492l-.757-3.974c1.798-1.325 4.069-2.461 6.434-3.028l21.385-59.235h11.638zm-9.367 15.14l-8.517 24.602h17.789l-8.515-24.602h-.757zm74.29 26.684h-7.191v17.411c2.554.473 5.96 1.798 8.231 3.028l-.756 3.974h-27.346l-.757-3.974c1.892-1.325 4.636-2.461 6.907-3.028v-52.233c-2.271-.567-5.015-1.703-6.907-3.028l.757-3.974h27.062c16.274 0 25.926 7.57 25.926 20.912 0 13.247-9.652 20.912-25.926 20.912zm11.922-20.912c0-9.084-5.015-14.383-13.626-14.383h-5.487v28.766h5.487c8.611 0 13.626-5.299 13.626-14.383zm59.86 46.271c-19.397 0-32.739-13.626-32.739-33.119 0-20.627 13.531-35.01 32.739-35.01 19.397 0 32.834 13.531 32.834 33.119 0 20.627-13.531 35.01-32.834 35.01zm0-6.529c11.071 0 18.167-10.503 18.167-27.535 0-17.127-7.096-27.536-18.167-27.536-10.976 0-18.167 10.409-18.167 27.536 0 17.032 7.191 27.535 18.167 27.535zm102.503-1.419c2.177.567 4.826 1.798 6.624 3.028l-.663 3.974h-16.842c-7.191-8.8-13.531-19.587-17.978-29.428l-6.34-.189v22.615c2.176.567 4.731 1.798 6.34 3.028l-.663 3.974h-25.548l-.757-3.974c1.893-1.325 4.637-2.461 6.908-3.028v-52.233c-2.271-.567-5.015-1.703-6.908-3.028l.757-3.974h25.548l.663 3.974c-1.609 1.231-4.164 2.461-6.34 3.028v22.426l6.813-.946 11.828-19.114c4.352-7.475 7.475-10.314 12.868-10.314 2.46 0 4.826.851 6.056 1.608v11.072h-11.922l-10.787 16.465c5.393 10.597 12.962 21.857 20.343 31.036zm72.862 0c2.176.567 4.826 1.798 6.623 3.028l-.662 3.974h-16.842c-7.191-8.8-13.531-19.587-17.978-29.428l-6.34-.189v22.615c2.176.567 4.731 1.798 6.34 3.028l-.663 3.974h-25.547l-.758-3.974c1.893-1.325 4.637-2.461 6.907-3.028v-52.233c-2.27-.567-5.014-1.703-6.907-3.028l.758-3.974h25.547l.663 3.974c-1.609 1.231-4.164 2.461-6.34 3.028v22.426l6.813-.946 11.827-19.114c4.352-7.475 7.475-10.314 12.869-10.314 2.46 0 4.825.851 6.055 1.608v11.072H528.37l-10.787 16.465c5.394 10.597 12.964 21.857 20.344 31.036zm48.21 7.948c-19.398 0-32.739-13.626-32.739-33.119 0-20.627 13.531-35.01 32.739-35.01 19.397 0 32.834 13.531 32.834 33.119 0 20.627-13.531 35.01-32.834 35.01zm0-6.529c11.071 0 18.167-10.503 18.167-27.535 0-17.127-7.096-27.536-18.167-27.536-10.976 0-18.167 10.409-18.167 27.536 0 17.032 7.191 27.535 18.167 27.535z" fill="#fff"/></g><defs><clipPath id="clip0_8330_9870"><path fill="#fff" d="M0 0h737v258H0z"/></clipPath></defs></svg>