<?xml version="1.0" encoding="utf-8"?><svg width="68" height="32" fill="none" xmlns="http://www.w3.org/2000/svg" viewBox="0 0 68 32"><mask id="aha" maskUnits="userSpaceOnUse" x="0" y="0" width="68" height="32" fill="#000"><path fill="#fff" d="M0 0h68v32H0z"/><path d="M13.84 30.64c-2.48 0-4.68-.573-6.6-1.72-1.893-1.147-3.387-2.813-4.48-5-1.067-2.187-1.6-4.827-1.6-7.92s.533-5.733 1.6-7.92c1.093-2.187 2.587-3.853 4.48-5 1.92-1.147 4.12-1.72 6.6-1.72 2.48 0 4.667.573 6.56 1.72 1.92 1.147 3.413 2.813 4.48 5 1.093 2.187 1.64 4.827 1.64 7.92s-.547 5.733-1.64 7.92c-1.067 2.187-2.56 3.853-4.48 5-1.893 1.147-4.08 1.72-6.56 1.72zm0-7.56c.613 0 1.16-.213 1.64-.64.48-.427.853-1.16 1.12-2.2.293-1.04.44-2.453.44-4.24 0-1.813-.147-3.227-.44-4.24-.267-1.04-.64-1.773-1.12-2.2-.48-.427-1.027-.64-1.64-.64s-1.16.213-1.64.64c-.48.427-.867 1.16-1.16 2.2-.267 1.013-.4 2.427-.4 4.24 0 1.787.133 3.2.4 4.24.293 1.04.68 1.773 1.16 2.2.48.427 1.027.64 1.64.64zm27.415 7.56c-2.48 0-4.666-.36-6.56-1.08-1.866-.747-3.333-1.787-4.4-3.12-1.066-1.36-1.6-2.947-1.6-4.76 0-1.813.547-3.36 1.64-4.64 1.094-1.28 2.587-2.253 4.48-2.92 1.894-.667 4.04-1 6.44-1 2.4 0 4.547.333 6.44 1 1.894.667 3.387 1.64 4.48 2.92 1.094 1.28 1.64 2.827 1.64 4.64 0 1.813-.533 3.4-1.6 4.76-1.066 1.333-2.546 2.373-4.44 3.12-1.866.72-4.04 1.08-6.52 1.08zm0-6.36c.907 0 1.64-.253 2.2-.76.587-.533.88-1.253.88-2.16 0-.907-.293-1.613-.88-2.12-.56-.533-1.293-.8-2.2-.8-.906 0-1.653.267-2.24.8-.56.507-.84 1.213-.84 2.12s.28 1.627.84 2.16c.587.507 1.334.76 2.24.76zm0-6.6c-2.186 0-4.16-.307-5.92-.92-1.733-.64-3.106-1.547-4.12-2.72-1.013-1.2-1.52-2.64-1.52-4.32 0-1.707.494-3.173 1.48-4.4.987-1.253 2.347-2.227 4.08-2.92 1.734-.693 3.734-1.04 6-1.04 2.267 0 4.267.347 6 1.04 1.734.693 3.094 1.667 4.08 2.92.987 1.227 1.48 2.693 1.48 4.4 0 1.68-.506 3.12-1.52 4.32-1.013 1.173-2.386 2.08-4.12 2.72-1.733.613-3.706.92-5.92.92zm0-5.16c.64 0 1.174-.213 1.6-.64.427-.427.64-1.013.64-1.76 0-.773-.213-1.36-.64-1.76-.426-.427-.96-.64-1.6-.64-.64 0-1.173.213-1.6.64-.426.4-.64.987-.64 1.76 0 .747.214 1.333.64 1.76.427.427.96.64 1.6.64zm20.02 17.88c-1.493 0-2.746-.48-3.76-1.44-1.013-.987-1.52-2.24-1.52-3.76 0-1.547.507-2.787 1.52-3.72 1.014-.933 2.267-1.4 3.76-1.4 1.494 0 2.747.467 3.76 1.4 1.014.933 1.52 2.173 1.52 3.72 0 1.52-.506 2.773-1.52 3.76-1.013.96-2.266 1.44-3.76 1.44z"/></mask><path d="M7.24 28.92l-.518.855.005.004.513-.859zm-4.48-5l-.899.438.005.01.894-.448zm0-15.84l-.894-.447-.005.009.899.438zm4.48-5l-.513-.859-.005.004.518.855zm13.16 0l-.518.855.005.004.513-.859zm4.48 5l-.899.438.005.01.894-.448zm0 15.84l-.895-.447-.004.009.899.438zm-4.48 5l-.513-.859-.005.004.518.855zm-3.8-8.68l-.962-.271-.004.011-.003.012.969.248zm0-8.48l-.969.248.004.015.004.015.961-.278zm-1.12-2.2l.664-.747-.664.747zm-3.28 0l-.664-.747.664.747zm-1.16 2.2l-.962-.271-.003.008-.002.008.967.255zm0 8.48l-.969.248.003.012.004.012.962-.272zm2.8 9.4c-2.32 0-4.339-.534-6.087-1.579L6.727 29.78C8.82 31.027 11.2 31.64 13.84 31.64v-2zm-6.082-1.575c-1.715-1.04-3.086-2.556-4.104-4.592l-1.788.894c1.168 2.337 2.785 4.154 4.856 5.408l1.036-1.71zm-4.1-4.583C2.675 21.463 2.16 18.982 2.16 16h-2c0 3.205.552 6.003 1.701 8.358l1.798-.876zM2.16 16c0-2.981.514-5.463 1.499-7.482L1.86 7.642C.712 9.997.16 12.795.16 16h2zm1.494-7.473c1.018-2.036 2.389-3.553 4.104-4.592l-1.036-1.71c-2.071 1.254-3.688 3.07-4.856 5.408l1.788.894zM7.753 3.94C9.5 2.894 11.52 2.36 13.84 2.36v-2c-2.64 0-5.021.612-7.113 1.861L7.753 3.94zM13.84 2.36c2.32 0 4.323.534 6.042 1.575l1.036-1.71C18.85.972 16.48.36 13.84.36v2zm6.047 1.579c1.739 1.038 3.105 2.551 4.094 4.58l1.798-.877c-1.144-2.346-2.765-4.166-4.866-5.42l-1.026 1.717zm4.099 4.588c1.008 2.016 1.534 4.495 1.534 7.473h2c0-3.209-.567-6.01-1.746-8.367l-1.788.894zM25.52 16c0 2.978-.526 5.457-1.534 7.473l1.788.894c1.18-2.357 1.746-5.159 1.746-8.367h-2zm-1.539 7.482c-.99 2.028-2.355 3.541-4.094 4.58l1.026 1.716c2.101-1.255 3.722-3.074 4.866-5.42l-1.798-.876zm-4.099 4.583c-1.719 1.04-3.722 1.575-6.042 1.575v2c2.64 0 5.01-.612 7.078-1.865l-1.036-1.71zM13.84 24.08c.87 0 1.65-.312 2.304-.893l-1.328-1.494c-.307.272-.62.387-.976.387v2zm2.304-.893c.699-.62 1.138-1.582 1.425-2.699l-1.938-.496c-.247.963-.554 1.468-.815 1.7l1.328 1.495zm1.419-2.675c.329-1.168.477-2.685.477-4.512h-2c0 1.746-.145 3.055-.402 3.968l1.925.544zM18.04 16c0-1.85-.148-3.372-.48-4.518l-1.92.556c.254.881.4 2.186.4 3.962h2zm-.471-4.488c-.287-1.117-.726-2.078-1.425-2.7l-1.328 1.495c.261.233.568.738.815 1.701l1.938-.496zm-1.425-2.7c-.653-.58-1.433-.892-2.304-.892v2c.356 0 .67.115.976.387l1.328-1.494zM13.84 7.92c-.87 0-1.65.312-2.304.893l1.328 1.494c.307-.272.62-.387.976-.387v-2zm-2.304.893c-.69.613-1.145 1.563-1.458 2.675l1.925.543c.272-.968.591-1.484.861-1.724l-1.328-1.494zm-1.463 2.692C9.774 12.641 9.64 14.153 9.64 16h2c0-1.78.133-3.094.367-3.986l-1.934-.508zM9.64 16c0 1.823.135 3.331.431 4.488l1.938-.496c-.237-.923-.369-2.242-.369-3.992h-2zm.438 4.512c.313 1.111.768 2.062 1.458 2.675l1.328-1.494c-.27-.24-.589-.757-.862-1.725l-1.924.544zm1.458 2.675c.653.581 1.433.893 2.304.893v-2c-.356 0-.67-.115-.976-.387l-1.328 1.494zm23.16 6.373l-.372.928.008.004.008.003.355-.935zm-4.4-3.12l-.788.617.006.008.781-.625zm.04-9.4l.76.65-.76-.65zm4.48-2.92l-.333-.943.332.943zm12.88 0l-.333.943.332-.943zm4.48 2.92l-.761.65.76-.65zm.04 9.4l.78.625.006-.008-.787-.617zm-4.44 3.12l.36.933.006-.003-.367-.93zm-4.32-6.04l.67.742.002-.002-.673-.74zm0-4.28l-.69.724.017.017.019.016.653-.757zm-4.44 0l.67.742.002-.002-.673-.74zm0 4.28l-.69.724.017.017.019.016.653-.757zm-3.68-6.76l-.347.938.009.003.008.003.33-.944zm-4.12-2.72l-.765.645.008.009.756-.654zm-.04-8.72l.779.627.006-.008-.786-.619zm4.08-2.92l-.372-.928.371.928zm12 0l.37-.928-.37.928zm4.08 2.92l-.786.619.006.008.78-.627zm-.04 8.72l.756.654.007-.009-.764-.645zm-4.12 2.72l.333.943.013-.005-.347-.938zm-4.32-8.4l-.708.707.012.012.011.01.684-.729zm-3.2 0l.683.73.012-.011.011-.012-.707-.707zm1.6 21.28c-2.386 0-4.448-.346-6.205-1.015l-.711 1.87c2.029.771 4.34 1.145 6.915 1.145v-2zm-6.19-1.009c-1.734-.693-3.049-1.64-3.99-2.816l-1.562 1.25c1.193 1.49 2.811 2.624 4.81 3.423l.743-1.857zm-3.984-2.808c-.921-1.175-1.387-2.542-1.387-4.143h-2c0 2.025.602 3.832 1.814 5.377l1.573-1.234zm-1.387-4.143c0-1.595.474-2.906 1.4-3.99l-1.52-1.3c-1.26 1.476-1.88 3.258-1.88 5.29h2zm1.4-3.99c.96-1.123 2.293-2.007 4.052-2.627l-.664-1.886c-2.027.714-3.68 1.776-4.908 3.213l1.52 1.3zm4.052-2.627c1.769-.622 3.8-.943 6.108-.943v-2c-2.491 0-4.753.346-6.772 1.057l.664 1.886zm6.108-.943c2.309 0 4.34.32 6.108.943l.664-1.886c-2.018-.711-4.28-1.057-6.772-1.057v2zm6.108.943c1.76.62 3.093 1.504 4.052 2.626l1.52-1.299c-1.227-1.437-2.88-2.5-4.908-3.213l-.664 1.886zm4.052 2.626c.926 1.085 1.4 2.396 1.4 3.991h2c0-2.032-.619-3.814-1.88-5.29l-1.52 1.3zm1.4 3.991c0 1.601-.465 2.968-1.386 4.143l1.573 1.234c1.212-1.545 1.813-3.352 1.813-5.377h-2zm-1.38 4.135c-.939 1.173-2.264 2.12-4.027 2.815l.734 1.86c2.025-.798 3.66-1.932 4.854-3.425l-1.562-1.25zm-4.02 2.812c-1.728.667-3.774 1.013-6.16 1.013v2c2.575 0 4.875-.373 6.88-1.147l-.72-1.866zm-6.16-3.347c1.102 0 2.092-.313 2.871-1.018l-1.342-1.483c-.34.308-.817.501-1.529.501v2zm2.873-1.02c.826-.751 1.207-1.756 1.207-2.9h-2c0 .67-.205 1.104-.552 1.42l1.345 1.48zm1.207-2.9c0-1.143-.381-2.147-1.226-2.877l-1.307 1.514c.328.284.533.692.533 1.363h2zm-1.19-2.844c-.778-.74-1.774-1.076-2.89-1.076v2c.698 0 1.168.198 1.51.524l1.38-1.448zm-2.89-1.076c-1.117 0-2.115.335-2.912 1.06l1.345 1.48c.376-.342.871-.54 1.567-.54v-2zm-2.91 1.058c-.812.735-1.17 1.734-1.17 2.862h2c0-.686.203-1.1.511-1.378l-1.342-1.483zm-1.17 2.862c0 1.13.358 2.13 1.15 2.884l1.38-1.448c-.328-.312-.53-.752-.53-1.436h-2zm1.187 2.917c.798.69 1.79 1.003 2.893 1.003v-2c-.71 0-1.211-.193-1.586-.517l-1.307 1.514zm2.893-7.597c-2.093 0-3.953-.294-5.59-.864l-.659 1.888c1.883.656 3.97.976 6.25.976v-2zm-5.573-.858c-1.605-.593-2.827-1.413-3.71-2.436l-1.514 1.308c1.144 1.323 2.67 2.317 4.53 3.004l.694-1.876zm-3.703-2.427c-.85-1.007-1.284-2.213-1.284-3.675h-2c0 1.898.58 3.572 1.756 4.965l1.528-1.29zM30.695 9.72c0-1.5.428-2.74 1.26-3.773l-1.559-1.254c-1.142 1.42-1.7 3.113-1.7 5.027h2zm1.266-3.781c.86-1.094 2.067-1.971 3.666-2.61l-.743-1.857c-1.868.747-3.382 1.816-4.494 3.23l1.571 1.237zm3.666-2.61c1.593-.638 3.462-.969 5.628-.969v-2c-2.367 0-4.497.362-6.371 1.112l.743 1.856zm5.628-.969c2.166 0 4.036.331 5.629.968l.743-1.856C45.753.722 43.623.36 41.255.36v2zm5.629.968c1.598.64 2.805 1.517 3.666 2.61l1.571-1.237c-1.112-1.413-2.626-2.482-4.494-3.23l-.743 1.857zm3.672 2.619c.832 1.033 1.26 2.274 1.26 3.773h2c0-1.914-.56-3.607-1.702-5.027l-1.558 1.254zm1.26 3.773c0 1.462-.435 2.668-1.285 3.675l1.528 1.29c1.177-1.393 1.756-3.067 1.756-4.965h-2zm-1.278 3.666c-.883 1.023-2.104 1.843-3.71 2.436l.694 1.876c1.861-.687 3.387-1.68 4.53-3.004l-1.514-1.308zm-3.696 2.431c-1.607.569-3.465.863-5.587.863v2c2.305 0 4.394-.32 6.254-.977l-.667-1.886zm-5.587-2.297c.888 0 1.681-.306 2.307-.933l-1.414-1.414c-.227.227-.5.347-.893.347v2zm2.307-.933c.657-.656.933-1.522.933-2.467h-2c0 .548-.15.856-.347 1.053l1.414 1.414zm.933-2.467c0-.956-.268-1.845-.956-2.49l-1.368 1.46c.166.155.324.44.324 1.03h2zm-.933-2.467c-.626-.627-1.42-.933-2.307-.933v2c.393 0 .666.12.893.347l1.414-1.414zm-2.307-.933c-.887 0-1.68.306-2.307.933l1.414 1.414c.227-.227.5-.347.893-.347v-2zm-2.284.91c-.687.645-.956 1.534-.956 2.49h2c0-.59.158-.875.324-1.03l-1.368-1.46zm-.956 2.49c0 .945.277 1.81.933 2.467l1.414-1.414c-.196-.197-.347-.505-.347-1.053h-2zm.933 2.467c.627.627 1.42.933 2.307.933v-2c-.392 0-.666-.12-.893-.347l-1.414 1.414zM57.515 28.96l-.697.716.01.01.687-.726zm0-7.48l-.677-.736.677.736zm7.52 0l.678-.736-.678.736zm0 7.48l.688.726.01-.01-.698-.716zm-3.76.44c-1.257 0-2.258-.395-3.072-1.166l-1.375 1.452c1.212 1.149 2.718 1.714 4.447 1.714v-2zm-3.062-1.156c-.805-.784-1.218-1.771-1.218-3.044h-2c0 1.768.6 3.287 1.823 4.477l1.395-1.433zM56.995 25.2c0-1.305.416-2.265 1.198-2.985l-1.355-1.47c-1.245 1.146-1.843 2.667-1.843 4.455h2zm1.198-2.985c.812-.748 1.817-1.135 3.082-1.135v-2c-1.721 0-3.223.546-4.437 1.665l1.355 1.47zm3.082-1.135c1.266 0 2.27.387 3.083 1.136l1.355-1.472c-1.214-1.118-2.716-1.664-4.438-1.664v2zm3.083 1.136c.781.72 1.197 1.679 1.197 2.984h2c0-1.788-.597-3.309-1.842-4.456l-1.355 1.471zm1.197 2.984c0 1.273-.413 2.26-1.217 3.044l1.395 1.433c1.222-1.19 1.822-2.71 1.822-4.477h-2zm-1.207 3.034c-.814.771-1.816 1.166-3.073 1.166v2c1.73 0 3.235-.565 4.448-1.714l-1.375-1.452z" fill="#fff" mask="url(#aha)"/></svg>