<?xml version="1.0" encoding="utf-8"?><svg width="133" height="62" fill="none" xmlns="http://www.w3.org/2000/svg" viewBox="0 0 133 62"><mask id="aja" maskUnits="userSpaceOnUse" x="0" y="0" width="133" height="62" fill="#000"><path fill="#fff" d="M0 0h133v62H0z"/><path d="M1.16 48.28V37.96L26.28 3h16.4l-24.4 34.96-7.52-2.24h43.76v12.56H1.16zM30.76 59V48.28l.48-12.56V26.2H46.2V59H30.76zm37.098.72c-2.56 0-4.72-.853-6.48-2.56-1.76-1.707-2.64-3.867-2.64-6.48 0-2.72.88-4.88 2.64-6.48 1.76-1.653 3.92-2.48 6.48-2.48 2.56 0 4.72.827 6.48 2.48 1.76 1.6 2.64 3.76 2.64 6.48 0 2.613-.88 4.773-2.64 6.48-1.76 1.707-3.92 2.56-6.48 2.56zm38.878.4c-4.854 0-9.094-.72-12.72-2.16-3.627-1.44-6.48-3.467-8.56-6.08-2.027-2.667-3.04-5.787-3.04-9.36 0-3.52 1.013-6.507 3.04-8.96 2.08-2.507 4.933-4.4 8.56-5.68 3.68-1.333 7.92-2 12.72-2 4.8 0 9.013.667 12.64 2 3.68 1.28 6.533 3.173 8.56 5.68 2.08 2.453 3.12 5.44 3.12 8.96 0 3.573-1.014 6.693-3.04 9.36-2.027 2.613-4.88 4.64-8.56 6.08-3.627 1.44-7.867 2.16-12.72 2.16zm0-11.12c2.56 0 4.586-.613 6.08-1.84 1.546-1.227 2.32-2.933 2.32-5.12 0-2.133-.774-3.813-2.32-5.04-1.494-1.28-3.52-1.92-6.08-1.92s-4.614.64-6.16 1.92c-1.494 1.227-2.24 2.907-2.24 5.04 0 2.187.746 3.893 2.24 5.12 1.546 1.227 3.6 1.84 6.16 1.84zm0-15.28c-4.374 0-8.24-.613-11.6-1.84-3.307-1.227-5.92-2.987-7.84-5.28-1.92-2.347-2.88-5.147-2.88-8.4 0-3.36.933-6.24 2.8-8.64 1.92-2.4 4.56-4.267 7.92-5.6 3.36-1.387 7.226-2.08 11.6-2.08 4.426 0 8.293.693 11.6 2.08 3.36 1.333 5.973 3.2 7.84 5.6 1.92 2.4 2.88 5.28 2.88 8.64 0 3.253-.96 6.053-2.88 8.4-1.867 2.293-4.48 4.053-7.84 5.28-3.36 1.227-7.227 1.84-11.6 1.84zm0-8.96c2.026 0 3.653-.507 4.88-1.52 1.226-1.067 1.84-2.507 1.84-4.32 0-1.92-.64-3.387-1.92-4.4-1.227-1.013-2.827-1.52-4.8-1.52-1.974 0-3.574.507-4.8 1.52-1.227 1.013-1.84 2.48-1.84 4.4 0 1.813.613 3.253 1.84 4.32 1.226 1.013 2.826 1.52 4.8 1.52z"/></mask><path d="M1.16 48.28h-1v1h1v-1zm0-10.32l-.812-.584-.188.262v.322h1zM26.28 3V2h-.513l-.3.416.813.584zm16.4 0l.82.572L44.597 2H42.68v1zm-24.4 34.96l-.286.958.693.207.413-.593-.82-.572zm-7.52-2.24v-1l-.285 1.958.285-.958zm43.76 0h1v-1h-1v1zm0 12.56v1h1v-1h-1zM30.76 59h-1v1h1v-1zm0-10.72l-1-.038v.038h1zm.48-12.56l1 .038v-.038h-1zm0-9.52v-1h-1v1h1zm14.96 0h1v-1h-1v1zm0 32.8v1h1v-1h-1zM2.16 48.28V37.96h-2v10.32h2zm-.188-9.736l25.12-34.96-1.624-1.168-25.12 34.96 1.624 1.168zM26.28 4h16.4V2h-16.4v2zm15.58-1.572l-24.4 34.96 1.64 1.144 24.4-34.96-1.64-1.144zM18.566 37.002l-7.52-2.24-.571 1.916 7.52 2.24.57-1.916zm-7.806-.282h43.76v-2H10.76v2zm42.76-1v12.56h2V35.72h-2zm1 11.56H1.16v2h53.36v-2zM31.76 59V48.28h-2V59h2zm0-10.682l.48-12.56-2-.076-.48 12.56 2 .076zm.48-12.598V26.2h-2v9.52h2zm-1-8.52H46.2v-2H31.24v2zm13.96-1V59h2V26.2h-2zm1 31.8H30.76v2H46.2v-2zm15.178-.84l.696-.718-.696.718zm0-12.96l.673.74.006-.006.006-.005-.685-.729zm12.96 0l-.684.729.005.005.006.006.673-.74zm0 12.96l-.696-.718.696.718zm-6.48 1.56c-2.313 0-4.22-.76-5.784-2.278l-1.392 1.436c1.956 1.896 4.369 2.842 7.176 2.842v-2zm-5.784-2.278c-1.552-1.505-2.336-3.4-2.336-5.762h-2c0 2.864.976 5.29 2.944 7.198l1.392-1.436zm-2.336-5.762c0-2.483.792-4.358 2.313-5.74l-1.346-1.48c-1.999 1.818-2.967 4.263-2.967 7.22h2zm2.325-5.751c1.563-1.468 3.473-2.209 5.795-2.209v-2c-2.797 0-5.207.912-7.165 2.751l1.37 1.458zm5.795-2.209c2.322 0 4.233.74 5.795 2.209l1.37-1.458c-1.957-1.839-4.367-2.751-7.165-2.751v2zm5.807 2.22c1.521 1.382 2.313 3.257 2.313 5.74h2c0-2.957-.968-5.402-2.967-7.22l-1.346 1.48zm2.313 5.74c0 2.363-.784 4.257-2.336 5.762l1.392 1.436c1.968-1.909 2.944-4.334 2.944-7.198h-2zm-2.336 5.762c-1.564 1.517-3.471 2.278-5.784 2.278v2c2.807 0 5.22-.946 7.176-2.842l-1.392-1.436zm20.374 1.518l-.37.93.37-.93zm-8.56-6.08l-.797.605.007.009.007.009.783-.623zm0-18.32l-.77-.639-.001.002.77.637zm8.56-5.68l.332.943.008-.003-.34-.94zm25.36 0l-.345.939.008.003.008.003.329-.945zm8.56 5.68l-.778.629.007.009.008.009.763-.647zm.08 18.32l.79.613.006-.008-.796-.605zm-8.56 6.08l-.365-.931-.004.002.369.929zm-6.64-10.8l-.622-.783-.006.005-.007.005.635.773zm0-10.16l-.651.76.014.012.015.011.622-.783zm-12.24 0l.634.773.003-.003-.637-.77zm0 10.16l-.635.773.007.005.006.005.622-.783zm-5.44-15.28l-.348.938.005.001.343-.939zm-7.84-5.28l-.774.633.007.009.767-.642zm-.08-17.04l-.781-.625-.009.011.79.614zm7.92-5.6l.368.93.013-.006-.381-.924zm23.2 0l-.387.922.009.004.009.003.369-.929zm7.84 5.6l-.79.614.009.01.781-.624zm0 17.04l-.774-.633-.002.002.776.631zm-7.84 5.28l-.343-.94.343.94zm-6.72-8.64l.637.771.009-.008.01-.008-.656-.755zm-.08-8.72l-.637.771.008.007.008.006.621-.784zm-9.6 0l-.637-.771.637.771zm0 8.72l-.657.755.01.008.01.008.637-.771zm4.8 35.88c-4.757 0-8.867-.706-12.351-2.09l-.738 1.86c3.768 1.496 8.139 2.23 13.089 2.23v-2zm-12.351-2.09c-3.492-1.386-6.193-3.317-8.147-5.773l-1.565 1.246c2.206 2.771 5.212 4.893 8.974 6.386l.738-1.858zm-8.133-5.755c-1.885-2.48-2.836-5.385-2.836-8.755h-2c0 3.776 1.075 7.112 3.243 9.965l1.593-1.21zm-2.836-8.755c0-3.314.948-6.068 2.81-8.323l-1.541-1.274c-2.191 2.652-3.27 5.87-3.27 9.597h2zm2.81-8.321c1.944-2.345 4.635-4.145 8.122-5.376l-.665-1.886c-3.766 1.33-6.782 3.315-8.997 5.984l1.54 1.278zm8.13-5.379c3.55-1.286 7.67-1.94 12.38-1.94v-2c-4.891 0-9.25.68-13.061 2.06l.681 1.88zm12.38-1.94c4.709 0 8.802.654 12.295 1.939l.69-1.878c-3.761-1.382-8.095-2.061-12.985-2.061v2zm12.311 1.945c3.541 1.231 6.224 3.03 8.111 5.364l1.555-1.258c-2.166-2.68-5.19-4.667-9.009-5.995l-.657 1.889zm8.126 5.382c1.912 2.255 2.883 5.006 2.883 8.313h2c0-3.733-1.11-6.955-3.358-9.607l-1.525 1.294zm2.883 8.313c0 3.37-.951 6.274-2.837 8.755l1.593 1.21c2.168-2.853 3.244-6.189 3.244-9.965h-2zm-2.831 8.747c-1.896 2.445-4.589 4.375-8.134 5.762l.729 1.862c3.815-1.493 6.829-3.617 8.986-6.398l-1.581-1.226zm-8.138 5.764c-3.485 1.383-7.595 2.089-12.351 2.089v2c4.95 0 9.32-.734 13.089-2.23l-.738-1.86zM106.736 50c2.715 0 4.991-.652 6.714-2.067l-1.269-1.546C110.917 47.425 109.14 48 106.736 48v2zm6.701-2.056c1.814-1.439 2.699-3.45 2.699-5.904h-2c0 1.919-.662 3.322-1.942 4.337l1.243 1.566zm2.699-5.904c0-2.41-.892-4.39-2.699-5.823l-1.243 1.566c1.286 1.02 1.942 2.4 1.942 4.257h2zm-2.67-5.8c-1.723-1.477-4.005-2.16-6.73-2.16v2c2.394 0 4.166.596 5.429 1.68l1.301-1.52zm-6.73-2.16c-2.728 0-5.027.684-6.798 2.15l1.275 1.54c1.323-1.094 3.13-1.69 5.523-1.69v-2zm-6.795 2.147c-1.75 1.438-2.605 3.416-2.605 5.813h2c0-1.87.638-3.252 1.874-4.267l-1.27-1.546zm-2.605 5.813c0 2.442.848 4.45 2.605 5.893l1.269-1.546c-1.23-1.01-1.874-2.415-1.874-4.347h-2zm2.618 5.904c1.77 1.403 4.064 2.056 6.782 2.056v-2c-2.402 0-4.216-.574-5.539-1.623l-1.243 1.566zm6.782-15.224c-4.282 0-8.029-.6-11.257-1.78l-.686 1.88c3.491 1.274 7.477 1.9 11.943 1.9v-2zm-11.253-1.778c-3.173-1.177-5.63-2.846-7.42-4.984l-1.534 1.284c2.05 2.449 4.819 4.3 8.259 5.576l.695-1.876zm-7.413-4.975c-1.763-2.155-2.654-4.726-2.654-7.767h-2c0 3.466 1.028 6.494 3.106 9.033l1.548-1.266zM85.416 18.2c0-3.162.873-5.82 2.589-8.026l-1.579-1.228c-2.017 2.594-3.01 5.696-3.01 9.254h2zm2.58-8.015c1.794-2.242 4.281-4.015 7.508-5.296l-.737-1.858c-3.493 1.386-6.286 3.346-8.332 5.904l1.561 1.25zm7.521-5.3c3.217-1.328 6.95-2.005 11.219-2.005v-2c-4.479 0-8.479.71-11.982 2.156l.763 1.848zm11.219-2.005c4.324 0 8.054.677 11.213 2.002l.773-1.844C115.268 1.589 111.265.88 106.736.88v2zm11.231 2.01c3.225 1.28 5.681 3.05 7.419 5.284l1.579-1.228c-1.995-2.565-4.766-4.529-8.261-5.915l-.737 1.858zm7.428 5.295c1.764 2.205 2.661 4.86 2.661 8.015h2c0-3.564-1.024-6.67-3.1-9.265l-1.561 1.25zm2.661 8.015c0 3.04-.892 5.612-2.654 7.767l1.548 1.266c2.077-2.539 3.106-5.567 3.106-9.033h-2zm-2.656 7.769c-1.731 2.127-4.181 3.794-7.407 4.972l.686 1.878c3.493-1.275 6.27-3.128 8.272-5.588L125.4 25.97zm-7.407 4.972c-3.229 1.178-6.976 1.779-11.257 1.779v2c4.465 0 8.451-.626 11.943-1.9l-.686-1.88zm-11.257-5.181c2.194 0 4.066-.551 5.517-1.749l-1.274-1.542c-1.003.829-2.384 1.291-4.243 1.291v2zm5.536-1.765c1.472-1.28 2.184-3.01 2.184-5.075h-2c0 1.561-.515 2.712-1.497 3.565l1.313 1.51zm2.184-5.075c0-2.165-.737-3.947-2.3-5.184l-1.241 1.568c.997.79 1.541 1.941 1.541 3.616h2zm-2.283-5.171c-1.446-1.194-3.289-1.749-5.437-1.749v2c1.798 0 3.155.459 4.163 1.291l1.274-1.542zM106.736 12c-2.149 0-3.992.555-5.437 1.749l1.274 1.542c1.007-.832 2.364-1.291 4.163-1.291v-2zm-5.437 1.749c-1.505 1.243-2.203 3.02-2.203 5.171h2c0-1.69.528-2.845 1.477-3.629l-1.274-1.542zm-2.203 5.171c0 2.065.712 3.795 2.183 5.075l1.313-1.51c-.982-.853-1.496-2.004-1.496-3.565h-2zm2.203 5.091c1.445 1.194 3.288 1.749 5.437 1.749v-2c-1.799 0-3.156-.459-4.163-1.291l-1.274 1.542z" fill="#78213A" mask="url(#aja)"/></svg>