<?xml version="1.0" encoding="utf-8"?><svg width="175" height="62" fill="none" xmlns="http://www.w3.org/2000/svg" viewBox="0 0 175 62"><path d="M4.042 52.182h0l.007.01c2.143 2.692 5.073 4.766 8.767 6.233 3.698 1.468 8.003 2.195 12.904 2.195s9.206-.727 12.903-2.195c3.748-1.466 6.68-3.541 8.773-6.239l.002-.004c2.098-2.76 3.142-5.987 3.142-9.662 0-3.624-1.073-6.727-3.234-9.279-1.192-1.473-2.656-2.735-4.385-3.79a15.519 15.519 0 002.627-2.535c1.998-2.443 2.992-5.357 2.992-8.716 0-3.461-.99-6.453-2.987-8.95-1.93-2.48-4.62-4.394-8.044-5.753C34.13 2.08 30.196 1.38 25.72 1.38c-4.424 0-8.357.701-11.787 2.116-3.425 1.36-6.14 3.273-8.123 5.752h0l-.004.005C3.864 11.75 2.9 14.74 2.9 18.2c0 3.36.995 6.274 2.993 8.716h0l.004.005c.77.92 1.646 1.754 2.626 2.504-1.745 1.06-3.236 2.331-4.467 3.816h-.001C1.946 35.794.9 38.897.9 42.52c0 3.675 1.045 6.903 3.142 9.662zm27.448-5.414h0l-.007.005c-1.378 1.133-3.28 1.727-5.763 1.727-2.479 0-4.41-.593-5.846-1.73-1.359-1.117-2.054-2.673-2.054-4.73 0-2.002.693-3.533 2.058-4.654h.001c1.435-1.188 3.365-1.806 5.841-1.806 2.478 0 4.377.618 5.755 1.8l.007.006.008.006c1.416 1.123 2.13 2.653 2.13 4.648 0 2.053-.717 3.607-2.13 4.728zm-1.288-31.863h0l.008.007c1.139.901 1.73 2.21 1.73 4.008 0 1.685-.562 2.979-1.663 3.938-1.114.919-2.617 1.402-4.557 1.402-1.883 0-3.36-.481-4.476-1.402-1.101-.96-1.664-2.253-1.664-3.938 0-1.805.571-3.116 1.659-4.015 1.117-.922 2.595-1.405 4.481-1.405 1.886 0 3.365.482 4.482 1.405zM63.258 58.8l-.305.7h18.373l.13-.303 19.76-46.08.04-.094V2.5h-47.4v22.2h14.52v-8.64h13.491L63.257 58.8zm50.899-.082l-.534.782H126.354l.149-.218 38.24-56 .534-.782H152.546l-.149.218-38.24 56zm-7.39-32.287l.002.005c1.27 2.374 3.043 4.205 5.316 5.48 2.268 1.272 4.807 1.904 7.605 1.904 2.848 0 5.389-.63 7.607-1.905 2.273-1.276 4.045-3.135 5.314-5.56 1.326-2.432 1.979-5.29 1.979-8.555 0-3.317-.653-6.177-1.982-8.56-1.268-2.37-3.039-4.198-5.307-5.473-2.219-1.329-4.761-1.987-7.611-1.987-2.801 0-5.341.66-7.609 1.986-2.271 1.275-4.043 3.105-5.312 5.478-1.274 2.382-1.899 5.24-1.899 8.556 0 3.316.625 6.199 1.897 8.631zm15.881-2.848l-.005.006-.004.005c-.773 1.111-1.721 1.626-2.869 1.626-1.151 0-2.16-.518-3.042-1.643-.806-1.094-1.258-2.983-1.258-5.777s.452-4.683 1.258-5.777c.882-1.125 1.891-1.643 3.042-1.643 1.148 0 2.096.514 2.869 1.625l.004.006.005.006c.808 1.094 1.262 2.984 1.262 5.783 0 2.799-.454 4.69-1.262 5.783zm28.873 34.73l.004.003c2.269 1.273 4.835 1.904 7.685 1.904 2.848 0 5.389-.63 7.606-1.905 2.272-1.275 4.044-3.105 5.313-5.477 1.328-2.434 1.981-5.32 1.981-8.638 0-3.317-.653-6.177-1.982-8.56-1.268-2.37-3.039-4.198-5.307-5.473-2.219-1.329-4.761-1.987-7.611-1.987-2.853 0-5.421.66-7.691 1.988-2.219 1.276-3.962 3.106-5.23 5.476-1.274 2.382-1.899 5.24-1.899 8.556 0 3.316.625 6.199 1.897 8.631l.002.005c1.268 2.37 3.012 4.201 5.232 5.477zm10.647-8.33c-.828 1.12-1.808 1.637-2.958 1.637-1.091 0-2.075-.512-2.962-1.643-.806-1.094-1.258-2.983-1.258-5.777s.452-4.683 1.258-5.777c.887-1.131 1.871-1.643 2.962-1.643 1.15 0 2.13.517 2.958 1.637.808 1.094 1.262 2.984 1.262 5.783 0 2.799-.454 4.69-1.262 5.783z" stroke="#78213A"/></svg>