<?xml version="1.0" encoding="utf-8"?><svg width="54" height="54" fill="none" xmlns="http://www.w3.org/2000/svg" viewBox="0 0 54 54"><path d="M45.563 11.813h-8.438v-1.688a5.063 5.063 0 00-5.063-5.063H21.938a5.062 5.062 0 00-5.063 5.063v1.688H8.437a3.375 3.375 0 00-3.374 3.374v27a3.375 3.375 0 003.375 3.376h37.124a3.375 3.375 0 003.376-3.376v-27a3.375 3.375 0 00-3.376-3.374zM20.25 10.124a1.687 1.687 0 011.688-1.688h10.125a1.687 1.687 0 011.687 1.688v1.688h-13.5v-1.688zm25.313 5.063v8.777A38.812 38.812 0 0127 28.688a38.827 38.827 0 01-18.563-4.721v-8.78h37.126zm0 27H8.437v-14.42A42.228 42.228 0 0027 32.062a42.24 42.24 0 0018.563-4.296v14.422zM21.936 23.625a1.687 1.687 0 011.688-1.688h6.75a1.687 1.687 0 110 3.375h-6.75a1.687 1.687 0 01-1.688-1.687z" fill="#78213A"/></svg>