<?xml version="1.0" encoding="utf-8"?><svg width="31" height="30" fill="none" xmlns="http://www.w3.org/2000/svg" viewBox="0 0 31 30"><path d="M12.602 25.125a1.84 1.84 0 11-3.681 0 1.84 1.84 0 013.681 0zm10.125-1.84a1.841 1.841 0 100 3.681 1.841 1.841 0 000-3.682zm5.49-14.482l-2.95 10.618a2.769 2.769 0 01-2.655 2.022H11.24a2.768 2.768 0 01-2.665-2.022L4.54 4.875H2.477a.92.92 0 110-1.84h2.761a.92.92 0 01.888.673l1.09 3.928H27.33a.92.92 0 01.887 1.167zm-2.1.674H7.729l2.625 9.451a.92.92 0 00.887.674h11.372a.92.92 0 00.887-.674l2.619-9.45z" fill="#1B2A3B"/></svg>