<?xml version="1.0" encoding="utf-8"?><svg width="54" height="54" fill="none" xmlns="http://www.w3.org/2000/svg" viewBox="0 0 54 54"><path d="M48.953 39.395a16.875 16.875 0 00-13.184-24.083A16.875 16.875 0 105.049 29.27l-1.534 5.212a3.375 3.375 0 004.19 4.191l5.213-1.533a16.96 16.96 0 005.312 1.55 16.875 16.875 0 0022.853 8.575l5.212 1.533a3.376 3.376 0 004.191-4.189l-1.533-5.214zm-35.875-5.75c-.16 0-.321.022-.476.067L6.75 35.437l1.724-5.855a1.688 1.688 0 00-.133-1.266 13.5 13.5 0 115.539 5.54 1.687 1.687 0 00-.802-.212zm32.44 6.06l1.732 5.857-5.855-1.723a1.688 1.688 0 00-1.266.133 13.51 13.51 0 01-18.113-5.248 16.86 16.86 0 0014.835-19.8 13.5 13.5 0 018.807 19.507c-.21.39-.258.848-.133 1.274h-.006z" fill="#78213A"/></svg>