<?xml version="1.0" encoding="utf-8"?><svg width="24" height="24" fill="none" xmlns="http://www.w3.org/2000/svg" viewBox="0 0 24 24"><path d="M23.25 12a8.188 8.188 0 01-1.65 4.95.75.75 0 11-1.2-.9A6.688 6.688 0 0021.75 12a6.75 6.75 0 00-13.5 0 .75.75 0 11-1.5 0c0-.757.104-1.51.309-2.239-.102-.011-.205-.011-.309-.011a4.5 4.5 0 000 9H9a.75.75 0 110 1.5H6.75a6 6 0 11.871-11.936A8.25 8.25 0 0123.251 12zm-6.53 3.97L15 17.69V12a.75.75 0 10-1.5 0v5.69l-1.719-1.72a.75.75 0 10-1.061 1.06l3 3a.747.747 0 001.061 0l3-3a.75.75 0 10-1.061-1.06z" fill="currentColor"/></svg>