<?xml version="1.0" encoding="utf-8"?><svg width="30" height="30" fill="none" xmlns="http://www.w3.org/2000/svg" viewBox="0 0 30 30"><path d="M23.285 4.875a.92.92 0 100 1.84 1.841 1.841 0 011.84 1.842v6.682a5.063 5.063 0 00-8.09 2.522h-4.069a5.062 5.062 0 00-8.09-2.522V8.557a1.84 1.84 0 011.84-1.841.92.92 0 000-1.841 3.682 3.682 0 00-3.681 3.682v10.585a5.062 5.062 0 0010.103.46h3.725a5.063 5.063 0 0010.104-.46V8.557a3.682 3.682 0 00-3.682-3.682zM8.097 22.364a3.222 3.222 0 110-6.443 3.222 3.222 0 010 6.443zm13.807 0a3.221 3.221 0 110-6.443 3.221 3.221 0 010 6.443z" fill="#1B2A3B"/></svg>