<?xml version="1.0" encoding="utf-8"?><svg width="84" height="85" fill="none" xmlns="http://www.w3.org/2000/svg" viewBox="0 0 84 85"><path d="M39.242.252c-3.23.872-5.777 3.47-6.615 6.769-.376 1.419-.24 3.931.257 5.333.905 2.564 3.076 4.717 5.657 5.606 1.573.547 4.735.547 6.222 0 3.538-1.316 5.829-4.41 6.034-8.153.12-1.949-.137-3.145-.992-4.854C48.66 2.645 46.472.902 43.908.235c-1.23-.325-3.452-.308-4.666.017zm4.906 2.838c1.367.512 3.076 2.222 3.623 3.64.496 1.282.547 3.521.103 4.7a7.001 7.001 0 01-4.034 4.035c-1.077.41-3.265.41-4.41.017-1.812-.633-3.453-2.29-4.085-4.12-.444-1.264-.393-3.316.102-4.597.735-1.898 2.787-3.624 4.804-4.051 1.06-.223 2.734-.052 3.897.376z" fill="#4988D1"/><path d="M6.987.833c-5.52.787-8.58 6.564-6.136 11.555 2 4.085 7.076 5.709 11.059 3.538l.838-.461 5.726 5.726 5.709 5.709v13.435c0 14.631-.035 14.084.957 15.605l.444.667L19.191 63 12.8 69.392l-1.333-.632c-1.146-.547-1.522-.633-2.923-.718-1.932-.103-3.402.29-4.974 1.299-4.137 2.684-4.752 8.871-1.214 12.41 2.615 2.614 6.957 3.11 10.016 1.145 3.556-2.29 4.77-6.82 2.82-10.65l-.444-.87 6.564-6.547 6.546-6.564.838.256c.479.154 1.521.257 2.444.257h1.59V69.7c0 12.478-.051 12.033 1.401 13.606 1.06 1.162 2.222 1.692 3.727 1.692 1.35 0 2.17-.256 3.179-1.026l.77-.598.597.53c.923.803 1.71 1.077 3.145 1.094 1.077.017 1.436-.068 2.257-.462 1.145-.564 2.205-1.692 2.632-2.82.29-.735.325-1.71.376-11.965l.051-11.144h1.846c1.009 0 2.103-.086 2.41-.188l.547-.205 6.547 6.546 6.546 6.547-.324.53c-1.385 2.239-1.334 6.033.12 8.324 3.76 5.965 12.904 4.632 14.682-2.154 1.504-5.777-4.256-11.418-10.085-9.914-.547.154-1.367.479-1.829.718l-.837.462-6.444-6.444c-6.034-6.034-6.41-6.444-6.154-6.735.154-.17.445-.65.667-1.077l.41-.769.086-13.794.085-13.81 5.64-5.641 5.658-5.658 1.334.632c1.145.547 1.52.633 2.922.718 1.966.103 3.453-.307 5.026-1.35 5.657-3.777 4.136-12.683-2.462-14.443-2.034-.547-4.666-.154-6.392.94-3.555 2.29-4.77 6.82-2.82 10.649l.444.871-5.077 5.06-5.06 5.06-.358-.514c-1.094-1.52-2.53-2.41-4.325-2.666-1.623-.24-6.922-.188-7.435.068-.273.137-1.196 1.436-2.478 3.487-1.128 1.812-2.086 3.3-2.137 3.3-.051 0-.957-1.385-2.034-3.095-1.077-1.692-2.136-3.23-2.376-3.418-.393-.29-.718-.325-3.794-.325-1.846 0-3.795.085-4.342.188-1.299.274-2.581 1.077-3.436 2.154-.376.478-.718.889-.769.889-.051.017-2.359-2.257-5.11-5.009L14.713 13.5l.462-.838C18.303 6.918 13.465-.072 6.987.834zm2.786 2.838c1.18.393 2.154 1.128 2.77 2.068 2.375 3.59-.103 8.427-4.325 8.46-1.658 0-2.718-.426-3.88-1.555C2.8 11.124 2.304 9.243 2.902 7.21c.838-2.837 4.051-4.495 6.871-3.538zm67.79.307c3.658 1.778 4.051 7.094.684 9.316-3.59 2.393-8.427-.085-8.461-4.324 0-1.59.41-2.684 1.47-3.795 1.213-1.3 2.461-1.812 4.153-1.726.89.05 1.487.188 2.154.53zM38.181 26.917c1.47 2.307 2.616 3.931 2.855 4.034.855.393 1.094.154 3.726-3.966l2.53-3.931h3.18c3.469 0 4.101.137 4.939 1.043.94 1.025.906.564.906 15.417v13.743l-.393.752c-.222.41-.735.974-1.128 1.265-.684.478-.855.512-2.513.564l-1.778.068v-9.23c0-9.06 0-9.23-.359-9.674-.427-.547-1.282-.599-1.88-.12l-.41.325-.086 21.69c-.068 16.87-.136 21.76-.29 22.05-.65 1.128-2.376 1.504-3.436.752-1.094-.77-1.06-.342-1.06-11.623 0-7.299-.05-10.375-.188-10.683-.41-.889-1.948-.889-2.358 0-.137.308-.188 3.367-.188 10.598 0 11.28.017 11.024-1.094 11.708-.855.513-1.504.564-2.376.188-1.538-.684-1.385 1.521-1.487-22.99l-.086-21.69-.41-.325a1.389 1.389 0 00-1.743 0l-.41.325-.052 9.332-.034 9.333h-1.555c-1.744 0-2.513-.24-3.368-1.077-1.077-1.043-1.06-.837-1.06-15.4 0-8.991.069-13.401.189-13.863.256-.957.922-1.777 1.76-2.153.598-.274 1.145-.325 3.948-.308h3.248l2.462 3.846zM10.337 71.033c2.53 1.111 3.727 4 2.804 6.752-.41 1.265-1.864 2.7-3.23 3.213-2.633.975-5.624-.29-6.82-2.888-.53-1.163-.497-3.385.067-4.547 1.317-2.684 4.393-3.778 7.18-2.53zm66.508-.273c2.222.547 3.897 3.06 3.71 5.52-.343 4.274-5.043 6.479-8.615 4.017-3.163-2.17-2.787-7.384.683-9.161 1.334-.684 2.564-.786 4.222-.376z" fill="#4988D1"/></svg>