<?xml version="1.0" encoding="utf-8"?><svg width="24" height="24" fill="none" xmlns="http://www.w3.org/2000/svg" viewBox="0 0 24 24"><path d="M19.5 3.75h-15A2.25 2.25 0 002.25 6v10.5a2.25 2.25 0 002.25 2.25h15a2.25 2.25 0 002.25-2.25V6a2.25 2.25 0 00-2.25-2.25zm.75 12.75a.75.75 0 01-.75.75h-15a.75.75 0 01-.75-.75V6a.75.75 0 01.75-.75h15a.75.75 0 01.75.75v10.5zm-4.5 4.5a.75.75 0 01-.75.75H9a.75.75 0 110-1.5h6a.75.75 0 01.75.75zm-.334-10.374l-4.5-3a.75.75 0 00-1.166.624v6a.75.75 0 001.166.624l4.5-3a.75.75 0 000-1.248zm-4.166 2.222V9.656l2.398 1.594-2.398 1.598z" fill="#78213A"/></svg>