<?xml version="1.0" encoding="utf-8"?><svg width="54" height="54" fill="none" xmlns="http://www.w3.org/2000/svg" viewBox="0 0 54 54"><path d="M43.875 8.438h-33.75A5.063 5.063 0 005.062 13.5v23.625a5.062 5.062 0 005.063 5.063h33.75a5.062 5.062 0 005.063-5.063V13.5a5.063 5.063 0 00-5.063-5.063zm1.688 28.687a1.687 1.687 0 01-1.688 1.688h-33.75a1.687 1.687 0 01-1.688-1.688V13.5a1.687 1.687 0 011.688-1.688h33.75a1.687 1.687 0 011.688 1.688v23.625zM35.437 47.25a1.687 1.687 0 01-1.687 1.688h-13.5a1.687 1.687 0 110-3.376h13.5a1.687 1.687 0 011.688 1.688zm-.75-23.342l-10.125-6.75a1.688 1.688 0 00-2.625 1.404v13.5a1.688 1.688 0 002.625 1.405l10.125-6.75a1.686 1.686 0 000-2.81zm-9.374 5.001v-7.182l5.395 3.585-5.395 3.597z" fill="#78213A"/></svg>