<?xml version="1.0" encoding="utf-8"?><svg width="160" height="116" fill="none" xmlns="http://www.w3.org/2000/svg" viewBox="0 0 160 116"><g clip-path="url(#kclip0_2447_6809)"><path d="M42.704 45.898c-.19 0-.316.127-.316.317s.126.318.316.318.316-.127.316-.318c0-.127-.126-.318-.316-.318zM43.78 49.011c0 .19.126.318.316.318s.316-.127.316-.318c0-.19-.126-.318-.316-.318s-.316.127-.316.318zM42.704 48.693c-.19 0-.316.127-.316.318 0 .19.126.318.316.318s.316-.127.316-.318c0-.19-.126-.318-.316-.318zM45.171 49.011c0 .19.127.318.317.318s.316-.127.316-.318c0-.19-.127-.318-.316-.318-.19 0-.317.127-.317.318zM42.261 42.783l.063.826-.696-.063v.89l.696-.128-.063.826h.886l-.063-.826.695.127v-.89l-.696.064.064-.826h-.886zM43.273 45.643v2.859h2.72a3.368 3.368 0 00-2.72-2.86zM42.704 47.295c-.19 0-.316.127-.316.318 0 .19.126.317.316.317s.316-.127.316-.317c0-.191-.126-.318-.316-.318zM43.843 50.917c-.063 0-.316.699-.063 1.207.126.255.38.381.632.318.253-.063.317-.318.317-.445-.064-.572-.506-1.08-.886-1.08zM41.565 50.917c-.38 0-.822.508-.822 1.08 0 .19.063.382.316.445s.506-.063.633-.318c.126-.508-.064-1.207-.127-1.207zM42.704 50.536c-.253 0-1.012 1.462-.443 2.16.127.128.253.191.443.191s.38-.063.443-.19c.506-.7-.19-2.16-.443-2.16z" fill="#4988D1"/><path d="M39.351 49.011c0-.318.063-.572.063-.572h2.72V45.58a3.472 3.472 0 00-2.72 2.605c-.063.127-.316.19-.506.127-1.012-.127-3.037-.508-3.037-.953 0-.635.443-.89.823-.89.57 0 1.202.318 1.708-.444-1.835.063-.443-2.605-1.961-3.114.063.7 0 1.906-.253 2.542 0 0-.57-.572-1.14-.826.064.508-.062 1.525-.252 2.033 0 0-.633-.635-1.329-.826.633.89.633 2.224.443 2.986-.063.255.127.509.57.509.759-.064 3.29.063 4.365.508.316.127.633.318.759.572.127.318.38.826.76 1.08.189-.572.822-1.207 1.265-1.143.126 0 .253.254.316.444.063-.19.38-.762.696-.762.316 0 .632.445.759.826.063-.254.19-.508.316-.508.443 0 1.012.38 1.202 1.08.19-.19.95-1.208 1.013-1.907h-6.58v-.508z" fill="#4988D1"/><path d="M40.996 49.011c0 .19.127.318.316.318.19 0 .317-.127.317-.318 0-.19-.127-.318-.317-.318s-.316.127-.316.318zM39.667 49.011c0 .19.127.318.317.318s.316-.127.316-.318c0-.19-.126-.318-.316-.318s-.317.127-.317.318zM13.476 50.408c-.127.127-.38.826-.254 1.271.064.19.127.254.317.254s.253-.127.316-.318c.063-.444-.253-1.143-.38-1.207zM15.816 52.378c-.126.191-.316.255-.38.318.064.064.254.19.443.19a.482.482 0 00.317-.126c.19-.382 0-.7-.064-.826-.063.127-.126.317-.316.444zM14.93 51.488c.254-.254.317-.444.254-.572-.064-.19-.633-.762-1.266-1.46 0 .126-.063.253-.063.38.443.636.633 1.271.506 1.843.063.064.063.064.127.064.126.127.316-.064.443-.255zM15.816 51.552c0-.127 0-.19-.063-.254h-.063c-.064 0-.127.127-.19.19-.063.064-.127.191-.253.318l-.316.318c-.127.063-.19.19-.19.254v.064c.063.063.063.063.126.063s.253-.063.57-.381c.316-.318.38-.445.38-.572zM11.64 48.185s-.063.063-.126.19c.127 0 .317 0 .443.064v-.445c-.127 0-.253.127-.316.19z" fill="#4988D1"/><path d="M13.349 48.376s1.329 1.143 1.771 1.588c.127.127.254.127.38.064.063-.064.19-.064.316-.127 1.329-.445 3.48-.509 4.24-.509.505 0 .632-.254.569-.508-.127-.763-.19-2.097.442-2.986-.695.254-1.328.826-1.328.826-.253-.445-.317-1.525-.253-2.034-.633.19-1.139.826-1.139.826-.253-.635-.316-1.842-.253-2.541-1.518.508-.127 3.24-1.961 3.113.506.763 1.139.445 1.708.445.38 0 .886.254.822.89-.063.444-2.53.953-3.543.953-.695 0-1.202-.191-1.518-.7-.19-.254-.316-.317-.506-.317-.253.063-.506.254-.506.89 0 .38.19 1.27.633 1.27.253.064.253-.699.126-1.143zM10.818 47.994h.19c-.19.254-.19.445-.126.508.126.127.19-.127.506-.445.316-.317.506-.444.442-.572-.063-.063-.253-.063-.506.128 0-.064.064-.127 0-.191-.126-.318-.57-.699-.885-.699h-.127c.127-.19.063-.318 0-.445-.063-.063-.127 0-.253.127 0-.063 0-.19-.063-.317-.38-.636-2.53-2.67-3.037-2.86-.316-.127-.38.064-.38.064s-.19.127-.063.381c.19.508 2.278 2.605 2.847 2.986.127.064.253.128.316.064-.126.127-.19.127-.063.254.063.064.19.127.38 0v.127c.126.255.506.763.822.89zM12.337 49.52c0-.192-.38-.573-.886-.573-.696 0-1.012.445-1.012.7 0 .444.443.508.57.508.442 0 1.265-.509 1.328-.636zM11.704 50.6c-.19.253-.253.508-.19.698.064.255.317.382.57.382a.777.777 0 00.633-.318c.252-.445.252-1.398.19-1.462-.254 0-.886.255-1.203.7zM5.504 40.686c-.19-.19-.632.127-.885-.063.126-.636.569 0 .949-.381.19-.191.063-.445 0-.509-.19.19-.443.127-.507 0 .443-1.144-.442-2.35-1.328-2.224.19.254.253 1.08.126 1.271.317.254.127.826-.253.636-.253-.128-.696-.763-.19-1.144 0-.19-.316-.19-.569.19.19-.699-1.139-.508-1.392-.317-.126.317-.316 1.652.38 1.398-.38.317-.316.635-.19.635.443-.508 1.012-.127 1.139.127.19.381-.38.636-.633.318-.19.063-1.012.063-1.202-.127-.126.89 1.139 1.842 2.215 1.334.126 0 .19.318 0 .508.063.127.38.191.506 0 .442-.444-.19-.89.38-1.016.126.254-.127.699.062.89.317.317.696-.318 1.14-.318 0-.509.569-.89.252-1.208zm-3.29-1.461s-.19-.127.064-.445c.253-.254.38-.063.38-.063s.252.508.316.762c-.253 0-.76-.254-.76-.254zm2.025 1.588c-.127 0-.443.318-.57.127l-.695-.698.38-.382.379-.381.696.699c.063.19-.19.508-.19.635zM5.694 41.958c-.063 0-.127 0-.19.064-.063.063-.063.19-.063.317s.126.254.253.382c.063.19.253.254.38.254.063 0 .126 0 .19-.064.126-.127.063-.508-.127-.699-.127-.127-.316-.254-.443-.254z" fill="#4988D1"/><path d="M3.67 39.86l-.19.191-.19.19s.38.509.696.318c.19-.317-.316-.699-.316-.699zM40.616 37.955c0 .127-.506.38-.886-.318-.38-.064-.759-.19-1.012-.318.443.89.823 1.652 1.455 2.033.95.572 2.404.445 2.847-.19-.822-.445-1.771-1.589-2.277-2.669-.127.254-.317.7-.443 1.017.063.127.19.318.316.445zM49.41 24.039c1.013-.445 2.468-1.462 3.164-2.097.063.127.316.699-.443 1.334-.57.445-1.708 1.017-2.53 1.334-.38.572-1.14 1.208-2.152 1.907 2.025-.318 4.429-1.144 5.63-2.288 2.215-2.224 1.076-4.892.76-5.528-1.455 1.843-4.239 3.75-6.833 4.766.886.127 1.772.318 2.404.572zM47.766 19.973c1.328-1.08 2.72-3.241 2.973-4.004.316.191.443.826.063 1.525-.696 1.208-1.961 2.288-3.036 3.177-.064.763-.38 1.716-.76 2.415 1.582-1.08 3.417-2.669 4.24-3.749 1.075-1.398 1.517-2.796 1.328-4.194.063-1.588-1.076-3.177-1.519-3.558-.316 1.716-2.024 4.639-3.542 6.29.126.573.253 1.398.253 2.098zM46.753 30.012c.316.381.633.826.886 1.207 1.202.254 2.657.19 2.657.19s-.063.636-.886.7c-.38 0-1.518-.191-1.961-.318a13.71 13.71 0 01-1.961.445c1.265.445 3.1.89 4.239.89h.316c1.835-.191 2.784-1.907 2.847-2.86-.57.127-1.519.19-2.468.19-.885 0-2.467-.063-3.669-.444zM54.408 25.183c-1.645.89-4.555 1.779-6.896 1.779.57.381 1.139.762 1.518 1.143.95-.063 2.278-.38 3.037-.635 0 .127 0 .763-.886 1.017-.632.19-1.518.19-2.214.19-.57.382-1.392.7-2.088.954.633.063 1.456.127 2.151.127 1.203 0 2.341-.127 3.037-.382.633-.19 2.72-1.08 2.341-4.193zM45.551 33.952c.696.317 1.455.571 2.088.635 0 0-.127.635-1.076.508-.57-.063-1.202-.508-1.328-.572-.443.064-1.329.064-1.645 0 1.075.763 2.72 1.652 4.112 1.78h.19c1.455 0 2.594-1.462 2.91-2.16-1.455 0-3.986-.636-5.504-1.462.063.254.19.762.253 1.27zM43.02 35.921c.38.445 1.012.7 1.012.7s-.19.317-.569.317c-.126 0-.253-.064-.38-.127-.252-.127-.632-.572-.632-.572-.506-.064-.95-.127-1.392-.254.76.953 2.025 2.16 3.416 2.478.19.063.38.063.633.063 1.202 0 2.214-.89 2.467-1.461-1.391-.19-3.416-1.271-4.428-2.288 0 .382-.063.826-.127 1.144zM33.974 51.489c.696 0 1.139-.255 1.455-.953-.95.444-1.961.19-3.86-.382 0 0-.695.318-1.138.381 1.139.318 2.784.89 3.037 1.526.126.508-.19.635-.19.635-.633-.762-1.392-1.207-3.037-1.716 0 .318-.063.509-.063.509s-.317.063-1.076-.064c.633.509 2.151 1.843 2.341 3.24.127.954-.57 1.017-.57 1.017-.063-1.461-.695-2.35-2.087-3.812 0 0-.253.318-.506.508 0 0-.506-.063-.886-.381.19 1.906.253 6.481.127 7.18-.064.508-.38.763-.38.763s-.316-.19-.38-.763c-.126-.762 0-5.337.127-7.18-.443.254-.886.381-.886.381-.316-.19-.506-.508-.506-.508-1.328 1.461-1.961 2.415-2.088 3.812 0 0-.632-.063-.569-1.016.19-1.398 1.708-2.732 2.34-3.24-.695.126-1.075.063-1.075.063s-.063-.191-.063-.509c-1.645.509-2.34.954-3.037 1.716 0 0-.316-.064-.19-.636.254-.635 1.898-1.143 3.037-1.525-.38-.063-1.139-.38-1.139-.38-1.834.571-2.91.825-3.859.38.253.7.76.954 1.455.954-.885.317-1.708 1.207-1.96 2.097.632 2.35 2.656 3.05 2.656 3.05-.506-1.144-.316-3.368 2.72-4.893-1.834 1.843-2.593 3.558-2.087 5.147.443 1.461 1.961 2.033 3.037 2.097-.76-2.415-.443-4.639 1.202-6.355-.696 1.907-1.708 7.816 1.139 8.77 2.846-.954 1.834-6.863 1.138-8.77 1.645 1.78 1.962 3.94 1.202 6.355 1.14 0 2.594-.636 3.037-2.097.506-1.589-.19-3.304-2.088-5.147 3.037 1.525 3.227 3.812 2.72 4.892 0 0 2.025-.698 2.658-3.05 0-.889-.886-1.715-1.708-2.096zM14.361 39.352c.633-.38 1.012-1.143 1.455-2.033a3.806 3.806 0 01-1.012.318c-.38.699-.886.445-.886.318a1.93 1.93 0 00.317-.445 16.173 16.173 0 00-.443-1.017c-.506 1.144-1.519 2.224-2.278 2.669.443.635 1.898.762 2.847.19zM7.022 26.517c-1.075-.7-1.771-1.335-2.15-1.907-.886-.317-2.025-.89-2.531-1.334-.76-.635-.506-1.207-.443-1.334.633.699 2.088 1.652 3.163 2.097.633-.255 1.519-.445 2.404-.572-2.594-.953-5.377-2.923-6.832-4.702-.317.572-1.519 3.304.759 5.528 1.139 1.08 3.606 1.906 5.63 2.224zM7.465 23.023c-.38-.7-.696-1.589-.759-2.415-1.075-.826-2.277-1.906-3.037-3.177-.38-.7-.253-1.335.064-1.525.253.762 1.644 2.923 2.973 4.003 0-.699.127-1.525.316-2.097-1.518-1.652-3.29-4.575-3.542-6.29-.443.38-1.582 1.97-1.519 3.558-.19 1.398.253 2.796 1.329 4.194.759 1.08 2.594 2.732 4.175 3.748zM6.833 31.219c.19-.381.57-.826.885-1.207-1.202.317-2.783.381-3.606.381-1.012 0-1.96-.064-2.467-.19.063 1.016 1.012 2.732 2.847 2.859h.316c1.14 0 2.974-.445 4.24-.89-.887-.127-1.772-.318-1.962-.445-.506.255-1.645.445-2.025.382-.822-.064-.885-.7-.885-.7s1.455.064 2.657-.19zM2.404 29.44c.696.254 1.772.381 3.037.381.76 0 1.518-.063 2.15-.127-.695-.254-1.517-.572-2.087-.953-.696 0-1.645-.064-2.214-.19-.886-.255-.886-.89-.886-1.017.76.317 2.088.635 3.037.635.38-.318.886-.762 1.518-1.144-2.277 0-5.25-.89-6.896-1.779-.38 3.05 1.709 3.94 2.341 4.194zM6.643 36.24h.19c1.391-.128 3.036-1.018 4.112-1.78-.317.063-1.266.063-1.645 0-.127.127-.823.508-1.329.572-1.012.127-1.075-.508-1.075-.508.632-.064 1.392-.318 2.087-.636.064-.508.19-1.017.317-1.334-1.582.89-4.112 1.525-5.568 1.525.317.699 1.456 2.16 2.91 2.16zM9.363 38.526c.19 0 .443 0 .633-.063 1.329-.318 2.657-1.525 3.416-2.478-.443.127-.885.254-1.392.254 0 0-.316.381-.632.572-.127.063-.253.127-.38.127-.38 0-.57-.318-.57-.318s.633-.318 1.013-.699a6.32 6.32 0 01-.126-1.144c-1.076 1.08-3.037 2.097-4.429 2.288.253.572 1.202 1.461 2.467 1.461zM26.698 3.77a.5.5 0 00.506.507c.253 0 .506-.254.506-.508a.5.5 0 00-.506-.508c-.253-.064-.506.19-.506.508zM26.888 2.625h.696l-.064-.89.76.128v-.7l-.76.064.064-.826h-.696l.063.826-.76-.063v.699l.76-.127-.063.89zM24.42 11.013c.064 0 .19.064.253.064h5.062c.126 0 .19 0 .253-.064.19-.063.253-.19.316-.381h-6.2c.063.254.19.318.316.381zM29.988 10.25c.063 0 .063-.063.063-.063v-.381c0-.064-.063-.064-.063-.064h-5.504c-.064 0-.064.064-.064.064v.381c0 .064.064.064.064.064h5.504zM30.557 9.297c.127-.19.823-1.525.823-2.923 0-1.27-1.582-1.97-2.467-1.97-.127 1.78-.823 4.575-1.709 4.575-.822 0-1.581-2.796-1.708-4.575-.949 0-2.467.7-2.467 1.97 0 1.398.696 2.796.822 2.923h6.706z" fill="#4988D1"/><path d="M27.204 8.09c.443 0 .95-1.334 1.139-2.668 0-.255-.443-.636-1.139-.7-.696 0-1.139.382-1.139.7.19 1.207.76 2.668 1.14 2.668zM35.239 28.932c0-.19-.127-.318-.317-.318H19.55c-.19 0-.317.127-.317.318V39.67s0 .572.253 1.208c.317.762 1.645 2.033 3.29 2.923 2.341 1.207 3.733 2.16 4.429 2.732.696-.572 2.088-1.525 4.428-2.732 1.709-.89 2.974-2.16 3.29-2.923.317-.7.253-1.208.253-1.208l.064-10.738zm-5.188 3.876v.063c.19.763.38 1.59.443 2.352a20.727 20.727 0 011.708 1.525c.949-1.08 1.455-2.097 1.455-2.923a.84.84 0 01-.822-.826c0-.191.063-.318.126-.445-.443-.19-.949-.254-1.392-.254-.38 0-.759.063-1.202.127h-.063l-.127.063.064-.063c.063-.127.063-.19.126-.318 1.265-.254 2.278-.127 2.91.254.127-.063.253-.127.38-.127a.84.84 0 01.822.826c0 .318-.19.572-.443.7 0 .889-.506 2.032-1.581 3.303a340.357 340.357 0 00.316.318v.063l-.19.191h-.063-.063c-.063-.063-.063-.063-.063-.127-.064-.063-.064-.127-.127-.19l-.38.38-.126.191c-.19.127-.38.191-.506.127h-.063l.063-.063c.316-.254.57-.572.822-.763-.38-.444-.885-.89-1.392-1.334.064.445.064.89.064 1.334 0 .382 0 .826-.064 1.271-.063.064-.19.127-.253.19l-.063.064v-.063c.063-.509.063-1.017.063-1.462v-.571c0-.318-.063-1.208-.126-1.78-.063-.508-.19-1.016-.316-1.525v-.063l.19-.19-.127-.255zm-5.188-1.144c.633-1.525 1.518-2.35 2.404-2.35.886 0 1.771.825 2.404 2.35v.064h-.063c-.063 0-.127.063-.253.127h-.063v-.064c-.57-1.334-1.329-2.096-2.088-2.096-.76 0-1.518.762-2.088 2.096v.064h-.063c-.063-.127-.19-.127-.19-.19zm-.253.381c.19.128.76.445 1.392.255.57-.191 1.202-.191 1.202-.191s.696 0 1.202.19c.633.191 1.202-.126 1.392-.254.063 0 .063 0 .063.064-.063.254-.253.89-1.202 1.144-.886.19-1.329 1.207-1.455 1.652 0 .063-.063.063-.127 0-.126-.445-.57-1.462-1.455-1.652-.949-.19-1.139-.89-1.202-1.144.127-.064.19-.064.19-.064zm1.518 2.542c.127 0 .317-.063.443-.127.063.127.127.318.19.445-.19.127-.38.19-.633.19a1.204 1.204 0 01-1.202-1.207c0-.19.064-.317.127-.445.126.064.253.128.443.191-.064.064-.064.19-.064.254-.063.382.317.7.696.7zm-.316-.762v-.127c.19.063.38.254.506.38-.063.064-.126.064-.19.064-.19 0-.316-.127-.316-.317zm.316 1.652c.253 0 .57-.064.823-.254.063.063.19.317.253.317.126 0 .19-.254.253-.317.253.127.57.254.822.254.443 0 .823-.19 1.14-.445v.064c.126.508.189 1.143.126 1.397 0 .255-.127.509-.19.763-.127.318-.19.572-.19.572s0 .063-.063.19c-.064.255-.253.7-.506 1.144-.506-.318-1.013-.445-1.645-.445-.57 0-1.076.127-1.519.382-.19-.445-.38-.826-.442-1.017-.064-.127-.064-.19-.064-.19s-.126-.255-.253-.636a2.295 2.295 0 01-.126-.699c0-.19-.064-.826.126-1.398 0-.063.064-.127.064-.19.442.254.949.508 1.391.508zm2.215-.89c.442 0 .759-.318.759-.762 0-.127 0-.191-.064-.255.127-.063.317-.127.443-.19.064.127.127.318.127.445 0 .699-.57 1.207-1.202 1.207-.253 0-.443-.064-.633-.19.064-.128.127-.255.19-.445.063.127.253.19.38.19zm-.19-.508a.984.984 0 01.506-.381v.127c0 .19-.127.317-.316.317-.064 0-.127 0-.19-.063zm-7.339-1.78a.91.91 0 01.443.128c.443-.254.949-.382 1.645-.382.38 0 .759.064 1.202.128h.063c0 .063.063.19.127.317l.063.064-.127-.064h-.126c-.38-.063-.76-.127-1.139-.127-.443 0-1.012.064-1.392.318a.921.921 0 01.127.445.84.84 0 01-.823.826c0 .762.506 1.779 1.455 2.923.506-.509 1.076-1.08 1.709-1.525.063-.763.253-1.589.442-2.351v-.064l.064.064.19.19.063.064v.063c-.127.509-.253.953-.317 1.462v.063c-.063.382-.126.89-.126 1.398 0 .382-.063.7-.063.953 0 .382 0 .763.063 1.271v.064h-.063c-.127-.064-.19-.064-.253-.064h-.064V38.4c0-.318-.063-.763-.063-1.208 0-.444 0-.89.063-1.334-.506.445-1.012.89-1.392 1.334.317.382.76.763 1.266 1.208l.063.063h-.063a.538.538 0 01-.443 0c-.38-.381-.696-.635-1.012-.953-.064.064-.127.127-.127.19l-.063.064c-.063 0-.127.064-.253.127l-.063-.063s-.064 0-.064-.064h-.063v-.063c.127-.19.253-.318.38-.445-1.076-1.207-1.582-2.351-1.582-3.24a.782.782 0 01-.443-.7c-.126-.635.253-1.016.696-1.016zm8.984 9.85c-.443 1.27-1.076 2.16-1.772 2.541-.063.382-.38.7-.759.7-.38 0-.696-.319-.76-.7-.695-.381-1.328-1.207-1.77-2.478v-.063l.38-.127v.063c.379 1.08.885 1.843 1.454 2.224.127-.318.38-.572.76-.572.379 0 .632.254.759.508.569-.38 1.075-1.143 1.455-2.16v-.063h.063c0 .063.063.063.19.127zm-3.227-.064c0-.254.063-.953.19-1.207.127-.064.316-.127.506-.127s.38.063.57.19c.063.255.19.89.19 1.144 0 .254-.633.445-.697.508-.19-.063-.759-.19-.759-.508zm8.098-2.542c-.063.064-.126.127-.19.127-.063 0-.126.064-.253.064h-.063c-.127 0-.253 0-.316-.064-.064 0-.064-.063-.127-.063-.19 0-.633.127-.759.19.063 0 .633.064 1.012.382.19.127.57.19.696.19 0 .064-.633.509-1.834.255l-.317-.064a7.262 7.262 0 00-1.645-.19c.063 0 .127.063.127.063.126.063.316.127.443.19 0 0 .063 0 .063.064h.063c.063 0 .127 0 .127.064.063 0 .126.063.19.063.063.064.19.127.19.19 0 .064.063.064.063.128 0 .127 0 .19-.064.318-.19.254-.443.254-.696 0l-.063-.064a.877.877 0 01-.19-.254v-.064h-.063c-.127-.063-.19-.19-.316-.19-.19-.064-.443-.127-.633-.19h-.19c.19.126.38.253.443.38v.064c.127.19.127.381.19.572.19.381.253.445.443.572-.19.063-1.139.063-1.582-.636 0 0-.063-.063-.063-.127-.127-.254-.19-.508-.253-.699-.064-.19.063-.381-.064-.444-.126-.064-.19 0-.19 0l-.063.063v.063c0 .064-.063.064-.063.064v.064s0 .063-.063.063h-.19-.063s-.063 0-.063.064c-.064 0-.127.063-.19.063s-.127-.063-.127-.127v-.127H27.9c-.063 0-.063 0-.127-.064v-.127-.063c-.063.064-.063.064-.126.064h-.127c-.063 0-.063-.064-.063-.128v-.063-.064h-.127c-.063 0-.19-.063-.253-.063h-.063c-.063 0-.19.063-.253.063h-.127v-.063-.064l.064-.063v-.064h-.127v.064h-.063v.127c0 .063 0 .127-.063.127-.064.063-.064.063-.127 0 0 0-.063 0-.063-.064 0 0-.063 0-.063-.063 0 0 0 .063.063.063v.127c-.063.064-.063.064-.127.064h-.126c0 .064.063.064 0 .127 0 .063-.063.063-.127.063h-.126-.127l-.063-.063h-.127s-.063 0-.063-.063l-.063-.064v-.064c-.127-.127-.316.318-.316.318-.57 1.207-1.962 1.462-1.962 1.398 0 0 .317-.127.443-.572.064-.254.064-.318.19-.572 0-.063.063-.063.063-.127.064-.127.253-.19.38-.317h-.19c-.19.063-.38.063-.633.19-.126.064-.19.127-.316.19h-.063v.064c0 .064-.064.127-.127.254l-.063.064c-.253.254-.443.254-.696 0l-.063-.064a.194.194 0 010-.254c0-.063.063-.127.126-.19.064-.064.127-.064.19-.128.063-.063.127-.063.19-.063s.063 0 .127-.063h.126s0-.064.063-.064c.064 0 .127-.064.19-.064s.127-.063.19-.063c0 0 .063 0 .126-.064-.506 0-1.012.064-1.581.19-.063 0-.19.065-.317.065-.632.127-1.834-.191-1.834-.255 0-.063.316-.063.632-.254.253-.127.38-.254.57-.318.316.255.696.255.759.255-.127-.064-.696-.128-.886-.191 0 0-.063.063-.126.063-.127.064-.253.064-.38.064-.063 0-.19 0-.253-.064-.063 0-.127-.063-.19-.127-.063-.063-.063-.127-.063-.317.063-.255.316-.382.633-.318.19.063.316.127.38.19l.063.064c.19 0 .442.127.695.19.254.128.443.191.57.191-.063 0-.127-.063-.19-.063s-.127-.064-.127-.064c-.063-.063-.126-.063-.19-.127-.379-.19-.759-.381-1.012-.635-.19-.254-.253-.381-.316-.636-.063-.572-.316-.826-.316-.89.063-.063.949.382 1.265.7.19.254.253.445.316.635v.064c.064.19.254.381.57.572.063 0 .063.063.126.063-.063-.127-.126-.19-.19-.318v-.063l-.063-.064s-.063-.063-.063-.127c-.063-.063-.063-.127-.127-.19-.063-.191-.063-.382 0-.445.064-.064.127-.127.254-.19.253-.064.442.063.506.444v.508c.126.382.442.7.822.953-.443-.38-.696-1.27-.633-1.27.064-.064.443.19.823.38.19.064.38.191.57.319.126.063.252.19.316.254.126.063.19.19.253.254l.19.19.126.128c.127.063.316 0 .316 0 .064 0 .127 0 .19-.064l.063-.063c.064-.064.127-.064.19-.064v-.064c0-.127.064-.19.19-.254 0 0 .063 0 .063-.063h.19c0-.064.063-.064.127-.127a.389.389 0 01.442.063c.064.064.064.127.127.19v.319h.38c.063 0 .126 0 .19.063.063 0 .126-.063.19-.063h.189v-.191c0-.064 0-.127.063-.19 0 0 0-.064.064-.064l.063-.064a.401.401 0 01.38 0c.063 0 .063.064.126.127h.253c.127.064.19.127.19.255h.126s.317 0 .38.063h.316l.127-.127.253-.254c.126-.064.19-.19.316-.254.19-.127.443-.191.633-.255.632-.254.696-.635.759-.635.063.064-.127 1.08-.57 1.461.317-.254.633-.571.823-.953v-.127-.19-.191c.127-.318.253-.508.506-.445.127.064.19.127.253.19.063.128.063.255 0 .446 0 .063-.063.127-.126.19l-.127.127-.063.064v.063c-.063.127-.127.191-.253.318l.126-.127c.317-.254.506-.445.57-.635.063-.191.126-.382.316-.636.316-.318.38-.445.696-.635.063-.064.506-.127.57-.127.063.063-.317.19-.444.826-.063.19-.126.508-.316.762-.253.318-.506.381-.822.572l-.064.064c-.063.063-.126.063-.253.127-.126.063-.19.127-.253.127.19-.064.38-.127.633-.19.19-.128.443-.191.696-.191 0 0 0-.064.063-.064.063-.063.19-.127.38-.19.316-.128.57 0 .632.317.064.19 0 .318-.063.381z" fill="#4988D1"/><path d="M45.74 26.771c.95-.444 2.531-1.524 3.164-2.287-.886-.318-2.657-.508-3.67-.508 2.088-1.462 2.151-4.512 1.582-6.736-.506 1.78-1.771 3.24-2.594 4.13.063.89-.19 2.415-.696 3.305.696.254 1.519.635 2.088 1.08-.38.508-1.202 1.207-1.708 1.652.443.445 1.139 1.27 1.518 1.78-.506.38-1.518.762-2.087.952.253.572.632 1.525.759 2.224-.633.127-1.455.19-2.341.19.063.636-.063 1.653-.19 2.288-.822-.063-1.771-.381-2.214-.635-.253.89-.823 1.779-.823 1.843-.759-.89-1.518-1.208-2.214-1.208v-.572c.696 0 1.455.255 2.025.826.253-.444.506-1.27.632-1.779.506.254 1.329.572 2.025.7.063-.636.126-1.462.063-2.098a9.272 9.272 0 002.278-.063c-.127-.572-.633-1.525-.95-2.034.697-.19 1.582-.571 2.025-.826-.38-.508-1.012-1.207-1.455-1.652.506-.38 1.328-1.016 1.645-1.398a11.485 11.485 0 00-1.961-1.016c.885-1.207 1.075-3.686.885-4.83-.759 2.606-3.036 4.512-4.428 5.402-.063.063-.127.127-.19.127-.063.063-.316.381-.19.762 0 .127.063.19.063.318.127.508.127 1.27-.632 1.97-.633.572-1.392.635-1.835.572v-1.398c0-.19-.126-.318-.316-.318h-.95l-.442-.445h.949c.506-.063 1.075-.317 1.075-.317s-.569 0-.822-.064c-.316.064-1.012-.254-1.582-.89-.19-.254-.38-.508-.506-.762-.506-.445-1.075-1.017-1.455-1.843-.253-.572-.38-1.398-.443-1.906-.19.127-.38.381-.632.699-.443.572-.633 1.398-.633 1.398l-.19.635-.316-.572s-.443-.762-.506-1.715c0-.445 0-.826.063-1.144-.127.064-.316.19-.506.318-.76.572-1.202 1.143-1.202 1.143-.38.509-.633.954-.696 1.144-.063-.254-.316-.635-.696-1.144 0 0-.38-.635-1.202-1.143-.19-.127-.38-.254-.506-.318.063.318.063.762.063 1.144-.063.953-.506 1.652-.506 1.715l-.316.509-.19-.636s-.253-.826-.633-1.398c-.253-.317-.443-.572-.633-.699-.063.509-.19 1.398-.442 1.907-.38.826-.886 1.461-1.455 1.842-.127.255-.317.509-.506.763-.57.635-1.266.953-1.582 1.017-.253.063-.823.063-.823.063s.57.254 1.076.318c.506.063.949 0 .949 0l-.443.445h-.949c-.19 0-.316.127-.316.317v1.398c-.443.064-1.266 0-1.835-.572-.696-.699-.76-1.461-.633-1.97.064-.063.064-.19.064-.317.126-.381-.127-.7-.19-.763-.063-.063-.127-.127-.19-.127-1.392-.89-3.606-2.796-4.428-5.4-.19 1.143.063 3.557.885 4.828-.633.255-1.455.636-1.961 1.017.316.381 1.139 1.08 1.645 1.398-.443.381-1.139 1.144-1.455 1.652.443.254 1.328.635 2.024.826-.316.508-.822 1.461-.949 2.033.76.127 1.582.127 2.278.064-.063.635 0 1.525.063 2.097.696-.127 1.518-.382 2.025-.7.126.446.38 1.335.632 1.78a2.866 2.866 0 012.025-.826v.572c-.696 0-1.455.317-2.215 1.207 0-.063-.569-.953-.822-1.843-.443.191-1.392.572-2.214.636-.127-.636-.19-1.652-.19-2.288-.886 0-1.708-.063-2.34-.19.126-.7.505-1.652.758-2.224-.57-.19-1.581-.636-2.088-.953.317-.509 1.076-1.335 1.519-1.78-.506-.38-1.329-1.143-1.708-1.652.57-.444 1.391-.826 2.088-1.08-.507-.953-.76-2.478-.697-3.304-.885-.89-2.15-2.351-2.593-4.13-.633 2.224-.506 5.337 1.581 6.735-1.012 0-2.783.254-3.67.508.634.763 2.215 1.78 3.164 2.288-.759.254-2.088 1.017-2.657 1.525.696.445 2.278.953 3.037 1.144-.443.381-1.329 1.398-1.645 1.906.633.19 1.898.381 2.72.381-.253.572-.57 1.525-.632 2.097.38.064 1.708 0 2.404-.19-.064.571-.064 1.524.063 1.97.633-.064 1.582-.382 2.024-.509.127.508.57 1.525.76 1.78.316-.064.632-.128.949-.255.885-.318 1.834.064 2.214.89.633 1.461.38 3.177-.823 2.859-1.391.254-.442 2.033-1.265 2.605 1.076.763 1.392-1.016 2.784-.699-.127.636-.127 1.843 0 2.351.443-.317 1.075-.572 1.455-.635-.127.381-.19 1.27-.063 1.843.253-.191 2.087-.7 2.087-.7s-.695 1.398-.253 2.796c.253.191 1.898-.635 1.898-1.08.064.572-.632 1.843-1.708 2.097 1.139 1.144 2.151 1.08 2.278 1.08.19 0 .316 0 .443-.127-.064.318-.127.763-.064 1.017h.19c.316 0 .57-.064.76-.127.063.318.19.635.379.89l.126.126c.253 0 .886-.317 1.013-.508.126.19.759.508 1.012.508.063-.063.126-.063.126-.127.253-.254.38-.635.38-.89.253.128.506.128.76.128h.189c.063-.254.063-.7-.063-1.017.126.064.316.127.443.127.126 0 1.138.064 2.277-1.08-1.075-.254-1.771-1.525-1.708-2.097 0 .508 1.645 1.271 1.898 1.08.443-1.398-.253-2.795-.253-2.795s1.771.444 2.088.699c.126-.572.063-1.462-.064-1.843.38 0 1.013.318 1.456.635.126-.508.126-1.652 0-2.35 1.328-.319 1.644 1.46 2.783.698-.76-.572.19-2.35-1.265-2.605-1.202.381-1.455-1.398-.823-2.86.38-.825 1.392-1.207 2.215-.889.316.127.632.19.949.254.126-.254.632-1.27.759-1.779.443.19 1.392.445 2.024.508.064-.445.127-1.398.064-1.97.632.128 2.024.191 2.404.191-.064-.635-.38-1.588-.633-2.097.822-.063 2.088-.19 2.72-.381-.316-.572-1.202-1.588-1.645-1.906.76-.19 2.341-.7 3.037-1.144-.443-.572-1.771-1.334-2.53-1.588zM35.493 41.069c-.064.127-.127.191-.19.318 0 .064-.063.064-.063.127a.878.878 0 00-.19.254l-.127.127c-.063.128-.19.191-.253.318l-.19.19-.19.191-.252.254-.127.128c-.19.19-.443.38-.696.508a5.461 5.461 0 01-1.012.635l-.38.191c-2.847 1.461-4.238 2.605-4.681 2.923h-.064c-.443-.381-1.834-1.462-4.681-2.923l-.38-.19a5.464 5.464 0 01-1.012-.636c-.253-.19-.443-.381-.696-.508-.063-.064-.127-.064-.127-.128-.063-.063-.19-.127-.253-.254l-.19-.19-.19-.19c-.126-.128-.189-.191-.252-.319l-.127-.127a.876.876 0 01-.19-.254c0-.063-.063-.063-.063-.127-.063-.127-.126-.19-.19-.318-.38-.826-.316-1.525-.316-1.525v-11.12c0-.19.127-.317.316-.317H35.43c.19 0 .316.127.316.318v11.12c.063 0 .126.698-.253 1.524zM35.112 10.568c.253 0 .38-.19.38-.444 0-.255-.19-.445-.38-.445-.253 0-.38.19-.38.444 0 .255.19.445.38.445zM35.112 12.92c.253 0 .506-1.081.506-1.59a.5.5 0 00-.506-.508.5.5 0 00-.506.509c0 .508.253 1.588.506 1.588zM34.86 9.043h.569l-.127-.7.696.064v-.571l-.696.127.127-.7h-.57l.063.7-.695-.127v.571l.696-.063-.064.699z" fill="#4988D1"/><path d="M32.645 14.19c.19.063.38.063.57.127H34.037c.506 0 1.012-.127 1.518-.255.506-.127 1.013-.254 1.582-.254h.379c.127-.572.317-1.207.317-1.588 0-.763-.443-1.589-1.898-1.843 0 .953-.443 3.177-.95 3.177h-.062c-.507 0-.95-2.224-.95-3.177-1.454.254-1.897 1.08-1.897 1.843 0 .444.19 1.27.38 1.842.19.064.19.064.19.128zM40.237 10.187s-.38-1.017.253-1.334c.696-.254-.253-.127.253-1.525.57-1.652 1.834-1.271 1.834-1.271-.885-.7-1.581-.636-2.087-.254-.317.254-.76.762-1.076 1.779-.253 1.27.19 2.478.823 2.605z" fill="#4988D1"/><path d="M43.526 7.71c.064 2.096 3.543 2.985 3.543 2.985s-2.024-1.46-1.645-2.541c0 0 1.329.572 2.847.318-3.226-.7-2.15-1.716-2.973-2.542-.823-.89-2.088-.953-2.404-1.017-.823-.063-.886-.063-1.835.19 2.214.064 2.467 1.208 2.467 2.606zM43.084 11.648c.443-1.652-.38-2.415-.38-2.415-.253-.317-1.581-.254-2.087.064 0 0 1.265 0 1.075 1.842-.19 1.843-2.72 2.225-3.416 2.288l-.064.254c1.202 0 4.366-.381 4.872-2.033zM29.861 11.585h-1.265c.632 1.78 2.467 2.351 3.67 2.542l-.064-.191c-1.265-.508-1.898-1.017-2.341-2.351zM19.36 10.568c.252 0 .379-.19.379-.444 0-.255-.19-.445-.38-.445-.253 0-.38.19-.38.444-.063.255.127.445.38.445zM19.36 12.92c.252 0 .505-1.081.505-1.59a.5.5 0 00-.506-.508.5.5 0 00-.506.509c0 .508.19 1.588.506 1.588zM19.043 9.043h.57l-.064-.7.696.064v-.571l-.696.127.063-.7h-.569l.127.7-.696-.127v.571l.696-.063-.127.699z" fill="#4988D1"/><path d="M16.829 13.81h.379c.57.063 1.139.126 1.582.253.443.127 1.012.254 1.518.254h.823c.19 0 .38-.063.569-.127 0-.063 0-.063.063-.063.19-.572.38-1.398.38-1.843 0-.762-.38-1.588-1.898-1.843 0 .89-.443 3.177-.95 3.177h-.062c-.506 0-.95-2.223-.95-3.177-1.454.255-1.897 1.08-1.897 1.843 0 .381.126 1.017.316 1.589.063-.064.063-.064.127-.064zM11.83 6.057s1.266-.381 1.835 1.27c.506 1.399-.443 1.272.253 1.526s.253 1.334.253 1.334c.696-.127 1.14-1.334.76-2.669-.317-1.016-.76-1.525-1.076-1.779-.506-.317-1.139-.381-2.024.318z" fill="#4988D1"/><path d="M8.983 8.154c.38 1.08-1.644 2.541-1.644 2.541s3.542-.89 3.542-2.986c.064-1.398.253-2.542 2.405-2.605-.95-.19-1.013-.19-1.835-.19-.317 0-1.582.126-2.404 1.016-.76.826.253 1.842-2.974 2.541 1.582.255 2.91-.317 2.91-.317zM12.78 11.14c-.19-1.842 1.075-1.842 1.075-1.842-.443-.318-1.771-.318-2.088-.064 0 0-.822.7-.38 2.415.444 1.652 3.67 2.033 4.872 2.033l-.063-.254c-.696-.064-3.227-.445-3.416-2.288zM25.875 11.585H24.61c-.443 1.334-1.075 1.843-2.34 2.351l-.064.19c1.265-.19 3.037-.762 3.67-2.541zM28.849 19.4c-.38.572-.696 1.207-.95 1.843.19-.254.507-.509.823-.763.57-.381 1.076-.635 1.076-.635l.506-.19-.127.508s-.19.826-.126 1.525c0 .317.127.635.19.826.126-.318.316-.636.506-.953.633-.827 1.139-1.144 1.139-1.144l.38-.19v.444s.126 1.461.442 2.224c.57 1.27 1.645 1.97 2.278 2.287l-.317-.317c-.316-.318-.632-.89-.822-2.097-.127-1.017.253-2.034.38-2.351.063.254.19.508.316.572 0 0 0-.255.063-.509.127-.699.886-1.779 1.898-2.414.19-.127.38-.255.506-.318.19-.064.316-.19.443-.318-.19 0-.443.064-.633.064h-.633c-.505 0-1.075-.064-1.518-.445-.443-.381-.632-.762-.696-1.017h-.759c-.38 0-.696-.127-.886-.127-.506.318-1.012.445-1.644.509h-.254c.19.19.443.317.633.444h.063l-.126.064c.063-.064-.823.445-2.151 2.478zM37.137 15.842h-.696v.381c.063.19.126.318.253.445.19-.127.38-.445.443-.826z" fill="#4988D1"/><path d="M37.643 14.38c-.063 0-.063 0 0 0h-.063-.19c-.506 0-1.013.127-1.519.254s-1.075.254-1.581.254h-.759-.064-.063c-1.139-.127-1.898-.508-2.278-.698.064.127.19.254.38.444l.19.19c.126.128.316.255.506.382.253.127 1.329.572 2.72.381 1.582-.254 1.898-.19 2.278-.19h.127c.569.063 1.391.381 1.708.572.126-.318.316-.636.38-.954a1.575 1.575 0 00-.444-.317c-.063-.064-.126-.064-.253-.127a1.26 1.26 0 00-.57-.127c-.252-.064-.379-.064-.505-.064zM42.071 19.59c-.063 0-.633.318-1.834-.444-1.203-.763-2.088-1.08-2.594-1.207-.127.063-.19.127-.317.19-.126.064-.316.19-.506.318-.063.063-.126.063-.19.127h.127c1.139.127 2.024.762 2.088 1.017h.063c.127-.382-.063-.7-.063-.7s.506.318 1.518.89c1.075.7 1.518.064 1.708-.19zM36.061 16.477c-.063-.064-.127-.19-.19-.254-.063-.127-.063-.19-.063-.254-.253 0-.57.063-.949.127h-.253c.19.381.506.762 1.139.89h.253c.253.063.57.063.759.063.443 0 .949-.064 1.455-.19.127-.128.19-.318.316-.446 0 0-.063-.063-.126-.063-.127-.064-.443-.254-.633-.318-.063.19-.19.381-.316.509-.19.127-.443.19-.696.19-.253 0-.506-.063-.633-.19-.063 0-.063-.064-.063-.064zM39.414 15.524c-.38 1.017-1.012 1.78-1.455 2.16 2.847-.762 3.353.7 3.353.763 0 .064 0 .064.063 0 .064-.063 1.013-1.08.317-2.033-.57-.763-1.835-.89-2.278-.89zm0 .763c.127-.127.19-.381.19-.381.19 0 .57.063.57.317-.254-.063-.57-.063-.76.064zM18.03 16.223v-.381h-.696c.064.381.253.699.443.826.127-.127.19-.254.253-.445zM21.257 14.825c-.063 0-.063 0 0 0h-.063-.823c-.57 0-1.075-.127-1.581-.254-.57-.064-1.076-.19-1.582-.19h-.127-.379a1.26 1.26 0 00-.57.126c-.063.064-.19.064-.253.127-.19.127-.316.19-.442.318.063.318.253.699.38.953.315-.19 1.138-.572 1.707-.572h.127c.38 0 .696-.063 2.277.19 1.392.191 2.404-.253 2.72-.38.19-.127.38-.255.507-.382l.19-.19c.126-.19.253-.318.38-.445-.57.19-1.33.572-2.468.699zM12.4 19.591c.19.191.633.89 1.645.318a42.736 42.736 0 001.518-.89s-.19.318-.063.7h.063c.127-.255 1.012-.954 2.088-1.017h.127c-.064-.064-.127-.064-.19-.127-.19-.127-.38-.254-.507-.318-.126-.064-.19-.127-.316-.19-.506.063-1.392.444-2.594 1.207-1.138.635-1.708.317-1.771.317z" fill="#4988D1"/><path d="M16.702 16.032l-.633.318c-.063 0-.063.063-.126.063.126.191.19.318.316.445.506.127 1.012.191 1.455.191.253 0 .506 0 .76-.064h.253c.632-.127 1.012-.572 1.138-.89h-.253c-.38-.063-.696-.126-.949-.126 0 .063-.063.19-.063.254a.878.878 0 01-.19.254l-.063.064c-.19.127-.38.19-.633.19a1.27 1.27 0 01-.696-.19c-.19-.128-.253-.318-.316-.509zM12.716 16.414c-.696.953.253 1.97.317 2.033.063.064.063 0 .063 0 0-.063.506-1.525 3.353-.762-.443-.381-1.076-1.144-1.455-2.16-.38 0-1.708.127-2.278.889zm2.341-.127c-.19-.127-.506-.127-.76-.064 0-.254.38-.317.57-.317 0 0 .063.254.19.38z" fill="#4988D1"/><path d="M23.977 16.414h-.253c-.632 0-1.138-.191-1.644-.509-.19.064-.57.127-.886.127h-.76a1.831 1.831 0 01-.695 1.017c-.443.381-1.012.445-1.519.445H17.588c-.127 0-.38-.064-.633-.064.19.127.316.19.443.318.127.063.316.19.506.318 1.012.699 1.771 1.715 1.898 2.414.063.254.063.509.063.509.127-.064.253-.318.317-.572.126.317.569 1.334.38 2.35-.19 1.208-.507 1.78-.823 2.098l-.317.317c.633-.317 1.709-1.016 2.278-2.287.316-.7.443-2.16.443-2.16v-.445l.38.19s.569.318 1.138 1.144c.19.318.38.635.506.953.064-.254.127-.508.19-.826.063-.762-.126-1.525-.126-1.525l-.127-.508.506.19s.506.191 1.076.636c.38.254.632.508.822.762-.253-.635-.506-1.27-.949-1.842-1.328-2.034-2.15-2.479-2.15-2.479l-.127-.063h.063c.19-.19.443-.381.633-.508z" fill="#4988D1"/><path d="M3.139 82.518H2v-6.99h1.139l2.34 3.177 2.341-3.177h1.14v6.99H7.82V77.18l-2.024 2.67H5.1l-2.024-2.67.063 5.338zM11.806 82.518h-1.012v-6.99h1.139v5.147l3.985-5.147h1.013v6.99h-1.14V77.37l-3.985 5.147zM19.84 82.518h-1.138v-6.99h1.139v2.796h3.796v-2.796h1.139v6.99h-1.14v-3.24h-3.795v3.24zM27.56 82.518h-.95v-6.99h1.14v5.147l3.985-5.147h1.012v6.99h-1.139V77.37l-4.049 5.147zM37.998 82.645c-1.075 0-2.024-.318-2.72-1.016-.76-.7-1.076-1.59-1.076-2.606 0-1.08.38-1.906 1.076-2.605.759-.699 1.645-1.017 2.72-1.017.76 0 1.392.191 1.961.445v1.08c-.57-.38-1.202-.572-1.96-.572-.76 0-1.393.255-1.899.763s-.76 1.08-.76 1.843c0 .762.254 1.398.76 1.842.506.509 1.139.763 1.961.763.823 0 1.519-.19 2.088-.635v1.08a3.854 3.854 0 01-2.15.635zM41.035 76.545v-1.017h5.947v1.017h-2.404v6.036h-1.14v-6.036h-2.403zM53.498 82.518h-5.314v-6.99h5.187v1.017h-4.049v1.78h3.29v1.016h-3.29v2.16h4.176v1.017zM55.839 82.518h-1.076v-6.99h3.163c.76 0 1.392.19 1.772.572.443.381.696.89.696 1.462s-.253 1.08-.696 1.525c-.443.38-1.012.572-1.772.572h-2.024v2.859h-.063zm0-5.973v2.097h1.898c.442 0 .759-.127 1.012-.254a.907.907 0 00.38-.763.907.907 0 00-.38-.762c-.253-.19-.57-.254-1.012-.254l-1.898-.064zM65.139 82.645c-1.076 0-2.025-.318-2.72-1.016-.76-.7-1.076-1.59-1.076-2.606 0-1.08.38-1.906 1.075-2.605.76-.699 1.645-1.017 2.72-1.017.76 0 1.392.191 1.962.445v1.08c-.57-.38-1.202-.572-1.961-.572-.76 0-1.392.255-1.898.763s-.76 1.08-.76 1.843c0 .762.254 1.398.76 1.842.506.509 1.138.763 1.961.763.822 0 1.518-.19 2.088-.635v1.08c-.633.444-1.329.635-2.151.635zM68.175 76.545v-1.017h5.947v1.017h-2.404v6.036H70.58v-6.036h-2.404zM78.868 82.518h-3.543v-6.99h3.29c.695 0 1.138.19 1.581.445.38.318.57.763.57 1.27 0 .319-.127.636-.254.89-.19.255-.38.445-.695.509.442.063.822.318 1.075.635.253.318.443.763.443 1.271 0 .572-.253 1.08-.696 1.462-.38.317-.949.508-1.771.508zm-2.404-5.973v1.78h1.96c.38 0 .697-.064.886-.255.19-.19.317-.381.317-.699 0-.318-.127-.508-.317-.699-.19-.19-.506-.254-.885-.254h-1.962v.127zm0 2.732v2.224h2.214c.443 0 .822-.127 1.012-.318.253-.19.38-.444.38-.826 0-.317-.127-.571-.38-.826-.253-.19-.57-.254-1.012-.254h-2.215zM88.8 81.629c-.696.698-1.581 1.016-2.657 1.016s-1.961-.318-2.657-1.016c-.696-.7-1.012-1.59-1.012-2.606 0-1.016.316-1.906 1.012-2.541.696-.7 1.581-1.08 2.657-1.08s1.961.38 2.657 1.08c.696.698 1.076 1.588 1.076 2.541 0 .953-.38 1.907-1.076 2.606zm-4.428-.763c.506.508 1.075.763 1.771.763s1.329-.255 1.771-.763a2.55 2.55 0 00.76-1.843c0-.762-.253-1.398-.76-1.843-.506-.508-1.075-.762-1.771-.762s-1.329.254-1.771.762c-.507.509-.76 1.08-.76 1.843 0 .763.254 1.335.76 1.843zM95.253 82.518h-1.139v-6.99h1.139v2.796h3.796v-2.796h1.139v6.99h-1.139v-3.24h-3.796v3.24zM102.529 82.518h-1.202l3.163-7.053h1.075l3.164 7.053h-1.202l-.823-1.716h-3.416l-.759 1.716zm2.53-5.655l-1.328 2.923h2.657l-1.329-2.923zM110.943 82.645c-.443 0-.823-.063-1.012-.19v-1.017c.253.127.506.19.822.19.316 0 .506-.063.759-.254.19-.127.38-.445.633-.953l-2.847-4.956h1.328l2.151 3.812 1.772-3.812h1.202l-2.657 5.528c-.57 1.144-1.266 1.652-2.151 1.652zM117.965 82.518h-1.138v-6.99h1.138v2.86l2.974-2.86h1.455l-3.353 3.177 3.922 3.813h-1.518l-3.416-3.368v3.368h-.064zM124.988 82.518h-.949v-6.99h1.138v5.147l3.986-5.147h1.012v6.99h-1.138V77.37l-4.049 5.147zM3.012 94.655h-.949v-6.99h1.14v5.147l3.985-5.147H8.2v6.99H7.061v-5.147l-4.049 5.147zM16.235 94.655h-3.543v-6.99h3.29c.696 0 1.139.19 1.581.445.38.317.57.762.57 1.27 0 .318-.127.636-.253.89a.98.98 0 01-.696.509c.443.063.822.317 1.075.635s.443.763.443 1.27c0 .573-.253 1.081-.696 1.462-.443.318-1.012.509-1.771.509zm-2.404-6.037v1.78h1.96c.38 0 .697-.064.887-.255.19-.19.316-.381.316-.699 0-.318-.127-.508-.316-.699-.19-.19-.506-.254-.886-.254H13.83v.127zm0 2.796v2.224h2.214c.443 0 .822-.127 1.012-.318.253-.19.38-.444.38-.826 0-.317-.127-.572-.38-.826-.253-.19-.57-.254-1.012-.254h-2.214zM22.877 94.655h-2.783v-6.99h1.139v2.415h1.644c.823 0 1.519.19 2.025.635s.76.953.76 1.652c0 .7-.254 1.207-.76 1.652-.57.445-1.202.636-2.025.636zm-1.644-3.559v2.542h1.581c.506 0 .886-.127 1.202-.318.317-.19.443-.508.443-.953 0-.445-.127-.762-.443-.953a2.243 2.243 0 00-1.202-.318h-1.581zm6.453 3.559h-1.14v-6.99h1.14v6.99zM32.937 94.782c-1.076 0-2.025-.318-2.72-1.017-.76-.699-1.076-1.588-1.076-2.605 0-1.08.38-1.906 1.075-2.605.76-.7 1.645-1.017 2.72-1.017.76 0 1.392.19 1.962.445v1.08c-.57-.381-1.202-.572-1.962-.572-.759 0-1.391.254-1.897.763-.507.508-.76 1.08-.76 1.842 0 .763.253 1.398.76 1.843.506.509 1.138.763 1.96.763.823 0 1.52-.191 2.089-.636v1.08c-.633.445-1.329.636-2.151.636zM45.337 94.655h-8.858v-6.99h1.14v6.036h2.72v-6.036h1.138v6.036h2.72v-6.036h1.14v6.99zM52.36 94.655h-5.315v-6.99h5.188v1.017h-4.05v1.715h3.29v1.017h-3.29v2.224h4.176v1.017zM54.763 94.655h-1.139v-6.99h5.125v1.017h-3.986v5.973zM65.771 93.765c-.696.7-1.581 1.017-2.657 1.017-1.075 0-1.961-.318-2.657-1.017-.696-.699-1.012-1.588-1.012-2.605s.316-1.906 1.012-2.542c.696-.699 1.582-1.08 2.657-1.08 1.076 0 1.961.381 2.657 1.08.696.7 1.076 1.589 1.076 2.542 0 .953-.38 1.906-1.076 2.605zm-4.492-.762c.507.508 1.076.762 1.772.762s1.328-.254 1.771-.762a2.55 2.55 0 00.76-1.843c0-.763-.253-1.398-.76-1.843-.506-.508-1.075-.762-1.771-.762s-1.329.254-1.772.762c-.506.509-.759 1.08-.759 1.843.064.763.253 1.334.76 1.843zM77.159 93.765c-.696.7-1.582 1.017-2.657 1.017-1.076 0-1.961-.318-2.657-1.017-.696-.699-1.013-1.588-1.013-2.605s.317-1.906 1.013-2.542c.696-.699 1.581-1.08 2.657-1.08 1.075 0 1.961.381 2.657 1.08.696.7 1.076 1.589 1.076 2.542 0 .953-.38 1.906-1.076 2.605zm-4.492-.762c.506.508 1.076.762 1.772.762s1.328-.254 1.771-.762a2.55 2.55 0 00.76-1.843c0-.763-.254-1.398-.76-1.843-.506-.508-1.075-.762-1.771-.762s-1.329.254-1.772.762c-.506.509-.759 1.08-.759 1.843.063.763.316 1.334.76 1.843zM82.727 94.655H79.69v-6.99h5.124v1.017H80.83v1.461h1.96c.823 0 1.456.19 1.962.636.443.38.76.953.76 1.652s-.254 1.207-.76 1.652c-.506.381-1.202.572-2.024.572zm-1.962-3.495v2.478H82.6c.506 0 .886-.127 1.202-.318.253-.254.443-.508.443-.89 0-.38-.127-.698-.443-.953-.316-.254-.696-.317-1.202-.317h-1.834zM87.851 94.655h-1.139v-6.99h3.1c.76 0 1.392.19 1.772.572.443.381.696.89.696 1.461 0 .572-.253 1.08-.696 1.525-.443.382-1.012.572-1.772.572h-2.024v2.86h.063zm0-6.037v2.097h1.898c.443 0 .76-.127 1.012-.254.253-.127.38-.445.38-.763a.907.907 0 00-.38-.762c-.253-.19-.569-.254-1.012-.254l-1.898-.064zM93.355 94.655h-1.202l3.163-7.053h1.076l3.163 7.053h-1.139l-.822-1.716h-3.417l-.822 1.716zm2.53-5.72l-1.328 2.924h2.657l-1.329-2.923zM103.035 94.782c-1.013 0-1.835-.19-2.531-.572v-1.08c.316.19.696.381 1.139.445.443.127.822.19 1.265.19.569 0 1.076-.127 1.455-.317.38-.255.506-.509.506-.89 0-.318-.19-.572-.506-.826-.316-.19-.759-.318-1.328-.318h-.823v-1.017h1.012c.443 0 .823-.127 1.013-.254.253-.19.379-.38.379-.699 0-.317-.126-.508-.443-.699-.253-.19-.696-.254-1.138-.254-.76 0-1.519.19-2.215.509v-1.017c.696-.381 1.455-.508 2.278-.508.822 0 1.455.19 1.898.508.506.318.759.826.759 1.398 0 .381-.127.699-.38.953s-.506.445-.759.508c.38.127.696.318 1.012.636.317.317.443.699.443 1.144 0 .635-.253 1.143-.822 1.588-.633.381-1.329.572-2.214.572zM113.474 93.765c-.696.7-1.582 1.017-2.658 1.017-1.075 0-1.961-.318-2.657-1.017-.696-.699-1.012-1.588-1.012-2.605s.316-1.906 1.012-2.542c.696-.699 1.582-1.08 2.657-1.08 1.076 0 1.962.381 2.658 1.08.695.7 1.075 1.589 1.075 2.542a3.72 3.72 0 01-1.075 2.605zm-4.492-.762c.506.508 1.075.762 1.771.762s1.329-.254 1.772-.762a2.551 2.551 0 00.759-1.843c0-.763-.253-1.398-.759-1.843-.507-.444-1.076-.762-1.772-.762s-1.328.254-1.771.762c-.506.509-.76 1.08-.76 1.843.064.763.317 1.334.76 1.843zM119.547 94.655h-3.543v-6.99h3.29c.696 0 1.138.19 1.581.445.38.317.57.762.57 1.27 0 .318-.127.636-.253.89-.19.254-.38.445-.696.509.443.063.822.317 1.075.635s.443.763.443 1.27c0 .573-.253 1.081-.696 1.462-.443.318-1.075.509-1.771.509zm-2.468-6.037v1.78h1.962c.379 0 .696-.064.885-.255.19-.19.317-.381.317-.699 0-.318-.127-.508-.317-.699-.189-.19-.506-.254-.885-.254h-1.962v.127zm0 2.796v2.224h2.215c.443 0 .822-.127 1.012-.318.253-.19.38-.444.38-.826 0-.317-.127-.572-.38-.826-.253-.19-.569-.254-1.012-.254h-2.215zM123.849 94.655h-1.202l3.163-7.053h1.076l3.163 7.053h-1.202l-.822-1.716h-3.417l-.759 1.716zm2.531-5.72l-1.329 2.924h2.657l-1.328-2.923zM132.39 94.655h-1.139v-6.99h1.139v2.732h3.796v-2.795h1.138v6.99h-1.138V91.35h-3.796v3.305zM140.045 94.655h-.949v-6.99h1.138v5.147l3.986-5.147h1.012v6.99h-1.138v-5.147l-4.049 5.147zM147.763 94.655h-1.391l2.34-3.05c-.506-.127-.885-.318-1.202-.7-.316-.317-.442-.762-.442-1.207 0-.572.189-1.08.632-1.461s1.012-.508 1.772-.508h3.289v6.99h-1.138v-3.05h-1.709l-2.151 2.986zm1.772-3.94h2.151v-2.097h-2.151c-.38 0-.759.127-.949.254-.253.19-.316.445-.316.763 0 .317.126.572.316.762.253.19.569.318.949.318zM3.139 106.791H2v-6.99h3.163c.76 0 1.392.191 1.772.573.443.381.696.889.696 1.461 0 .572-.253 1.08-.696 1.525-.443.381-1.013.572-1.772.572H3.14v2.859zm0-6.036v2.097h1.898c.443 0 .759-.127 1.012-.254a.908.908 0 00.38-.763.905.905 0 00-.38-.762c-.253-.191-.57-.255-1.012-.255l-1.898-.063zM14.97 105.837c-.696.699-1.582 1.017-2.658 1.017-1.075 0-1.96-.318-2.657-1.017-.696-.699-1.012-1.588-1.012-2.605 0-1.016.316-1.906 1.012-2.541.696-.7 1.582-1.08 2.658-1.08 1.075 0 1.96.38 2.657 1.08.695.699 1.075 1.588 1.075 2.541 0 1.017-.38 1.906-1.075 2.605zm-4.429-.762c.506.508 1.075.762 1.771.762s1.329-.254 1.772-.762a2.55 2.55 0 00.76-1.843c0-.699-.254-1.398-.76-1.842-.506-.509-1.076-.763-1.771-.763-.697 0-1.33.254-1.772.763-.506.508-.76 1.08-.76 1.842 0 .763.254 1.398.76 1.843zM21.106 106.918c-1.076 0-2.025-.318-2.72-1.017-.76-.699-1.076-1.589-1.076-2.605 0-1.081.38-1.907 1.076-2.606.759-.698 1.645-1.016 2.72-1.016.76 0 1.392.19 1.961.445v1.08c-.57-.381-1.202-.572-1.961-.572-.76 0-1.392.254-1.898.762-.506.509-.76 1.081-.76 1.843 0 .763.254 1.398.76 1.843.506.508 1.139.762 1.961.762.823 0 1.519-.19 2.088-.635v1.08c-.633.445-1.329.636-2.151.636zM28.002 106.918c-1.075 0-2.024-.318-2.72-1.017-.76-.699-1.076-1.589-1.076-2.605 0-1.081.38-1.907 1.076-2.606.759-.698 1.645-1.016 2.72-1.016.76 0 1.392.19 1.961.445v1.08c-.57-.381-1.202-.572-1.961-.572-.76 0-1.392.254-1.898.762-.506.509-.76 1.081-.76 1.843 0 .763.254 1.398.76 1.843.506.508 1.139.762 1.961.762.823 0 1.519-.19 2.088-.635v1.08a3.853 3.853 0 01-2.151.636zM32.43 106.791h-.949v-6.99h1.14v5.148l3.985-5.147h1.012v6.989H36.48v-5.147l-4.049 5.147zM40.339 106.791h-.95v-6.99h1.14v5.147l3.985-5.147h1.012v6.99h-1.138v-5.147l-4.05 5.147zm2.087-7.498c-.506 0-1.012-.19-1.328-.445a1.63 1.63 0 01-.506-1.207h.949c0 .254.063.444.253.572.19.19.38.254.632.254.253 0 .506-.064.633-.254.19-.191.253-.382.253-.572h.95c0 .508-.19.89-.507 1.207-.316.318-.76.445-1.329.445zM50.777 106.918c-1.075 0-2.024-.318-2.72-1.017-.76-.699-1.076-1.589-1.076-2.605 0-1.081.38-1.907 1.076-2.606.76-.698 1.645-1.016 2.72-1.016.76 0 1.392.19 1.962.445v1.08c-.57-.381-1.203-.572-1.962-.572-.759 0-1.392.254-1.898.762-.506.509-.759 1.081-.759 1.843 0 .763.253 1.398.76 1.843.505.508 1.138.762 1.96.762.823 0 1.519-.19 2.088-.635v1.08c-.632.445-1.328.636-2.15.636zM55.46 106.791h-1.14v-6.99h1.14v2.86l2.973-2.86h1.455l-3.353 3.178 3.922 3.812h-1.582l-3.416-3.367v3.367zM66.847 105.837c-.696.699-1.582 1.017-2.657 1.017-1.076 0-1.961-.318-2.657-1.017-.696-.699-1.013-1.588-1.013-2.605 0-1.016.317-1.906 1.013-2.541.696-.7 1.581-1.08 2.657-1.08 1.075 0 1.961.38 2.657 1.08.696.699 1.076 1.588 1.076 2.541-.064 1.017-.38 1.906-1.076 2.605zm-4.492-.762c.506.508 1.076.762 1.772.762s1.328-.254 1.771-.762a2.55 2.55 0 00.76-1.843c0-.699-.254-1.398-.76-1.842-.506-.509-1.075-.763-1.771-.763s-1.329.254-1.772.763c-.506.508-.759 1.08-.759 1.842.063.763.253 1.398.76 1.843zM70.327 106.791h-1.013v-6.99h1.14v5.147l3.985-5.147h1.012v6.99h-1.139v-5.147l-3.985 5.147zm2.024-7.498c-.506 0-1.012-.19-1.328-.445a1.63 1.63 0 01-.507-1.207h.95c0 .254.063.444.253.572.19.19.38.254.632.254.253 0 .506-.064.633-.254.19-.191.253-.382.253-.572h.949c0 .508-.19.89-.506 1.207-.38.318-.76.445-1.329.445zM84.372 106.981h-1.14v-.762c-1.138-.064-2.024-.318-2.656-.89-.57-.572-.886-1.271-.886-2.097 0-.381.063-.762.253-1.08.127-.381.38-.699.633-.953.253-.318.696-.508 1.138-.699.443-.191 1.013-.254 1.582-.318v-.699h1.139v.699c.57 0 1.075.127 1.581.255.443.19.823.381 1.14.698.316.318.505.572.632.954.126.381.253.762.253 1.08 0 .318-.063.762-.253 1.08-.19.318-.38.699-.633.953-.316.318-.696.508-1.139.699-.442.191-1.012.254-1.581.254l-.063.826zm-1.14-1.715v-4.131c-.758 0-1.391.191-1.77.572-.38.382-.57.89-.57 1.462s.19 1.08.57 1.461c.379.382 1.012.572 1.77.636zm1.14-4.131v4.131c.822 0 1.391-.191 1.771-.572.38-.381.57-.89.57-1.462s-.19-1.08-.57-1.461c-.38-.445-1.012-.636-1.771-.636zM94.557 106.791h-5.314v-6.99h5.187v1.017h-4.049v1.78h3.29v1.016h-3.29v2.224h4.176v.953zM96.582 108.253h-1.076v-2.478h.696c.38-.572.696-1.208.823-1.97.19-.763.253-1.779.253-3.05v-.953h4.808v6.036h1.012v2.478h-1.075v-1.525h-5.504l.063 1.462zm.822-2.542h3.543v-5.02h-2.594c0 1.144-.063 2.161-.253 2.923-.063.89-.316 1.589-.696 2.097zM109.614 106.791H104.3v-6.99h5.188v1.017h-4.049v1.78h3.289v1.016h-3.289v2.224h4.175v.953zM112.018 106.791h-1.139v-6.99h3.164c.759 0 1.391.191 1.771.573.443.381.696.889.696 1.461 0 .572-.253 1.08-.696 1.525-.443.381-1.012.572-1.771.572h-2.025v2.859zm0-6.036v2.097h1.898c.443 0 .759-.127 1.012-.254a.909.909 0 00.38-.763.906.906 0 00-.38-.762c-.253-.191-.569-.255-1.012-.255l-1.898-.063zM117.522 106.791h-1.202l3.164-7.053h1.075l3.163 7.053h-1.202l-.822-1.715h-3.416l-.76 1.715zm2.531-5.718l-1.329 2.923h2.658l-1.329-2.923zM131.82 108.253h-1.075v-1.525h-5.821v-6.99h1.139v6.037h3.543v-6.037h1.139v6.037h1.012v2.478h.063zM133.971 106.791h-.949v-6.99h1.139v5.148l3.986-5.147h1.012v6.989h-1.139v-5.147l-4.049 5.147zM141.88 106.791h-.949v-6.99h1.138v5.148l3.986-5.147h1.012v6.989h-1.138v-5.147l-4.049 5.147z" fill="#fff"/></g><defs><clipPath id="kclip0_2447_6809"><path fill="#fff" transform="translate(0 .401)" d="M0 0h160v115H0z"/></clipPath></defs></svg>