<?xml version="1.0" encoding="utf-8"?><svg width="32" height="32" fill="none" xmlns="http://www.w3.org/2000/svg" viewBox="0 0 32 32"><path d="M4.921 8.39c1.87-2.029 4.702-3.057 8.412-3.057h1.334v3.759l-1.072.215c-1.827.365-3.098 1.084-3.778 2.138a3.867 3.867 0 00-.584 1.888h4.1a1.333 1.333 0 011.334 1.334V24A2.67 2.67 0 0112 26.667H4a1.334 1.334 0 01-1.333-1.334v-6.666l.004-3.892c-.012-.148-.266-3.655 2.25-6.386zm21.746 18.277h-8a1.333 1.333 0 01-1.334-1.334v-6.666l.004-3.892c-.012-.148-.265-3.655 2.25-6.386C21.46 6.361 24.29 5.333 28 5.333h1.333v3.759l-1.072.215c-1.826.365-3.097 1.084-3.777 2.138a3.867 3.867 0 00-.584 1.888H28a1.333 1.333 0 011.333 1.334V24a2.67 2.67 0 01-2.666 2.667z" fill="#4988D1"/></svg>