<?xml version="1.0" encoding="utf-8"?><svg width="127" height="41" fill="none" xmlns="http://www.w3.org/2000/svg" viewBox="0 0 127 41"><mask id="cha" style="mask-type:luminance" maskUnits="userSpaceOnUse" x="0" y="0" width="127" height="26"><path d="M126.349.954H.277v24.801H126.35V.955z" fill="#fff"/></mask><g mask="url(#cha)" fill-rule="evenodd" clip-rule="evenodd" fill="#323555"><path d="M35.963 11.086l6.337-.005c3.995 0 6.062 1.791 6.063 4.96 0 2.205-1.088 4.96-6.056 4.96h-11.03V5.709H47.26v3.444H35.961l.002 1.934zm5.786 6.47c1.24 0 1.929-.551 1.929-1.515 0-.964-.69-1.515-1.93-1.515h-5.787v3.03h5.788zM106 17.418h4.639c0 .966-.842 3.858-7.021 3.857h-.561c-5.757 0-7.162-3.1-7.162-5.849v-.289c0-2.817 1.24-5.848 7.165-5.848h.414c6.2 0 7.164 3.168 7.164 6.468v.42l-10.206-.001c.142 1.378 1.114 2.206 3.129 2.206 1.983 0 2.267-.603 2.411-.906l.005-.012.008-.017.015-.029zm-.045-3.446c0-.963-.551-1.927-2.756-1.927-1.929 0-2.618.826-2.756 1.929l5.512-.002zm15.827 2.483h4.565c0 1.654-1.102 4.822-7.027 4.82h-.276c-5.924 0-7.164-3.58-7.164-5.785v-.413c0-2.204 1.171-5.788 7.164-5.786h.276c5.853-.002 7.027 3.031 7.027 4.685h-4.547c-.118-.69-.69-1.654-2.48-1.654h-.276c-1.79 0-2.617 1.378-2.617 2.893v.137c0 1.517.963 2.756 2.617 2.756h.276c1.929 0 2.343-1.102 2.462-1.653zM90.11 21.002h4.41V9.567h-4.41v4.132h-5.235V9.567h-4.41v11.435h4.41v-4.134h5.235v4.134zm-11.023-3.445v.137c0 2.205-2.342 3.583-6.75 3.583h-.552c-4.685 0-6.751-1.793-6.751-4.107v-.163l4.546-.002c.138 1.24 1.24 1.516 2.618 1.516 1.546 0 2.342-.276 2.342-1.103 0-.84-.557-1.1-1.733-1.1l-2.4-.002v-2.48h2.342c.966 0 1.378-.276 1.378-.964 0-.69-.688-1.103-2.066-1.103s-2.065.413-2.205 1.24h-4.685v-.14c0-2.34 2.756-3.58 6.751-3.58h.276c3.995 0 6.476 1.102 6.476 3.031v.276c0 1.654-1.572 2.276-2.536 2.482 1.174.226 2.949.688 2.949 2.479zm-19.703 3.445h4.41V9.567h-4.547L54.15 16.18V9.567h-4.41v11.435h4.547l5.098-6.613v6.613zM25.078 13.355c0 6.848-5.551 12.4-12.4 12.4s-12.4-5.552-12.4-12.4c0-6.849 5.551-12.4 12.4-12.4s12.4 5.551 12.4 12.4zm-8.4 7.069V6.27h-3.562c-3.446 0-5.502 1.712-5.502 4.58 0 2.254 1.153 3.541 2.886 4.782l.029.02-.02.03-3.193 4.755h2.602l3.568-5.333-1.222-.824c-1.538-1.044-2.27-1.844-2.27-3.577 0-1.615 1.172-2.58 3.135-2.58h1.143v12.301h2.406z"/></g><path d="M1.254 38.481v-6.288h2.452c.551 0 1.021.087 1.41.26.39.174.69.426.899.755.21.33.314.722.314 1.177 0 .455-.105.847-.314 1.177-.21.323-.51.575-.898.754-.39.174-.86.26-1.41.26H1.747l.404-.421v2.326h-.898zm.898-2.236l-.404-.45h1.931c.575 0 1.01-.122 1.303-.368.3-.245.449-.593.449-1.042 0-.45-.15-.796-.45-1.042-.293-.246-.727-.368-1.302-.368H1.748l.404-.45v3.72zM9.537 38.535c-.509 0-.958-.105-1.347-.314a2.305 2.305 0 01-.898-.863 2.482 2.482 0 01-.315-1.257c0-.473.102-.892.306-1.258.21-.365.494-.65.853-.853.365-.21.776-.315 1.23-.315.462 0 .87.102 1.222.306.354.203.63.49.827.862.204.365.305.794.305 1.285 0 .036-.003.078-.009.126a.951.951 0 01-.009.134H7.651v-.62h3.602l-.35.216a1.602 1.602 0 00-.189-.818 1.401 1.401 0 00-.548-.556 1.514 1.514 0 00-.8-.207c-.299 0-.565.069-.799.207-.233.131-.416.32-.548.566-.131.24-.197.514-.197.826v.144c0 .317.072.602.215.853.15.246.357.437.62.575.264.138.566.207.907.207.282 0 .536-.048.764-.144.234-.096.437-.24.61-.431l.477.557a2.08 2.08 0 01-.809.575 2.765 2.765 0 01-1.069.197zM15.846 38.481v-1.006l-.045-.189v-1.715c0-.365-.108-.647-.323-.845-.21-.203-.527-.305-.953-.305a2.45 2.45 0 00-.826.144c-.27.09-.497.212-.683.368l-.359-.647c.245-.197.539-.347.88-.449.348-.108.71-.162 1.087-.162.653 0 1.156.16 1.51.477.353.317.53.802.53 1.455v2.874h-.818zm-1.563.054a2.28 2.28 0 01-.934-.18 1.442 1.442 0 01-.611-.494 1.282 1.282 0 01-.216-.727c0-.258.06-.491.18-.7.126-.21.326-.378.602-.504.281-.126.659-.189 1.132-.189h1.509v.62h-1.473c-.432 0-.722.072-.872.216a.696.696 0 00-.224.52c0 .234.093.423.278.567.186.137.443.206.773.206.323 0 .604-.072.844-.215a1.22 1.22 0 00.53-.629l.17.593a1.363 1.363 0 01-.601.674c-.288.161-.65.242-1.087.242zM17.426 38.472l.054-.727.116.018a.604.604 0 00.1.009.548.548 0 00.448-.198c.114-.132.198-.305.252-.521.054-.222.093-.47.117-.746.024-.275.042-.55.053-.826l.081-1.76h3.656v4.76h-.862v-4.258l.207.252h-2.444l.198-.26-.063 1.32c-.018.419-.05.811-.099 1.177a4.457 4.457 0 01-.224.96c-.096.276-.23.492-.404.648-.168.155-.387.233-.656.233-.078 0-.162-.009-.252-.027a3.193 3.193 0 01-.278-.054zM26.172 35.337c.604.006 1.066.144 1.383.413.317.27.476.65.476 1.141 0 .515-.174.913-.52 1.195-.348.275-.84.41-1.474.404l-2.066-.009v-4.76h.862v1.607l1.339.01zm-.207 2.497c.39.006.683-.071.88-.233.204-.162.306-.401.306-.719 0-.311-.099-.539-.297-.682-.197-.144-.494-.219-.889-.225l-1.132-.018v1.868l1.132.01zM29.138 38.481v-4.76H30v2.02h2.713v-2.02h.862v4.76h-.862v-1.994H30v1.994h-.862zM39.96 38.481v-4.76h.861v4.76h-.862zm-2.561-3.144c.605.006 1.063.144 1.374.413.318.27.476.65.476 1.141 0 .515-.173.913-.52 1.195-.342.275-.833.41-1.474.404l-2.003-.009v-4.76h.862v1.607l1.285.01zm-.207 2.497c.384.006.677-.071.88-.233.204-.162.306-.401.306-.719 0-.311-.102-.539-.305-.682-.198-.144-.491-.219-.88-.225l-1.079-.018v1.868l1.078.01zM42.498 38.481v-4.76h.862v3.467l2.92-3.468h.781v4.761H46.2v-3.467l-2.91 3.467h-.791zm2.228-5.38c-.437 0-.782-.105-1.033-.315-.246-.215-.372-.524-.378-.925h.584c.006.227.081.407.225.539.15.132.347.197.593.197.245 0 .443-.065.593-.197a.708.708 0 00.233-.54h.602c-.006.402-.135.71-.386.926-.252.21-.596.314-1.033.314zM53.672 38.535c-.396 0-.758-.09-1.087-.27a2.06 2.06 0 01-.782-.817c-.191-.36-.287-.808-.287-1.347 0-.54.093-.988.278-1.348.192-.359.45-.629.773-.808.33-.18.697-.27 1.105-.27.467 0 .88.102 1.24.306.359.203.643.488.853.853.21.36.314.782.314 1.267 0 .485-.105.91-.314 1.275-.21.366-.494.65-.854.854a2.47 2.47 0 01-1.24.305zm-2.524 1.689V33.72h.826v1.285l-.054 1.105.09 1.105v3.009h-.862zM53.6 37.78c.305 0 .578-.07.817-.207.246-.138.437-.332.575-.584.144-.258.216-.554.216-.89 0-.34-.072-.634-.216-.88a1.46 1.46 0 00-.575-.584 1.61 1.61 0 00-.817-.206c-.3 0-.572.069-.818.206-.24.138-.43.333-.574.584a1.772 1.772 0 00-.207.88c0 .336.069.633.207.89.143.252.335.446.574.584.246.138.518.207.818.207zM59.452 38.535c-.51 0-.958-.105-1.347-.314a2.305 2.305 0 01-.899-.863 2.482 2.482 0 01-.314-1.257c0-.473.102-.892.305-1.258.21-.365.494-.65.854-.853.365-.21.775-.315 1.23-.315.461 0 .869.102 1.222.306.353.203.629.49.826.862.204.365.306.794.306 1.285 0 .036-.003.078-.01.126a.951.951 0 01-.008.134h-4.051v-.62h3.602l-.35.216a1.602 1.602 0 00-.19-.818 1.401 1.401 0 00-.547-.556 1.514 1.514 0 00-.8-.207c-.3 0-.566.069-.8.207-.233.131-.415.32-.547.566-.132.24-.198.514-.198.826v.144c0 .317.072.602.216.853.15.246.356.437.62.575.263.138.566.207.907.207.281 0 .536-.048.763-.144.234-.096.438-.24.611-.431l.476.557a2.08 2.08 0 01-.808.575 2.765 2.765 0 01-1.07.197zM62.973 38.481v-4.76h.862v3.467l2.92-3.468h.78v4.761h-.861v-3.467l-2.91 3.467h-.791zm2.227-5.38c-.437 0-.781-.105-1.033-.315-.245-.215-.371-.524-.377-.925h.584c.006.227.08.407.225.539.15.132.347.197.592.197.246 0 .444-.065.593-.197a.708.708 0 00.234-.54h.602c-.006.402-.135.71-.387.926-.251.21-.596.314-1.033.314zM70.153 38.481v-4.23l.215.224H68.41v-.755h4.348v.755h-1.95l.207-.225v4.231h-.862zM73.64 38.481v-4.76h.862v3.467l2.92-3.468h.781v4.761h-.862v-3.467l-2.91 3.467h-.791zM79.877 38.481v-4.76h.862v2.02h2.713v-2.02h.862v4.76h-.862v-1.994h-2.713v1.994h-.862zM85.991 38.481v-4.76h3.504v.754h-2.848l.206-.198v4.204h-.862z" fill="#9095AD"/></svg>