<?xml version="1.0" encoding="utf-8"?><svg width="160" height="55" fill="none" xmlns="http://www.w3.org/2000/svg" viewBox="0 0 160 55"><g clip-path="url(#cqclip0_526_5484)"><mask id="cqa" style="mask-type:luminance" maskUnits="userSpaceOnUse" x="0" y="0" width="160" height="55"><path d="M160 0H0v55h160V0z" fill="#fff"/></mask><g mask="url(#cqa)" fill-rule="evenodd" clip-rule="evenodd"><path d="M26.968 0h.798a94.386 94.386 0 001.277 3.786c1.48.272 2.93.688 4.335 1.244a47.277 47.277 0 002.633-2.736l.106-.028c1.655.943 3.304 1.901 4.947 2.875l.053.11a157.19 157.19 0 00-.771 3.98c5.703 4.742 8.664 10.933 8.883 18.573.394 7.577-1.946 14.063-7.021 19.457a33.505 33.505 0 01-10.772 7.297c-.069-2.61-.122-5.218-.16-7.822a28.28 28.28 0 005.852-3.98c3.915-3.763 5.848-8.434 5.797-14.012-.198-6.744-2.947-12.023-8.244-15.837-4.84-3.199-10.017-3.954-15.532-2.266-5.918 2.152-9.899 6.307-11.942 12.464a20.248 20.248 0 00-.824 5.666c.068 4.91.12 9.821.16 14.731-2.13.026-4.258.063-6.383.111A616.76 616.76 0 010 36.151v-4.81c.085-2.109.165-4.228.24-6.356a27.037 27.037 0 014.255-10.613A27.394 27.394 0 019.52 8.789a31.279 31.279 0 01-.824-3.261 229.789 229.789 0 014.92-3.04c.9.812 1.813 1.604 2.74 2.376a24.181 24.181 0 014.6-1.188.244.244 0 00.133-.138c.292-1.139.567-2.281.825-3.427L26.968 0z" fill="#4887D0"/><path opacity=".99" d="M92.553 8.844h3.777v1.824c1.901.06 3.769.541 5.478 1.41 2.463 1.441 3.687 3.643 3.671 6.605-.049 3.597-1.698 6.002-4.947 7.214a14.905 14.905 0 01-4.202.802v1.99h-3.777v-2.046a12.357 12.357 0 01-5.691-1.465c-2.363-1.455-3.533-3.62-3.511-6.495.002-3.386 1.509-5.717 4.521-6.992a14.877 14.877 0 014.628-.995c.052-.616.07-1.234.053-1.852zm-.106 5.196c.106 3.077.142 6.172.106 9.287a7.429 7.429 0 01-3.83-1.355c-1.213-1.183-1.647-2.63-1.303-4.339.313-1.507 1.174-2.511 2.58-3.012a11.83 11.83 0 012.447-.58zm3.883 0c1.15.096 2.27.424 3.297.968 1.285.853 1.905 2.079 1.862 3.675.016 1.912-.818 3.248-2.5 4.008-.85.35-1.747.564-2.66.636V14.04zM74.468 9.286c2.414-.174 4.612.443 6.596 1.852.52.402.985.877 1.383 1.41-.869.856-1.746 1.704-2.633 2.542-1.617-1.874-3.612-2.528-5.984-1.962-2.174.656-3.478 2.14-3.91 4.45-.35 2.128.19 3.961 1.622 5.5 1.696 1.406 3.593 1.793 5.692 1.16a6.296 6.296 0 002.58-1.851c.902.806 1.78 1.644 2.633 2.515-1.569 1.883-3.554 2.952-5.958 3.206-3.035.373-5.712-.456-8.032-2.488-2.135-2.196-3.048-4.859-2.74-7.987.609-4.238 2.904-6.919 6.89-8.043a17.66 17.66 0 011.86-.304zM108.458 9.618h13.297v3.427h-9.202v3.87h8.139v3.372h-8.139v4.145h9.522v3.427h-13.617V9.62zM125.319 9.618c2.89-.009 5.78 0 8.671.028 1.762.107 3.322.733 4.68 1.88 1.565 1.653 2.158 3.634 1.782 5.942-.41 2.176-1.589 3.715-3.537 4.615a8.993 8.993 0 01-2.925.719c-1.525.027-3.05.037-4.575.027v5.03h-4.096V9.62zm4.096 3.483c1.33-.01 2.66 0 3.989.027 2.25.273 3.216 1.572 2.899 3.897-.212.922-.735 1.576-1.569 1.963a5.03 5.03 0 01-1.33.331c-1.329.028-2.659.037-3.989.028V13.1zM160 27.694v.165c-1.437.019-2.873 0-4.308-.055a124.612 124.612 0 01-1.49-3.814c-2.712-.01-5.425 0-8.138.028l-1.543 3.814a53.288 53.288 0 01-4.202-.028c2.605-6.057 5.193-12.119 7.766-18.186 1.378-.018 2.752 0 4.123.056A4092.83 4092.83 0 00160 27.694zm-9.893-13.82c.926 2.27 1.847 4.545 2.766 6.827-1.827.037-3.653.037-5.479 0 .912-2.273 1.816-4.548 2.713-6.827z" fill="#1D2A3B"/><path opacity=".99" d="M25.106 14.15c.539-.04 1.08.026 1.596.194a525.046 525.046 0 006.808 5.915c.347.296.567.723.612 1.188.136.542.155 1.108.053 1.658-.06.198-.15.385-.266.553-3.35 4.312-6.72 8.605-10.106 12.88l-2.314-1.963a.143.143 0 01-.079-.08.153.153 0 010-.113c3.012-3.738 6.043-7.46 9.095-11.166.118-.312.056-.58-.186-.802l-4.681-4.09c-.489-.23-.888-.11-1.197.36L15.957 29.82a.065.065 0 01-.106 0l-2.394-2.045 10.346-13.183c.4-.24.844-.39 1.303-.442z" fill="#4887D0"/><path d="M25.372 21.337a.258.258 0 01.16.027c.729.666 1.473 1.31 2.234 1.935a.141.141 0 01.078.08.154.154 0 01.002.114L18.75 34.658c-.113.28-.068.529.133.747l4.734 4.145c.488.23.887.11 1.197-.359l8.43-11.11a.108.108 0 01.074-.052.103.103 0 01.086.024 64.815 64.815 0 012.34 2.045A914.047 914.047 0 0125.32 43.365a3.85 3.85 0 01-2.766.165 568.65 568.65 0 01-7.101-6.218 3.904 3.904 0 01-.266-2.874l10.186-13.101z" fill="#791F39"/><path opacity=".93" d="M115 35.708h.585c.112.617.475.912 1.091.885.595.025.959-.26 1.09-.857.194-.027.39-.037.585-.028-.036.745-.408 1.197-1.117 1.355-.444.048-.891.03-1.33-.056-.598-.207-.899-.64-.904-1.299z" fill="#1D2A3B"/><path opacity=".94" d="M65.691 37.588c.285-.018.571 0 .852.055a155.395 155.395 0 002.473 4.92c.82-1.65 1.653-3.29 2.5-4.92.27-.072.554-.072.824 0a684.602 684.602 0 00-3.324 6.412c-.652 1.117-1.547 1.42-2.686.912.05-.227.14-.442.266-.636.636.299 1.177.17 1.622-.386.108-.198.224-.392.346-.58a290.364 290.364 0 01-2.873-5.777zM73.032 37.588h.798a31.652 31.652 0 00.08 3.095c.385.796 1.014 1.164 1.888 1.106a5.053 5.053 0 002.074-.498 64.59 64.59 0 00.053-3.703h.798v7.517h-.798v-3.04a5.526 5.526 0 01-3.404.304c-.806-.265-1.293-.827-1.463-1.686-.026-1.032-.035-2.063-.026-3.095z" fill="#1D2A3B"/><path opacity=".97" d="M81.064 37.588h5v.774h-4.149v2.542h3.67v.774h-3.67v2.709h4.308v.718h-5.159v-7.517z" fill="#1D2A3B"/><path opacity=".94" d="M87.82 37.588h5.319v.718h-4.522v2.377c.851-.009 1.702 0 2.553.028 1.789.034 2.56.964 2.314 2.791-.202.727-.655 1.197-1.356 1.41-.296.084-.599.14-.904.166-1.135.027-2.27.037-3.405.027v-7.517zm.797 3.814c.922-.01 1.844 0 2.766.028.865.078 1.326.567 1.383 1.464-.086.836-.53 1.325-1.33 1.465-.939.028-1.879.037-2.819.028v-2.985z" fill="#1D2A3B"/><path opacity=".93" d="M95.266 37.588h.798v3.316h4.415v-3.316h.798v7.517h-.798v-3.427h-4.415v3.428h-.798v-7.518z" fill="#1D2A3B"/><path opacity=".94" d="M103.67 37.588h.798v2.653c.851-.01 1.702 0 2.553.028 1.703.134 2.456 1.083 2.261 2.846-.109.846-.544 1.427-1.303 1.742a3.996 3.996 0 01-1.011.22 98.25 98.25 0 01-3.298.029v-7.518zm.798 3.372c.851-.01 1.702 0 2.553.027 1.222.226 1.692.972 1.41 2.24-.206.655-.64 1.033-1.303 1.132-.887.028-1.773.037-2.66.028V40.96z" fill="#1D2A3B"/><path opacity=".93" d="M110.479 37.588h.797v7.517h-.797v-7.517z" fill="#1D2A3B"/><path opacity=".94" d="M113.67 37.588h.798c-.009 2.027 0 4.054.027 6.08a368.642 368.642 0 014.495-6.052c.247-.028.496-.037.744-.028v7.518h-.798c.009-2.027.001-4.054-.026-6.08a565.686 565.686 0 00-4.468 6.024 2.839 2.839 0 01-.772.056v-7.518z" fill="#1D2A3B"/><path opacity=".96" d="M124.734 37.588h.798v6.799h4.308v-6.8h.798v6.8h1.117v2.432h-.745v-1.714h-6.276v-7.517z" fill="#1D2A3B"/><path opacity=".97" d="M133.191 37.588h5v.774h-4.149v2.542h3.671v.774h-3.671v2.709h4.309v.718h-5.16v-7.517z" fill="#1D2A3B"/><path opacity=".95" d="M139.947 37.588h.798v3.316h4.468v-3.316h.798v7.517h-.798v-3.427h-4.468v3.428h-.798v-7.518z" fill="#1D2A3B"/><path opacity=".93" d="M147.234 37.588h5.851v.774h-2.5v6.743h-.798v-6.743h-2.553v-.774z" fill="#1D2A3B"/><path opacity=".95" d="M160 39.633v1.106c-.325 1.157-1.07 1.81-2.234 1.962-.869.028-1.737.037-2.606.028v2.377h-.798v-7.518c1.028-.01 2.057 0 3.085.028a2.36 2.36 0 011.643.507c.47.372.794.909.91 1.51zm-4.84-1.271c.833-.01 1.667 0 2.5.027 1.148.24 1.653.968 1.516 2.184-.246.898-.822 1.367-1.729 1.41-.762.027-1.525.036-2.287.027v-3.648z" fill="#1D2A3B"/><path opacity=".99" d="M27.766 46.764h.692c.017 2.636.053 5.271.106 7.904h-3.298a824.847 824.847 0 00-.053-7.85c.86.02 1.711 0 2.553-.054z" fill="#4887D0"/><path opacity=".98" d="M19.415 46.874h3.245l.053 7.85a53.503 53.503 0 00-3.245.055 1277.4 1277.4 0 01-.053-7.905zM13.457 46.93h3.245l.053 7.849c-1.082.013-2.163.031-3.245.055-.024-2.635-.042-5.27-.053-7.904z" fill="#4887D0"/><path opacity=".99" d="M.532 55h-.32a917.96 917.96 0 00-.106-7.905c3.617-.03 7.234-.067 10.851-.11.05 2.616.085 5.233.107 7.85-3.52.048-7.03.103-10.532.165z" fill="#4887D0"/></g></g><defs><clipPath id="cqclip0_526_5484"><path fill="#fff" d="M0 0h160v55H0z"/></clipPath></defs></svg>