<?xml version="1.0" encoding="utf-8"?><svg width="160" height="55" fill="none" xmlns="http://www.w3.org/2000/svg" viewBox="0 0 160 55"><g clip-path="url(#kclip0_2451_8143)"><path fill-rule="evenodd" clip-rule="evenodd" d="M27.697 14.24l7.188 5.985c.412.343.835 2.322.278 3.005L24.657 36.117l-2.481-2.07L31.127 23.5c.266-.45.698-.41.499-1.187l-.605-.517-4.198-3.533c-.39-.236-.505-.554-1.197-.19l-.35.367-8.786 11.04-2.512-2.042 10.671-12.97c.407-.494 2.52-.666 3.048-.227z" fill="#4988D1"/><path fill-rule="evenodd" clip-rule="evenodd" d="M23.297 42.948l-7.188-5.984c-.412-.344-.835-2.322-.278-3.005l10.506-12.888 2.481 2.07-8.952 10.548c-.265.45-.697.41-.498 1.187l.605.517 4.198 3.534c.39.236.505.554 1.197.19l.349-.368 8.787-11.04 2.512 2.042-10.671 12.97c-.407.495-2.52.667-3.048.227z" fill="#78213A"/><path d="M87.344 21.782h-4.328c-.363 2.884-1.926 4.436-4.551 4.436-3.211 0-5.25-2.606-5.25-6.681 0-3.3 1.48-6.71 5.306-6.71 2.345 0 3.964 1.276 4.411 3.438h4.272c-.335-4.075-3.825-7.069-8.6-7.069-6.087 0-9.772 4.575-9.772 10.313 0 6.238 3.825 10.368 9.605 10.368 5.445 0 8.46-3.271 8.907-8.095zm23.623.25c0-4.519-2.151-7.347-5.585-7.347-1.676 0-2.765.694-3.183 1.47h-.084V9.666h-3.91v6.487h-.083c-.419-.775-1.508-1.469-3.183-1.469-3.434 0-5.584 2.828-5.584 7.347 0 3.992 1.48 7.762 5.78 7.762 1.2 0 2.428-.637 2.987-1.33h.084v6.016h3.909v-6.016h.084c.558.693 1.787 1.33 2.987 1.33 4.3 0 5.78-3.77 5.78-7.762h.001zm-3.91.083c0 2.357-.586 4.657-2.792 4.657-1.173 0-2.01-.665-2.15-1.386v-6.154c.363-1.137 1.424-1.525 2.262-1.525 1.87 0 2.68 1.636 2.68 4.408zm-8.851 3.271c-.14.721-.978 1.387-2.15 1.387-2.206 0-2.793-2.301-2.793-4.658 0-2.772.81-4.408 2.681-4.408.838 0 1.899.388 2.262 1.525v6.154zm28.815-.416h-3.797c-.586 1.442-1.48 2.08-2.932 2.08-2.122 0-3.323-1.331-3.379-3.798h10.332v-.388c0-5.018-2.764-8.179-7.12-8.179-4.189 0-7.232 3.216-7.232 7.652 0 4.49 2.932 7.485 7.371 7.485 3.267 0 5.864-1.746 6.757-4.852zm-3.797-4.213h-6.311c.224-1.996 1.452-3.216 3.212-3.216 1.982 0 2.932 1.47 3.099 3.216zm10.024-5.656h-3.741V34.48h3.936v-6.848c1.061 1.47 2.625 2.135 4.44 2.135 3.77 0 6.255-2.939 6.255-7.43 0-4.602-2.541-7.624-6.422-7.624-1.843 0-3.407.694-4.468 2.162v-1.774zm3.49 2.772c2.123 0 3.435 1.664 3.435 4.464 0 2.717-1.285 4.352-3.407 4.352-2.178 0-3.462-1.635-3.462-4.407 0-2.773 1.284-4.409 3.434-4.409zm23.231 11.533c-.53-1.22-.502-2.578-.502-3.881v-6.182c0-3.992-3.379-4.657-6.283-4.657-4.16 0-6.45 1.635-6.673 4.823h3.713c.28-1.636 1.034-2.19 2.849-2.19 1.759 0 2.596.61 2.596 1.913 0 1.164-.949 1.386-3.518 1.719-2.848.36-6.282.804-6.282 4.546 0 2.69 1.954 4.325 5.137 4.325 1.732 0 3.435-.582 4.663-1.802.056.638.084.86.28 1.386h4.02zm-4.327-6.958v1.608c0 2.051-1.452 3.188-3.519 3.188-1.368 0-2.178-.721-2.178-1.913 0-1.746 1.536-1.913 2.904-2.134 1.006-.167 1.871-.222 2.793-.749zM71.281 51.077l-.13.27c-.262.54-.61 1.06-1.154 1.06-.48 0-.73-.11-.87-.195v.864c.216.097.609.194.957.194.762 0 1.404-.432 2.057-1.75l3.015-6.128h-1.099l-2.22 4.69-2.265-4.69h-1.12l2.83 5.685zm10.244 2.01v-7.695H80.5v3.383a9.783 9.783 0 01-2.155.26c-1.557 0-1.698-.909-1.698-1.536v-2.107h-1.024v2.194c0 .854.349 2.345 2.722 2.345.74 0 1.775-.184 2.155-.27v3.426h1.024zm7.075-7.695h-5.366v7.695h5.421V52.2h-4.398v-2.66h4.06v-.853h-4.06v-2.41H88.6v-.886zm2.308 3.112v-2.226h4.289v-.886h-5.312v7.695h3.614c1.513 0 2.384-.833 2.384-2.28 0-1.46-.86-2.303-2.384-2.303h-2.591zm3.952 2.302c0 .94-.567 1.395-1.698 1.395h-2.254v-2.81h2.254c1.142 0 1.698.465 1.698 1.415zm8.621-5.414h-1.023v3.21h-4.093v-3.21h-1.023v7.695h1.023v-3.6h4.093v3.6h1.023v-7.695zm8.469 0v7.695h1.024v-7.695h-1.024zm-.969 5.414c0-1.459-.859-2.29-2.384-2.29h-2.373v-3.124h-1.023v7.695h3.396c1.514 0 2.384-.833 2.384-2.28zm-1.033 0c0 .94-.567 1.395-1.699 1.395h-2.025v-2.81h2.025c1.143 0 1.699.465 1.699 1.415zm9.438-7.436h-.556c-.174.52-.522.843-1.088.843-.555 0-.937-.324-1.089-.843h-.555c.109.865.751 1.492 1.654 1.492.947 0 1.492-.627 1.634-1.492zm-4.703 9.717h1.284l3.81-6.54h.022v6.54h1.023v-7.695h-1.295l-3.799 6.517h-.022v-6.517h-1.023v7.695zM131.414 55h.991v-2.8h-.849v-6.808h-1.024V52.2h-4.005v-6.808h-1.024v7.695h5.911V55zm7.381-9.608h-5.367v7.695h5.421V52.2h-4.398v-2.658h4.061v-.854h-4.061v-2.41h4.344v-.886zm7.424 0h-1.024v3.21h-4.093v-3.21h-1.023v7.695h1.023v-3.6h4.093v3.6h1.024v-7.695zm7.097 0h-6.226v.886h2.602v6.809h1.023v-6.81h2.601v-.885zm.915 0v7.695h1.023V49.93h2.101c1.513 0 2.645-.584 2.645-2.324 0-1.6-1.099-2.215-2.58-2.215h-3.189zm1.023.875h1.829c1.012 0 1.894.173 1.894 1.405 0 1.135-.762 1.405-1.753 1.405h-1.97v-2.81z" fill="#1B2A3B"/><path fill-rule="evenodd" clip-rule="evenodd" d="M32.44 46.183l.086 7.743c9.231-3.798 16.967-10.965 18.357-21.76.847-11.755-3.23-18.365-9.165-23.071l.844-3.998-5.193-2.901-2.754 2.796a24.644 24.644 0 00-4.599-1.271L28.7 0l-5.958.064L21.83 3.6c-1.699.241-3.347.65-4.944 1.227l-2.79-2.377-5.127 3.013.909 3.225C5.02 12.414 1.137 18.85.237 24.838L0 32.234c.047 4.15.122 10.677.127 10.834l6.617-.072c-.016-.313-.148-14.146-.152-14.47-.037-3.335.78-6.469 2.452-9.364 1.676-2.902 3.968-5.213 6.869-6.936 2.88-1.716 6.02-2.595 9.41-2.64 3.39-.03 6.549.781 9.466 2.434a19.05 19.05 0 017.021 6.785 18.042 18.042 0 012.658 9.309c.105 9.418-5.172 14.797-12.027 18.069zm-2.918 7.838l-.085-7.733-3.311.036.085 7.733 3.311-.036zm-6.02.066l-.086-7.734-3.312.036.086 7.734 3.311-.036zm-6.171.067l-.086-7.733-3.31.036.085 7.733 3.31-.036zm-5.914.066l-11.188.122-.085-7.735 11.188-.122.085 7.735z" fill="#4988D1"/></g><defs><clipPath id="kclip0_2451_8143"><path fill="#fff" d="M0 0h160v55H0z"/></clipPath></defs></svg>