<?xml version="1.0" encoding="utf-8"?><svg width="13" height="12" fill="none" xmlns="http://www.w3.org/2000/svg" viewBox="0 0 13 12"><path d="M5.549.927c.3-.921 1.603-.921 1.902 0l.733 2.255a1 1 0 00.95.691h2.372c.969 0 1.372 1.24.588 1.81l-1.918 1.393a1 1 0 00-.364 1.118l.733 2.256c.3.92-.755 1.687-1.539 1.118l-1.918-1.394a1 1 0 00-1.176 0l-1.918 1.394c-.784.569-1.838-.197-1.54-1.118l.734-2.256a1 1 0 00-.364-1.118L.906 5.682c-.784-.569-.381-1.809.588-1.809h2.371a1 1 0 00.951-.69L5.55.926z" fill="#FFCA8C"/></svg>