<?xml version="1.0" encoding="utf-8"?><svg width="14" height="14" fill="none" xmlns="http://www.w3.org/2000/svg" viewBox="0 0 14 14"><path d="M7 1.167a5.833 5.833 0 11-2.933 10.876l-2.897.79.788-2.898A5.833 5.833 0 017 1.166zM5.014 4.258l-.117.005a.583.583 0 00-.217.058.759.759 0 00-.171.133c-.07.066-.11.123-.153.179-.215.28-.332.625-.33.979.001.286.076.564.193.824.238.526.63 1.083 1.149 1.6.125.124.247.249.38.365.643.566 1.41.975 2.24 1.193l.33.05c.108.007.216-.001.325-.007.17-.009.335-.055.486-.134.076-.04.15-.083.223-.129 0 0 .025-.016.073-.052.079-.059.127-.1.192-.168a.68.68 0 00.123-.176c.045-.095.091-.277.11-.428.014-.116.01-.179.008-.218-.003-.062-.054-.127-.111-.154l-.34-.152s-.507-.221-.817-.363a.292.292 0 00-.103-.024.28.28 0 00-.22.074c-.003 0-.043.033-.464.544a.204.204 0 01-.215.075.815.815 0 01-.111-.038c-.073-.03-.098-.042-.147-.063a3.5 3.5 0 01-.92-.585c-.073-.064-.14-.134-.21-.202-.23-.22-.43-.468-.596-.74L5.57 6.65a.583.583 0 01-.06-.12c-.022-.085.036-.154.036-.154s.142-.155.207-.24c.065-.081.119-.16.154-.217.069-.11.09-.225.054-.313a47.743 47.743 0 00-.506-1.19c-.035-.078-.137-.134-.23-.146a1.75 1.75 0 00-.33-.007l.119-.004z" fill="#fff"/></svg>