<svg width="65" height="32" viewBox="0 0 65 32" fill="none" xmlns="http://www.w3.org/2000/svg"><mask id="path-1-outside-1_627_4193" maskUnits="userSpaceOnUse" x="0" y="0" width="65" height="32" fill="#000"><path fill="#fff" d="M0 0h65v32H0z"/><path d="M13.84 30.64c-2.48 0-4.68-.573-6.6-1.72-1.893-1.147-3.387-2.813-4.48-5-1.067-2.187-1.6-4.827-1.6-7.92s.533-5.733 1.6-7.92c1.093-2.187 2.587-3.853 4.48-5 1.92-1.147 4.12-1.72 6.6-1.72 2.48 0 4.667.573 6.56 1.72 1.92 1.147 3.413 2.813 4.48 5 1.093 2.187 1.64 4.827 1.64 7.92s-.547 5.733-1.64 7.92c-1.067 2.187-2.56 3.853-4.48 5-1.893 1.147-4.08 1.72-6.56 1.72zm0-7.56c.613 0 1.16-.213 1.64-.64.48-.427.853-1.16 1.12-2.2.293-1.04.44-2.453.44-4.24 0-1.813-.147-3.227-.44-4.24-.267-1.04-.64-1.773-1.12-2.2-.48-.427-1.027-.64-1.64-.64s-1.16.213-1.64.64c-.48.427-.867 1.16-1.16 2.2-.267 1.013-.4 2.427-.4 4.24 0 1.787.133 3.2.4 4.24.293 1.04.68 1.773 1.16 2.2.48.427 1.027.64 1.64.64zm24.265 7.56c-1.92 0-3.867-.213-5.84-.64-1.974-.427-3.707-1.053-5.2-1.88l3.2-6.96c1.2.693 2.453 1.213 3.76 1.56 1.333.32 2.586.48 3.76.48 1.066 0 1.933-.173 2.6-.52.693-.373 1.04-.92 1.04-1.64 0-.613-.254-1.08-.76-1.4-.507-.347-1.36-.52-2.56-.52h-3.72v-5.8l7.24-7.36.84 3.16h-13.96V2h20.88v5.8l-7.24 7.36-4.52-2.56h2.48c3.52 0 6.2.787 8.04 2.36 1.84 1.573 2.76 3.6 2.76 6.08 0 1.6-.454 3.133-1.36 4.6-.88 1.467-2.267 2.667-4.16 3.6-1.867.933-4.294 1.4-7.28 1.4zm19.85-.24c-1.493 0-2.747-.48-3.76-1.44-1.013-.987-1.52-2.24-1.52-3.76 0-1.547.507-2.787 1.52-3.72 1.013-.933 2.267-1.4 3.76-1.4 1.493 0 2.747.467 3.76 1.4 1.013.933 1.52 2.173 1.52 3.72 0 1.52-.507 2.773-1.52 3.76-1.013.96-2.267 1.44-3.76 1.44z"/></mask><path d="M7.24 28.92l-.518.855.005.004.513-.859zm-4.48-5l-.899.438.005.01.894-.448zm0-15.84l-.894-.447-.005.009.899.438zm4.48-5l-.513-.859-.005.004.518.855zm13.16 0l-.518.855.005.004.513-.859zm4.48 5l-.899.438.005.01.894-.448zm0 15.84l-.895-.447-.004.009.899.438zm-4.48 5l-.513-.859-.005.004.518.855zm-3.8-8.68l-.962-.271-.004.011-.003.012.969.248zm0-8.48l-.969.248.004.015.004.015.961-.278zm-1.12-2.2l.664-.747-.664.747zm-3.28 0l-.664-.747.664.747zm-1.16 2.2l-.962-.271-.003.008-.002.008.967.255zm0 8.48l-.969.248.003.012.004.012.962-.272zm2.8 9.4c-2.32 0-4.339-.534-6.087-1.579L6.727 29.78c2.093 1.247 4.473 1.86 7.113 1.86v-2zm-6.082-1.575c-1.715-1.04-3.086-2.556-4.104-4.592l-1.788.894c1.168 2.337 2.785 4.154 4.856 5.408l1.036-1.71zm-4.1-4.583C2.675 21.463 2.16 18.982 2.16 16h-2c0 3.205.552 6.003 1.701 8.358l1.798-.876zM2.16 16c0-2.981.514-5.463 1.499-7.482L1.86 7.642C.712 9.997.16 12.795.16 16h2zm1.494-7.473c1.018-2.036 2.389-3.553 4.104-4.592l-1.036-1.71c-2.071 1.254-3.688 3.07-4.856 5.408l1.788.894zM7.753 3.94C9.5 2.894 11.52 2.36 13.84 2.36v-2c-2.64 0-5.021.612-7.113 1.861L7.753 3.94zm6.087-1.58c2.32 0 4.323.534 6.042 1.575l1.036-1.71C18.85.972 16.48.36 13.84.36v2zm6.047 1.579c1.739 1.038 3.105 2.551 4.094 4.58l1.798-.877c-1.144-2.346-2.765-4.166-4.866-5.42l-1.026 1.717zm4.099 4.588c1.008 2.016 1.534 4.495 1.534 7.473h2c0-3.209-.567-6.01-1.746-8.367l-1.788.894zM25.52 16c0 2.978-.526 5.457-1.534 7.473l1.788.894c1.18-2.357 1.746-5.159 1.746-8.367h-2zm-1.539 7.482c-.99 2.028-2.355 3.541-4.094 4.58l1.026 1.716c2.101-1.255 3.722-3.074 4.866-5.42l-1.798-.876zm-4.099 4.583c-1.719 1.04-3.722 1.575-6.042 1.575v2c2.64 0 5.01-.612 7.078-1.865l-1.036-1.71zM13.84 24.08c.87 0 1.65-.312 2.304-.893l-1.328-1.494c-.307.272-.62.387-.976.387v2zm2.304-.893c.699-.62 1.138-1.582 1.425-2.699l-1.938-.496c-.247.963-.554 1.468-.815 1.7l1.328 1.495zm1.419-2.675c.329-1.168.477-2.685.477-4.512h-2c0 1.746-.145 3.055-.402 3.968l1.925.544zM18.04 16c0-1.85-.148-3.372-.48-4.518l-1.92.556c.254.881.4 2.186.4 3.962h2zm-.471-4.488c-.287-1.117-.726-2.078-1.425-2.7l-1.328 1.495c.261.233.568.738.815 1.701l1.938-.496zm-1.425-2.7c-.653-.58-1.433-.892-2.304-.892v2c.356 0 .67.115.976.387l1.328-1.494zM13.84 7.92c-.87 0-1.65.312-2.304.893l1.328 1.494c.307-.272.62-.387.976-.387v-2zm-2.304.893c-.69.613-1.145 1.563-1.458 2.675l1.925.543c.272-.968.591-1.484.861-1.724l-1.328-1.494zm-1.463 2.692C9.774 12.641 9.64 14.153 9.64 16h2c0-1.78.133-3.094.367-3.986l-1.934-.508zM9.64 16c0 1.823.135 3.331.431 4.488l1.938-.496c-.237-.923-.369-2.242-.369-3.992h-2zm.438 4.512c.313 1.111.768 2.062 1.458 2.675l1.328-1.494c-.27-.24-.589-.757-.862-1.725l-1.924.544zm1.458 2.675c.653.581 1.433.893 2.304.893v-2c-.356 0-.67-.115-.976-.387l-1.328 1.494zM32.265 30l-.212.977.212-.977zm-5.2-1.88l-.909-.418-.387.843.811.45.485-.875zm3.2-6.96l.5-.866-.95-.549-.459.997.909.418zm3.76 1.56l-.257.967.012.003.011.002.234-.972zm6.36-.04l.461.887.006-.003.007-.003-.474-.881zm.28-3.04l-.565.825.015.01.016.01.534-.845zm-6.28-.52h-1v1h1v-1zm0-5.8l-.713-.701-.287.292v.409h1zm7.24-7.36l.966-.257-.45-1.694-1.23 1.25.714.701zm.84 3.16v1h1.3l-.334-1.257-.966.257zm-13.96 0h-1v1h1v-1zm0-7.12V1h-1v1h1zm20.88 0h1V1h-1v1zm0 5.8l.713.701.287-.292V7.8h-1zm-7.24 7.36l-.493.87.667.378.539-.547-.713-.701zm-4.52-2.56v-1H33.83l3.302 1.87.493-.87zm11.92 13.04l-.851-.526-.007.011.858.515zm-4.16 3.6l-.442-.897-.005.003.447.894zm-7.28.4a26.58 26.58 0 01-5.629-.617l-.423 1.954a28.58 28.58 0 006.052.663v-2zm-5.629-.617c-1.895-.41-3.533-1.006-4.927-1.778l-.969 1.75c1.593.882 3.421 1.539 5.473 1.982l.423-1.954zm-4.503-.485l3.2-6.96-1.817-.836-3.2 6.96 1.817.836zm1.791-6.512c1.275.736 2.61 1.29 4.004 1.66l.513-1.933a14.361 14.361 0 01-3.516-1.459l-1 1.732zm4.027 1.666c1.398.336 2.73.508 3.994.508v-2c-1.083 0-2.258-.148-3.527-.452l-.467 1.944zm3.994.508c1.164 0 2.205-.188 3.061-.633l-.923-1.774c-.477.248-1.17.407-2.138.407v2zm3.074-.64c.465-.25.867-.588 1.15-1.034.286-.452.416-.958.416-1.486h-2a.741.741 0 01-.105.415c-.063.1-.181.222-.41.345l.949 1.76zm1.566-2.52c0-.947-.421-1.737-1.226-2.245l-1.068 1.69c.208.132.294.275.294.555h2zm-1.196-2.225c-.769-.527-1.884-.695-3.124-.695v2c1.16 0 1.75.178 1.995.345l1.13-1.65zm-3.124-.695h-3.72v2h3.72v-2zm-2.72 1v-5.8h-2v5.8h2zm-.287-5.099l7.24-7.36-1.426-1.402-7.24 7.36 1.426 1.402zm5.56-7.804l.84 3.16 1.933-.514-.84-3.16-1.933.514zm1.807 1.903h-13.96v2h13.96v-2zm-12.96 1V2h-2v7.12h2zm-1-6.12h20.88V1h-20.88v2zm19.88-1v5.8h2V2h-2zm.287 5.099l-7.24 7.36 1.426 1.402 7.24-7.36L48.672 7.1zm-6.034 7.19l-4.52-2.56-.986 1.741 4.52 2.56.986-1.74zm-5.013-.689h2.48v-2h-2.48v2zm2.48 0c3.387 0 5.798.759 7.39 2.12l1.3-1.52c-2.088-1.785-5.038-2.6-8.69-2.6v2zm7.39 2.12c1.611 1.378 2.41 3.124 2.41 5.32h2c0-2.764-1.042-5.071-3.11-6.84l-1.3 1.52zm2.41 5.32c0 1.4-.394 2.753-1.21 4.074l1.7 1.052c.997-1.612 1.51-3.326 1.51-5.126h-2zm-1.218 4.085c-.76 1.268-1.983 2.35-3.744 3.218l.884 1.794c2.025-.998 3.576-2.316 4.575-3.983l-1.715-1.029zm-3.75 3.22c-1.68.841-3.938 1.295-6.832 1.295v2c3.08 0 5.675-.48 7.727-1.506l-.895-1.788zm9.258.615l-.698.716.01.01.688-.726zm0-7.48l-.678-.736.678.736zm7.52 0l.677-.736-.677.736zm0 7.48l.688.726.01-.01-.698-.716zm-3.76.44c-1.257 0-2.258-.395-3.072-1.166l-1.376 1.452c1.213 1.149 2.718 1.714 4.448 1.714v-2zm-3.062-1.156c-.805-.784-1.218-1.771-1.218-3.044h-2c0 1.768.6 3.287 1.822 4.477l1.396-1.433zM53.675 25.2c0-1.305.416-2.265 1.198-2.985l-1.355-1.47c-1.246 1.146-1.843 2.667-1.843 4.455h2zm1.198-2.985c.812-.748 1.817-1.135 3.082-1.135v-2c-1.721 0-3.223.546-4.438 1.665l1.355 1.47zm3.082-1.135c1.265 0 2.27.387 3.083 1.136l1.355-1.472c-1.215-1.118-2.717-1.664-4.438-1.664v2zm3.083 1.136c.78.72 1.197 1.679 1.197 2.984h2c0-1.788-.597-3.309-1.843-4.456l-1.355 1.471zm1.197 2.984c0 1.273-.413 2.26-1.218 3.044l1.396 1.433c1.222-1.19 1.822-2.71 1.822-4.477h-2zm-1.208 3.034c-.814.771-1.815 1.166-3.072 1.166v2c1.73 0 3.235-.565 4.448-1.714l-1.376-1.452z" fill="#78213A" mask="url(#path-1-outside-1_627_4193)"/></svg>