<svg width="65" height="32" viewBox="0 0 65 32" fill="none" xmlns="http://www.w3.org/2000/svg"><mask id="path-1-outside-1_627_3935" maskUnits="userSpaceOnUse" x="0" y="0" width="65" height="32" fill="#000"><path fill="#fff" d="M0 0h65v32H0z"/><path d="M13.84 30.64c-2.48 0-4.68-.573-6.6-1.72-1.893-1.147-3.387-2.813-4.48-5-1.067-2.187-1.6-4.827-1.6-7.92s.533-5.733 1.6-7.92c1.093-2.187 2.587-3.853 4.48-5 1.92-1.147 4.12-1.72 6.6-1.72 2.48 0 4.667.573 6.56 1.72 1.92 1.147 3.413 2.813 4.48 5 1.093 2.187 1.64 4.827 1.64 7.92s-.547 5.733-1.64 7.92c-1.067 2.187-2.56 3.853-4.48 5-1.893 1.147-4.08 1.72-6.56 1.72zm0-7.56c.613 0 1.16-.213 1.64-.64.48-.427.853-1.16 1.12-2.2.293-1.04.44-2.453.44-4.24 0-1.813-.147-3.227-.44-4.24-.267-1.04-.64-1.773-1.12-2.2-.48-.427-1.027-.64-1.64-.64s-1.16.213-1.64.64c-.48.427-.867 1.16-1.16 2.2-.267 1.013-.4 2.427-.4 4.24 0 1.787.133 3.2.4 4.24.293 1.04.68 1.773 1.16 2.2.48.427 1.027.64 1.64.64zm25.095 7.56a27.56 27.56 0 01-5.84-.64c-1.973-.427-3.706-1.053-5.2-1.88l3.2-6.96c1.2.693 2.454 1.213 3.76 1.56 1.307.32 2.547.48 3.72.48 1.067 0 1.947-.187 2.64-.56.694-.373 1.04-.92 1.04-1.64 0-.4-.12-.747-.36-1.04-.24-.32-.666-.56-1.28-.72-.586-.16-1.453-.24-2.6-.24h-8.12l1.4-17h18.6v7.12h-15.28l4.76-4.04-.84 10.84-4.76-4.04h6.52c2.774 0 4.987.4 6.64 1.2 1.68.8 2.894 1.88 3.64 3.24.774 1.333 1.16 2.827 1.16 4.48 0 1.653-.453 3.24-1.36 4.76-.88 1.493-2.266 2.72-4.16 3.68-1.866.933-4.293 1.4-7.28 1.4zm19.606-.24c-1.493 0-2.747-.48-3.76-1.44-1.013-.987-1.52-2.24-1.52-3.76 0-1.547.507-2.787 1.52-3.72 1.013-.933 2.267-1.4 3.76-1.4 1.493 0 2.747.467 3.76 1.4 1.013.933 1.52 2.173 1.52 3.72 0 1.52-.507 2.773-1.52 3.76-1.013.96-2.267 1.44-3.76 1.44z"/></mask><path d="M7.24 28.92l-.518.855.005.004.513-.859zm-4.48-5l-.899.438.005.01.894-.448zm0-15.84l-.894-.447-.005.009.899.438zm4.48-5l-.513-.859-.005.004.518.855zm13.16 0l-.518.855.005.004.513-.859zm4.48 5l-.899.438.005.01.894-.448zm0 15.84l-.895-.447-.004.009.899.438zm-4.48 5l-.513-.859-.005.004.518.855zm-3.8-8.68l-.962-.271-.004.011-.003.012.969.248zm0-8.48l-.969.248.004.015.004.015.961-.278zm-1.12-2.2l.664-.747-.664.747zm-3.28 0l-.664-.747.664.747zm-1.16 2.2l-.962-.271-.003.008-.002.008.967.255zm0 8.48l-.969.248.003.012.004.012.962-.272zm2.8 9.4c-2.32 0-4.339-.534-6.087-1.579L6.727 29.78c2.093 1.247 4.473 1.86 7.113 1.86v-2zm-6.082-1.575c-1.715-1.04-3.086-2.556-4.104-4.592l-1.788.894c1.168 2.337 2.785 4.154 4.856 5.408l1.036-1.71zm-4.1-4.583C2.675 21.463 2.16 18.982 2.16 16h-2c0 3.205.552 6.003 1.701 8.358l1.798-.876zM2.16 16c0-2.981.514-5.463 1.499-7.482L1.86 7.642C.712 9.997.16 12.795.16 16h2zm1.494-7.473c1.018-2.036 2.389-3.553 4.104-4.592l-1.036-1.71c-2.071 1.254-3.688 3.07-4.856 5.408l1.788.894zM7.753 3.94C9.5 2.894 11.52 2.36 13.84 2.36v-2c-2.64 0-5.021.612-7.113 1.861L7.753 3.94zm6.087-1.58c2.32 0 4.323.534 6.042 1.575l1.036-1.71C18.85.972 16.48.36 13.84.36v2zm6.047 1.579c1.739 1.038 3.105 2.551 4.094 4.58l1.798-.877c-1.144-2.346-2.765-4.166-4.866-5.42l-1.026 1.717zm4.099 4.588c1.008 2.016 1.534 4.495 1.534 7.473h2c0-3.209-.567-6.01-1.746-8.367l-1.788.894zM25.52 16c0 2.978-.526 5.457-1.534 7.473l1.788.894c1.18-2.357 1.746-5.159 1.746-8.367h-2zm-1.539 7.482c-.99 2.028-2.355 3.541-4.094 4.58l1.026 1.716c2.101-1.255 3.722-3.074 4.866-5.42l-1.798-.876zm-4.099 4.583c-1.719 1.04-3.722 1.575-6.042 1.575v2c2.64 0 5.01-.612 7.078-1.865l-1.036-1.71zM13.84 24.08c.87 0 1.65-.312 2.304-.893l-1.328-1.494c-.307.272-.62.387-.976.387v2zm2.304-.893c.699-.62 1.138-1.582 1.425-2.699l-1.938-.496c-.247.963-.554 1.468-.815 1.7l1.328 1.495zm1.419-2.675c.329-1.168.477-2.685.477-4.512h-2c0 1.746-.145 3.055-.402 3.968l1.925.544zM18.04 16c0-1.85-.148-3.372-.48-4.518l-1.92.556c.254.881.4 2.186.4 3.962h2zm-.471-4.488c-.287-1.117-.726-2.078-1.425-2.7l-1.328 1.495c.261.233.568.738.815 1.701l1.938-.496zm-1.425-2.7c-.653-.58-1.433-.892-2.304-.892v2c.356 0 .67.115.976.387l1.328-1.494zM13.84 7.92c-.87 0-1.65.312-2.304.893l1.328 1.494c.307-.272.62-.387.976-.387v-2zm-2.304.893c-.69.613-1.145 1.563-1.458 2.675l1.925.543c.272-.968.591-1.484.861-1.724l-1.328-1.494zm-1.463 2.692C9.774 12.641 9.64 14.153 9.64 16h2c0-1.78.133-3.094.367-3.986l-1.934-.508zM9.64 16c0 1.823.135 3.331.431 4.488l1.938-.496c-.237-.923-.369-2.242-.369-3.992h-2zm.438 4.512c.313 1.111.768 2.062 1.458 2.675l1.328-1.494c-.27-.24-.589-.757-.862-1.725l-1.924.544zm1.458 2.675c.653.581 1.433.893 2.304.893v-2c-.356 0-.67-.115-.976-.387l-1.328 1.494zm16.36 4.933l-.91-.418-.387.843.812.45.484-.875zm3.2-6.96l.5-.866-.95-.549-.46.997.91.418zm3.76 1.56l-.257.967.01.002.008.002.238-.971zm6.36-.08l.473.88-.474-.88zm.68-2.68l-.8.6.012.017.013.016.774-.633zm-1.28-.72l-.264.965.01.003.253-.968zM29.895 19l-.997-.082-.09 1.082h1.086v-1zm1.4-17V1h-.922l-.075.918.996.082zm18.6 0h1V1h-1v1zm0 7.12v1h1v-1h-1zm-15.28 0l-.648-.762-2.076 1.762h2.723v-1zm4.76-4.04l.996.077.186-2.392-1.83 1.553.647.762zm-.84 10.84l-.648.762 1.493 1.267.151-1.952-.997-.077zm-4.76-4.04v-1h-2.724l2.076 1.762.647-.762zm13.16 1.2l-.436.9.005.003.43-.903zm3.64 3.24l-.877.481.005.01.006.01.865-.501zm-.2 9.24l-.86-.512-.002.004.861.508zm-4.16 3.68l.447.894.005-.002-.453-.892zm-7.28.4a26.58 26.58 0 01-5.63-.617l-.422 1.954c2.04.441 4.057.663 6.051.663v-2zm-5.63-.617c-1.894-.41-3.532-1.006-4.926-1.778l-.969 1.75c1.593.882 3.421 1.539 5.473 1.982l.423-1.954zm-4.502-.485l3.2-6.96-1.817-.836-3.2 6.96 1.817.836zm1.791-6.512c1.275.736 2.61 1.29 4.004 1.66l.513-1.933a14.363 14.363 0 01-3.516-1.459l-1.001 1.732zm4.022 1.665c1.374.337 2.694.509 3.958.509v-2c-1.082 0-2.242-.148-3.482-.451l-.476 1.942zm3.958.509c1.176 0 2.233-.205 3.114-.68l-.948-1.76c-.505.271-1.208.44-2.166.44v2zm3.114-.68c.466-.25.868-.588 1.15-1.035.287-.45.416-.957.416-1.485h-2a.741.741 0 01-.104.415c-.064.1-.182.222-.41.345l.948 1.76zM43.255 21a2.59 2.59 0 00-.586-1.673l-1.548 1.266a.595.595 0 01.134.407h2zm-.56-1.64c-.435-.58-1.115-.902-1.827-1.088l-.505 1.936c.514.134.687.292.732.352l1.6-1.2zm-1.817-1.085c-.717-.195-1.69-.275-2.863-.275v2c1.122 0 1.881.08 2.337.205l.526-1.93zM38.015 18h-8.12v2h8.12v-2zm-7.123 1.082l1.4-17-1.993-.164-1.4 17 1.993.164zM31.295 3h18.6V1h-18.6v2zm17.6-1v7.12h2V2h-2zm1 6.12h-15.28v2h15.28v-2zM35.262 9.882l4.76-4.04-1.294-1.524-4.76 4.04 1.294 1.524zm3.116-4.88l-.84 10.84 1.994.155.84-10.84-1.994-.154zm.804 10.156l-4.76-4.04-1.294 1.524 4.76 4.04 1.294-1.524zm-5.407-2.278h6.52v-2h-6.52v2zm6.52 0c2.693 0 4.739.39 6.205 1.1l.87-1.8c-1.84-.89-4.22-1.3-7.075-1.3v2zm6.21 1.103c1.53.728 2.567 1.676 3.194 2.818l1.753-.962c-.867-1.578-2.256-2.79-4.087-3.662l-.86 1.806zm3.205 2.839c.679 1.17 1.025 2.488 1.025 3.978h2c0-1.816-.426-3.485-1.295-4.982l-1.73 1.004zm1.025 3.978c0 1.46-.398 2.871-1.218 4.248l1.717 1.024c.992-1.663 1.501-3.425 1.501-5.272h-2zm-1.221 4.252c-.764 1.296-1.99 2.403-3.75 3.296l.903 1.784c2.026-1.027 3.573-2.373 4.57-4.064l-1.723-1.016zm-3.746 3.294c-1.681.84-3.939 1.294-6.833 1.294v2c3.08 0 5.675-.48 7.727-1.506l-.894-1.788zm9.013.614l-.698.716.01.01.688-.726zm0-7.48l-.678-.736.678.736zm7.52 0l.677-.736-.677.736zm0 7.48l.688.726.01-.01-.698-.716zm-3.76.44c-1.257 0-2.258-.395-3.072-1.166l-1.376 1.452c1.213 1.149 2.718 1.714 4.448 1.714v-2zm-3.062-1.156c-.805-.784-1.218-1.771-1.218-3.044h-2c0 1.768.6 3.287 1.822 4.477l1.396-1.433zM54.26 25.2c0-1.305.416-2.265 1.197-2.985l-1.355-1.47c-1.245 1.146-1.842 2.667-1.842 4.455h2zm1.197-2.985c.813-.748 1.818-1.135 3.083-1.135v-2c-1.721 0-3.223.546-4.438 1.665l1.355 1.47zm3.083-1.135c1.265 0 2.27.387 3.083 1.136l1.354-1.472c-1.214-1.118-2.716-1.664-4.437-1.664v2zm3.083 1.136c.78.72 1.197 1.679 1.197 2.984h2c0-1.788-.597-3.309-1.843-4.456l-1.355 1.471zM62.82 25.2c0 1.273-.413 2.26-1.218 3.044L63 29.677c1.222-1.19 1.822-2.71 1.822-4.477h-2zm-1.208 3.034c-.814.771-1.815 1.166-3.072 1.166v2c1.73 0 3.235-.565 4.448-1.714l-1.376-1.452z" fill="#78213A" mask="url(#path-1-outside-1_627_3935)"/></svg>