<svg width="68" height="32" viewBox="0 0 68 32" fill="none" xmlns="http://www.w3.org/2000/svg">
<mask id="path-1-outside-1_627_4299" maskUnits="userSpaceOnUse" x="0" y="0" width="68" height="32" fill="black">
<rect fill="white" width="68" height="32"/>
<path d="M13.84 30.64C11.36 30.64 9.16 30.0667 7.24 28.92C5.34667 27.7733 3.85333 26.1067 2.76 23.92C1.69333 21.7333 1.16 19.0933 1.16 16C1.16 12.9067 1.69333 10.2667 2.76 8.08C3.85333 5.89333 5.34667 4.22666 7.24 3.08C9.16 1.93333 11.36 1.36 13.84 1.36C16.32 1.36 18.5067 1.93333 20.4 3.08C22.32 4.22666 23.8133 5.89333 24.88 8.08C25.9733 10.2667 26.52 12.9067 26.52 16C26.52 19.0933 25.9733 21.7333 24.88 23.92C23.8133 26.1067 22.32 27.7733 20.4 28.92C18.5067 30.0667 16.32 30.64 13.84 30.64ZM13.84 23.08C14.4533 23.08 15 22.8667 15.48 22.44C15.96 22.0133 16.3333 21.28 16.6 20.24C16.8933 19.2 17.04 17.7867 17.04 16C17.04 14.1867 16.8933 12.7733 16.6 11.76C16.3333 10.72 15.96 9.98667 15.48 9.56C15 9.13333 14.4533 8.92 13.84 8.92C13.2267 8.92 12.68 9.13333 12.2 9.56C11.72 9.98667 11.3333 10.72 11.04 11.76C10.7733 12.7733 10.64 14.1867 10.64 16C10.64 17.7867 10.7733 19.2 11.04 20.24C11.3333 21.28 11.72 22.0133 12.2 22.44C12.68 22.8667 13.2267 23.08 13.84 23.08ZM41.2553 30.64C38.7753 30.64 36.5886 30.28 34.6953 29.56C32.8286 28.8133 31.362 27.7733 30.2953 26.44C29.2286 25.08 28.6953 23.4933 28.6953 21.68C28.6953 19.8667 29.242 18.32 30.3353 17.04C31.4286 15.76 32.922 14.7867 34.8153 14.12C36.7086 13.4533 38.8553 13.12 41.2553 13.12C43.6553 13.12 45.802 13.4533 47.6953 14.12C49.5886 14.7867 51.082 15.76 52.1753 17.04C53.2686 18.32 53.8153 19.8667 53.8153 21.68C53.8153 23.4933 53.282 25.08 52.2153 26.44C51.1486 27.7733 49.6686 28.8133 47.7753 29.56C45.9086 30.28 43.7353 30.64 41.2553 30.64ZM41.2553 24.28C42.162 24.28 42.8953 24.0267 43.4553 23.52C44.042 22.9867 44.3353 22.2667 44.3353 21.36C44.3353 20.4533 44.042 19.7467 43.4553 19.24C42.8953 18.7067 42.162 18.44 41.2553 18.44C40.3486 18.44 39.602 18.7067 39.0153 19.24C38.4553 19.7467 38.1753 20.4533 38.1753 21.36C38.1753 22.2667 38.4553 22.9867 39.0153 23.52C39.602 24.0267 40.3486 24.28 41.2553 24.28ZM41.2553 17.68C39.0686 17.68 37.0953 17.3733 35.3353 16.76C33.602 16.12 32.2286 15.2133 31.2153 14.04C30.202 12.84 29.6953 11.4 29.6953 9.72C29.6953 8.01333 30.1886 6.54667 31.1753 5.32C32.162 4.06667 33.522 3.09333 35.2553 2.4C36.9886 1.70667 38.9886 1.36 41.2553 1.36C43.522 1.36 45.522 1.70667 47.2553 2.4C48.9886 3.09333 50.3486 4.06667 51.3353 5.32C52.322 6.54667 52.8153 8.01333 52.8153 9.72C52.8153 11.4 52.3086 12.84 51.2953 14.04C50.282 15.2133 48.9086 16.12 47.1753 16.76C45.442 17.3733 43.4686 17.68 41.2553 17.68ZM41.2553 12.52C41.8953 12.52 42.4286 12.3067 42.8553 11.88C43.282 11.4533 43.4953 10.8667 43.4953 10.12C43.4953 9.34667 43.282 8.76 42.8553 8.36C42.4286 7.93333 41.8953 7.72 41.2553 7.72C40.6153 7.72 40.082 7.93333 39.6553 8.36C39.2286 8.76 39.0153 9.34667 39.0153 10.12C39.0153 10.8667 39.2286 11.4533 39.6553 11.88C40.082 12.3067 40.6153 12.52 41.2553 12.52ZM61.2753 30.4C59.782 30.4 58.5286 29.92 57.5153 28.96C56.502 27.9733 55.9953 26.72 55.9953 25.2C55.9953 23.6533 56.502 22.4133 57.5153 21.48C58.5286 20.5467 59.782 20.08 61.2753 20.08C62.7686 20.08 64.022 20.5467 65.0353 21.48C66.0486 22.4133 66.5553 23.6533 66.5553 25.2C66.5553 26.72 66.0486 27.9733 65.0353 28.96C64.022 29.92 62.7686 30.4 61.2753 30.4Z"/>
</mask>
<path d="M7.24 28.92L6.72196 29.7754L6.72726 29.7785L7.24 28.92ZM2.76 23.92L1.86119 24.3584L1.86557 24.3672L2.76 23.92ZM2.76 8.08L1.86553 7.63276L1.86123 7.64157L2.76 8.08ZM7.24 3.08L6.72725 2.22144L6.72197 2.22464L7.24 3.08ZM20.4 3.08L19.882 3.93537L19.8873 3.93854L20.4 3.08ZM24.88 8.08L23.9812 8.51844L23.9856 8.52721L24.88 8.08ZM24.88 23.92L23.9855 23.4728L23.9812 23.4816L24.88 23.92ZM20.4 28.92L19.8873 28.0614L19.882 28.0646L20.4 28.92ZM16.6 20.24L15.6376 19.9685L15.6343 19.98L15.6313 19.9916L16.6 20.24ZM16.6 11.76L15.6313 12.0084L15.6352 12.0233L15.6394 12.0381L16.6 11.76ZM15.48 9.56L16.1444 8.81259L16.1444 8.81259L15.48 9.56ZM12.2 9.56L11.5356 8.81259V8.81259L12.2 9.56ZM11.04 11.76L10.0776 11.4885L10.0752 11.497L10.0729 11.5055L11.04 11.76ZM11.04 20.24L10.0713 20.4884L10.0743 20.5L10.0776 20.5115L11.04 20.24ZM13.84 29.64C11.5203 29.64 9.50125 29.1057 7.75274 28.0615L6.72726 29.7785C8.81876 31.0276 11.1997 31.64 13.84 31.64V29.64ZM7.75804 28.0646C6.04278 27.0258 4.67246 25.5089 3.65443 23.4728L1.86557 24.3672C3.03421 26.7045 4.65055 28.5208 6.72197 29.7754L7.75804 28.0646ZM3.65877 23.4816C2.67427 21.4634 2.16 18.9814 2.16 16H0.16C0.16 19.2053 0.712395 22.0033 1.86123 24.3584L3.65877 23.4816ZM2.16 16C2.16 13.0186 2.67427 10.5366 3.65877 8.51842L1.86123 7.64157C0.712395 9.99669 0.16 12.7947 0.16 16H2.16ZM3.65443 8.52721C4.67246 6.49114 6.04278 4.97417 7.75803 3.93536L6.72197 2.22464C4.65055 3.47916 3.03421 5.29552 1.86557 7.63278L3.65443 8.52721ZM7.75274 3.93854C9.50125 2.8943 11.5203 2.36 13.84 2.36V0.359999C11.1997 0.359999 8.81876 0.972368 6.72726 2.22145L7.75274 3.93854ZM13.84 2.36C16.1599 2.36 18.1631 2.89435 19.882 3.93536L20.918 2.22464C18.8502 0.97231 16.4801 0.359999 13.84 0.359999V2.36ZM19.8873 3.93854C21.6259 4.97688 22.9919 6.49031 23.9812 8.51842L25.7788 7.64157C24.6348 5.29635 23.0141 3.47645 20.9127 2.22146L19.8873 3.93854ZM23.9856 8.52721C24.9935 10.5431 25.52 13.0218 25.52 16H27.52C27.52 12.7915 26.9531 9.99019 25.7744 7.63278L23.9856 8.52721ZM25.52 16C25.52 18.9782 24.9935 21.4569 23.9856 23.4728L25.7744 24.3672C26.9531 22.0098 27.52 19.2085 27.52 16H25.52ZM23.9812 23.4816C22.9919 25.5097 21.6259 27.0231 19.8873 28.0615L20.9127 29.7785C23.0141 28.5235 24.6348 26.7036 25.7788 24.3584L23.9812 23.4816ZM19.882 28.0646C18.1631 29.1056 16.1599 29.64 13.84 29.64V31.64C16.4801 31.64 18.8502 31.0277 20.918 29.7754L19.882 28.0646ZM13.84 24.08C14.7106 24.08 15.4907 23.7684 16.1444 23.1874L14.8156 21.6926C14.5093 21.9649 14.1961 22.08 13.84 22.08V24.08ZM16.1444 23.1874C16.843 22.5664 17.2824 21.6049 17.5687 20.4884L15.6313 19.9916C15.3843 20.9551 15.077 21.4603 14.8156 21.6926L16.1444 23.1874ZM17.5625 20.5115C17.8916 19.3444 18.04 17.827 18.04 16H16.04C16.04 17.7464 15.8951 19.0555 15.6376 19.9685L17.5625 20.5115ZM18.04 16C18.04 14.1497 17.8922 12.6277 17.5606 11.4819L15.6394 12.0381C15.8944 12.919 16.04 14.2236 16.04 16H18.04ZM17.5687 11.5116C17.2824 10.3951 16.843 9.43364 16.1444 8.81259L14.8156 10.3074C15.077 10.5397 15.3843 11.0449 15.6313 12.0084L17.5687 11.5116ZM16.1444 8.81259C15.4907 8.23159 14.7106 7.92 13.84 7.92V9.92C14.1961 9.92 14.5093 10.0351 14.8156 10.3074L16.1444 8.81259ZM13.84 7.92C12.9694 7.92 12.1893 8.23159 11.5356 8.81259L12.8644 10.3074C13.1707 10.0351 13.4839 9.92 13.84 9.92V7.92ZM11.5356 8.81259C10.8456 9.42599 10.3912 10.3765 10.0776 11.4885L12.0025 12.0315C12.2755 11.0635 12.5944 10.5473 12.8644 10.3074L11.5356 8.81259ZM10.0729 11.5055C9.77415 12.6409 9.64 14.1535 9.64 16H11.64C11.64 14.2198 11.7725 12.9058 12.0071 12.0145L10.0729 11.5055ZM9.64 16C9.64 17.8229 9.77468 19.3314 10.0713 20.4884L12.0087 19.9916C11.772 19.0686 11.64 17.7504 11.64 16H9.64ZM10.0776 20.5115C10.3912 21.6235 10.8456 22.574 11.5356 23.1874L12.8644 21.6926C12.5944 21.4527 12.2755 20.9365 12.0025 19.9685L10.0776 20.5115ZM11.5356 23.1874C12.1893 23.7684 12.9694 24.08 13.84 24.08V22.08C13.4839 22.08 13.1707 21.9649 12.8644 21.6926L11.5356 23.1874ZM34.6953 29.56L34.3239 30.4885L34.3319 30.4917L34.3399 30.4947L34.6953 29.56ZM30.2953 26.44L29.5084 27.0572L29.5144 27.0647L30.2953 26.44ZM30.3353 17.04L31.0957 17.6895L30.3353 17.04ZM34.8153 14.12L34.4832 13.1768L34.8153 14.12ZM47.6953 14.12L47.3632 15.0632L47.6953 14.12ZM52.1753 17.04L51.4149 17.6895L52.1753 17.04ZM52.2153 26.44L52.9962 27.0647L53.0022 27.0571L52.2153 26.44ZM47.7753 29.56L48.1352 30.493L48.1422 30.4903L47.7753 29.56ZM43.4553 23.52L44.1262 24.2615L44.128 24.2599L43.4553 23.52ZM43.4553 19.24L42.7657 19.9641L42.7833 19.9809L42.8017 19.9968L43.4553 19.24ZM39.0153 19.24L39.6862 19.9815L39.688 19.9799L39.0153 19.24ZM39.0153 23.52L38.3257 24.2441L38.3433 24.2609L38.3617 24.2768L39.0153 23.52ZM35.3353 16.76L34.9889 17.6981L34.9976 17.7013L35.0062 17.7043L35.3353 16.76ZM31.2153 14.04L30.4512 14.6852L30.4585 14.6936L31.2153 14.04ZM31.1753 5.32L31.9546 5.94679L31.9611 5.93856L31.1753 5.32ZM35.2553 2.4L34.8839 1.47152V1.47152L35.2553 2.4ZM47.2553 2.4L47.6267 1.47152V1.47152L47.2553 2.4ZM51.3353 5.32L50.5495 5.93859L50.5561 5.94676L51.3353 5.32ZM51.2953 14.04L52.0522 14.6937L52.0593 14.6852L51.2953 14.04ZM47.1753 16.76L47.5089 17.7028L47.5217 17.6981L47.1753 16.76ZM42.8553 8.36L42.1482 9.06711L42.1596 9.07851L42.1714 9.08954L42.8553 8.36ZM39.6553 8.36L40.3393 9.08954L40.351 9.07851L40.3624 9.06711L39.6553 8.36ZM41.2553 29.64C38.8704 29.64 36.8083 29.2937 35.0508 28.6253L34.3399 30.4947C36.369 31.2663 38.6802 31.64 41.2553 31.64V29.64ZM35.0667 28.6315C33.3319 27.9376 32.0171 26.9915 31.0762 25.8153L29.5144 27.0647C30.7068 28.5552 32.3254 29.6891 34.3239 30.4885L35.0667 28.6315ZM31.0822 25.8229C30.1607 24.648 29.6953 23.2814 29.6953 21.68H27.6953C27.6953 23.7053 28.2966 25.512 29.5085 27.0571L31.0822 25.8229ZM29.6953 21.68C29.6953 20.0849 30.1694 18.7739 31.0957 17.6895L29.5749 16.3905C28.3145 17.8661 27.6953 19.6484 27.6953 21.68H29.6953ZM31.0957 17.6895C32.0544 16.5671 33.3882 15.6827 35.1474 15.0632L34.4832 13.1768C32.4558 13.8906 30.8029 14.9529 29.5749 16.3905L31.0957 17.6895ZM35.1474 15.0632C36.9155 14.4407 38.9469 14.12 41.2553 14.12V12.12C38.7637 12.12 36.5018 12.466 34.4832 13.1768L35.1474 15.0632ZM41.2553 14.12C43.5637 14.12 45.5951 14.4407 47.3632 15.0632L48.0274 13.1768C46.0088 12.466 43.7469 12.12 41.2553 12.12V14.12ZM47.3632 15.0632C49.1225 15.6827 50.4562 16.5671 51.4149 17.6895L52.9357 16.3905C51.7077 14.9529 50.0548 13.8906 48.0274 13.1768L47.3632 15.0632ZM51.4149 17.6895C52.3412 18.7739 52.8153 20.0849 52.8153 21.68H54.8153C54.8153 19.6484 54.1961 17.8661 52.9357 16.3905L51.4149 17.6895ZM52.8153 21.68C52.8153 23.2814 52.3499 24.648 51.4285 25.8229L53.0022 27.0571C54.2141 25.512 54.8153 23.7053 54.8153 21.68H52.8153ZM51.4344 25.8153C50.496 26.9884 49.1707 27.9347 47.4084 28.6297L48.1422 30.4903C50.1666 29.6919 51.8013 28.5583 52.9962 27.0647L51.4344 25.8153ZM47.4154 28.627C45.6874 29.2935 43.6407 29.64 41.2553 29.64V31.64C43.8299 31.64 46.1299 31.2665 48.1352 30.493L47.4154 28.627ZM41.2553 25.28C42.3575 25.28 43.3469 24.9667 44.1262 24.2615L42.7844 22.7785C42.4437 23.0867 41.9665 23.28 41.2553 23.28V25.28ZM44.128 24.2599C44.954 23.509 45.3353 22.5038 45.3353 21.36H43.3353C43.3353 22.0295 43.13 22.4643 42.7826 22.7801L44.128 24.2599ZM45.3353 21.36C45.3353 20.2172 44.9537 19.2127 44.1089 18.4832L42.8017 19.9968C43.1303 20.2806 43.3353 20.6895 43.3353 21.36H45.3353ZM44.145 18.5159C43.3673 17.7753 42.3714 17.44 41.2553 17.44V19.44C41.9526 19.44 42.4233 19.6381 42.7657 19.9641L44.145 18.5159ZM41.2553 17.44C40.1381 17.44 39.1398 17.7753 38.3426 18.5001L39.688 19.9799C40.0641 19.638 40.5592 19.44 41.2553 19.44V17.44ZM38.3444 18.4985C37.5331 19.2325 37.1753 20.2324 37.1753 21.36H39.1753C39.1753 20.6743 39.3775 20.2609 39.6862 19.9815L38.3444 18.4985ZM37.1753 21.36C37.1753 22.4891 37.5332 23.4894 38.3257 24.2441L39.705 22.7959C39.3774 22.4839 39.1753 22.0443 39.1753 21.36H37.1753ZM38.3617 24.2768C39.1601 24.9663 40.1516 25.28 41.2553 25.28V23.28C40.5457 23.28 40.0439 23.087 39.6689 22.7632L38.3617 24.2768ZM41.2553 16.68C39.1617 16.68 37.3021 16.3864 35.6644 15.8157L35.0062 17.7043C36.8886 18.3603 38.9756 18.68 41.2553 18.68V16.68ZM35.6817 15.8219C34.0766 15.2293 32.8555 14.4092 31.9721 13.3864L30.4585 14.6936C31.6018 16.0174 33.1273 17.0107 34.9889 17.6981L35.6817 15.8219ZM31.9793 13.3948C31.1295 12.3884 30.6953 11.1816 30.6953 9.72H28.6953C28.6953 11.6184 29.2745 13.2916 30.4513 14.6852L31.9793 13.3948ZM30.6953 9.72C30.6953 8.22081 31.1231 6.98043 31.9545 5.94676L30.3961 4.69324C29.2542 6.1129 28.6953 7.80586 28.6953 9.72H30.6953ZM31.9611 5.93856C32.8219 4.845 34.0283 3.96784 35.6267 3.32847L34.8839 1.47152C33.0157 2.21882 31.502 3.28833 30.3896 4.70144L31.9611 5.93856ZM35.6267 3.32847C37.2196 2.69133 39.0894 2.36 41.2553 2.36V0.359999C38.8879 0.359999 36.7577 0.722003 34.8839 1.47152L35.6267 3.32847ZM41.2553 2.36C43.4213 2.36 45.2911 2.69133 46.8839 3.32847L47.6267 1.47152C45.7529 0.722003 43.6227 0.359999 41.2553 0.359999V2.36ZM46.8839 3.32847C48.4823 3.96784 49.6887 4.845 50.5496 5.93856L52.1211 4.70144C51.0086 3.28833 49.495 2.21882 47.6267 1.47152L46.8839 3.32847ZM50.5561 5.94676C51.3875 6.98043 51.8153 8.22081 51.8153 9.72H53.8153C53.8153 7.80586 53.2564 6.1129 52.1145 4.69324L50.5561 5.94676ZM51.8153 9.72C51.8153 11.1816 51.3812 12.3884 50.5313 13.3948L52.0593 14.6852C53.2361 13.2916 53.8153 11.6184 53.8153 9.72H51.8153ZM50.5385 13.3864C49.6551 14.4092 48.434 15.2293 46.8289 15.8219L47.5217 17.6981C49.3833 17.0107 50.9088 16.0174 52.0521 14.6936L50.5385 13.3864ZM46.8417 15.8173C45.2348 16.3859 43.3775 16.68 41.2553 16.68V18.68C43.5598 18.68 45.6491 18.3608 47.5089 17.7027L46.8417 15.8173ZM41.2553 13.52C42.1427 13.52 42.936 13.2136 43.5624 12.5871L42.1482 11.1729C41.9213 11.3998 41.6479 11.52 41.2553 11.52V13.52ZM43.5624 12.5871C44.2191 11.9305 44.4953 11.0651 44.4953 10.12H42.4953C42.4953 10.6682 42.3449 10.9762 42.1482 11.1729L43.5624 12.5871ZM44.4953 10.12C44.4953 9.16351 44.2268 8.27502 43.5393 7.63046L42.1714 9.08954C42.3372 9.24498 42.4953 9.52982 42.4953 10.12H44.4953ZM43.5624 7.65289C42.936 7.02643 42.1427 6.72 41.2553 6.72V8.72C41.6479 8.72 41.9213 8.84023 42.1482 9.06711L43.5624 7.65289ZM41.2553 6.72C40.368 6.72 39.5747 7.02643 38.9482 7.65289L40.3624 9.06711C40.5893 8.84023 40.8627 8.72 41.2553 8.72V6.72ZM38.9714 7.63046C38.2838 8.27502 38.0153 9.16351 38.0153 10.12H40.0153C40.0153 9.52982 40.1735 9.24498 40.3393 9.08954L38.9714 7.63046ZM38.0153 10.12C38.0153 11.0651 38.2916 11.9305 38.9482 12.5871L40.3624 11.1729C40.1657 10.9762 40.0153 10.6682 40.0153 10.12H38.0153ZM38.9482 12.5871C39.5747 13.2136 40.368 13.52 41.2553 13.52V11.52C40.8627 11.52 40.5893 11.3998 40.3624 11.1729L38.9482 12.5871ZM57.5153 28.96L56.8176 29.6765L56.8276 29.686L57.5153 28.96ZM57.5153 21.48L56.8378 20.7445V20.7445L57.5153 21.48ZM65.0353 21.48L65.7128 20.7445V20.7445L65.0353 21.48ZM65.0353 28.96L65.7231 29.686L65.7329 29.6765L65.0353 28.96ZM61.2753 29.4C60.0182 29.4 59.0169 29.005 58.2031 28.234L56.8276 29.686C58.0404 30.835 59.5457 31.4 61.2753 31.4V29.4ZM58.2129 28.2435C57.4084 27.4602 56.9953 26.4725 56.9953 25.2H54.9953C54.9953 26.9675 55.5956 28.4865 56.8177 29.6765L58.2129 28.2435ZM56.9953 25.2C56.9953 23.8949 57.4114 22.9353 58.1928 22.2155L56.8378 20.7445C55.5926 21.8914 54.9953 23.4118 54.9953 25.2H56.9953ZM58.1928 22.2155C59.0053 21.4672 60.01 21.08 61.2753 21.08V19.08C59.5539 19.08 58.052 19.6261 56.8378 20.7445L58.1928 22.2155ZM61.2753 21.08C62.5406 21.08 63.5454 21.4672 64.3578 22.2155L65.7128 20.7445C64.4986 19.6261 62.9967 19.08 61.2753 19.08V21.08ZM64.3578 22.2155C65.1393 22.9353 65.5553 23.8949 65.5553 25.2H67.5553C67.5553 23.4118 66.958 21.8914 65.7128 20.7445L64.3578 22.2155ZM65.5553 25.2C65.5553 26.4725 65.1422 27.4602 64.3377 28.2435L65.7329 29.6765C66.9551 28.4865 67.5553 26.9675 67.5553 25.2H65.5553ZM64.3476 28.234C63.5337 29.005 62.5324 29.4 61.2753 29.4V31.4C63.0049 31.4 64.5102 30.835 65.7231 29.686L64.3476 28.234Z" fill="white" mask="url(#path-1-outside-1_627_4299)"/>
</svg>
