<svg width="170" height="62" viewBox="0 0 170 62" fill="none" xmlns="http://www.w3.org/2000/svg"><mask id="path-1-outside-1_516_5470" maskUnits="userSpaceOnUse" x=".28" y=".88" width="170" height="61" fill="#000"><path fill="#fff" d="M.28.88h170v61H.28z"/><path d="M23.2 1.88c5.28 0 9.84 1.04 13.68 3.12 3.894 2.08 6.907 5.173 9.04 9.28 2.187 4.053 3.28 9.12 3.28 15.2 0 6.507-1.28 12.053-3.84 16.64-2.506 4.533-6 8-10.48 10.4-4.426 2.4-9.6 3.6-15.52 3.6-3.093 0-6.08-.373-8.96-1.12-2.88-.693-5.36-1.68-7.44-2.96l5.76-11.36c1.6 1.12 3.254 1.893 4.96 2.32 1.76.373 3.547.56 5.36.56 4.32 0 7.76-1.307 10.32-3.92 2.56-2.613 3.84-6.427 3.84-11.44v-2.8c0-1.013-.08-2.027-.24-3.04l3.92 3.28c-.96 1.973-2.213 3.627-3.76 4.96-1.546 1.333-3.36 2.347-5.44 3.04-2.08.693-4.453 1.04-7.12 1.04-3.52 0-6.746-.72-9.68-2.16-2.88-1.493-5.2-3.547-6.96-6.16-1.76-2.667-2.64-5.787-2.64-9.36 0-3.893.987-7.253 2.96-10.08 1.974-2.88 4.614-5.093 7.92-6.64 3.307-1.6 6.987-2.4 11.04-2.4zm1.04 11.28c-1.493 0-2.8.293-3.92.88a7.153 7.153 0 00-2.72 2.48c-.64 1.013-.96 2.267-.96 3.76 0 2.133.694 3.84 2.08 5.12 1.44 1.28 3.307 1.92 5.6 1.92 1.547 0 2.907-.293 4.08-.88 1.174-.587 2.08-1.413 2.72-2.48.64-1.067.96-2.32.96-3.76 0-1.387-.32-2.587-.96-3.6-.64-1.067-1.546-1.893-2.72-2.48-1.173-.64-2.56-.96-4.16-.96zm48.372 46.96a48.63 48.63 0 01-11.68-1.44c-3.84-.96-7.2-2.32-10.08-4.08l5.76-11.92c2.24 1.493 4.72 2.64 7.44 3.44 2.773.8 5.467 1.2 8.08 1.2 2.72 0 4.88-.507 6.48-1.52 1.6-1.013 2.4-2.453 2.4-4.32 0-1.653-.666-2.96-2-3.92-1.333-1.013-3.52-1.52-6.56-1.52h-6.64v-10L80.852 9.8l1.52 5.44h-28.64V3h40.48v9.92l-15.04 16.24-7.76-4.4h4.32c6.987 0 12.267 1.573 15.84 4.72 3.627 3.093 5.44 7.093 5.44 12 0 3.2-.88 6.213-2.64 9.04-1.707 2.827-4.347 5.147-7.92 6.96-3.573 1.76-8.186 2.64-13.84 2.64zM109.554 59l38.24-56h11.52l-38.24 56h-11.52zm5.12-25.68c-2.72 0-5.173-.613-7.36-1.84-2.187-1.227-3.893-2.987-5.12-5.28-1.227-2.347-1.84-5.147-1.84-8.4s.613-6.027 1.84-8.32 2.933-4.053 5.12-5.28c2.187-1.28 4.64-1.92 7.36-1.92 2.773 0 5.227.64 7.36 1.92 2.187 1.227 3.893 2.987 5.12 5.28 1.28 2.293 1.92 5.067 1.92 8.32 0 3.2-.64 5.973-1.92 8.32-1.227 2.347-2.933 4.133-5.12 5.36-2.133 1.227-4.587 1.84-7.36 1.84zm.08-7.6c1.333 0 2.427-.613 3.28-1.84.907-1.227 1.36-3.253 1.36-6.08s-.453-4.853-1.36-6.08c-.853-1.227-1.947-1.84-3.28-1.84-1.333 0-2.48.613-3.44 1.84-.907 1.227-1.36 3.253-1.36 6.08s.453 4.853 1.36 6.08c.96 1.227 2.107 1.84 3.44 1.84zm39.44 34c-2.773 0-5.253-.613-7.44-1.84-2.133-1.227-3.813-2.987-5.04-5.28-1.227-2.347-1.84-5.147-1.84-8.4s.613-6.027 1.84-8.32 2.907-4.053 5.04-5.28c2.187-1.28 4.667-1.92 7.44-1.92 2.773 0 5.227.64 7.36 1.92 2.187 1.227 3.893 2.987 5.12 5.28 1.28 2.293 1.92 5.067 1.92 8.32s-.64 6.053-1.92 8.4c-1.227 2.293-2.933 4.053-5.12 5.28-2.133 1.227-4.587 1.84-7.36 1.84zm0-7.6c1.333 0 2.453-.613 3.36-1.84s1.36-3.253 1.36-6.08-.453-4.853-1.36-6.08c-.907-1.227-2.027-1.84-3.36-1.84-1.28 0-2.4.613-3.36 1.84-.907 1.227-1.36 3.253-1.36 6.08s.453 4.853 1.36 6.08c.96 1.227 2.08 1.84 3.36 1.84z"/></mask><path d="M23.2 1.88c5.28 0 9.84 1.04 13.68 3.12 3.894 2.08 6.907 5.173 9.04 9.28 2.187 4.053 3.28 9.12 3.28 15.2 0 6.507-1.28 12.053-3.84 16.64-2.506 4.533-6 8-10.48 10.4-4.426 2.4-9.6 3.6-15.52 3.6-3.093 0-6.08-.373-8.96-1.12-2.88-.693-5.36-1.68-7.44-2.96l5.76-11.36c1.6 1.12 3.254 1.893 4.96 2.32 1.76.373 3.547.56 5.36.56 4.32 0 7.76-1.307 10.32-3.92 2.56-2.613 3.84-6.427 3.84-11.44v-2.8c0-1.013-.08-2.027-.24-3.04l3.92 3.28c-.96 1.973-2.213 3.627-3.76 4.96-1.546 1.333-3.36 2.347-5.44 3.04-2.08.693-4.453 1.04-7.12 1.04-3.52 0-6.746-.72-9.68-2.16-2.88-1.493-5.2-3.547-6.96-6.16-1.76-2.667-2.64-5.787-2.64-9.36 0-3.893.987-7.253 2.96-10.08 1.974-2.88 4.614-5.093 7.92-6.64 3.307-1.6 6.987-2.4 11.04-2.4zm1.04 11.28c-1.493 0-2.8.293-3.92.88a7.153 7.153 0 00-2.72 2.48c-.64 1.013-.96 2.267-.96 3.76 0 2.133.694 3.84 2.08 5.12 1.44 1.28 3.307 1.92 5.6 1.92 1.547 0 2.907-.293 4.08-.88 1.174-.587 2.08-1.413 2.72-2.48.64-1.067.96-2.32.96-3.76 0-1.387-.32-2.587-.96-3.6-.64-1.067-1.546-1.893-2.72-2.48-1.173-.64-2.56-.96-4.16-.96zm48.372 46.96a48.63 48.63 0 01-11.68-1.44c-3.84-.96-7.2-2.32-10.08-4.08l5.76-11.92c2.24 1.493 4.72 2.64 7.44 3.44 2.773.8 5.467 1.2 8.08 1.2 2.72 0 4.88-.507 6.48-1.52 1.6-1.013 2.4-2.453 2.4-4.32 0-1.653-.666-2.96-2-3.92-1.333-1.013-3.52-1.52-6.56-1.52h-6.64v-10L80.852 9.8l1.52 5.44h-28.64V3h40.48v9.92l-15.04 16.24-7.76-4.4h4.32c6.987 0 12.267 1.573 15.84 4.72 3.627 3.093 5.44 7.093 5.44 12 0 3.2-.88 6.213-2.64 9.04-1.707 2.827-4.347 5.147-7.92 6.96-3.573 1.76-8.186 2.64-13.84 2.64zM109.554 59l38.24-56h11.52l-38.24 56h-11.52zm5.12-25.68c-2.72 0-5.173-.613-7.36-1.84-2.187-1.227-3.893-2.987-5.12-5.28-1.227-2.347-1.84-5.147-1.84-8.4s.613-6.027 1.84-8.32 2.933-4.053 5.12-5.28c2.187-1.28 4.64-1.92 7.36-1.92 2.773 0 5.227.64 7.36 1.92 2.187 1.227 3.893 2.987 5.12 5.28 1.28 2.293 1.92 5.067 1.92 8.32 0 3.2-.64 5.973-1.92 8.32-1.227 2.347-2.933 4.133-5.12 5.36-2.133 1.227-4.587 1.84-7.36 1.84zm.08-7.6c1.333 0 2.427-.613 3.28-1.84.907-1.227 1.36-3.253 1.36-6.08s-.453-4.853-1.36-6.08c-.853-1.227-1.947-1.84-3.28-1.84-1.333 0-2.48.613-3.44 1.84-.907 1.227-1.36 3.253-1.36 6.08s.453 4.853 1.36 6.08c.96 1.227 2.107 1.84 3.44 1.84zm39.44 34c-2.773 0-5.253-.613-7.44-1.84-2.133-1.227-3.813-2.987-5.04-5.28-1.227-2.347-1.84-5.147-1.84-8.4s.613-6.027 1.84-8.32 2.907-4.053 5.04-5.28c2.187-1.28 4.667-1.92 7.44-1.92 2.773 0 5.227.64 7.36 1.92 2.187 1.227 3.893 2.987 5.12 5.28 1.28 2.293 1.92 5.067 1.92 8.32s-.64 6.053-1.92 8.4c-1.227 2.293-2.933 4.053-5.12 5.28-2.133 1.227-4.587 1.84-7.36 1.84zm0-7.6c1.333 0 2.453-.613 3.36-1.84s1.36-3.253 1.36-6.08-.453-4.853-1.36-6.08c-.907-1.227-2.027-1.84-3.36-1.84-1.28 0-2.4.613-3.36 1.84-.907 1.227-1.36 3.253-1.36 6.08s.453 4.853 1.36 6.08c.96 1.227 2.08 1.84 3.36 1.84z" stroke="#78213A" stroke-width="2" mask="url(#path-1-outside-1_516_5470)"/></svg>