<svg width="54" height="54" viewBox="0 0 54 54" fill="none" xmlns="http://www.w3.org/2000/svg"><path d="M48.938 10.125H33.75A8.438 8.438 0 0027 13.5a8.437 8.437 0 00-6.75-3.375H5.062a1.687 1.687 0 00-1.687 1.688v30.374a1.687 1.687 0 001.688 1.688H20.25a5.062 5.062 0 015.063 5.063 1.687 1.687 0 103.375 0 5.062 5.062 0 015.062-5.063h15.188a1.687 1.687 0 001.687-1.688V11.814a1.687 1.687 0 00-1.688-1.688zM20.25 40.5H6.75v-27h13.5a5.062 5.062 0 015.063 5.063v23.625A8.397 8.397 0 0020.25 40.5zm27 0h-13.5a8.397 8.397 0 00-5.063 1.688V18.561A5.062 5.062 0 0133.75 13.5h13.5v27zm-13.5-21.938h8.438a1.687 1.687 0 110 3.375H33.75a1.687 1.687 0 110-3.375zM43.875 27a1.687 1.687 0 01-1.688 1.688H33.75a1.687 1.687 0 110-3.375h8.438A1.687 1.687 0 0143.874 27zm0 6.75a1.687 1.687 0 01-1.688 1.688H33.75a1.687 1.687 0 110-3.376h8.438a1.687 1.687 0 011.687 1.688z" fill="#78213A"/></svg>