<svg width="34" height="34" viewBox="0 0 34 34" fill="none" xmlns="http://www.w3.org/2000/svg"><path d="M27.625 4.25h-3.188V3.187a1.062 1.062 0 10-2.125 0V4.25H11.688V3.187a1.062 1.062 0 10-2.124 0V4.25h-3.19A2.125 2.125 0 004.25 6.375v21.25a2.125 2.125 0 002.125 2.125h21.25a2.125 2.125 0 002.125-2.125V6.375a2.125 2.125 0 00-2.125-2.125zM9.562 6.375v1.063a1.062 1.062 0 002.126 0V6.375h10.624v1.063a1.062 1.062 0 102.125 0V6.375h3.188v4.25H6.375v-4.25h3.188zm18.063 21.25H6.375V12.75h21.25v14.875zm-12.75-11.688v8.5a1.062 1.062 0 11-2.125 0v-6.78l-.587.294a1.063 1.063 0 11-.951-1.902l2.125-1.062a1.063 1.063 0 011.538.95zm7.857 4.045l-2.544 3.393h2.125a1.062 1.062 0 110 2.125h-4.25a1.062 1.062 0 01-.85-1.7l3.822-5.096a1.061 1.061 0 00-1.09-1.673 1.062 1.062 0 00-.678.5 1.064 1.064 0 11-1.84-1.062 3.188 3.188 0 115.305 3.513z" fill="#78213A"/></svg>