<svg width="54" height="54" viewBox="0 0 54 54" fill="none" xmlns="http://www.w3.org/2000/svg">
<path d="M48.9375 43.875C48.9375 44.3226 48.7597 44.7518 48.4432 45.0682C48.1268 45.3847 47.6976 45.5625 47.25 45.5625H6.75C6.30245 45.5625 5.87322 45.3847 5.55676 45.0682C5.24029 44.7518 5.0625 44.3226 5.0625 43.875V10.125C5.0625 9.67745 5.24029 9.24823 5.55676 8.93176C5.87322 8.61529 6.30245 8.4375 6.75 8.4375C7.19755 8.4375 7.62677 8.61529 7.94324 8.93176C8.25971 9.24823 8.4375 9.67745 8.4375 10.125V33.0518L19.0561 22.4311C19.2128 22.2742 19.3989 22.1497 19.6038 22.0648C19.8086 21.9799 20.0282 21.9362 20.25 21.9362C20.4718 21.9362 20.6914 21.9799 20.8962 22.0648C21.1011 22.1497 21.2872 22.2742 21.4439 22.4311L27 27.9893L38.1143 16.875H33.75C33.3024 16.875 32.8732 16.6972 32.5568 16.3807C32.2403 16.0643 32.0625 15.6351 32.0625 15.1875C32.0625 14.7399 32.2403 14.3107 32.5568 13.9943C32.8732 13.6778 33.3024 13.5 33.75 13.5H42.1875C42.6351 13.5 43.0643 13.6778 43.3807 13.9943C43.6972 14.3107 43.875 14.7399 43.875 15.1875V23.625C43.875 24.0726 43.6972 24.5018 43.3807 24.8182C43.0643 25.1347 42.6351 25.3125 42.1875 25.3125C41.7399 25.3125 41.3107 25.1347 40.9943 24.8182C40.6778 24.5018 40.5 24.0726 40.5 23.625V19.2607L28.1939 31.5689C28.0372 31.7258 27.8511 31.8503 27.6462 31.9352C27.4414 32.0201 27.2218 32.0638 27 32.0638C26.7782 32.0638 26.5586 32.0201 26.3538 31.9352C26.1489 31.8503 25.9628 31.7258 25.8061 31.5689L20.25 26.0107L8.4375 37.8232V42.1875H47.25C47.6976 42.1875 48.1268 42.3653 48.4432 42.6818C48.7597 42.9982 48.9375 43.4274 48.9375 43.875Z" fill="#78213A"/>
</svg>
