<svg width="45" height="45" viewBox="0 0 45 45" fill="none" xmlns="http://www.w3.org/2000/svg">
<path d="M22.5 4.21875C18.8843 4.21875 15.3498 5.29093 12.3435 7.2997C9.33715 9.30847 6.994 12.1636 5.61034 15.5041C4.22667 18.8445 3.86464 22.5203 4.57003 26.0665C5.27541 29.6127 7.01653 32.8701 9.57321 35.4268C12.1299 37.9835 15.3873 39.7246 18.9335 40.43C22.4797 41.1354 26.1555 40.7733 29.4959 39.3897C32.8364 38.006 35.6915 35.6629 37.7003 32.6565C39.7091 29.6502 40.7813 26.1157 40.7813 22.5C40.7761 17.6531 38.8484 13.0061 35.4212 9.57886C31.9939 6.15157 27.3469 4.22387 22.5 4.21875ZM30.5262 19.2762L20.6824 29.1199C20.5518 29.2507 20.3967 29.3544 20.226 29.4252C20.0553 29.4959 19.8723 29.5324 19.6875 29.5324C19.5027 29.5324 19.3197 29.4959 19.149 29.4252C18.9783 29.3544 18.8232 29.2507 18.6926 29.1199L14.4738 24.9012C14.21 24.6373 14.0617 24.2794 14.0617 23.9062C14.0617 23.5331 14.21 23.1752 14.4738 22.9113C14.7377 22.6475 15.0956 22.4992 15.4688 22.4992C15.8419 22.4992 16.1998 22.6475 16.4637 22.9113L19.6875 26.1369L28.5363 17.2863C28.667 17.1557 28.8221 17.052 28.9928 16.9813C29.1635 16.9106 29.3465 16.8742 29.5313 16.8742C29.716 16.8742 29.899 16.9106 30.0697 16.9813C30.2404 17.052 30.3955 17.1557 30.5262 17.2863C30.6568 17.417 30.7605 17.5721 30.8312 17.7428C30.9019 17.9135 30.9383 18.0965 30.9383 18.2812C30.9383 18.466 30.9019 18.649 30.8312 18.8197C30.7605 18.9904 30.6568 19.1455 30.5262 19.2762Z" fill="white"/>
</svg>
