<svg width="20" height="25" viewBox="0 0 20 25" fill="none" xmlns="http://www.w3.org/2000/svg"><path fill-rule="evenodd" clip-rule="evenodd" d="M11.694.215l6.127 5.101c.35.293.711 1.98.237 2.561L9.103 18.862 6.987 17.1l7.63-8.992c.227-.384.595-.35.426-1.011l-.516-.441-3.578-3.012c-.333-.201-.43-.472-1.02-.163l-.298.314-7.49 9.41L0 11.464 9.096.408c.347-.42 2.148-.567 2.598-.193z" fill="#4988D1"/><path fill-rule="evenodd" clip-rule="evenodd" d="M7.943 24.685l-6.127-5.101c-.35-.293-.711-1.979-.237-2.561l8.955-10.985L12.65 7.8l-7.63 8.992c-.227.384-.595.35-.425 1.012l.516.44 3.578 3.012c.332.202.43.472 1.02.163l.298-.314 7.49-9.41 2.14 1.74-9.095 11.056c-.347.421-2.148.568-2.598.193z" fill="#78213A"/></svg>