<svg width="30" height="30" viewBox="0 0 30 30" fill="none" xmlns="http://www.w3.org/2000/svg">
<path d="M23.2847 4.875C23.0405 4.875 22.8064 4.97198 22.6338 5.1446C22.4612 5.31721 22.3642 5.55133 22.3642 5.79545C22.3642 6.03957 22.4612 6.2737 22.6338 6.44631C22.8064 6.61893 23.0405 6.71591 23.2847 6.71591C23.7729 6.71591 24.2411 6.90986 24.5864 7.2551C24.9316 7.60034 25.1256 8.06858 25.1256 8.55682V15.2393C24.4766 14.7041 23.7046 14.3391 22.8792 14.1771C22.0538 14.0152 21.201 14.0615 20.398 14.3118C19.5949 14.5621 18.8669 15.0086 18.2797 15.6109C17.6925 16.2131 17.2647 16.9522 17.0348 17.7614H12.9664C12.7365 16.9522 12.3086 16.2131 11.7214 15.6109C11.1342 15.0086 10.4062 14.5621 9.60318 14.3118C8.80014 14.0615 7.94739 14.0152 7.12197 14.1771C6.29656 14.3391 5.52451 14.7041 4.87558 15.2393V8.55682C4.87558 8.06858 5.06953 7.60034 5.41477 7.2551C5.76 6.90986 6.22825 6.71591 6.71649 6.71591C6.96061 6.71591 7.19473 6.61893 7.36735 6.44631C7.53996 6.2737 7.63694 6.03957 7.63694 5.79545C7.63694 5.55133 7.53996 5.31721 7.36735 5.1446C7.19473 4.97198 6.96061 4.875 6.71649 4.875C5.74001 4.875 4.80352 5.2629 4.11305 5.95338C3.42257 6.64385 3.03467 7.58034 3.03467 8.55682V19.142C3.03714 20.4432 3.54048 21.6934 4.44022 22.6332C5.33996 23.5731 6.56702 24.1305 7.86679 24.1897C9.16655 24.2489 10.4392 23.8054 11.4207 22.9512C12.4021 22.097 13.017 20.8978 13.1378 19.6023H16.8633C16.9841 20.8978 17.599 22.097 18.5805 22.9512C19.5619 23.8054 20.8346 24.2489 22.1344 24.1897C23.4341 24.1305 24.6612 23.5731 25.5609 22.6332C26.4607 21.6934 26.964 20.4432 26.9665 19.142V8.55682C26.9665 7.58034 26.5786 6.64385 25.8881 5.95338C25.1976 5.2629 24.2611 4.875 23.2847 4.875ZM8.09717 22.3636C7.46 22.3636 6.83714 22.1747 6.30735 21.8207C5.77756 21.4667 5.36464 20.9636 5.12081 20.3749C4.87697 19.7862 4.81317 19.1385 4.93748 18.5135C5.06178 17.8886 5.36861 17.3146 5.81916 16.864C6.26971 16.4135 6.84374 16.1067 7.46867 15.9824C8.09359 15.8581 8.74135 15.9219 9.33002 16.1657C9.91869 16.4095 10.4218 16.8224 10.7758 17.3522C11.1298 17.882 11.3188 18.5049 11.3188 19.142C11.3188 19.9965 10.9793 20.8159 10.3752 21.4201C9.77101 22.0242 8.95159 22.3636 8.09717 22.3636ZM21.904 22.3636C21.2668 22.3636 20.644 22.1747 20.1142 21.8207C19.5844 21.4667 19.1715 20.9636 18.9276 20.3749C18.6838 19.7862 18.62 19.1385 18.7443 18.5135C18.8686 17.8886 19.1754 17.3146 19.626 16.864C20.0765 16.4135 20.6506 16.1067 21.2755 15.9824C21.9004 15.8581 22.5482 15.9219 23.1368 16.1657C23.7255 16.4095 24.2286 16.8224 24.5826 17.3522C24.9366 17.882 25.1256 18.5049 25.1256 19.142C25.1256 19.9965 24.7862 20.8159 24.182 21.4201C23.5778 22.0242 22.7584 22.3636 21.904 22.3636Z" fill="#1B2A3B"/>
</svg>
