<svg width="54" height="54" viewBox="0 0 54 54" fill="none" xmlns="http://www.w3.org/2000/svg"><path d="M50.19 22.615a1.688 1.688 0 00-.82-1.14l-6.293-3.585-.025-7.092a1.686 1.686 0 00-.597-1.283 23.607 23.607 0 00-7.745-4.36 1.688 1.688 0 00-1.363.125L27 8.828l-6.354-3.555a1.688 1.688 0 00-1.364-.126 23.607 23.607 0 00-7.738 4.377 1.687 1.687 0 00-.597 1.28l-.031 7.098-6.292 3.586a1.687 1.687 0 00-.821 1.14 22.459 22.459 0 000 8.766 1.688 1.688 0 00.82 1.139l6.293 3.586.025 7.094a1.689 1.689 0 00.597 1.282 23.606 23.606 0 007.746 4.36 1.689 1.689 0 001.362-.124L27 45.172l6.353 3.555a1.708 1.708 0 001.365.122 23.647 23.647 0 007.737-4.373 1.688 1.688 0 00.597-1.28l.032-7.098 6.292-3.586a1.688 1.688 0 00.82-1.14 22.46 22.46 0 00-.006-8.757zM27 35.438a8.437 8.437 0 110-16.875 8.437 8.437 0 010 16.875z" fill="#fff"/></svg>