<svg width="48" height="48" viewBox="0 0 48 48" fill="none" xmlns="http://www.w3.org/2000/svg">
<path d="M28.5004 21C28.5004 21.3978 28.3424 21.7794 28.0611 22.0607C27.7798 22.342 27.3983 22.5 27.0004 22.5H22.5004V27C22.5004 27.3978 22.3424 27.7794 22.0611 28.0607C21.7798 28.342 21.3983 28.5 21.0004 28.5C20.6026 28.5 20.2211 28.342 19.9398 28.0607C19.6585 27.7794 19.5004 27.3978 19.5004 27V22.5H15.0004C14.6026 22.5 14.2211 22.342 13.9398 22.0607C13.6585 21.7794 13.5004 21.3978 13.5004 21C13.5004 20.6022 13.6585 20.2206 13.9398 19.9393C14.2211 19.658 14.6026 19.5 15.0004 19.5H19.5004V15C19.5004 14.6022 19.6585 14.2206 19.9398 13.9393C20.2211 13.658 20.6026 13.5 21.0004 13.5C21.3983 13.5 21.7798 13.658 22.0611 13.9393C22.3424 14.2206 22.5004 14.6022 22.5004 15V19.5H27.0004C27.3983 19.5 27.7798 19.658 28.0611 19.9393C28.3424 20.2206 28.5004 20.6022 28.5004 21ZM43.0617 43.0613C42.9224 43.2007 42.7569 43.3114 42.5748 43.3868C42.3927 43.4623 42.1976 43.5012 42.0004 43.5012C41.8033 43.5012 41.6081 43.4623 41.426 43.3868C41.2439 43.3114 41.0785 43.2007 40.9392 43.0613L31.5529 33.6731C28.2861 36.3942 24.096 37.751 19.8543 37.4614C15.6126 37.1718 11.6458 35.2581 8.77913 32.1183C5.91247 28.9785 4.36665 24.8543 4.46325 20.6038C4.55985 16.3533 6.29143 12.3037 9.29777 9.29734C12.3041 6.291 16.3537 4.55943 20.6043 4.46283C24.8548 4.36623 28.9789 5.91204 32.1187 8.7787C35.2585 11.6454 37.1723 15.6121 37.4619 19.8539C37.7515 24.0956 36.3946 28.2857 33.6736 31.5525L43.0617 40.9388C43.2011 41.0781 43.3118 41.2435 43.3873 41.4256C43.4628 41.6077 43.5016 41.8029 43.5016 42C43.5016 42.1971 43.4628 42.3923 43.3873 42.5744C43.3118 42.7565 43.2011 42.9219 43.0617 43.0613ZM21.0004 34.5C23.6705 34.5 26.2806 33.7082 28.5006 32.2248C30.7207 30.7414 32.451 28.633 33.4728 26.1662C34.4946 23.6994 34.7619 20.985 34.241 18.3663C33.7201 15.7475 32.4344 13.3421 30.5464 11.4541C28.6584 9.56605 26.2529 8.2803 23.6341 7.7594C21.0154 7.2385 18.301 7.50584 15.8342 8.52763C13.3674 9.54941 11.259 11.2797 9.77559 13.4998C8.29219 15.7199 7.50043 18.33 7.50043 21C7.5044 24.5792 8.92799 28.0107 11.4589 30.5416C13.9898 33.0724 17.4212 34.496 21.0004 34.5Z" fill="white"/>
</svg>
