<svg width="54" height="54" viewBox="0 0 54 54" fill="none" xmlns="http://www.w3.org/2000/svg"><path d="M27 5.063A21.937 21.937 0 1048.938 27 21.96 21.96 0 0027 5.062zm0 3.375a18.457 18.457 0 0110.125 3.012v4.16l-4.676 5.429-6.639.898-.065-.046-4.15-2.713a3.377 3.377 0 00-4.747.882l-4.417 6.603a3.375 3.375 0 00-.57 1.858l-.049 7.642-.69.454A18.563 18.563 0 0127 8.437zM13.14 39.332l.53-.347a3.376 3.376 0 001.518-2.804l.044-7.642 4.421-6.602a.727.727 0 00.068.046l4.149 2.715c.695.49 1.55.7 2.394.584l6.642-.9c.82-.11 1.57-.516 2.11-1.142l4.676-5.434c.523-.612.81-1.392.808-2.198v-1.335a18.535 18.535 0 014.17 18.421l-3.404-3.113a3.374 3.374 0 00-3.572-.633l-6.425 2.668a3.391 3.391 0 00-2.041 2.627l-.505 3.415a3.375 3.375 0 002.483 3.757l4.527 1.193.498.5a18.537 18.537 0 01-23.092-3.776zm25.883 1.8l-.907-.91a3.374 3.374 0 00-1.531-.881l-4.523-1.194.505-3.415 6.423-2.67 4.252 3.898a18.654 18.654 0 01-4.219 5.172z" fill="#78213A"/></svg>