<svg width="217" height="61" viewBox="0 0 217 61" fill="none" xmlns="http://www.w3.org/2000/svg">
<g clip-path="url(#clip0_2423_2789)">
<path d="M67.3141 22.6209H66.1753V15.6313H67.3141L69.6549 18.8084L71.9957 15.6313H73.1345V22.6209H71.9957V17.2834L69.9712 19.9522H69.2753L67.2508 17.2834L67.3141 22.6209Z" fill="white"/>
<path d="M75.9815 22.6209H74.9692V15.6313H76.108V20.7782L80.0937 15.6313H81.106V22.6209H79.9672V17.4741L75.9815 22.6209Z" fill="white"/>
<path d="M84.0162 22.6209H82.8774V15.6313H84.0162V18.4272H87.8121V15.6313H88.9509V22.6209H87.8121V19.3803H84.0162V22.6209Z" fill="white"/>
<path d="M91.7346 22.6209H90.7856V15.6313H91.9244V20.7782L95.9101 15.6313H96.9224V22.6209H95.7836V17.4741L91.7346 22.6209Z" fill="white"/>
<path d="M102.173 22.7481C101.098 22.7481 100.149 22.4304 99.4529 21.7315C98.6938 21.0325 98.3774 20.1429 98.3774 19.1263C98.3774 18.0461 98.757 17.22 99.4529 16.5211C100.212 15.8221 101.098 15.5044 102.173 15.5044C102.933 15.5044 103.565 15.695 104.135 15.9492V17.0294C103.565 16.6481 102.933 16.4575 102.173 16.4575C101.414 16.4575 100.782 16.7117 100.275 17.22C99.7693 17.7284 99.5162 18.3002 99.5162 19.0627C99.5162 19.8252 99.7693 20.4606 100.275 20.9054C100.782 21.4138 101.414 21.6679 102.237 21.6679C103.059 21.6679 103.755 21.4773 104.324 21.0325V22.1127C103.628 22.5575 102.933 22.7481 102.173 22.7481Z" fill="white"/>
<path d="M105.21 16.648V15.6313H111.157V16.648H108.753V22.6845H107.614V16.648H105.21Z" fill="white"/>
<path d="M117.673 22.6209H112.359V15.6313H117.547V16.648H113.498V18.4272H116.787V19.4438H113.498V21.6043H117.673V22.6209Z" fill="white"/>
<path d="M120.014 22.6209H118.938V15.6313H122.102C122.861 15.6313 123.494 15.822 123.873 16.2032C124.316 16.5845 124.569 17.0928 124.569 17.6647C124.569 18.2366 124.316 18.7449 123.873 19.1897C123.43 19.5709 122.861 19.7616 122.102 19.7616H120.077V22.6209H120.014ZM120.014 16.648V18.7449H121.912C122.355 18.7449 122.671 18.6178 122.924 18.4907C123.177 18.3001 123.304 18.0459 123.304 17.7282C123.304 17.4105 123.177 17.1563 122.924 16.9657C122.671 16.7751 122.355 16.7116 121.912 16.7116L120.014 16.648Z" fill="white"/>
<path d="M129.314 22.7481C128.238 22.7481 127.29 22.4304 126.594 21.7315C125.834 21.0325 125.518 20.1429 125.518 19.1263C125.518 18.0461 125.898 17.22 126.594 16.5211C127.353 15.8221 128.238 15.5044 129.314 15.5044C130.073 15.5044 130.706 15.695 131.275 15.9492V17.0294C130.706 16.6481 130.073 16.4575 129.314 16.4575C128.555 16.4575 127.922 16.7117 127.416 17.22C126.91 17.7284 126.657 18.3002 126.657 19.0627C126.657 19.8252 126.91 20.4606 127.416 20.9054C127.922 21.4138 128.555 21.6679 129.377 21.6679C130.2 21.6679 130.896 21.4773 131.465 21.0325V22.1127C130.832 22.5575 130.136 22.7481 129.314 22.7481Z" fill="white"/>
<path d="M132.351 16.648V15.6313H138.298V16.648H135.893V22.6845H134.755V16.648H132.351Z" fill="white"/>
<path d="M143.043 22.6209H139.5V15.6313H142.79C143.486 15.6313 143.929 15.822 144.371 16.0761C144.751 16.3938 144.941 16.8386 144.941 17.347C144.941 17.6647 144.814 17.9824 144.688 18.2366C144.498 18.4907 144.308 18.6813 143.992 18.7449C144.435 18.8084 144.814 19.0626 145.067 19.3803C145.32 19.698 145.51 20.1428 145.51 20.6511C145.51 21.223 145.257 21.7313 144.814 22.1126C144.435 22.4303 143.865 22.6209 143.043 22.6209ZM140.639 16.648V18.4272H142.6C142.98 18.4272 143.296 18.3636 143.486 18.173C143.676 17.9824 143.802 17.7918 143.802 17.4741C143.802 17.1563 143.676 16.9657 143.486 16.7751C143.296 16.5845 142.98 16.5209 142.6 16.5209H140.639V16.648ZM140.639 19.3803V21.6043H142.853C143.296 21.6043 143.676 21.4772 143.865 21.2866C144.118 21.0959 144.245 20.8418 144.245 20.4605C144.245 20.1428 144.118 19.8886 143.865 19.6345C143.612 19.4438 143.296 19.3803 142.853 19.3803H140.639Z" fill="white"/>
<path d="M152.975 21.7315C152.28 22.4304 151.394 22.7481 150.318 22.7481C149.243 22.7481 148.357 22.4304 147.661 21.7315C146.965 21.0325 146.649 20.1429 146.649 19.1263C146.649 18.1096 146.965 17.22 147.661 16.5846C148.357 15.8856 149.243 15.5044 150.318 15.5044C151.394 15.5044 152.28 15.8856 152.975 16.5846C153.671 17.2836 154.051 18.1731 154.051 19.1263C154.051 20.0794 153.671 21.0325 152.975 21.7315ZM148.547 20.969C149.053 21.4773 149.622 21.7315 150.318 21.7315C151.014 21.7315 151.647 21.4773 152.09 20.969C152.596 20.4606 152.849 19.8252 152.849 19.1263C152.849 18.3638 152.596 17.7284 152.09 17.2836C151.584 16.7752 151.014 16.5211 150.318 16.5211C149.622 16.5211 148.99 16.7752 148.547 17.2836C148.041 17.7919 147.788 18.3638 147.788 19.1263C147.788 19.8888 148.041 20.4606 148.547 20.969Z" fill="white"/>
<path d="M159.428 22.6209H158.29V15.6313H159.428V18.4272H163.224V15.6313H164.363V22.6209H163.224V19.3803H159.428V22.6209Z" fill="white"/>
<path d="M166.704 22.621H165.502L168.665 15.5679H169.741L172.904 22.621H171.702L170.88 20.9054H167.463L166.704 22.621ZM169.235 16.9658L167.906 19.8887H170.563L169.235 16.9658Z" fill="white"/>
<path d="M175.118 22.7481C174.675 22.7481 174.296 22.6845 174.106 22.5575V21.5408C174.359 21.6679 174.612 21.7314 174.928 21.7314C175.245 21.7314 175.434 21.6679 175.687 21.4772C175.877 21.3502 176.067 21.0325 176.32 20.5241L173.473 15.5679H174.802L176.953 19.3804L178.724 15.5679H179.926L177.269 21.096C176.7 22.2397 176.004 22.7481 175.118 22.7481Z" fill="white"/>
<path d="M182.141 22.6209H181.002V15.6313H182.141V18.4907L185.114 15.6313H186.569L183.216 18.8084L187.139 22.6209H185.62L182.204 19.2532V22.6209H182.141Z" fill="white"/>
<path d="M189.163 22.6209H188.214V15.6313H189.353V20.7782L193.338 15.6313H194.351V22.6209H193.212V17.4741L189.163 22.6209Z" fill="white"/>
<path d="M67.1877 34.7576H66.2388V27.7681H67.3775V32.9149L71.3633 27.7681H72.3755V34.7576H71.2367V29.6108L67.1877 34.7576Z" fill="white"/>
<path d="M80.41 34.7576H76.8672V27.7681H80.157C80.8529 27.7681 81.2958 27.9587 81.7386 28.2129C82.1182 28.5306 82.308 28.9754 82.308 29.4837C82.308 29.8014 82.1815 30.1191 82.0549 30.3733C81.9284 30.6274 81.6754 30.8181 81.359 30.8816C81.8019 30.9451 82.1815 31.1993 82.4345 31.517C82.6876 31.8347 82.8774 32.2795 82.8774 32.7879C82.8774 33.3597 82.6243 33.8681 82.1815 34.2493C81.7386 34.567 81.1692 34.7576 80.41 34.7576ZM78.006 28.7212V30.5004H79.9672C80.3468 30.5004 80.6631 30.4368 80.8529 30.2462C81.0427 30.0556 81.1692 29.8649 81.1692 29.5472C81.1692 29.2295 81.0427 29.0389 80.8529 28.8483C80.6631 28.6577 80.3468 28.5941 79.9672 28.5941H78.006V28.7212ZM78.006 31.517V33.741H80.2203C80.6631 33.741 81.0427 33.6139 81.2325 33.4233C81.4856 33.2326 81.6121 32.9785 81.6121 32.5972C81.6121 32.2795 81.4856 32.0254 81.2325 31.7712C80.9794 31.5806 80.6631 31.517 80.2203 31.517H78.006Z" fill="white"/>
<path d="M87.0527 34.7576H84.269V27.7681H85.4078V30.1826H87.0527C87.8752 30.1826 88.5711 30.3733 89.0772 30.8181C89.5833 31.2629 89.8364 31.7712 89.8364 32.4701C89.8364 33.1691 89.5833 33.6774 89.0772 34.1222C88.5078 34.567 87.8752 34.7576 87.0527 34.7576ZM85.4078 31.1993V33.741H86.9895C87.4956 33.741 87.8752 33.6139 88.1915 33.4233C88.5078 33.2326 88.6344 32.9149 88.6344 32.4701C88.6344 32.0254 88.5078 31.7076 88.1915 31.517C87.8752 31.3264 87.4956 31.1993 86.9895 31.1993H85.4078ZM91.8609 34.7576H90.7221V27.7681H91.8609V34.7576Z" fill="white"/>
<path d="M97.1118 34.8844C96.0363 34.8844 95.0873 34.5667 94.3914 33.8677C93.6322 33.1687 93.3159 32.2792 93.3159 31.2625C93.3159 30.1823 93.6955 29.3562 94.3914 28.6573C95.1506 27.9583 96.0363 27.6406 97.1118 27.6406C97.871 27.6406 98.5037 27.8313 99.0731 28.0854V29.1656C98.5037 28.7844 97.871 28.5938 97.1118 28.5938C96.3527 28.5938 95.72 28.8479 95.2139 29.3563C94.7078 29.8646 94.4547 30.4365 94.4547 31.199C94.4547 31.9615 94.7078 32.5969 95.2139 33.0417C95.72 33.55 96.3527 33.8042 97.1751 33.8042C97.9976 33.8042 98.6935 33.6135 99.2629 33.1688V34.249C98.6302 34.6938 97.9343 34.8844 97.1118 34.8844Z" fill="white"/>
<path d="M109.512 34.7576H100.655V27.7681H101.794V33.8045H104.514V27.7681H105.653V33.8045H108.373V27.7681H109.512V34.7576Z" fill="white"/>
<path d="M116.534 34.7576H111.22V27.7681H116.408V28.7847H112.359V30.5004H115.649V31.517H112.359V33.741H116.534V34.7576Z" fill="white"/>
<path d="M118.939 34.7576H117.8V27.7681H122.924V28.7847H118.939V34.7576Z" fill="white"/>
<path d="M129.947 33.8677C129.251 34.5667 128.365 34.8844 127.29 34.8844C126.214 34.8844 125.328 34.5667 124.632 33.8677C123.936 33.1687 123.62 32.2792 123.62 31.2625C123.62 30.2458 123.936 29.3563 124.632 28.7208C125.328 28.0219 126.214 27.6406 127.29 27.6406C128.365 27.6406 129.251 28.0219 129.947 28.7208C130.643 29.4198 131.022 30.3094 131.022 31.2625C131.022 32.2156 130.643 33.1687 129.947 33.8677ZM125.455 33.1052C125.961 33.6135 126.53 33.8677 127.226 33.8677C127.922 33.8677 128.555 33.6135 128.998 33.1052C129.504 32.5969 129.757 31.9615 129.757 31.2625C129.757 30.5 129.504 29.8646 128.998 29.4198C128.492 28.9115 127.922 28.6573 127.226 28.6573C126.53 28.6573 125.898 28.9115 125.455 29.4198C124.949 29.9281 124.696 30.5 124.696 31.2625C124.759 32.025 124.949 32.5969 125.455 33.1052Z" fill="white"/>
<path d="M141.334 33.8677C140.638 34.5667 139.753 34.8844 138.677 34.8844C137.602 34.8844 136.716 34.5667 136.02 33.8677C135.324 33.1687 135.008 32.2792 135.008 31.2625C135.008 30.2458 135.324 29.3563 136.02 28.7208C136.716 28.0219 137.602 27.6406 138.677 27.6406C139.753 27.6406 140.638 28.0219 141.334 28.7208C142.03 29.4198 142.41 30.3094 142.41 31.2625C142.41 32.2156 142.03 33.1687 141.334 33.8677ZM136.843 33.1052C137.349 33.6135 137.918 33.8677 138.614 33.8677C139.31 33.8677 139.943 33.6135 140.385 33.1052C140.891 32.5969 141.145 31.9615 141.145 31.2625C141.145 30.5 140.891 29.8646 140.385 29.4198C139.879 28.9115 139.31 28.6573 138.614 28.6573C137.918 28.6573 137.285 28.9115 136.843 29.4198C136.336 29.9281 136.083 30.5 136.083 31.2625C136.147 32.025 136.4 32.5969 136.843 33.1052Z" fill="white"/>
<path d="M146.902 34.7576H143.865V27.7681H148.99V28.7847H145.004V30.2462H146.965C147.788 30.2462 148.42 30.4368 148.926 30.8816C149.369 31.2629 149.686 31.8347 149.686 32.5337C149.686 33.2326 149.433 33.741 148.926 34.1858C148.42 34.567 147.724 34.7576 146.902 34.7576ZM144.941 31.2629V33.741H146.775C147.282 33.741 147.661 33.6139 147.977 33.4233C148.231 33.1691 148.42 32.9149 148.42 32.5337C148.42 32.1524 148.294 31.8347 147.977 31.5806C147.661 31.3264 147.282 31.2629 146.775 31.2629H144.941Z" fill="white"/>
<path d="M152.026 34.7576H150.888V27.7681H153.988C154.747 27.7681 155.38 27.9587 155.759 28.3399C156.202 28.7212 156.455 29.2295 156.455 29.8014C156.455 30.3733 156.202 30.8816 155.759 31.3264C155.316 31.7076 154.747 31.8983 153.988 31.8983H151.963V34.7576H152.026ZM152.026 28.7212V30.8181H153.924C154.367 30.8181 154.684 30.691 154.937 30.5639C155.19 30.4368 155.316 30.1191 155.316 29.8014C155.316 29.4837 155.19 29.2295 154.937 29.0389C154.684 28.8483 154.367 28.7847 153.924 28.7847L152.026 28.7212Z" fill="white"/>
<path d="M157.53 34.7577H156.328L159.491 27.7046H160.567L163.73 34.7577H162.591L161.769 33.0421H158.353L157.53 34.7577ZM160.061 29.039L158.732 31.9619H161.389L160.061 29.039Z" fill="white"/>
<path d="M167.21 34.8844C166.198 34.8844 165.375 34.6938 164.679 34.3126V33.2324C164.996 33.423 165.375 33.6136 165.818 33.6771C166.261 33.8042 166.64 33.8678 167.083 33.8678C167.653 33.8678 168.159 33.7407 168.538 33.5501C168.918 33.2959 169.045 33.0417 169.045 32.6605C169.045 32.3428 168.855 32.0886 168.538 31.8344C168.222 31.6438 167.779 31.5167 167.21 31.5167H166.387V30.5001H167.4C167.842 30.5001 168.222 30.373 168.412 30.2459C168.665 30.0553 168.791 29.8646 168.791 29.5469C168.791 29.2292 168.665 29.0386 168.349 28.848C168.096 28.6574 167.653 28.5938 167.21 28.5938C166.451 28.5938 165.691 28.7844 164.996 29.1021V28.0855C165.691 27.7042 166.451 27.5771 167.273 27.5771C168.096 27.5771 168.728 27.7678 169.171 28.0855C169.677 28.4032 169.93 28.9115 169.93 29.4834C169.93 29.8646 169.804 30.1824 169.551 30.4365C169.298 30.6907 169.045 30.8813 168.791 30.9449C169.171 31.0719 169.487 31.2626 169.804 31.5803C170.12 31.898 170.247 32.2792 170.247 32.724C170.247 33.3594 169.993 33.8678 169.424 34.3126C168.791 34.6938 168.096 34.8844 167.21 34.8844Z" fill="white"/>
<path d="M177.649 33.8677C176.953 34.5667 176.067 34.8844 174.992 34.8844C173.916 34.8844 173.03 34.5667 172.335 33.8677C171.639 33.1687 171.322 32.2792 171.322 31.2625C171.322 30.2458 171.639 29.3563 172.335 28.7208C173.03 28.0219 173.916 27.6406 174.992 27.6406C176.067 27.6406 176.953 28.0219 177.649 28.7208C178.345 29.4198 178.724 30.3094 178.724 31.2625C178.724 32.2156 178.345 33.1687 177.649 33.8677ZM173.157 33.1052C173.663 33.6135 174.232 33.8677 174.928 33.8677C175.624 33.8677 176.257 33.6135 176.7 33.1052C177.206 32.5969 177.459 31.9615 177.459 31.2625C177.459 30.5 177.206 29.8646 176.7 29.4198C176.194 28.975 175.624 28.6573 174.928 28.6573C174.232 28.6573 173.6 28.9115 173.157 29.4198C172.651 29.9281 172.398 30.5 172.398 31.2625C172.461 32.025 172.714 32.5969 173.157 33.1052Z" fill="white"/>
<path d="M183.722 34.7576H180.179V27.7681H183.469C184.165 27.7681 184.608 27.9587 185.051 28.2129C185.43 28.5306 185.62 28.9754 185.62 29.4837C185.62 29.8014 185.493 30.1191 185.367 30.3733C185.177 30.6274 184.987 30.8181 184.671 30.8816C185.114 30.9451 185.493 31.1993 185.747 31.517C186 31.8347 186.189 32.2795 186.189 32.7879C186.189 33.3597 185.936 33.8681 185.494 34.2493C185.051 34.567 184.418 34.7576 183.722 34.7576ZM181.255 28.7212V30.5004H183.216C183.596 30.5004 183.912 30.4368 184.102 30.2462C184.291 30.0556 184.418 29.8649 184.418 29.5472C184.418 29.2295 184.291 29.0389 184.102 28.8483C183.912 28.6577 183.596 28.5941 183.216 28.5941H181.255V28.7212ZM181.255 31.517V33.741H183.469C183.912 33.741 184.291 33.6139 184.481 33.4233C184.734 33.2326 184.861 32.9785 184.861 32.5972C184.861 32.2795 184.734 32.0254 184.481 31.7712C184.228 31.5806 183.912 31.517 183.469 31.517H181.255Z" fill="white"/>
<path d="M188.024 34.7577H186.822L189.986 27.7046H191.061L194.224 34.7577H193.022L192.2 33.0421H188.783L188.024 34.7577ZM190.555 29.039L189.226 31.9619H191.883L190.555 29.039Z" fill="white"/>
<path d="M196.565 34.7577H195.426V27.7681H196.565V30.5004H200.361V27.7046H201.5V34.6942H200.361V31.4535H196.565V34.7577Z" fill="white"/>
<path d="M204.22 34.7576H203.271V27.7681H204.41V32.9149L208.395 27.7681H209.408V34.7576H208.269V29.6108L204.22 34.7576Z" fill="white"/>
<path d="M211.939 34.7576H210.547L212.888 31.7076C212.382 31.5805 212.002 31.3899 211.686 31.0086C211.369 30.6909 211.243 30.2461 211.243 29.8013C211.243 29.2295 211.433 28.7211 211.875 28.3399C212.318 27.9586 212.888 27.8315 213.647 27.8315H216.937V34.8211H215.798V31.7711H214.09L211.939 34.7576ZM213.71 30.818H215.861V28.7211H213.71C213.331 28.7211 212.951 28.8482 212.761 28.9753C212.508 29.1659 212.445 29.4201 212.445 29.7378C212.445 30.0555 212.571 30.3097 212.761 30.5003C213.014 30.6909 213.331 30.818 213.71 30.818Z" fill="white"/>
<path d="M67.3141 46.8939H66.1753V39.9043H69.3386C70.0977 39.9043 70.7304 40.0949 71.11 40.4762C71.5528 40.8574 71.8059 41.3658 71.8059 41.9376C71.8059 42.5095 71.5528 43.0178 71.11 43.4626C70.6671 43.8439 70.0977 44.0345 69.3386 44.0345H67.3141V46.8939ZM67.3141 40.8574V42.9543H69.212C69.6549 42.9543 69.9712 42.8272 70.2243 42.7001C70.4773 42.5095 70.6039 42.2553 70.6039 41.9376C70.6039 41.6199 70.4773 41.3658 70.2243 41.1751C69.9712 40.9845 69.6549 40.921 69.212 40.921L67.3141 40.8574Z" fill="white"/>
<path d="M79.1449 45.941C78.449 46.6399 77.5633 46.9576 76.4877 46.9576C75.4122 46.9576 74.5265 46.6399 73.8306 45.941C73.1347 45.242 72.8184 44.3524 72.8184 43.3357C72.8184 42.3191 73.1347 41.4295 73.8306 40.7941C74.5265 40.0951 75.4122 39.7139 76.4877 39.7139C77.5633 39.7139 78.449 40.0951 79.1449 40.7941C79.8408 41.493 80.2204 42.3826 80.2204 43.3357C80.2204 44.3524 79.8408 45.242 79.1449 45.941ZM74.7163 45.1784C75.2224 45.6868 75.7918 45.941 76.4877 45.941C77.1837 45.941 77.8163 45.6868 78.2592 45.1784C78.7653 44.6701 79.0184 44.0347 79.0184 43.3357C79.0184 42.6368 78.7653 41.9378 78.2592 41.493C77.7531 40.9847 77.1837 40.7305 76.4877 40.7305C75.7918 40.7305 75.1592 40.9847 74.7163 41.493C74.2102 42.0014 73.9571 42.5732 73.9571 43.3357C73.9571 44.0982 74.2102 44.7337 74.7163 45.1784Z" fill="white"/>
<path d="M85.2813 47.0211C84.2058 47.0211 83.2568 46.7034 82.5609 46.0044C81.8017 45.3055 81.4854 44.4159 81.4854 43.3992C81.4854 42.319 81.8649 41.493 82.5609 40.794C83.32 40.0951 84.2058 39.7773 85.2813 39.7773C86.0405 39.7773 86.6731 39.968 87.2425 40.2221V41.3023C86.6731 40.9211 86.0405 40.7305 85.2813 40.7305C84.5221 40.7305 83.8894 40.9846 83.3833 41.493C82.8772 42.0013 82.6241 42.5732 82.6241 43.3357C82.6241 44.0982 82.8772 44.7336 83.3833 45.1784C83.8894 45.6867 84.5221 45.9409 85.3445 45.9409C86.167 45.9409 86.8629 45.7503 87.4323 45.3055V46.3857C86.7996 46.8305 86.1037 47.0211 85.2813 47.0211Z" fill="white"/>
<path d="M92.1773 47.0211C91.1018 47.0211 90.1528 46.7034 89.4569 46.0044C88.6977 45.3055 88.3813 44.4159 88.3813 43.3992C88.3813 42.319 88.7609 41.493 89.4569 40.794C90.216 40.0951 91.1018 39.7773 92.1773 39.7773C92.9364 39.7773 93.5691 39.968 94.1385 40.2221V41.3023C93.5691 40.9211 92.9364 40.7305 92.1773 40.7305C91.4181 40.7305 90.7854 40.9846 90.2793 41.493C89.7732 42.0013 89.5201 42.5732 89.5201 43.3357C89.5201 44.0982 89.7732 44.7336 90.2793 45.1784C90.7854 45.6867 91.4181 45.9409 92.2405 45.9409C93.063 45.9409 93.7589 45.7503 94.3283 45.3055V46.3857C93.6324 46.8305 92.9364 47.0211 92.1773 47.0211Z" fill="white"/>
<path d="M96.6057 46.8939H95.6567V39.9043H96.7955V45.0512L100.781 39.9043H101.793V46.8939H100.655V41.747L96.6057 46.8939Z" fill="white"/>
<path d="M104.514 46.8941H103.565V39.9046H104.704V45.0514L108.689 39.9046H109.702V46.8941H108.563V41.7473L104.514 46.8941ZM106.602 39.3962C106.096 39.3962 105.589 39.2056 105.273 38.9514C104.957 38.6337 104.767 38.2525 104.767 37.7441H105.716C105.716 37.9983 105.779 38.1889 105.969 38.316C106.159 38.5066 106.349 38.5702 106.602 38.5702C106.855 38.5702 107.108 38.5066 107.234 38.316C107.424 38.1254 107.487 37.9348 107.487 37.7441H108.436C108.436 38.2525 108.247 38.6337 107.93 38.9514C107.614 39.2691 107.171 39.3962 106.602 39.3962Z" fill="white"/>
<path d="M114.953 47.0211C113.877 47.0211 112.928 46.7034 112.232 46.0044C111.473 45.3055 111.157 44.4159 111.157 43.3992C111.157 42.319 111.536 41.493 112.232 40.794C112.991 40.0951 113.877 39.7773 114.953 39.7773C115.712 39.7773 116.344 39.968 116.914 40.2221V41.3023C116.344 40.9211 115.712 40.7305 114.953 40.7305C114.193 40.7305 113.561 40.9846 113.055 41.493C112.549 42.0013 112.296 42.5732 112.296 43.3357C112.296 44.0982 112.549 44.7336 113.055 45.1784C113.561 45.6867 114.193 45.9409 115.016 45.9409C115.838 45.9409 116.534 45.7503 117.104 45.3055V46.3857C116.471 46.8305 115.775 47.0211 114.953 47.0211Z" fill="white"/>
<path d="M119.634 46.8939H118.496V39.9043H119.634V42.7637L122.608 39.9043H124.063L120.71 43.0814L124.632 46.8939H123.051L119.634 43.5262V46.8939Z" fill="white"/>
<path d="M131.022 45.941C130.326 46.6399 129.441 46.9576 128.365 46.9576C127.29 46.9576 126.404 46.6399 125.708 45.941C125.012 45.242 124.696 44.3524 124.696 43.3357C124.696 42.3191 125.012 41.4295 125.708 40.7941C126.404 40.0951 127.29 39.7139 128.365 39.7139C129.441 39.7139 130.326 40.0951 131.022 40.7941C131.718 41.493 132.098 42.3826 132.098 43.3357C132.035 44.3524 131.718 45.242 131.022 45.941ZM126.53 45.1784C127.037 45.6868 127.606 45.941 128.302 45.941C128.998 45.941 129.63 45.6868 130.073 45.1784C130.579 44.6701 130.833 44.0347 130.833 43.3357C130.833 42.6368 130.579 41.9378 130.073 41.493C129.567 40.9847 128.998 40.7305 128.302 40.7305C127.606 40.7305 126.973 40.9847 126.53 41.493C126.024 42.0014 125.771 42.5732 125.771 43.3357C125.835 44.0982 126.024 44.7337 126.53 45.1784Z" fill="white"/>
<path d="M134.502 46.8941H133.49V39.9046H134.629V45.0514L138.614 39.9046H139.626V46.8941H138.488V41.7473L134.502 46.8941ZM136.526 39.3962C136.02 39.3962 135.514 39.2056 135.198 38.9514C134.882 38.6337 134.692 38.2525 134.692 37.7441H135.641C135.641 37.9983 135.704 38.1889 135.894 38.316C136.084 38.5066 136.273 38.5702 136.526 38.5702C136.78 38.5702 137.033 38.5066 137.159 38.316C137.349 38.1254 137.412 37.9348 137.412 37.7441H138.361C138.361 38.2525 138.171 38.6337 137.855 38.9514C137.475 39.2691 137.096 39.3962 136.526 39.3962Z" fill="white"/>
<path d="M148.547 47.0848H147.408V46.3223C146.269 46.2588 145.384 46.0046 144.751 45.4327C144.182 44.8609 143.865 44.1619 143.865 43.3359C143.865 42.9546 143.929 42.5734 144.118 42.2557C144.245 41.8744 144.498 41.5567 144.751 41.3025C145.004 40.9848 145.447 40.7942 145.89 40.6036C146.333 40.413 146.902 40.3494 147.471 40.2859V39.5869H148.61V40.2859C149.18 40.2859 149.686 40.413 150.192 40.54C150.635 40.7307 151.014 40.9213 151.331 41.239C151.647 41.5567 151.837 41.8109 151.963 42.1921C152.09 42.5734 152.216 42.9546 152.216 43.2723C152.216 43.59 152.153 44.0348 151.963 44.3525C151.773 44.6702 151.584 45.0515 151.331 45.3057C151.014 45.6234 150.635 45.814 150.192 46.0046C149.749 46.1952 149.18 46.2588 148.61 46.2588L148.547 47.0848ZM147.408 45.3692V41.239C146.649 41.239 146.016 41.4296 145.637 41.8109C145.257 42.1921 145.067 42.7005 145.067 43.2723C145.067 43.8442 145.257 44.3525 145.637 44.7338C146.016 45.115 146.649 45.3057 147.408 45.3692ZM148.547 41.239V45.3692C149.369 45.3692 149.939 45.1786 150.318 44.7973C150.698 44.4161 150.888 43.9077 150.888 43.3359C150.888 42.764 150.698 42.2557 150.318 41.8744C149.939 41.4296 149.306 41.239 148.547 41.239Z" fill="white"/>
<path d="M158.732 46.8939H153.418V39.9043H158.606V40.921H154.557V42.7001H157.847V43.7168H154.557V45.9408H158.732V46.8939Z" fill="white"/>
<path d="M160.757 48.3553H159.682V45.8772H160.378C160.757 45.3053 161.073 44.6699 161.2 43.9074C161.39 43.1449 161.453 42.1283 161.453 40.8574V39.9043H166.261V45.9408H167.273V48.4189H166.198V46.8939H160.694L160.757 48.3553ZM161.58 45.8137H165.122V40.7939H162.529C162.529 41.9376 162.465 42.9543 162.276 43.7168C162.212 44.6064 161.959 45.3053 161.58 45.8137Z" fill="white"/>
<path d="M173.789 46.8939H168.475V39.9043H173.663V40.921H169.614V42.7001H172.904V43.7168H169.614V45.9408H173.789V46.8939Z" fill="white"/>
<path d="M176.193 46.8939H175.055V39.9043H178.218C178.977 39.9043 179.61 40.0949 179.989 40.4762C180.432 40.8574 180.685 41.3658 180.685 41.9376C180.685 42.5095 180.432 43.0178 179.989 43.4626C179.547 43.8439 178.977 44.0345 178.218 44.0345H176.193V46.8939ZM176.193 40.8574V42.9543H178.091C178.534 42.9543 178.851 42.8272 179.104 42.7001C179.357 42.5095 179.483 42.2553 179.483 41.9376C179.483 41.6199 179.357 41.3658 179.104 41.1751C178.851 40.9845 178.534 40.921 178.091 40.921L176.193 40.8574Z" fill="white"/>
<path d="M181.698 46.8939H180.496L183.659 39.8408H184.734L187.898 46.8939H186.696L185.873 45.1783H182.457L181.698 46.8939ZM184.228 41.1752L182.9 44.0981H185.557L184.228 41.1752Z" fill="white"/>
<path d="M195.996 48.3554H194.92V46.8304H189.1V39.8408H190.238V45.8773H193.781V39.8408H194.92V45.8773H195.932V48.3554H195.996Z" fill="white"/>
<path d="M198.147 46.8939H197.198V39.9043H198.337V45.0512L202.322 39.9043H203.334V46.8939H202.196V41.747L198.147 46.8939Z" fill="white"/>
<path d="M206.055 46.8939H205.106V39.9043H206.245V45.0512L210.23 39.9043H211.243V46.8939H210.104V41.747L206.055 46.8939Z" fill="white"/>
<path d="M42.704 45.4956C42.5142 45.4956 42.3877 45.6227 42.3877 45.8133C42.3877 46.0039 42.5142 46.131 42.704 46.131C42.8938 46.131 43.0203 46.0039 43.0203 45.8133C43.0203 45.6862 42.8938 45.4956 42.704 45.4956Z" fill="#4988D1"/>
<path d="M43.7798 48.6092C43.7798 48.7998 43.9063 48.9269 44.0961 48.9269C44.2859 48.9269 44.4124 48.7998 44.4124 48.6092C44.4124 48.4186 44.2859 48.2915 44.0961 48.2915C43.9063 48.2915 43.7798 48.4186 43.7798 48.6092Z" fill="#4988D1"/>
<path d="M42.704 48.2915C42.5142 48.2915 42.3877 48.4186 42.3877 48.6092C42.3877 48.7998 42.5142 48.9269 42.704 48.9269C42.8938 48.9269 43.0203 48.7998 43.0203 48.6092C43.0203 48.4186 42.8938 48.2915 42.704 48.2915Z" fill="#4988D1"/>
<path d="M45.1714 48.6092C45.1714 48.7998 45.2979 48.9269 45.4877 48.9269C45.6775 48.9269 45.804 48.7998 45.804 48.6092C45.804 48.4186 45.6775 48.2915 45.4877 48.2915C45.2979 48.2915 45.1714 48.4186 45.1714 48.6092Z" fill="#4988D1"/>
<path d="M42.2611 42.3823L42.3243 43.2084L41.6284 43.1448V44.0344L42.3243 43.9073L42.2611 44.7334H43.1468L43.0835 43.9073L43.7794 44.0344V43.1448L43.0835 43.2084L43.1468 42.3823H42.2611Z" fill="#4988D1"/>
<path d="M43.2734 45.2417V48.1011H45.9938C45.804 46.6396 44.6653 45.4959 43.2734 45.2417Z" fill="#4988D1"/>
<path d="M42.704 46.8936C42.5142 46.8936 42.3877 47.0206 42.3877 47.2113C42.3877 47.4019 42.5142 47.529 42.704 47.529C42.8938 47.529 43.0203 47.4019 43.0203 47.2113C43.0203 47.0206 42.8938 46.8936 42.704 46.8936Z" fill="#4988D1"/>
<path d="M43.843 50.5156C43.7797 50.5156 43.5266 51.2146 43.7797 51.7229C43.9062 51.9771 44.1593 52.1042 44.4123 52.0406C44.6654 51.9771 44.7287 51.7229 44.7287 51.5958C44.6654 51.024 44.2226 50.5156 43.843 50.5156Z" fill="#4988D1"/>
<path d="M41.5651 50.5156C41.1855 50.5156 40.7427 51.024 40.7427 51.5958C40.7427 51.7865 40.8059 51.9771 41.059 52.0406C41.3121 52.1042 41.5651 51.9771 41.6917 51.7229C41.8182 51.2146 41.6284 50.5156 41.5651 50.5156Z" fill="#4988D1"/>
<path d="M42.704 50.1343C42.4509 50.1343 41.6918 51.5957 42.2611 52.2947C42.3877 52.4218 42.5142 52.4853 42.704 52.4853C42.8938 52.4853 43.0836 52.4218 43.1469 52.2947C43.653 51.5957 42.9571 50.1343 42.704 50.1343Z" fill="#4988D1"/>
<path d="M39.351 48.6093C39.351 48.2916 39.4142 48.0374 39.4142 48.0374H42.1346V47.7832V45.7499V45.178C40.8061 45.4322 39.7305 46.4489 39.4142 47.7832C39.351 47.9103 39.0979 47.9739 38.9081 47.9103C37.8959 47.7832 35.8714 47.402 35.8714 46.9572C35.8714 46.3218 36.3142 46.0676 36.6938 46.0676C37.2632 46.0676 37.8959 46.3853 38.402 45.6228C36.5673 45.6864 37.9591 43.0176 36.4408 42.5093C36.504 43.2082 36.4408 44.4155 36.1877 45.0509C36.1877 45.0509 35.6183 44.4791 35.0489 44.2249C35.1122 44.7332 34.9857 45.7499 34.7959 46.2582C34.7959 46.2582 34.1632 45.6228 33.4673 45.4322C34.0999 46.3218 34.0999 47.6561 33.9101 48.4186C33.8469 48.6728 34.0367 48.927 34.4795 48.927C35.2387 48.8634 37.7693 48.9905 38.8448 49.4353C39.1612 49.5624 39.4775 49.753 39.604 50.0072C39.7305 50.3249 39.9836 50.8332 40.3632 51.0874C40.553 50.5155 41.1857 49.8801 41.6285 49.9437C41.755 49.9437 41.8816 50.1978 41.9448 50.3884C42.0081 50.1978 42.3244 49.6259 42.6408 49.6259C42.9571 49.6259 43.2734 50.0707 43.3999 50.452C43.4632 50.1978 43.5897 49.9437 43.7163 49.9437C44.1591 49.9437 44.7285 50.3249 44.9183 51.0239C45.1081 50.8332 45.8673 49.8166 45.9305 49.1176H39.351C39.351 49.1812 39.351 48.927 39.351 48.6093Z" fill="#4988D1"/>
<path d="M40.9961 48.6092C40.9961 48.7998 41.1226 48.9269 41.3124 48.9269C41.5022 48.9269 41.6287 48.7998 41.6287 48.6092C41.6287 48.4186 41.5022 48.2915 41.3124 48.2915C41.1226 48.2915 40.9961 48.4186 40.9961 48.6092Z" fill="#4988D1"/>
<path d="M39.6675 48.6092C39.6675 48.7998 39.794 48.9269 39.9838 48.9269C40.1736 48.9269 40.3001 48.7998 40.3001 48.6092C40.3001 48.4186 40.1736 48.2915 39.9838 48.2915C39.794 48.2915 39.6675 48.4186 39.6675 48.6092Z" fill="#4988D1"/>
<path d="M13.4755 50.0073C13.349 50.1344 13.0959 50.8334 13.2225 51.2782C13.2857 51.4688 13.349 51.5323 13.5388 51.5323C13.7286 51.5323 13.7919 51.4052 13.8551 51.2146C13.9184 50.7698 13.6021 50.0709 13.4755 50.0073Z" fill="#4988D1"/>
<path d="M15.8161 51.977C15.6896 52.1676 15.4998 52.2312 15.4365 52.2947C15.4998 52.3583 15.6896 52.4854 15.8794 52.4854C16.0059 52.4854 16.1324 52.4218 16.1957 52.3583C16.3855 51.977 16.1957 51.6593 16.1324 51.5322C16.0692 51.6593 16.0059 51.8499 15.8161 51.977Z" fill="#4988D1"/>
<path d="M14.9305 51.0875C15.1836 50.8334 15.2468 50.6427 15.1836 50.5157C15.1203 50.325 14.5509 49.7532 13.9182 49.0542C13.9182 49.1813 13.855 49.3084 13.855 49.4355C14.2978 50.0709 14.4876 50.7063 14.3611 51.2782C14.4244 51.3417 14.4244 51.3417 14.4876 51.3417C14.6142 51.4688 14.804 51.2782 14.9305 51.0875Z" fill="#4988D1"/>
<path d="M15.8162 51.1511C15.8162 51.0241 15.8162 50.9605 15.753 50.897H15.6897C15.6264 50.897 15.5632 51.0241 15.4999 51.0876C15.4366 51.1511 15.3734 51.2782 15.2468 51.4053C15.1203 51.5324 15.057 51.5959 14.9305 51.723C14.804 51.7866 14.7407 51.9136 14.7407 51.9772C14.7407 51.9772 14.7407 51.9772 14.7407 52.0407C14.804 52.1043 14.804 52.1043 14.8673 52.1043C14.9305 52.1043 15.1203 52.0407 15.4366 51.723C15.753 51.4053 15.8162 51.2782 15.8162 51.1511Z" fill="#4988D1"/>
<path d="M11.6407 47.7834C11.6407 47.7834 11.5774 47.8469 11.5142 47.974C11.6407 47.974 11.8305 47.974 11.957 48.0376C11.957 47.9105 11.957 47.7199 11.957 47.5928C11.8305 47.5928 11.704 47.7199 11.6407 47.7834Z" fill="#4988D1"/>
<path d="M13.349 47.9738C13.349 47.9738 14.6776 49.1175 15.1205 49.5623C15.247 49.6894 15.3735 49.6894 15.5 49.6259C15.5633 49.5623 15.6898 49.5623 15.8164 49.4988C17.1449 49.054 19.296 48.9905 20.0552 48.9905C20.5613 48.9905 20.6878 48.7363 20.6245 48.4821C20.498 47.7196 20.4347 46.3853 21.0674 45.4957C20.3715 45.7498 19.7388 46.3217 19.7388 46.3217C19.4858 45.8769 19.4225 44.7967 19.4858 44.2884C18.8531 44.479 18.347 45.1144 18.347 45.1144C18.0939 44.479 18.0307 43.2717 18.0939 42.5728C16.5756 43.0811 17.9674 45.8134 16.1327 45.6863C16.6388 46.4488 17.2715 46.1311 17.8409 46.1311C18.2205 46.1311 18.7266 46.3853 18.6633 47.0207C18.6 47.4655 16.1327 47.9738 15.1205 47.9738C14.4245 47.9738 13.9184 47.7832 13.6021 47.2748C13.4123 47.0207 13.2858 46.9571 13.096 46.9571C12.8429 47.0207 12.5898 47.2113 12.5898 47.8467C12.5898 48.228 12.7796 49.1175 13.2225 49.1175C13.4756 49.1811 13.4756 48.4186 13.349 47.9738Z" fill="#4988D1"/>
<path d="M10.8182 47.5925C10.8815 47.5925 10.9447 47.5925 11.008 47.5925C10.8182 47.8467 10.8182 48.0373 10.8815 48.1008C11.008 48.2279 11.0713 47.9738 11.3876 47.6561C11.7039 47.3383 11.8937 47.2113 11.8304 47.0842C11.7672 47.0206 11.5774 47.0206 11.3243 47.2113C11.3243 47.1477 11.3876 47.0842 11.3243 47.0206C11.1978 46.7029 10.7549 46.3217 10.4386 46.3217C10.3753 46.3217 10.3753 46.3217 10.3121 46.3217C10.4386 46.1311 10.3753 46.004 10.3121 45.8769C10.2488 45.8133 10.1855 45.8769 10.059 46.004C10.059 45.9404 10.059 45.8133 9.99574 45.6863C9.61615 45.0508 7.46513 43.0175 6.95901 42.8269C6.64268 42.6998 6.57942 42.8904 6.57942 42.8904C6.57942 42.8904 6.38962 43.0175 6.51615 43.2717C6.70595 43.78 8.7937 45.8769 9.36309 46.2581C9.48962 46.3217 9.61615 46.3852 9.67942 46.3217C9.55289 46.4488 9.48962 46.4488 9.61615 46.5758C9.67942 46.6394 9.80595 46.7029 9.99574 46.5758C9.99574 46.6394 9.99574 46.6394 9.99574 46.7029C10.1223 46.9571 10.5019 47.4654 10.8182 47.5925Z" fill="#4988D1"/>
<path d="M12.3369 49.1178C12.3369 48.9271 11.9573 48.5459 11.4512 48.5459C10.7553 48.5459 10.439 48.9907 10.439 49.2449C10.439 49.6896 10.8818 49.7532 11.0084 49.7532C11.4512 49.7532 12.2737 49.2449 12.3369 49.1178Z" fill="#4988D1"/>
<path d="M11.7042 50.198C11.5144 50.4521 11.4512 50.7063 11.5144 50.8969C11.5777 51.1511 11.8308 51.2782 12.0838 51.2782C12.3369 51.2782 12.59 51.1511 12.7165 50.9605C12.9695 50.5157 12.9695 49.5626 12.9063 49.499C12.6532 49.499 12.0206 49.7532 11.7042 50.198Z" fill="#4988D1"/>
<path d="M5.50431 40.2854C5.31452 40.0948 4.87166 40.4125 4.6186 40.2219C4.74513 39.5865 5.18799 40.2219 5.56758 39.8406C5.75737 39.65 5.63084 39.3959 5.56758 39.3323C5.37778 39.5229 5.12472 39.4594 5.06146 39.3323C5.50431 38.1886 4.6186 36.9813 3.73288 37.1084C3.92268 37.3625 3.98595 38.1886 3.85942 38.3792C4.17574 38.6334 3.98595 39.2052 3.60635 39.0146C3.35329 38.8875 2.91044 38.2521 3.41656 37.8709C3.41656 37.6802 3.10023 37.6802 2.84717 38.0615C3.03697 37.3625 1.7084 37.5531 1.45533 37.7438C1.3288 38.0615 1.13901 39.3959 1.83493 39.1417C1.45533 39.4594 1.5186 39.7771 1.64513 39.7771C2.08799 39.2688 2.65737 39.65 2.78391 39.9042C2.9737 40.2854 2.40431 40.5396 2.15125 40.2219C1.96146 40.2854 1.13901 40.2854 0.949211 40.0948C0.822681 40.9844 2.08799 41.9375 3.1635 41.4292C3.29003 41.4292 3.35329 41.7469 3.1635 41.9375C3.22676 42.0646 3.54309 42.1281 3.66962 41.9375C4.11248 41.4927 3.47982 41.0479 4.04921 40.9209C4.17574 41.175 3.92268 41.6198 4.11248 41.8104C4.4288 42.1281 4.8084 41.4927 5.25125 41.4927C5.25125 40.9844 5.82064 40.6031 5.50431 40.2854ZM2.21452 38.824C2.21452 38.824 2.02472 38.6969 2.27778 38.3792C2.53084 38.125 2.65737 38.3156 2.65737 38.3156C2.65737 38.3156 2.91044 38.824 2.9737 39.0781C2.72064 39.0781 2.21452 38.824 2.21452 38.824ZM4.23901 40.4125C4.11248 40.4125 3.79615 40.7302 3.66962 40.5396L2.9737 39.8406L3.35329 39.4594L3.73288 39.0781L4.4288 39.7771C4.49207 39.9677 4.23901 40.2854 4.23901 40.4125Z" fill="#4988D1"/>
<path d="M5.69398 41.5562C5.63071 41.5562 5.56745 41.5562 5.50418 41.6197C5.44092 41.6832 5.44092 41.8103 5.44092 41.9374C5.44092 42.0645 5.56745 42.1916 5.69398 42.3187C5.75724 42.5093 5.94704 42.5728 6.07357 42.5728C6.13684 42.5728 6.2001 42.5728 6.26337 42.5093C6.3899 42.3822 6.32663 42.0009 6.13684 41.8103C6.01031 41.6832 5.82051 41.5562 5.69398 41.5562Z" fill="#4988D1"/>
<path d="M3.66963 39.4595L3.47984 39.6501L3.29004 39.8407C3.29004 39.8407 3.66963 40.3491 3.98596 40.1584C4.17575 39.8407 3.66963 39.4595 3.66963 39.4595Z" fill="#4988D1"/>
<path d="M40.6162 37.5533C40.6162 37.6803 40.1101 37.9345 39.7305 37.2355C39.3509 37.172 38.9713 37.0449 38.7183 36.9178C39.1611 37.8074 39.5407 38.5699 40.1734 38.9512C41.1223 39.523 42.5774 39.396 43.0203 38.7605C42.1979 38.3158 41.2489 37.172 40.7428 36.0918C40.6162 36.346 40.4264 36.7908 40.2999 37.1085C40.3632 37.2355 40.4897 37.4262 40.6162 37.5533Z" fill="#4988D1"/>
<path d="M49.4104 23.6373C50.4227 23.1925 51.8778 22.1758 52.5737 21.5404C52.637 21.6675 52.89 22.2394 52.1308 22.8748C51.5614 23.3196 50.4227 23.8915 49.6002 24.2092C49.2206 24.7811 48.4614 25.4165 47.4492 26.1154C49.4737 25.7977 51.8778 24.9717 53.0798 23.8279C55.2941 21.604 54.1553 18.9352 53.839 18.2998C52.3839 20.1425 49.6002 22.0488 47.0063 23.0654C47.8921 23.1925 48.7778 23.3831 49.4104 23.6373Z" fill="#4988D1"/>
<path d="M47.7655 19.5706C49.0941 18.4904 50.4859 16.33 50.739 15.5675C51.0553 15.7581 51.1819 16.3935 50.8023 17.0925C50.1063 18.2998 48.841 19.38 47.7655 20.2696C47.7023 21.0321 47.3859 21.9852 47.0063 22.6841C48.588 21.6039 50.4227 20.0154 51.2451 18.9352C52.3206 17.5373 52.7635 16.1394 52.5737 14.7414C52.637 13.1529 51.4982 11.5644 51.0553 11.1831C50.739 12.8987 49.0308 15.8216 47.5125 17.4737C47.639 18.0456 47.7655 18.8716 47.7655 19.5706Z" fill="#4988D1"/>
<path d="M46.7531 29.6104C47.0694 29.9916 47.3858 30.4364 47.6388 30.8176C48.8409 31.0718 50.296 31.0083 50.296 31.0083C50.296 31.0083 50.2327 31.6437 49.4102 31.7072C49.0306 31.7072 47.8919 31.5166 47.449 31.3895C47.2592 31.4531 46.3735 31.7072 45.4878 31.8343C46.7531 32.2791 48.5878 32.7239 49.7266 32.7239C49.8531 32.7239 49.9164 32.7239 50.0429 32.7239C51.8776 32.5333 52.8266 30.8176 52.8898 29.8645C52.3204 29.9916 51.3715 30.0551 50.4225 30.0551C49.5368 30.0551 47.9551 29.9916 46.7531 29.6104Z" fill="#4988D1"/>
<path d="M54.408 24.7812C52.7631 25.6708 49.8529 26.5604 47.512 26.5604C48.0814 26.9417 48.6508 27.3229 49.0304 27.7042C49.9794 27.6406 51.308 27.3229 52.0672 27.0687C52.0672 27.1958 52.0672 27.8313 51.1814 28.0854C50.5488 28.276 49.6631 28.276 48.9672 28.276C48.3978 28.6573 47.5753 28.975 46.8794 29.2292C47.512 29.2927 48.3345 29.3563 49.0304 29.3563C50.2325 29.3563 51.3712 29.2292 52.0672 28.975C52.6998 28.7844 54.7876 27.8948 54.408 24.7812Z" fill="#4988D1"/>
<path d="M45.5511 33.5501C46.247 33.8678 47.0062 34.122 47.6388 34.1855C47.6388 34.1855 47.5123 34.821 46.5633 34.6939C45.9939 34.6303 45.3613 34.1855 45.2347 34.122C44.7919 34.1855 43.9062 34.1855 43.5898 34.122C44.6654 34.8845 46.3103 35.7741 47.7021 35.9012C47.7654 35.9012 47.8286 35.9012 47.8919 35.9012C49.347 35.9012 50.4858 34.4397 50.8021 33.7408C49.347 33.7408 46.8164 33.1053 45.298 32.2793C45.3613 32.5335 45.4878 33.0418 45.5511 33.5501Z" fill="#4988D1"/>
<path d="M43.0203 35.5197C43.3999 35.9645 44.0325 36.2187 44.0325 36.2187C44.0325 36.2187 43.8428 36.5364 43.4632 36.5364C43.3366 36.5364 43.2101 36.4729 43.0836 36.4093C42.8305 36.2822 42.4509 35.8374 42.4509 35.8374C41.9448 35.7739 41.5019 35.7104 41.0591 35.5833C41.8183 36.5364 43.0836 37.7437 44.4754 38.0614C44.6652 38.1249 44.855 38.1249 45.1081 38.1249C46.3101 38.1249 47.3223 37.2354 47.5754 36.6635C46.1836 36.4729 44.1591 35.3926 43.1468 34.376C43.1468 34.7572 43.0836 35.202 43.0203 35.5197Z" fill="#4988D1"/>
<path d="M33.9737 51.0873C34.6696 51.0873 35.1125 50.8331 35.4288 50.1342C34.4798 50.579 33.4676 50.3248 31.5696 49.7529C31.5696 49.7529 30.8737 50.0706 30.4308 50.1342C31.5696 50.4519 33.2145 51.0238 33.4676 51.6592C33.5941 52.1675 33.2778 52.2946 33.2778 52.2946C32.6451 51.5321 31.8859 51.0873 30.241 50.579C30.241 50.8967 30.1778 51.0873 30.1778 51.0873C30.1778 51.0873 29.8615 51.1508 29.1023 51.0238C29.7349 51.5321 31.2533 52.8665 31.4431 54.2644C31.5696 55.2175 30.8737 55.2811 30.8737 55.2811C30.8104 53.8196 30.1778 52.93 28.7859 51.4686C28.7859 51.4686 28.5329 51.7863 28.2798 51.9769C28.2798 51.9769 27.7737 51.9133 27.3941 51.5956C27.5839 53.5019 27.6472 58.0769 27.5206 58.7758C27.4574 59.2842 27.141 59.5383 27.141 59.5383C27.141 59.5383 26.8247 59.3477 26.7615 58.7758C26.6349 58.0133 26.7615 53.4383 26.888 51.5956C26.4451 51.8498 26.0023 51.9769 26.0023 51.9769C25.6859 51.7863 25.4961 51.4686 25.4961 51.4686C24.1676 52.93 23.5349 53.8831 23.4084 55.2811C23.4084 55.2811 22.7757 55.2175 22.839 54.2644C23.0288 52.8665 24.5472 51.5321 25.1798 51.0238C24.4839 51.1508 24.1043 51.0873 24.1043 51.0873C24.1043 51.0873 24.041 50.8967 24.041 50.579C22.3961 51.0873 21.7002 51.5321 21.0043 52.2946C21.0043 52.2946 20.688 52.2311 20.8145 51.6592C21.0676 51.0238 22.7125 50.5154 23.8512 50.1342C23.4717 50.0706 22.7125 49.7529 22.7125 49.7529C20.8778 50.3248 19.8023 50.579 18.8533 50.1342C19.1064 50.8331 19.6125 51.0873 20.3084 51.0873C19.4227 51.405 18.6002 52.2946 18.3472 53.1842C18.9798 55.5352 21.0043 56.2342 21.0043 56.2342C20.4982 55.0904 20.688 52.8665 23.7247 51.3415C21.89 53.1842 21.1308 54.8998 21.637 56.4883C22.0798 57.9498 23.5982 58.5217 24.6737 58.5852C23.9145 56.1706 24.2308 53.9467 25.8757 52.2311C25.1798 54.1373 24.1676 60.0467 27.0145 60.9998C29.8615 60.0467 28.8492 54.1373 28.1533 52.2311C29.7982 54.0102 30.1145 56.1706 29.3553 58.5852C30.4941 58.5852 31.9492 57.9498 32.3921 56.4883C32.8982 54.8998 32.2023 53.1842 30.3043 51.3415C33.341 52.8665 33.5308 55.154 33.0247 56.2342C33.0247 56.2342 35.0492 55.5352 35.6819 53.1842C35.6819 52.2946 34.7961 51.4686 33.9737 51.0873Z" fill="#4988D1"/>
<path d="M14.3611 38.9512C14.9938 38.5699 15.3733 37.8074 15.8162 36.9178C15.5631 37.0449 15.1835 37.172 14.804 37.2355C14.4244 37.9345 13.9182 37.6803 13.9182 37.5533C14.0448 37.4262 14.1713 37.2355 14.2346 37.1085C14.108 36.7908 13.9182 36.346 13.7917 36.0918C13.2856 37.2355 12.2733 38.3158 11.5142 38.7605C11.957 39.396 13.4121 39.523 14.3611 38.9512Z" fill="#4988D1"/>
<path d="M7.0224 26.1159C5.94689 25.4169 5.25098 24.7815 4.87138 24.2096C3.98567 23.8919 2.84689 23.32 2.34077 22.8752C1.58159 22.2398 1.83465 21.6679 1.89791 21.5409C2.53057 22.2398 3.98567 23.1929 5.06118 23.6377C5.69383 23.3836 6.57955 23.1929 7.46526 23.0659C4.87138 22.1127 2.08771 20.1429 0.632608 18.3638C0.316282 18.9356 -0.885759 21.6679 1.39179 23.8919C2.53057 24.9721 4.99791 25.7981 7.0224 26.1159Z" fill="#4988D1"/>
<path d="M7.46524 22.6207C7.08565 21.9217 6.76932 21.0321 6.70606 20.2061C5.63055 19.38 4.42851 18.2998 3.66932 17.029C3.28973 16.33 3.41626 15.6946 3.73259 15.504C3.98565 16.2665 5.37749 18.4269 6.70606 19.5071C6.70606 18.8082 6.83259 17.9821 7.02239 17.4103C5.50402 15.7582 3.73259 12.8353 3.47953 11.1196C3.03667 11.5009 1.8979 13.0894 1.96116 14.678C1.77137 16.0759 2.21422 17.4738 3.28973 18.8717C4.04892 19.9519 5.88361 21.604 7.46524 22.6207Z" fill="#4988D1"/>
<path d="M6.83278 30.8176C7.02257 30.4364 7.40216 29.9916 7.71849 29.6104C6.51645 29.9281 4.93482 29.9916 4.11237 29.9916C3.10012 29.9916 2.15114 29.9281 1.64502 29.801C1.70828 30.8176 2.65726 32.5333 4.49196 32.6604C4.61849 32.6604 4.68175 32.6604 4.80828 32.6604C5.94706 32.6604 7.78175 32.2156 9.04706 31.7708C8.16135 31.6437 7.27563 31.4531 7.08584 31.326C6.57971 31.5801 5.44094 31.7708 5.06135 31.7072C4.2389 31.6437 4.17563 31.0083 4.17563 31.0083C4.17563 31.0083 5.63073 31.0718 6.83278 30.8176Z" fill="#4988D1"/>
<path d="M2.40417 29.0385C3.10008 29.2926 4.17559 29.4197 5.4409 29.4197C6.20009 29.4197 6.95927 29.3562 7.59192 29.2926C6.896 29.0385 6.07355 28.7208 5.50417 28.3395C4.80825 28.3395 3.85927 28.276 3.28988 28.1489C2.40417 27.8947 2.40417 27.2593 2.40417 27.1322C3.16335 27.4499 4.49192 27.7676 5.4409 27.7676C5.82049 27.4499 6.32662 27.0051 6.95927 26.6239C4.68172 26.6239 1.70825 25.7343 0.0633497 24.8447C-0.316242 27.8947 1.77151 28.7843 2.40417 29.0385Z" fill="#4988D1"/>
<path d="M6.64263 35.8373C6.70589 35.8373 6.76916 35.8373 6.83242 35.8373C8.22426 35.7102 9.86916 34.8206 10.9447 34.0581C10.6283 34.1216 9.67936 34.1216 9.29977 34.0581C9.17324 34.1852 8.47732 34.5664 7.9712 34.63C6.95895 34.7571 6.89569 34.1216 6.89569 34.1216C7.52834 34.0581 8.28752 33.8039 8.98344 33.4862C9.04671 32.9779 9.17324 32.4696 9.29977 32.1519C7.71814 33.0414 5.18752 33.6769 3.73242 33.6769C4.04875 34.3758 5.18752 35.8373 6.64263 35.8373Z" fill="#4988D1"/>
<path d="M9.36334 38.1249C9.55314 38.1249 9.8062 38.1249 9.996 38.0614C11.3246 37.7437 12.6531 36.5364 13.4123 35.5833C12.9695 35.7104 12.5266 35.8374 12.0205 35.8374C12.0205 35.8374 11.7042 36.2187 11.3878 36.4093C11.2613 36.4729 11.1348 36.5364 11.0082 36.5364C10.6286 36.5364 10.4389 36.2187 10.4389 36.2187C10.4389 36.2187 11.0715 35.901 11.4511 35.5197C11.3878 35.202 11.3246 34.7572 11.3246 34.376C10.2491 35.4562 8.28783 36.4729 6.896 36.6635C7.14906 37.2354 8.09804 38.1249 9.36334 38.1249Z" fill="#4988D1"/>
<path d="M26.6978 3.36774C26.6978 3.68545 26.9508 3.87608 27.2039 3.87608C27.4569 3.87608 27.71 3.62191 27.71 3.36774C27.71 3.05004 27.4569 2.85941 27.2039 2.85941C26.9508 2.79587 26.6978 3.05004 26.6978 3.36774Z" fill="#4988D1"/>
<path d="M26.8878 2.22396H27.5837L27.5205 1.33437L28.2796 1.46146V0.7625L27.5205 0.826042L27.5837 0H26.8878L26.9511 0.826042L26.1919 0.7625V1.46146L26.9511 1.33437L26.8878 2.22396Z" fill="#4988D1"/>
<path d="M24.4203 10.6112C24.4836 10.6112 24.6101 10.6748 24.6734 10.6748H29.7346C29.8611 10.6748 29.9244 10.6748 29.9877 10.6112C30.1775 10.5477 30.2407 10.4206 30.304 10.23H24.104C24.1673 10.4841 24.2938 10.5477 24.4203 10.6112Z" fill="#4988D1"/>
<path d="M29.9878 9.84915C30.051 9.84915 30.051 9.78561 30.051 9.78561V9.40436C30.051 9.34082 29.9878 9.34082 29.9878 9.34082H24.4837C24.4204 9.34082 24.4204 9.40436 24.4204 9.40436V9.78561C24.4204 9.84915 24.4837 9.84915 24.4837 9.84915H29.9878Z" fill="#4988D1"/>
<path d="M30.5574 8.89564C30.6839 8.70501 31.3798 7.37064 31.3798 5.97272C31.3798 4.70189 29.7982 4.00293 28.9125 4.00293C28.786 5.7821 28.09 8.57793 27.2043 8.57793C26.3819 8.57793 25.6227 5.7821 25.4962 4.00293C24.5472 4.00293 23.0288 4.70189 23.0288 5.97272C23.0288 7.37064 23.7247 8.76855 23.8513 8.89564H30.5574Z" fill="#4988D1"/>
<path d="M27.2042 7.68851C27.6471 7.68851 28.1532 6.35413 28.343 5.01976C28.343 4.76559 27.9001 4.38434 27.2042 4.3208C26.5083 4.3208 26.0654 4.70205 26.0654 5.01976C26.2552 6.22705 26.8246 7.68851 27.2042 7.68851Z" fill="#4988D1"/>
<path d="M35.2385 28.5301C35.2385 28.3395 35.112 28.2124 34.9222 28.2124H19.5487C19.359 28.2124 19.2324 28.3395 19.2324 28.5301V39.1416V39.2051V39.2687C19.2324 39.2687 19.2324 39.8405 19.4855 40.4759C19.8018 41.2384 21.1304 42.5093 22.7753 43.3989C25.1161 44.6062 26.5079 45.5593 27.2039 46.1312C27.8998 45.5593 29.2916 44.6062 31.6324 43.3989C33.3406 42.5093 34.6059 41.2384 34.9222 40.4759C35.2385 39.777 35.1753 39.2687 35.1753 39.2687L35.2385 28.5301ZM30.0508 32.4062V32.4697C30.2406 33.2322 30.4304 34.0582 30.4936 34.8207C31.1263 35.3291 31.6957 35.8374 32.2018 36.3457C33.1508 35.2655 33.6569 34.2489 33.6569 33.4228C33.2141 33.4228 32.8345 33.0416 32.8345 32.5968C32.8345 32.4062 32.8977 32.2791 32.961 32.152C32.5181 31.9614 32.012 31.8978 31.5692 31.8978C31.1896 31.8978 30.81 31.9614 30.3671 32.0249H30.3039L30.1773 32.0884L30.2406 32.0249C30.3039 31.8978 30.3039 31.8343 30.3671 31.7072C31.6324 31.453 32.6447 31.5801 33.2773 31.9614C33.4039 31.8978 33.5304 31.8343 33.6569 31.8343C34.0998 31.8343 34.4794 32.2155 34.4794 32.6603C34.4794 32.978 34.2896 33.2322 34.0365 33.3593C34.0365 34.2489 33.5304 35.3926 32.4549 36.6634C32.5181 36.727 32.5814 36.7905 32.6447 36.8541C32.7079 36.9176 32.7079 36.9176 32.7712 36.9812V37.0447C32.7079 37.1082 32.6447 37.1718 32.5814 37.2353H32.5181C32.5181 37.2353 32.5181 37.2353 32.4549 37.2353C32.3916 37.1718 32.3916 37.1718 32.3916 37.1082C32.3283 37.0447 32.3283 36.9812 32.2651 36.9176C32.1385 37.0447 32.012 37.1718 31.8855 37.2989L31.759 37.4895C31.5692 37.6166 31.3794 37.6801 31.2528 37.6166H31.1896L31.2528 37.553C31.5692 37.2989 31.8222 36.9812 32.0753 36.7905C31.6957 36.3457 31.1896 35.9009 30.6834 35.4562C30.7467 35.9009 30.7467 36.3457 30.7467 36.7905C30.7467 37.1718 30.7467 37.6166 30.6834 38.0614C30.6202 38.1249 30.4936 38.1884 30.4304 38.252L30.3671 38.3155V38.252C30.4304 37.7437 30.4304 37.2353 30.4304 36.7905C30.4304 36.6634 30.4304 36.4728 30.4304 36.3457V36.2187C30.4304 35.9009 30.3671 35.0114 30.3039 34.4395C30.2406 33.9312 30.1141 33.4228 29.9875 32.9145V32.8509C30.0508 32.7874 30.1141 32.7239 30.1773 32.6603L30.0508 32.4062ZM24.863 31.2624C25.4957 29.7374 26.3814 28.9114 27.2671 28.9114C28.1528 28.9114 29.0385 29.7374 29.6712 31.2624V31.3259H29.6079C29.5447 31.3259 29.4814 31.3895 29.3549 31.453H29.2916V31.3895C28.7222 30.0551 27.963 29.2926 27.2039 29.2926C26.4447 29.2926 25.6855 30.0551 25.1161 31.3895V31.453H25.0528C24.9896 31.3259 24.863 31.3259 24.863 31.2624ZM24.61 31.6437C24.7998 31.7707 25.3692 32.0884 26.0018 31.8978C26.5712 31.7072 27.2039 31.7072 27.2039 31.7072C27.2039 31.7072 27.8998 31.7072 28.4059 31.8978C29.0385 32.0884 29.6079 31.7707 29.7977 31.6437C29.861 31.6437 29.861 31.6437 29.861 31.7072C29.7977 31.9614 29.6079 32.5968 28.659 32.8509C27.7732 33.0416 27.3304 34.0582 27.2039 34.503C27.2039 34.5666 27.1406 34.5666 27.0773 34.503C26.9508 34.0582 26.5079 33.0416 25.6222 32.8509C24.6732 32.6603 24.4834 31.9614 24.4202 31.7072C24.5467 31.6437 24.61 31.6437 24.61 31.6437ZM26.1283 34.1853C26.2549 34.1853 26.4447 34.1218 26.5712 34.0582C26.6345 34.1853 26.6977 34.3759 26.761 34.503C26.5712 34.6301 26.3814 34.6937 26.1283 34.6937C25.4324 34.6937 24.9263 34.1218 24.9263 33.4864C24.9263 33.2957 24.9896 33.1687 25.0528 33.0416C25.1794 33.1051 25.3059 33.1687 25.4957 33.2322C25.4324 33.2957 25.4324 33.4228 25.4324 33.4864C25.3692 33.8676 25.7487 34.1853 26.1283 34.1853ZM25.812 33.4228C25.812 33.3593 25.812 33.3593 25.812 33.2957C26.0018 33.3593 26.1916 33.5499 26.3181 33.677C26.2549 33.7405 26.1916 33.7405 26.1283 33.7405C25.9385 33.7405 25.812 33.6134 25.812 33.4228ZM26.1283 35.0749C26.3814 35.0749 26.6977 35.0114 26.9508 34.8207C27.0141 34.8843 27.1406 35.1384 27.2039 35.1384C27.3304 35.1384 27.3936 34.8843 27.4569 34.8207C27.71 34.9478 28.0263 35.0749 28.2794 35.0749C28.7222 35.0749 29.1018 34.8843 29.4181 34.6301C29.4181 34.6301 29.4181 34.6301 29.4181 34.6937C29.5447 35.202 29.6079 35.8374 29.5447 36.0916C29.5447 36.3457 29.4181 36.5999 29.3549 36.8541C29.2283 37.1718 29.1651 37.4259 29.1651 37.4259C29.1651 37.4259 29.1651 37.4895 29.1018 37.6166C29.0385 37.8707 28.8488 38.3155 28.5957 38.7603C28.0896 38.4426 27.5834 38.3155 26.9508 38.3155C26.3814 38.3155 25.8753 38.4426 25.4324 38.6968C25.2426 38.252 25.0528 37.8707 24.9896 37.6801C24.9263 37.553 24.9263 37.4895 24.9263 37.4895C24.9263 37.4895 24.7998 37.2353 24.6732 36.8541C24.61 36.6634 24.5467 36.4093 24.5467 36.1551C24.5467 35.9645 24.4834 35.3291 24.6732 34.7572C24.6732 34.6937 24.7365 34.6301 24.7365 34.5666C25.1794 34.8207 25.6855 35.0749 26.1283 35.0749ZM28.3426 34.1853C28.7855 34.1853 29.1018 33.8676 29.1018 33.4228C29.1018 33.2957 29.1018 33.2322 29.0385 33.1687C29.1651 33.1051 29.3549 33.0416 29.4814 32.978C29.5447 33.1051 29.6079 33.2957 29.6079 33.4228C29.6079 34.1218 29.0385 34.6301 28.4059 34.6301C28.1528 34.6301 27.963 34.5666 27.7732 34.4395C27.8365 34.3124 27.8998 34.1853 27.963 33.9947C28.0263 34.1218 28.2161 34.1853 28.3426 34.1853ZM28.1528 33.677C28.2794 33.4864 28.4692 33.3593 28.659 33.2957C28.659 33.3593 28.659 33.3593 28.659 33.4228C28.659 33.6134 28.5324 33.7405 28.3426 33.7405C28.2794 33.7405 28.2161 33.7405 28.1528 33.677ZM20.8141 31.8978C21.0039 31.8978 21.1304 31.9614 21.2569 32.0249C21.6998 31.7707 22.2059 31.6437 22.9018 31.6437C23.2814 31.6437 23.661 31.7072 24.1039 31.7707H24.1671C24.1671 31.8343 24.2304 31.9614 24.2936 32.0884L24.3569 32.152L24.2304 32.0884C24.1671 32.0884 24.1671 32.0884 24.1039 32.0884C23.7243 32.0249 23.3447 31.9614 22.9651 31.9614C22.5222 31.9614 21.9528 32.0249 21.5732 32.2791C21.6365 32.4062 21.6998 32.5332 21.6998 32.7239C21.6998 33.1687 21.3202 33.5499 20.8773 33.5499C20.8773 34.3124 21.3834 35.3291 22.3324 36.4728C22.8385 35.9645 23.4079 35.3926 24.0406 34.9478C24.1039 34.1853 24.2936 33.3593 24.4834 32.5968V32.5332L24.5467 32.5968C24.61 32.6603 24.6732 32.7239 24.7365 32.7874C24.7365 32.7874 24.7365 32.7874 24.7998 32.8509V32.9145C24.6732 33.4228 24.5467 33.8676 24.4834 34.3759V34.4395C24.4202 34.8207 24.3569 35.3291 24.3569 35.8374C24.3569 36.2187 24.2936 36.5364 24.2936 36.7905C24.2936 37.1718 24.2936 37.553 24.3569 38.0614V38.1249H24.2936C24.1671 38.0614 24.1039 38.0614 24.0406 38.0614H23.9773V37.9978C23.9773 37.6801 23.9141 37.2353 23.9141 36.7905C23.9141 36.3457 23.9141 35.9009 23.9773 35.4562C23.4712 35.9009 22.9651 36.3457 22.5855 36.7905C22.9018 37.1718 23.3447 37.553 23.8508 37.9978L23.9141 38.0614H23.8508C23.7243 38.1249 23.5345 38.1249 23.4079 38.0614C23.0283 37.6801 22.712 37.4259 22.3957 37.1082C22.3324 37.1718 22.2692 37.2353 22.2692 37.2989L22.2059 37.3624C22.1426 37.3624 22.0794 37.4259 21.9528 37.4895L21.8896 37.4259C21.8896 37.4259 21.8263 37.4259 21.8263 37.3624H21.763V37.2989C21.8896 37.1082 22.0161 36.9812 22.1426 36.8541C21.0671 35.6468 20.561 34.503 20.561 33.6134C20.3079 33.4864 20.1181 33.2322 20.1181 32.9145C19.9916 32.2791 20.3712 31.8978 20.8141 31.8978ZM29.7977 41.7468C29.3549 43.0176 28.7222 43.9072 28.0263 44.2884C27.963 44.6697 27.6467 44.9874 27.2671 44.9874C26.8875 44.9874 26.5712 44.6697 26.5079 44.2884C25.812 43.9072 25.1794 43.0812 24.7365 41.8103V41.7468L25.1161 41.6197V41.6832C25.4957 42.7634 26.0018 43.5259 26.5712 43.9072C26.6977 43.5895 26.9508 43.3353 27.3304 43.3353C27.71 43.3353 27.963 43.5895 28.0896 43.8437C28.659 43.4624 29.1651 42.6999 29.5447 41.6832V41.6197H29.6079C29.6079 41.6832 29.6712 41.6832 29.7977 41.7468ZM26.5712 41.6832C26.5712 41.4291 26.6345 40.7301 26.761 40.4759C26.8875 40.4124 27.0773 40.3489 27.2671 40.3489C27.4569 40.3489 27.6467 40.4124 27.8365 40.5395C27.8998 40.7937 28.0263 41.4291 28.0263 41.6832C28.0263 41.9374 27.3936 42.128 27.3304 42.1916C27.1406 42.128 26.5712 42.0009 26.5712 41.6832ZM34.6692 39.1416C34.6059 39.2051 34.5426 39.2687 34.4794 39.2687C34.4161 39.2687 34.3528 39.3322 34.2263 39.3322H34.163C34.0365 39.3322 33.91 39.3322 33.8467 39.2687C33.7834 39.2687 33.7834 39.2051 33.7202 39.2051C33.5304 39.2051 33.0875 39.3322 32.961 39.3957C33.0243 39.3957 33.5936 39.4593 33.9732 39.777C34.163 39.9041 34.5426 39.9676 34.6692 39.9676C34.6692 40.0312 34.0365 40.4759 32.8345 40.2218L32.5181 40.1582C31.9488 40.0312 31.4426 39.9676 30.8732 39.9676C30.9365 39.9676 30.9998 40.0312 30.9998 40.0312C31.1263 40.0947 31.3161 40.1582 31.4426 40.2218C31.4426 40.2218 31.5059 40.2218 31.5059 40.2853H31.5692C31.6324 40.2853 31.6957 40.2853 31.6957 40.3489C31.759 40.3489 31.8222 40.4124 31.8855 40.4124C31.9488 40.4759 32.0753 40.5395 32.0753 40.603C32.0753 40.6666 32.1385 40.6666 32.1385 40.7301C32.1385 40.8572 32.1385 40.9207 32.0753 41.0478C31.8855 41.302 31.6324 41.302 31.3794 41.0478L31.3161 40.9843C31.2528 40.9207 31.1896 40.8572 31.1263 40.7301V40.6666C31.1263 40.6666 31.1263 40.6666 31.063 40.6666C30.9365 40.603 30.8732 40.4759 30.7467 40.4759C30.5569 40.4124 30.3039 40.3489 30.1141 40.2853C30.0508 40.2853 29.9875 40.2853 29.9243 40.2853C30.1141 40.4124 30.3039 40.5395 30.3671 40.6666C30.3671 40.6666 30.3671 40.6666 30.3671 40.7301C30.4936 40.9207 30.4936 41.1114 30.5569 41.302C30.7467 41.6832 30.81 41.7468 30.9998 41.8739C30.81 41.9374 29.861 41.9374 29.4181 41.2384C29.4181 41.2384 29.3549 41.1749 29.3549 41.1114C29.2283 40.8572 29.1651 40.603 29.1018 40.4124C29.0385 40.2218 29.1651 40.0312 29.0385 39.9676C28.912 39.9041 28.8487 39.9676 28.8487 39.9676C28.7855 40.0312 28.7855 40.0312 28.7855 40.0312V40.0947C28.7855 40.1582 28.7222 40.1582 28.7222 40.1582V40.2218C28.7222 40.2218 28.7222 40.2853 28.659 40.2853C28.659 40.2853 28.659 40.2853 28.5957 40.2853C28.5324 40.2853 28.5324 40.2853 28.4692 40.2853C28.4692 40.2853 28.4692 40.2853 28.4059 40.2853C28.4059 40.2853 28.3426 40.2853 28.3426 40.3489C28.2794 40.3489 28.2161 40.4124 28.1528 40.4124C28.0896 40.4124 28.0263 40.3489 28.0263 40.2853C28.0263 40.2218 28.0263 40.2218 28.0263 40.1582C27.963 40.1582 27.963 40.1582 27.8998 40.1582C27.8365 40.1582 27.8365 40.1582 27.7732 40.0947C27.7732 40.0312 27.7732 39.9676 27.7732 39.9676C27.7732 39.9041 27.7732 39.9041 27.7732 39.9041C27.71 39.9676 27.71 39.9676 27.6467 39.9676C27.5834 39.9676 27.5834 39.9676 27.5202 39.9676C27.4569 39.9676 27.4569 39.9041 27.4569 39.8405V39.777C27.4569 39.777 27.4569 39.777 27.4569 39.7134C27.4569 39.7134 27.4569 39.7134 27.3936 39.7134H27.3304C27.2671 39.7134 27.1406 39.6499 27.0773 39.6499C27.0773 39.6499 27.0773 39.6499 27.0141 39.6499C26.9508 39.6499 26.8243 39.7134 26.761 39.7134H26.6977H26.6345C26.6345 39.7134 26.6345 39.7134 26.6345 39.6499C26.6345 39.6499 26.6345 39.6499 26.6345 39.5864L26.6977 39.5228C26.6977 39.5228 26.6977 39.5228 26.6977 39.4593C26.6345 39.4593 26.6345 39.4593 26.5712 39.4593V39.5228C26.5712 39.5228 26.5712 39.5228 26.5079 39.5228V39.5864V39.6499C26.5079 39.7134 26.5079 39.777 26.4447 39.777C26.3814 39.8405 26.3814 39.8405 26.3181 39.777C26.3181 39.777 26.2549 39.777 26.2549 39.7134C26.2549 39.7134 26.1916 39.7134 26.1916 39.6499C26.1916 39.6499 26.1916 39.7134 26.2549 39.7134C26.2549 39.777 26.2549 39.777 26.2549 39.8405C26.1916 39.9041 26.1916 39.9041 26.1283 39.9041H26.0651H26.0018C26.0018 39.9676 26.0651 39.9676 26.0018 40.0312C26.0018 40.0947 25.9385 40.0947 25.8753 40.0947C25.812 40.0947 25.812 40.0947 25.7487 40.0947C25.7487 40.0947 25.7487 40.0947 25.6855 40.0947H25.6222L25.559 40.0312C25.559 40.0312 25.4957 40.0312 25.4324 40.0312C25.4324 40.0312 25.3692 40.0312 25.3692 39.9676L25.3059 39.9041V39.8405C25.1794 39.7134 24.9896 40.1582 24.9896 40.1582C24.4202 41.3655 23.0283 41.6197 23.0283 41.5562C23.0283 41.5562 23.3447 41.4291 23.4712 40.9843C23.5345 40.7301 23.5345 40.6666 23.661 40.4124C23.661 40.3489 23.7243 40.3489 23.7243 40.2853C23.7875 40.1582 23.9773 40.0947 24.1039 39.9676C24.0406 39.9676 23.9773 39.9676 23.9141 39.9676C23.7243 40.0312 23.5345 40.0312 23.2814 40.1582C23.1549 40.2218 23.0916 40.2853 22.9651 40.3489C22.9651 40.3489 22.9651 40.3489 22.9018 40.3489V40.4124C22.9018 40.4759 22.8385 40.5395 22.7753 40.6666L22.712 40.7301C22.459 40.9843 22.2692 40.9843 22.0161 40.7301L21.9528 40.6666C21.8896 40.603 21.8896 40.4759 21.9528 40.4124C21.9528 40.3489 22.0161 40.2853 22.0794 40.2218C22.1426 40.1582 22.2059 40.1582 22.2692 40.0947C22.3324 40.0312 22.3957 40.0312 22.459 40.0312C22.5222 40.0312 22.5222 40.0312 22.5855 39.9676C22.5855 39.9676 22.6487 39.9676 22.712 39.9676C22.712 39.9676 22.712 39.9041 22.7753 39.9041C22.8385 39.9041 22.9018 39.8405 22.9651 39.8405C23.0283 39.8405 23.0916 39.777 23.1549 39.777C23.1549 39.777 23.2181 39.777 23.2814 39.7134C22.7753 39.7134 22.2692 39.777 21.6998 39.9041C21.6365 39.9041 21.51 39.9676 21.3834 39.9676C20.7508 40.0947 19.5487 39.777 19.5487 39.7134C19.5487 39.6499 19.8651 39.6499 20.1814 39.4593C20.4345 39.3322 20.561 39.2051 20.7508 39.1416C21.0671 39.3957 21.4467 39.3957 21.51 39.3957C21.3834 39.3322 20.8141 39.2687 20.6243 39.2051C20.6243 39.2051 20.561 39.2687 20.4977 39.2687C20.3712 39.3322 20.2447 39.3322 20.1181 39.3322C20.0549 39.3322 19.9283 39.3322 19.8651 39.2687C19.8018 39.2687 19.7385 39.2051 19.6753 39.1416C19.612 39.078 19.612 39.0145 19.612 38.8239C19.6753 38.5697 19.9283 38.4426 20.2447 38.5062C20.4345 38.5697 20.561 38.6332 20.6243 38.6968L20.6875 38.7603C20.8773 38.7603 21.1304 38.8874 21.3834 38.9509C21.6365 39.078 21.8263 39.1416 21.9528 39.1416C21.8896 39.1416 21.8263 39.078 21.763 39.078C21.6998 39.078 21.6365 39.0145 21.6365 39.0145C21.5732 38.9509 21.51 38.9509 21.4467 38.8874C21.0671 38.6968 20.6875 38.5062 20.4345 38.252C20.2447 37.9978 20.1814 37.8707 20.1181 37.6166C20.0549 37.0447 19.8018 36.7905 19.8018 36.727C19.8651 36.6634 20.7508 37.1082 21.0671 37.4259C21.2569 37.6801 21.3202 37.8707 21.3834 38.0614V38.1249C21.4467 38.3155 21.6365 38.5062 21.9528 38.6968C22.0161 38.6968 22.0161 38.7603 22.0794 38.7603C22.0161 38.6332 21.9528 38.5697 21.8896 38.4426V38.3791L21.8263 38.3155C21.8263 38.3155 21.763 38.252 21.763 38.1884C21.6998 38.1249 21.6998 38.0614 21.6365 37.9978C21.5732 37.8072 21.5732 37.6166 21.6365 37.553C21.6998 37.4895 21.763 37.4259 21.8896 37.3624C22.1426 37.2989 22.3324 37.4259 22.3957 37.8072C22.3957 37.8707 22.3957 37.9343 22.3957 37.9978C22.3957 38.0614 22.3957 38.1249 22.3957 38.1884V38.252C22.3957 38.252 22.3957 38.252 22.3957 38.3155C22.5222 38.6968 22.8385 39.0145 23.2181 39.2687C22.7753 38.8874 22.5222 37.9978 22.5855 37.9978C22.6487 37.9343 23.0283 38.1884 23.4079 38.3791C23.5977 38.4426 23.7875 38.5697 23.9773 38.6968C24.1039 38.7603 24.2304 38.8874 24.2936 38.9509C24.4202 39.0145 24.4834 39.1416 24.5467 39.2051C24.61 39.2687 24.6732 39.3322 24.7365 39.3957C24.7998 39.4593 24.7998 39.4593 24.863 39.5228C24.9896 39.5864 25.1794 39.5228 25.1794 39.5228C25.2426 39.5228 25.3059 39.5228 25.3692 39.4593C25.3692 39.4593 25.3692 39.4593 25.4324 39.3957C25.4957 39.3322 25.559 39.3322 25.6222 39.3322V39.2687C25.6222 39.1416 25.6855 39.078 25.812 39.0145C25.812 39.0145 25.8753 39.0145 25.8753 38.9509H25.9385H26.0018H26.0651C26.0651 38.8874 26.1283 38.8874 26.1916 38.8239C26.3181 38.7603 26.5079 38.7603 26.6345 38.8874C26.6977 38.9509 26.6977 39.0145 26.761 39.078V39.1416C26.761 39.2051 26.761 39.2051 26.761 39.2687C26.761 39.3322 26.761 39.3322 26.761 39.3957C26.8243 39.3957 26.9508 39.3957 27.0141 39.3957C27.0773 39.3957 27.0773 39.3957 27.1406 39.3957C27.2039 39.3957 27.2671 39.3957 27.3304 39.4593C27.3936 39.4593 27.4569 39.3957 27.5202 39.3957C27.5834 39.3957 27.5834 39.3957 27.6467 39.3957H27.71C27.71 39.3322 27.71 39.2687 27.71 39.2051C27.71 39.1416 27.71 39.078 27.7732 39.0145C27.7732 39.0145 27.7732 38.9509 27.8365 38.9509L27.8998 38.8874C28.0263 38.8239 28.1528 38.8239 28.2794 38.8874C28.3426 38.8874 28.3426 38.9509 28.4059 39.0145C28.4692 39.0145 28.4692 39.0145 28.5324 39.0145H28.5957H28.659C28.7855 39.078 28.8487 39.1416 28.8487 39.2687C28.8487 39.2687 28.8488 39.2687 28.912 39.2687H28.9753C28.9753 39.2687 29.2916 39.2687 29.3549 39.3322H29.6712C29.7345 39.2687 29.7345 39.2687 29.7977 39.2051C29.861 39.1416 29.9875 39.0145 30.0508 38.9509C30.1773 38.8874 30.2406 38.7603 30.3671 38.6968C30.5569 38.5697 30.81 38.5062 30.9998 38.4426C31.6324 38.1884 31.6957 37.8072 31.759 37.8072C31.8222 37.8707 31.6324 38.8874 31.1896 39.2687C31.5059 39.0145 31.8222 38.6968 32.012 38.3155C32.012 38.3155 32.012 38.3155 32.012 38.252V38.1884C32.012 38.1249 32.012 38.0614 32.012 37.9978C32.012 37.9343 32.012 37.8707 32.012 37.8072C32.1385 37.4895 32.2651 37.2989 32.5181 37.3624C32.6447 37.4259 32.7079 37.4895 32.7712 37.553C32.8345 37.6801 32.8345 37.8072 32.7712 37.9978C32.7712 38.0614 32.7079 38.1249 32.6447 38.1884C32.5814 38.252 32.5814 38.252 32.5181 38.3155L32.4549 38.3791V38.4426C32.3916 38.5697 32.3283 38.6332 32.2018 38.7603C32.2651 38.6968 32.2651 38.6968 32.3283 38.6332C32.6447 38.3791 32.8345 38.1884 32.8977 37.9978C32.961 37.8072 33.0243 37.6166 33.2141 37.3624C33.5304 37.0447 33.5936 36.9176 33.91 36.727C33.9732 36.6634 34.4161 36.5999 34.4794 36.5999C34.5426 36.6634 34.163 36.7905 34.0365 37.4259C33.9732 37.6166 33.91 37.9343 33.7202 38.1884C33.4671 38.5062 33.2141 38.5697 32.8977 38.7603L32.8345 38.8239C32.7712 38.8874 32.7079 38.8874 32.5814 38.9509C32.4549 39.0145 32.3916 39.078 32.3283 39.078C32.5181 39.0145 32.7079 38.9509 32.961 38.8874C33.1508 38.7603 33.4039 38.6968 33.6569 38.6968C33.6569 38.6968 33.6569 38.6332 33.7202 38.6332C33.7834 38.5697 33.91 38.5062 34.0998 38.4426C34.4161 38.3155 34.6692 38.4426 34.7324 38.7603C34.7957 38.9509 34.7324 39.078 34.6692 39.1416Z" fill="#4988D1"/>
<path d="M45.7406 26.3696C46.6896 25.9248 48.2713 24.8446 48.9039 24.0821C48.0182 23.7644 46.2468 23.5738 45.2345 23.5738C47.3223 22.1123 47.3855 19.0623 46.8162 16.8384C46.31 18.6175 45.0447 20.079 44.2223 20.9686C44.2855 21.8582 44.0325 23.3832 43.5264 24.2728C44.2223 24.5269 45.0447 24.9082 45.6141 25.353C45.2345 25.8613 44.4121 26.5603 43.9059 27.005C44.3488 27.4498 45.0447 28.2759 45.4243 28.7842C44.9182 29.1655 43.9059 29.5467 43.3366 29.7373C43.5896 30.3092 43.9692 31.2623 44.0957 31.9613C43.4631 32.0884 42.6406 32.1519 41.7549 32.1519C41.8182 32.7873 41.6917 33.804 41.5651 34.4394C40.7427 34.3759 39.7937 34.0582 39.3508 33.804C39.0978 34.6936 38.5284 35.5832 38.5284 35.6467C37.7692 34.7571 37.01 34.4394 36.3141 34.4394V33.8675C37.01 33.8675 37.7692 34.1217 38.3386 34.6936C38.5917 34.2488 38.8447 33.4228 38.9712 32.9144C39.4774 33.1686 40.2998 33.4863 40.9957 33.6134C41.059 32.978 41.1223 32.1519 41.059 31.5165C41.7549 31.58 42.5141 31.58 43.3366 31.453C43.21 30.8811 42.7039 29.928 42.3876 29.4196C43.0835 29.229 43.9692 28.8478 44.4121 28.5936C44.0325 28.0853 43.3998 27.3863 42.957 26.9415C43.4631 26.5603 44.2855 25.9248 44.6019 25.5436C44.0325 25.1623 43.2733 24.7811 42.6406 24.5269C43.5264 23.3196 43.7161 20.8415 43.5264 19.6978C42.7672 22.303 40.4896 24.2092 39.0978 25.0988C39.0345 25.1623 38.9712 25.2259 38.908 25.2259C38.8447 25.2894 38.5917 25.6071 38.7182 25.9884C38.7182 26.1155 38.7815 26.179 38.7815 26.3061C38.908 26.8144 38.908 27.5769 38.1488 28.2759C37.5161 28.8478 36.757 28.9113 36.3141 28.8478V27.4498C36.3141 27.2592 36.1876 27.1321 35.9978 27.1321H35.0488L34.6059 26.6873C34.6059 26.6873 35.0488 26.6873 35.5549 26.6873C36.061 26.6238 36.6304 26.3696 36.6304 26.3696C36.6304 26.3696 36.061 26.3696 35.808 26.3061C35.4917 26.3696 34.7957 26.0519 34.2264 25.4165C34.0366 25.1623 33.8468 24.9082 33.7202 24.654C33.2141 24.2092 32.6447 23.6373 32.2651 22.8113C32.0121 22.2394 31.8855 21.4134 31.8223 20.905C31.6325 21.0321 31.4427 21.2863 31.1896 21.604C30.7468 22.1759 30.557 23.0019 30.557 23.0019L30.3672 23.6373L30.0508 23.0655C30.0508 23.0655 29.608 22.303 29.5447 21.3498C29.5447 20.905 29.5447 20.5238 29.608 20.2061C29.4815 20.2696 29.2917 20.3967 29.1019 20.5238C28.3427 21.0957 27.8998 21.6675 27.8998 21.6675C27.5202 22.1759 27.2672 22.6207 27.2039 22.8113C27.1406 22.5571 26.8876 22.1759 26.508 21.6675C26.508 21.6675 26.1284 21.0321 25.3059 20.5238C25.1161 20.3967 24.9264 20.2696 24.7998 20.2061C24.8631 20.5238 24.8631 20.9686 24.8631 21.3498C24.7998 22.303 24.357 23.0019 24.357 23.0655L24.0406 23.5738L23.8508 22.9384C23.8508 22.9384 23.5978 22.1123 23.2182 21.5405C22.9651 21.2228 22.7753 20.9686 22.5855 20.8415C22.5223 21.3498 22.3957 22.2394 22.1427 22.7478C21.7631 23.5738 21.257 24.2092 20.6876 24.5905C20.561 24.8446 20.3713 25.0988 20.1815 25.353C19.6121 25.9884 18.9162 26.3061 18.5998 26.3696C18.3468 26.4332 17.7774 26.4332 17.7774 26.4332C17.7774 26.4332 18.3468 26.6873 18.8529 26.7509C19.359 26.8144 19.8019 26.7509 19.8019 26.7509L19.359 27.1957H18.41C18.2202 27.1957 18.0937 27.3228 18.0937 27.5134V28.9113C17.6508 28.9748 16.8284 28.9113 16.259 28.3394C15.5631 27.6405 15.4998 26.878 15.6264 26.3696C15.6896 26.3061 15.6896 26.179 15.6896 26.0519C15.8161 25.6707 15.5631 25.353 15.4998 25.2894C15.4366 25.2259 15.3733 25.1623 15.31 25.1623C13.9182 24.2728 11.7039 22.3665 10.8815 19.7613C10.6917 20.905 10.9447 23.3196 11.7672 24.5905C11.1345 24.8446 10.3121 25.2259 9.80595 25.6071C10.1223 25.9884 10.9447 26.6873 11.4508 27.005C11.008 27.3863 10.3121 28.1488 9.99574 28.6571C10.4386 28.9113 11.3243 29.2925 12.0202 29.4832C11.7039 29.9915 11.1978 30.9446 11.0713 31.5165C11.8304 31.6436 12.6529 31.6436 13.3488 31.58C13.2855 32.2155 13.3488 33.105 13.4121 33.6769C14.108 33.5498 14.9304 33.2957 15.4366 32.978C15.5631 33.4228 15.8162 34.3123 16.0692 34.7571C16.6386 34.1853 17.3978 33.9311 18.0937 33.9311V34.503C17.3978 34.503 16.6386 34.8207 15.8794 35.7103C15.8794 35.6467 15.31 34.7571 15.057 33.8675C14.6141 34.0582 13.6651 34.4394 12.8427 34.503C12.7162 33.8675 12.6529 32.8509 12.6529 32.2155C11.7672 32.2155 10.9447 32.1519 10.3121 32.0248C10.4386 31.3259 10.8182 30.3728 11.0713 29.8009C10.5019 29.6103 9.48962 29.1655 8.9835 28.8478C9.29982 28.3394 10.059 27.5134 10.5019 27.0686C9.99574 26.6873 9.17329 25.9248 8.7937 25.4165C9.36309 24.9717 10.1855 24.5905 10.8815 24.3363C10.3753 23.3832 10.1223 21.8582 10.1855 21.0321C9.29982 20.1425 8.03452 18.6811 7.59166 16.9019C6.95901 19.1259 7.08554 22.2394 9.17329 23.6373C8.16105 23.6373 6.38962 23.8915 5.50391 24.1457C6.13656 24.9082 7.71819 25.9248 8.66717 26.4332C7.90799 26.6873 6.57942 27.4498 6.01003 27.9582C6.70595 28.403 8.28758 28.9113 9.04676 29.1019C8.60391 29.4832 7.71819 30.4998 7.40187 31.0082C8.03452 31.1988 9.29982 31.3894 10.1223 31.3894C9.86921 31.9613 9.55289 32.9144 9.48962 33.4863C9.86921 33.5498 11.1978 33.4863 11.8937 33.2957C11.8304 33.8675 11.8304 34.8207 11.957 35.2655C12.5896 35.2019 13.5386 34.8842 13.9815 34.7571C14.108 35.2655 14.5508 36.2821 14.7406 36.5363C15.057 36.4728 15.3733 36.4092 15.6896 36.2821C16.5753 35.9644 17.5243 36.3457 17.9039 37.1717C18.5366 38.6332 18.2835 40.3488 17.0815 40.0311C15.6896 40.2853 16.6386 42.0644 15.8161 42.6363C16.8917 43.3988 17.208 41.6196 18.5998 41.9373C18.4733 42.5728 18.4733 43.78 18.5998 44.2884C19.0427 43.9707 19.6753 43.7165 20.0549 43.653C19.9284 44.0342 19.8651 44.9238 19.9917 45.4957C20.2447 45.305 22.0794 44.7967 22.0794 44.7967C22.0794 44.7967 21.3835 46.1946 21.8264 47.5925C22.0794 47.7832 23.7243 46.9571 23.7243 46.5123C23.7876 47.0842 23.0917 48.355 22.0161 48.6092C23.1549 49.753 24.1672 49.6894 24.2937 49.6894C24.4835 49.6894 24.61 49.6894 24.7366 49.5623C24.6733 49.88 24.61 50.3248 24.6733 50.579C24.7366 50.579 24.7998 50.579 24.8631 50.579C25.1794 50.579 25.4325 50.5155 25.6223 50.4519C25.6855 50.7696 25.8121 51.0873 26.0019 51.3415C26.0651 51.405 26.0651 51.405 26.1284 51.4686C26.3815 51.4686 27.0141 51.1509 27.1406 50.9603C27.2672 51.1509 27.8998 51.4686 28.1529 51.4686C28.2161 51.405 28.2794 51.405 28.2794 51.3415C28.5325 51.0873 28.659 50.7061 28.659 50.4519C28.9121 50.579 29.1651 50.579 29.4182 50.579C29.4815 50.579 29.5447 50.579 29.608 50.579C29.6712 50.3248 29.6713 49.88 29.5447 49.5623C29.6713 49.6259 29.861 49.6894 29.9876 49.6894C30.1141 49.6894 31.1264 49.753 32.2651 48.6092C31.1896 48.355 30.4937 47.0842 30.557 46.5123C30.557 47.0207 32.2019 47.7832 32.4549 47.5925C32.8978 46.1946 32.2019 44.7967 32.2019 44.7967C32.2019 44.7967 33.9733 45.2415 34.2896 45.4957C34.4161 44.9238 34.3529 44.0342 34.2264 43.653C34.6059 43.653 35.2386 43.9707 35.6815 44.2884C35.808 43.78 35.808 42.6363 35.6815 41.9373C37.01 41.6196 37.3264 43.3988 38.4651 42.6363C37.7059 42.0644 38.6549 40.2853 37.1998 40.0311C35.9978 40.4123 35.7447 38.6332 36.3774 37.1717C36.757 36.3457 37.7692 35.9644 38.5917 36.2821C38.908 36.4092 39.2243 36.4728 39.5406 36.5363C39.6672 36.2821 40.1733 35.2655 40.2998 34.7571C40.7427 34.9478 41.6917 35.2019 42.3243 35.2655C42.3876 34.8207 42.4508 33.8675 42.3876 33.2957C43.0202 33.4228 44.4121 33.4863 44.7917 33.4863C44.7284 32.8509 44.4121 31.8978 44.159 31.3894C44.9815 31.3259 46.2468 31.1988 46.8794 31.0082C46.5631 30.4363 45.6774 29.4196 45.2345 29.1019C45.9937 28.9113 47.5753 28.403 48.2713 27.9582C47.8284 27.3863 46.4998 26.6238 45.7406 26.3696ZM35.4917 40.6665C35.4284 40.7936 35.3651 40.8571 35.3019 40.9842C35.3019 41.0478 35.2386 41.0478 35.2386 41.1113C35.1753 41.1748 35.1121 41.2384 35.0488 41.3655C34.9855 41.429 34.9855 41.429 34.9223 41.4925C34.859 41.6196 34.7325 41.6832 34.6692 41.8103C34.6059 41.8738 34.5427 41.9373 34.4794 42.0009C34.4161 42.0644 34.3529 42.128 34.2896 42.1915C34.2264 42.255 34.1631 42.3186 34.0366 42.4457C33.9733 42.5092 33.9733 42.5092 33.91 42.5728C33.7202 42.7634 33.4672 42.954 33.2141 43.0811C32.8978 43.3353 32.5815 43.5259 32.2019 43.7165C32.0753 43.78 31.9488 43.8436 31.8223 43.9071C28.9753 45.3686 27.5835 46.5123 27.1406 46.83H27.0774C26.6345 46.4488 25.2427 45.3686 22.3957 43.9071C22.2692 43.8436 22.1427 43.78 22.0161 43.7165C21.6366 43.5259 21.3202 43.3353 21.0039 43.0811C20.7508 42.8905 20.561 42.6998 20.308 42.5728C20.2447 42.5092 20.1815 42.5092 20.1815 42.4457C20.1182 42.3821 19.9917 42.3186 19.9284 42.1915C19.8651 42.128 19.8019 42.0644 19.7386 42.0009C19.6753 41.9373 19.6121 41.8738 19.5488 41.8103C19.4223 41.6832 19.359 41.6196 19.2957 41.4925C19.2325 41.429 19.2325 41.429 19.1692 41.3655C19.1059 41.3019 19.0427 41.2384 18.9794 41.1113C18.9794 41.0478 18.9162 41.0478 18.9162 40.9842C18.8529 40.8571 18.7896 40.7936 18.7264 40.6665C18.3468 39.8405 18.41 39.1415 18.41 39.1415V28.0217C18.41 27.8311 18.5366 27.704 18.7264 27.704H19.6753H27.2039H34.4794H35.4284C35.6182 27.704 35.7447 27.8311 35.7447 28.0217V39.1415C35.808 39.1415 35.8712 39.8405 35.4917 40.6665Z" fill="#4988D1"/>
<path d="M35.112 10.1664C35.3651 10.1664 35.4916 9.97581 35.4916 9.72165C35.4916 9.46748 35.3018 9.27686 35.112 9.27686C34.859 9.27686 34.7324 9.46748 34.7324 9.72165C34.7324 9.97581 34.9222 10.1664 35.112 10.1664Z" fill="#4988D1"/>
<path d="M35.1121 12.5178C35.3651 12.5178 35.6182 11.4376 35.6182 10.9292C35.6182 10.6115 35.3651 10.4209 35.1121 10.4209C34.859 10.4209 34.606 10.6115 34.606 10.9292C34.606 11.4376 34.859 12.5178 35.1121 12.5178Z" fill="#4988D1"/>
<path d="M34.8592 8.64147H35.4286L35.3021 7.94251L35.998 8.00605V7.43418L35.3021 7.56126L35.4286 6.8623H34.8592L34.9225 7.56126L34.2266 7.43418V8.00605L34.9225 7.94251L34.8592 8.64147Z" fill="#4988D1"/>
<path d="M32.6451 13.7886C32.8349 13.8521 33.0247 13.8521 33.2145 13.9157H33.2777H33.341C33.4043 13.9157 33.4043 13.9157 33.4043 13.9157H33.5308C33.5941 13.9157 33.6573 13.9157 33.7206 13.9157C33.7838 13.9157 33.7838 13.9157 33.8471 13.9157C33.9104 13.9157 33.9736 13.9157 34.0369 13.9157C34.543 13.9157 35.0492 13.7886 35.5553 13.6615C36.0614 13.5344 36.5675 13.4073 37.1369 13.4073H37.2002H37.2634H37.3267H37.39H37.4532H37.5165C37.643 12.8354 37.8328 12.2 37.8328 11.8188C37.8328 11.0563 37.39 10.2302 35.9349 9.97607C35.9349 10.9292 35.492 13.1532 34.9859 13.1532H34.9226C34.4165 13.1532 33.9736 10.9292 33.9736 9.97607C32.5185 10.2302 32.0757 11.0563 32.0757 11.8188C32.0757 12.2636 32.2655 13.0896 32.4553 13.6615C32.6451 13.725 32.6451 13.725 32.6451 13.7886Z" fill="#4988D1"/>
<path d="M40.2367 9.78519C40.2367 9.78519 39.8571 8.76853 40.4897 8.45082C41.1856 8.19665 40.2367 8.32373 40.7428 6.92582C41.3122 5.27373 42.5775 5.65498 42.5775 5.65498C41.6918 4.95602 40.9958 5.01957 40.4897 5.40082C40.1734 5.65498 39.7305 6.16332 39.4142 7.17998C39.1611 8.45082 39.604 9.65811 40.2367 9.78519Z" fill="#4988D1"/>
<path d="M43.5264 7.30721C43.5897 9.40408 47.0693 10.2937 47.0693 10.2937C47.0693 10.2937 45.0448 8.83221 45.4244 7.752C45.4244 7.752 46.753 8.32388 48.2713 8.06971C45.0448 7.37075 46.1203 6.35408 45.2979 5.52804C44.4754 4.63846 43.2101 4.57492 42.8938 4.51138C42.0713 4.44783 42.0081 4.44783 41.0591 4.702C43.2734 4.76554 43.5264 5.90929 43.5264 7.30721Z" fill="#4988D1"/>
<path d="M43.0838 11.247C43.5267 9.59491 42.7042 8.83241 42.7042 8.83241C42.4512 8.5147 41.1226 8.57825 40.6165 8.89595C40.6165 8.89595 41.8818 8.89595 41.692 10.7387C41.5022 12.5814 38.9716 12.9626 38.2757 13.0262L38.2124 13.2803C39.4144 13.2803 42.5777 12.8991 43.0838 11.247Z" fill="#4988D1"/>
<path d="M29.861 11.1831H28.5957C29.2284 12.9623 31.063 13.5341 32.2651 13.7248L32.2018 13.5341C30.9365 13.0258 30.3039 12.5175 29.861 11.1831Z" fill="#4988D1"/>
<path d="M19.3591 10.1664C19.6122 10.1664 19.7387 9.97581 19.7387 9.72165C19.7387 9.46748 19.5489 9.27686 19.3591 9.27686C19.1061 9.27686 18.9795 9.46748 18.9795 9.72165C18.9163 9.97581 19.1061 10.1664 19.3591 10.1664Z" fill="#4988D1"/>
<path d="M19.3592 12.5178C19.6122 12.5178 19.8653 11.4376 19.8653 10.9292C19.8653 10.6115 19.6122 10.4209 19.3592 10.4209C19.1061 10.4209 18.853 10.6115 18.853 10.9292C18.853 11.4376 19.0428 12.5178 19.3592 12.5178Z" fill="#4988D1"/>
<path d="M19.043 8.64147H19.6124L19.5491 7.94251L20.2451 8.00605V7.43418L19.5491 7.56126L19.6124 6.8623H19.043L19.1696 7.56126L18.4736 7.43418V8.00605L19.1696 7.94251L19.043 8.64147Z" fill="#4988D1"/>
<path d="M16.8286 13.4073H16.8919H16.9551H17.0817C17.1449 13.4073 17.1449 13.4073 17.1449 13.4073H17.2082C17.7776 13.4708 18.347 13.5343 18.7898 13.6614C19.2327 13.7885 19.8021 13.9156 20.3082 13.9156C20.3715 13.9156 20.4347 13.9156 20.498 13.9156C20.5613 13.9156 20.5613 13.9156 20.6245 13.9156C20.6878 13.9156 20.751 13.9156 20.8143 13.9156H20.9408H21.0041H21.0674H21.1306C21.3204 13.9156 21.5102 13.8521 21.7 13.7885C21.7 13.725 21.7 13.725 21.7633 13.725C21.9531 13.1531 22.1429 12.3271 22.1429 11.8823C22.1429 11.1198 21.7633 10.2937 20.2449 10.0396C20.2449 10.9291 19.8021 13.2166 19.2959 13.2166H19.2327C18.7266 13.2166 18.2837 10.9927 18.2837 10.0396C16.8286 10.2937 16.3857 11.1198 16.3857 11.8823C16.3857 12.2635 16.5123 12.8989 16.7021 13.4708C16.7653 13.4073 16.7653 13.4073 16.8286 13.4073Z" fill="#4988D1"/>
<path d="M11.8306 5.65508C11.8306 5.65508 13.0959 5.27383 13.6653 6.92591C14.1714 8.32383 13.2224 8.19674 13.9183 8.45091C14.6142 8.70508 14.1714 9.78529 14.1714 9.78529C14.8673 9.6582 15.3102 8.45091 14.9306 7.11654C14.6142 6.09987 14.1714 5.59154 13.8551 5.33737C13.3489 5.01966 12.7163 4.95612 11.8306 5.65508Z" fill="#4988D1"/>
<path d="M8.98345 7.75186C9.36304 8.83206 7.33855 10.2935 7.33855 10.2935C7.33855 10.2935 10.8814 9.40394 10.8814 7.30706C10.9447 5.90915 11.1345 4.7654 13.2855 4.70186C12.3365 4.51123 12.2732 4.51123 11.4508 4.51123C11.1345 4.51123 9.86916 4.63831 9.04671 5.5279C8.28753 6.35394 9.29977 7.37061 6.07324 8.06956C7.65487 8.32373 8.98345 7.75186 8.98345 7.75186Z" fill="#4988D1"/>
<path d="M12.7796 10.7385C12.5898 8.89581 13.8551 8.89581 13.8551 8.89581C13.4123 8.5781 12.0837 8.5781 11.7674 8.83227C11.7674 8.83227 10.9449 9.53123 11.3878 11.2469C11.8306 12.8989 15.0572 13.2802 16.2592 13.2802L16.1959 13.026C15.5 12.9625 12.9694 12.5812 12.7796 10.7385Z" fill="#4988D1"/>
<path d="M25.8754 11.1831H24.6101C24.1673 12.5175 23.5346 13.0258 22.2693 13.5341L22.2061 13.7248C23.4714 13.5341 25.2428 12.9623 25.8754 11.1831Z" fill="#4988D1"/>
<path d="M28.8489 18.9992C28.4693 19.5711 28.153 20.2065 27.8999 20.8419C28.0897 20.5877 28.406 20.3336 28.7224 20.0794C29.2917 19.6981 29.7979 19.444 29.7979 19.444L30.304 19.2534L30.1775 19.7617C30.1775 19.7617 29.9877 20.5877 30.0509 21.2867C30.0509 21.6044 30.1775 21.9221 30.2407 22.1127C30.3672 21.795 30.557 21.4773 30.7468 21.1596C31.3795 20.3336 31.8856 20.0159 31.8856 20.0159L32.2652 19.8252V20.27C32.2652 20.27 32.3917 21.7315 32.7081 22.494C33.2775 23.7648 34.353 24.4638 34.9856 24.7815C34.9224 24.7179 34.7958 24.5909 34.6693 24.4638C34.353 24.1461 34.0366 23.5742 33.8468 22.3669C33.7203 21.3502 34.0999 20.3336 34.2264 20.0159C34.2897 20.27 34.4162 20.5242 34.5428 20.5877C34.5428 20.5877 34.5428 20.3336 34.606 20.0794C34.7326 19.3804 35.4917 18.3002 36.504 17.6648C36.6938 17.5377 36.8836 17.4106 37.0101 17.3471C37.1999 17.2836 37.3264 17.1565 37.453 17.0294C37.2632 17.0294 37.0101 17.0929 36.8203 17.0929H36.757C36.6305 17.0929 36.4407 17.0929 36.1877 17.0929C35.6815 17.0929 35.1121 17.0294 34.6693 16.6481C34.2264 16.2669 34.0366 15.8856 33.9734 15.6315C33.7836 15.6315 33.5305 15.6315 33.2142 15.6315C32.8346 15.6315 32.5183 15.5044 32.3285 15.5044C31.8224 15.8221 31.3162 15.9492 30.6836 16.0127C30.6203 16.0127 30.4938 16.0127 30.4305 16.0127C30.6203 16.2034 30.8734 16.3304 31.0632 16.4575C31.0632 16.4575 31.0632 16.4575 31.1264 16.4575L30.9999 16.5211C31.0632 16.4575 30.1775 16.9659 28.8489 18.9992Z" fill="#4988D1"/>
<path d="M37.1368 15.4404C36.8838 15.4404 36.694 15.4404 36.4409 15.4404C36.4409 15.5675 36.4409 15.6946 36.4409 15.8217C36.5042 16.0123 36.5674 16.1394 36.694 16.2665C36.8838 16.1394 37.0736 15.8217 37.1368 15.4404Z" fill="#4988D1"/>
<path d="M37.6428 13.9792C37.5795 13.9792 37.5795 13.9792 37.6428 13.9792H37.5795C37.5795 13.9792 37.5795 13.9792 37.5163 13.9792C37.453 13.9792 37.453 13.9792 37.3897 13.9792C36.8836 13.9792 36.3775 14.1063 35.8714 14.2334C35.3652 14.3604 34.7959 14.4875 34.2897 14.4875C34.1632 14.4875 34.0999 14.4875 33.9734 14.4875C33.9101 14.4875 33.8469 14.4875 33.7836 14.4875C33.7203 14.4875 33.7203 14.4875 33.6571 14.4875C33.5938 14.4875 33.5938 14.4875 33.5305 14.4875C33.5305 14.4875 33.5305 14.4875 33.4673 14.4875C33.4673 14.4875 33.4673 14.4875 33.404 14.4875C32.2652 14.3604 31.5061 13.9792 31.1265 13.7886C31.1897 13.9157 31.3163 14.0427 31.5061 14.2334C31.5693 14.2969 31.6326 14.3604 31.6959 14.424C31.8224 14.5511 32.0122 14.6782 32.202 14.8052C32.455 14.9323 33.5305 15.3771 34.9224 15.1865C36.504 14.9323 36.8203 14.9959 37.1999 14.9959H37.3265C37.8959 15.0594 38.7183 15.3771 39.0346 15.5677C39.1612 15.25 39.351 14.9323 39.4142 14.6146C39.351 14.5511 39.2244 14.424 38.9714 14.2969C38.9081 14.2334 38.8448 14.2334 38.7183 14.1698C38.5918 14.1063 38.402 14.0427 38.1489 14.0427C37.8959 13.9792 37.7693 13.9792 37.6428 13.9792Z" fill="#4988D1"/>
<path d="M42.0712 19.1897C42.0079 19.1897 41.4385 19.5074 40.2365 18.7449C39.0345 17.9824 38.1487 17.6647 37.6426 17.5376C37.5161 17.6011 37.4528 17.6647 37.3263 17.7282C37.1998 17.7918 37.01 17.9188 36.8202 18.0459C36.7569 18.1095 36.6936 18.1095 36.6304 18.173C36.6304 18.173 36.6936 18.173 36.7569 18.173C37.8957 18.3001 38.7814 18.9355 38.8447 19.1897H38.9079C39.0345 18.8084 38.8447 18.4907 38.8447 18.4907C38.8447 18.4907 39.3508 18.8084 40.363 19.3803C41.4385 20.0793 41.8814 19.4438 42.0712 19.1897Z" fill="#4988D1"/>
<path d="M36.0611 16.0762C35.9978 16.0127 35.9345 15.8856 35.8713 15.822C35.808 15.695 35.808 15.6314 35.808 15.5679C35.5549 15.5679 35.2386 15.6314 34.859 15.695C34.7958 15.695 34.6692 15.695 34.606 15.695C34.7958 16.0762 35.1121 16.4575 35.7447 16.5845C35.808 16.5845 35.808 16.5845 35.8713 16.5845C35.9345 16.5845 35.9345 16.5845 35.9978 16.5845C36.2509 16.6481 36.5672 16.6481 36.757 16.6481C37.1998 16.6481 37.706 16.5845 38.2121 16.4575C38.3386 16.3304 38.4019 16.1397 38.5284 16.0127C38.5284 16.0127 38.4651 15.9491 38.4019 15.9491C38.2753 15.8856 37.959 15.695 37.7692 15.6314C37.706 15.822 37.5794 16.0127 37.4529 16.1397C37.2631 16.2668 37.01 16.3304 36.757 16.3304C36.5039 16.3304 36.2509 16.2668 36.1243 16.1397C36.0611 16.1397 36.0611 16.0762 36.0611 16.0762Z" fill="#4988D1"/>
<path d="M39.4141 15.123C39.0345 16.1397 38.4018 16.9022 37.959 17.2835C40.8059 16.521 41.312 17.9824 41.312 18.046C41.312 18.1095 41.312 18.1095 41.3753 18.046C41.4386 17.9824 42.3876 16.9658 41.6916 16.0126C41.1223 15.2501 39.8569 15.123 39.4141 15.123ZM39.4141 15.8855C39.5406 15.7585 39.6039 15.5043 39.6039 15.5043C39.7937 15.5043 40.1733 15.5678 40.1733 15.822C39.9202 15.7585 39.6039 15.7585 39.4141 15.8855Z" fill="#4988D1"/>
<path d="M18.0304 15.8217C18.0304 15.6946 18.0304 15.5675 18.0304 15.4404C17.7773 15.4404 17.5243 15.4404 17.3345 15.4404C17.3977 15.8217 17.5875 16.1394 17.7773 16.2665C17.9039 16.1394 17.9671 16.0123 18.0304 15.8217Z" fill="#4988D1"/>
<path d="M21.2569 14.4241C21.1937 14.4241 21.1937 14.4241 21.2569 14.4241C21.1937 14.4241 21.1937 14.4241 21.1937 14.4241C21.1937 14.4241 21.1937 14.4241 21.1304 14.4241C21.0671 14.4241 21.0671 14.4241 21.0039 14.4241C20.9406 14.4241 20.9406 14.4241 20.8773 14.4241C20.8141 14.4241 20.7508 14.4241 20.6875 14.4241C20.561 14.4241 20.4977 14.4241 20.3712 14.4241C19.8018 14.4241 19.2957 14.297 18.7896 14.1699C18.2202 14.1063 17.7141 13.9793 17.208 13.9793C17.1447 13.9793 17.1447 13.9793 17.0814 13.9793C17.0814 13.9793 17.0814 13.9793 17.0182 13.9793C16.8916 13.9793 16.7651 13.9793 16.7018 13.9793C16.4488 13.9793 16.259 14.0428 16.1324 14.1063C16.0692 14.1699 15.9426 14.1699 15.8794 14.2334C15.6896 14.3605 15.5631 14.4241 15.4365 14.5511C15.4998 14.8688 15.6896 15.2501 15.8161 15.5043C16.1324 15.3136 16.9549 14.9324 17.5243 14.9324H17.6508C18.0304 14.9324 18.3467 14.8688 19.9284 15.123C21.3202 15.3136 22.3324 14.8688 22.6488 14.7418C22.8386 14.6147 23.0284 14.4876 23.1549 14.3605C23.2182 14.297 23.2814 14.2334 23.3447 14.1699C23.4712 13.9793 23.5977 13.8522 23.7243 13.7251C23.1549 13.9157 22.3957 14.297 21.2569 14.4241Z" fill="#4988D1"/>
<path d="M12.3999 19.1896C12.5897 19.3802 13.0326 20.0791 14.0448 19.5073C15.057 18.9354 15.5632 18.6177 15.5632 18.6177C15.5632 18.6177 15.3734 18.9354 15.4999 19.3166C15.4999 19.3166 15.4999 19.3166 15.5632 19.3166C15.6897 19.0625 16.5754 18.3635 17.6509 18.3C17.7142 18.3 17.7142 18.3 17.7775 18.3C17.7142 18.2364 17.6509 18.2364 17.5877 18.1729C17.3979 18.0458 17.2081 17.9187 17.0815 17.8552C16.955 17.7916 16.8917 17.7281 16.7652 17.6646C16.2591 17.7281 15.3734 18.1093 14.1713 18.8718C13.0326 19.5073 12.4632 19.1896 12.3999 19.1896Z" fill="#4988D1"/>
<path d="M16.7021 15.6314C16.5755 15.695 16.1959 15.8856 16.0694 15.9491C16.0061 15.9491 16.0061 16.0127 15.9429 16.0127C16.0694 16.2033 16.1327 16.3304 16.2592 16.4575C16.7653 16.5845 17.2714 16.6481 17.7143 16.6481C17.9674 16.6481 18.2204 16.6481 18.4735 16.5845C18.5367 16.5845 18.5367 16.5845 18.6 16.5845C18.6633 16.5845 18.6633 16.5845 18.7265 16.5845C19.3592 16.4575 19.7388 16.0127 19.8653 15.695C19.8021 15.695 19.6755 15.695 19.6123 15.695C19.2327 15.6314 18.9163 15.5679 18.6633 15.5679C18.6633 15.6314 18.6 15.7585 18.6 15.822C18.5367 15.9491 18.4735 16.0127 18.4102 16.0762L18.347 16.1397C18.1572 16.2668 17.9674 16.3304 17.7143 16.3304C17.4612 16.3304 17.2082 16.2668 17.0184 16.1397C16.8286 16.0127 16.7653 15.822 16.7021 15.6314Z" fill="#4988D1"/>
<path d="M12.7162 16.0126C12.0203 16.9658 12.9693 17.9824 13.0325 18.046C13.0958 18.1095 13.0958 18.046 13.0958 18.046C13.0958 17.9824 13.6019 16.521 16.4489 17.2835C16.006 16.9022 15.3734 16.1397 14.9938 15.123C14.6142 15.123 13.2856 15.2501 12.7162 16.0126ZM15.057 15.8855C14.8672 15.7585 14.5509 15.7585 14.2978 15.822C14.2978 15.5678 14.6774 15.5043 14.8672 15.5043C14.8672 15.5043 14.9305 15.7585 15.057 15.8855Z" fill="#4988D1"/>
<path d="M23.9775 16.0127C23.9143 16.0127 23.7877 16.0127 23.7245 16.0127C23.0918 16.0127 22.5857 15.8221 22.0796 15.5044C21.8898 15.5679 21.5102 15.6315 21.1939 15.6315C20.8775 15.6315 20.5612 15.6315 20.4347 15.6315C20.3714 15.8856 20.1816 16.3304 19.7388 16.6481C19.2959 17.0294 18.7265 17.0929 18.2204 17.0929C17.9673 17.0929 17.7775 17.0929 17.651 17.0929H17.5877C17.4612 17.0929 17.2081 17.0294 16.9551 17.0294C17.1449 17.1565 17.2714 17.22 17.3979 17.3471C17.5245 17.4106 17.7143 17.5377 17.9041 17.6648C18.9163 18.3638 19.6755 19.3804 19.802 20.0794C19.8653 20.3336 19.8653 20.5877 19.8653 20.5877C19.9918 20.5242 20.1183 20.27 20.1816 20.0159C20.3081 20.3336 20.751 21.3502 20.5612 22.3669C20.3714 23.5742 20.0551 24.1461 19.7388 24.4638C19.6122 24.5909 19.4857 24.7179 19.4224 24.7815C20.0551 24.4638 21.1306 23.7648 21.7 22.494C22.0163 21.795 22.1428 20.3336 22.1428 20.3336V19.8888L22.5224 20.0794C22.5224 20.0794 23.0918 20.3971 23.6612 21.2231C23.851 21.5409 24.0408 21.8586 24.1673 22.1763C24.2306 21.9221 24.2939 21.6679 24.3571 21.3502C24.4204 20.5877 24.2306 19.8252 24.2306 19.8252L24.1041 19.3169L24.6102 19.5075C24.6102 19.5075 25.1163 19.6981 25.6857 20.1429C26.0653 20.3971 26.3183 20.6513 26.5081 20.9054C26.2551 20.27 26.002 19.6346 25.5592 19.0627C24.2306 17.0294 23.4081 16.5846 23.4081 16.5846L23.2816 16.5211C23.2816 16.5211 23.2816 16.5211 23.3449 16.5211C23.5347 16.3304 23.7877 16.1398 23.9775 16.0127Z" fill="#4988D1"/>
</g>
<defs>
<clipPath id="clip0_2423_2789">
<rect width="217" height="61" fill="white"/>
</clipPath>
</defs>
</svg>
