<svg width="160" height="116" viewBox="0 0 160 116" fill="none" xmlns="http://www.w3.org/2000/svg">
<g clip-path="url(#clip0_2447_6809)">
<path d="M42.704 45.8975C42.5142 45.8975 42.3877 46.0245 42.3877 46.2152C42.3877 46.4058 42.5142 46.5329 42.704 46.5329C42.8938 46.5329 43.0203 46.4058 43.0203 46.2152C43.0203 46.0881 42.8938 45.8975 42.704 45.8975Z" fill="#4988D1"/>
<path d="M43.7798 49.0111C43.7798 49.2017 43.9063 49.3288 44.0961 49.3288C44.2859 49.3288 44.4124 49.2017 44.4124 49.0111C44.4124 48.8204 44.2859 48.6934 44.0961 48.6934C43.9063 48.6934 43.7798 48.8204 43.7798 49.0111Z" fill="#4988D1"/>
<path d="M42.704 48.6934C42.5142 48.6934 42.3877 48.8204 42.3877 49.0111C42.3877 49.2017 42.5142 49.3288 42.704 49.3288C42.8938 49.3288 43.0203 49.2017 43.0203 49.0111C43.0203 48.8204 42.8938 48.6934 42.704 48.6934Z" fill="#4988D1"/>
<path d="M45.1714 49.0111C45.1714 49.2017 45.2979 49.3288 45.4877 49.3288C45.6775 49.3288 45.804 49.2017 45.804 49.0111C45.804 48.8204 45.6775 48.6934 45.4877 48.6934C45.2979 48.6934 45.1714 48.8204 45.1714 49.0111Z" fill="#4988D1"/>
<path d="M42.2611 42.7832L42.3243 43.6092L41.6284 43.5457V44.4353L42.3243 44.3082L42.2611 45.1342H43.1468L43.0835 44.3082L43.7794 44.4353V43.5457L43.0835 43.6092L43.1468 42.7832H42.2611Z" fill="#4988D1"/>
<path d="M43.2734 45.6426V48.502H45.9938C45.804 47.0405 44.6653 45.8967 43.2734 45.6426Z" fill="#4988D1"/>
<path d="M42.704 47.2949C42.5142 47.2949 42.3877 47.422 42.3877 47.6126C42.3877 47.8033 42.5142 47.9303 42.704 47.9303C42.8938 47.9303 43.0203 47.8033 43.0203 47.6126C43.0203 47.422 42.8938 47.2949 42.704 47.2949Z" fill="#4988D1"/>
<path d="M43.843 50.917C43.7797 50.917 43.5266 51.616 43.7797 52.1243C43.9062 52.3785 44.1593 52.5055 44.4123 52.442C44.6654 52.3785 44.7287 52.1243 44.7287 51.9972C44.6654 51.4253 44.2226 50.917 43.843 50.917Z" fill="#4988D1"/>
<path d="M41.5651 50.917C41.1855 50.917 40.7427 51.4253 40.7427 51.9972C40.7427 52.1878 40.8059 52.3785 41.059 52.442C41.3121 52.5055 41.5651 52.3785 41.6917 52.1243C41.8182 51.616 41.6284 50.917 41.5651 50.917Z" fill="#4988D1"/>
<path d="M42.704 50.5361C42.4509 50.5361 41.6918 51.9976 42.2611 52.6966C42.3877 52.8236 42.5142 52.8872 42.704 52.8872C42.8938 52.8872 43.0836 52.8236 43.1469 52.6966C43.653 51.9976 42.9571 50.5361 42.704 50.5361Z" fill="#4988D1"/>
<path d="M39.351 49.0111C39.351 48.6934 39.4142 48.4393 39.4142 48.4393H42.1346V48.1851V46.1518V45.5799C40.8061 45.834 39.7305 46.8507 39.4142 48.1851C39.351 48.3122 39.0979 48.3757 38.9081 48.3122C37.8959 48.1851 35.8714 47.8038 35.8714 47.359C35.8714 46.7236 36.3142 46.4695 36.6938 46.4695C37.2632 46.4695 37.8959 46.7872 38.402 46.0247C36.5673 46.0882 37.9591 43.4195 36.4408 42.9111C36.504 43.6101 36.4408 44.8174 36.1877 45.4528C36.1877 45.4528 35.6183 44.8809 35.0489 44.6268C35.1122 45.1351 34.9857 46.1518 34.7959 46.6601C34.7959 46.6601 34.1632 46.0247 33.4673 45.834C34.0999 46.7236 34.0999 48.058 33.9101 48.8205C33.8469 49.0747 34.0367 49.3288 34.4795 49.3288C35.2387 49.2653 37.7693 49.3924 38.8448 49.8372C39.1612 49.9643 39.4775 50.1549 39.604 50.409C39.7305 50.7268 39.9836 51.2351 40.3632 51.4893C40.553 50.9174 41.1857 50.282 41.6285 50.3455C41.755 50.3455 41.8816 50.5997 41.9448 50.7903C42.0081 50.5997 42.3244 50.0278 42.6408 50.0278C42.9571 50.0278 43.2734 50.4726 43.3999 50.8538C43.4632 50.5997 43.5897 50.3455 43.7163 50.3455C44.1591 50.3455 44.7285 50.7268 44.9183 51.4257C45.1081 51.2351 45.8673 50.2184 45.9305 49.5195H39.351C39.351 49.583 39.351 49.3288 39.351 49.0111Z" fill="#4988D1"/>
<path d="M40.9961 49.0111C40.9961 49.2017 41.1226 49.3288 41.3124 49.3288C41.5022 49.3288 41.6287 49.2017 41.6287 49.0111C41.6287 48.8204 41.5022 48.6934 41.3124 48.6934C41.1226 48.6934 40.9961 48.8204 40.9961 49.0111Z" fill="#4988D1"/>
<path d="M39.6675 49.0111C39.6675 49.2017 39.794 49.3288 39.9838 49.3288C40.1736 49.3288 40.3001 49.2017 40.3001 49.0111C40.3001 48.8204 40.1736 48.6934 39.9838 48.6934C39.794 48.6934 39.6675 48.8204 39.6675 49.0111Z" fill="#4988D1"/>
<path d="M13.4755 50.4082C13.349 50.5353 13.0959 51.2342 13.2225 51.679C13.2857 51.8697 13.349 51.9332 13.5388 51.9332C13.7286 51.9332 13.7919 51.8061 13.8551 51.6155C13.9184 51.1707 13.6021 50.4717 13.4755 50.4082Z" fill="#4988D1"/>
<path d="M15.8161 52.3784C15.6896 52.569 15.4998 52.6326 15.4365 52.6961C15.4998 52.7596 15.6896 52.8867 15.8794 52.8867C16.0059 52.8867 16.1324 52.8232 16.1957 52.7596C16.3855 52.3784 16.1957 52.0607 16.1324 51.9336C16.0692 52.0607 16.0059 52.2513 15.8161 52.3784Z" fill="#4988D1"/>
<path d="M14.9305 51.4884C15.1836 51.2342 15.2468 51.0436 15.1836 50.9165C15.1203 50.7259 14.5509 50.154 13.9182 49.4551C13.9182 49.5822 13.855 49.7092 13.855 49.8363C14.2978 50.4717 14.4876 51.1072 14.3611 51.679C14.4244 51.7426 14.4244 51.7426 14.4876 51.7426C14.6142 51.8697 14.804 51.679 14.9305 51.4884Z" fill="#4988D1"/>
<path d="M15.8162 51.552C15.8162 51.4249 15.8162 51.3614 15.753 51.2979H15.6897C15.6264 51.2979 15.5632 51.4249 15.4999 51.4885C15.4366 51.552 15.3734 51.6791 15.2468 51.8062C15.1203 51.9333 15.057 51.9968 14.9305 52.1239C14.804 52.1874 14.7407 52.3145 14.7407 52.3781C14.7407 52.3781 14.7407 52.3781 14.7407 52.4416C14.804 52.5051 14.804 52.5051 14.8673 52.5051C14.9305 52.5051 15.1203 52.4416 15.4366 52.1239C15.753 51.8062 15.8162 51.6791 15.8162 51.552Z" fill="#4988D1"/>
<path d="M11.6407 48.1848C11.6407 48.1848 11.5774 48.2483 11.5142 48.3754C11.6407 48.3754 11.8305 48.3754 11.957 48.4389C11.957 48.3118 11.957 48.1212 11.957 47.9941C11.8305 47.9941 11.704 48.1212 11.6407 48.1848Z" fill="#4988D1"/>
<path d="M13.349 48.3757C13.349 48.3757 14.6776 49.5194 15.1205 49.9642C15.247 50.0913 15.3735 50.0913 15.5 50.0277C15.5633 49.9642 15.6898 49.9642 15.8164 49.9007C17.1449 49.4559 19.296 49.3923 20.0552 49.3923C20.5613 49.3923 20.6878 49.1382 20.6245 48.884C20.498 48.1215 20.4347 46.7871 21.0674 45.8975C20.3715 46.1517 19.7388 46.7236 19.7388 46.7236C19.4858 46.2788 19.4225 45.1986 19.4858 44.6902C18.8531 44.8809 18.347 45.5163 18.347 45.5163C18.0939 44.8809 18.0307 43.6736 18.0939 42.9746C16.5756 43.4829 17.9674 46.2152 16.1327 46.0882C16.6388 46.8507 17.2715 46.5329 17.8409 46.5329C18.2205 46.5329 18.7266 46.7871 18.6633 47.4225C18.6 47.8673 16.1327 48.3757 15.1205 48.3757C14.4245 48.3757 13.9184 48.185 13.6021 47.6767C13.4123 47.4225 13.2858 47.359 13.096 47.359C12.8429 47.4225 12.5898 47.6132 12.5898 48.2486C12.5898 48.6298 12.7796 49.5194 13.2225 49.5194C13.4756 49.5829 13.4756 48.8204 13.349 48.3757Z" fill="#4988D1"/>
<path d="M10.8182 47.9939C10.8815 47.9939 10.9447 47.9939 11.008 47.9939C10.8182 48.248 10.8182 48.4387 10.8815 48.5022C11.008 48.6293 11.0713 48.3751 11.3876 48.0574C11.7039 47.7397 11.8937 47.6126 11.8304 47.4855C11.7672 47.422 11.5774 47.422 11.3243 47.6126C11.3243 47.5491 11.3876 47.4855 11.3243 47.422C11.1978 47.1043 10.7549 46.723 10.4386 46.723C10.3753 46.723 10.3753 46.723 10.3121 46.723C10.4386 46.5324 10.3753 46.4053 10.3121 46.2783C10.2488 46.2147 10.1855 46.2783 10.059 46.4053C10.059 46.3418 10.059 46.2147 9.99574 46.0876C9.61615 45.4522 7.46513 43.4189 6.95901 43.2283C6.64268 43.1012 6.57942 43.2918 6.57942 43.2918C6.57942 43.2918 6.38962 43.4189 6.51615 43.673C6.70595 44.1814 8.7937 46.2783 9.36309 46.6595C9.48962 46.723 9.61615 46.7866 9.67942 46.723C9.55289 46.8501 9.48962 46.8501 9.61615 46.9772C9.67942 47.0408 9.80595 47.1043 9.99574 46.9772C9.99574 47.0408 9.99574 47.0408 9.99574 47.1043C10.1223 47.3585 10.5019 47.8668 10.8182 47.9939Z" fill="#4988D1"/>
<path d="M12.3369 49.5191C12.3369 49.3285 11.9573 48.9473 11.4512 48.9473C10.7553 48.9473 10.439 49.3921 10.439 49.6462C10.439 50.091 10.8818 50.1546 11.0084 50.1546C11.4512 50.1546 12.2737 49.6462 12.3369 49.5191Z" fill="#4988D1"/>
<path d="M11.7042 50.5993C11.5144 50.8535 11.4512 51.1077 11.5144 51.2983C11.5777 51.5525 11.8308 51.6796 12.0838 51.6796C12.3369 51.6796 12.59 51.5525 12.7165 51.3618C12.9695 50.9171 12.9695 49.9639 12.9063 49.9004C12.6532 49.9004 12.0206 50.1546 11.7042 50.5993Z" fill="#4988D1"/>
<path d="M5.50431 40.6863C5.31452 40.4957 4.87166 40.8134 4.6186 40.6228C4.74513 39.9874 5.18799 40.6228 5.56758 40.2415C5.75737 40.0509 5.63084 39.7967 5.56758 39.7332C5.37778 39.9238 5.12472 39.8603 5.06146 39.7332C5.50431 38.5894 4.6186 37.3822 3.73288 37.5092C3.92268 37.7634 3.98595 38.5894 3.85942 38.7801C4.17574 39.0342 3.98595 39.6061 3.60635 39.4155C3.35329 39.2884 2.91044 38.653 3.41656 38.2717C3.41656 38.0811 3.10023 38.0811 2.84717 38.4624C3.03697 37.7634 1.7084 37.954 1.45533 38.1447C1.3288 38.4624 1.13901 39.7967 1.83493 39.5426C1.45533 39.8603 1.5186 40.178 1.64513 40.178C2.08799 39.6696 2.65737 40.0509 2.78391 40.3051C2.9737 40.6863 2.40431 40.9405 2.15125 40.6228C1.96146 40.6863 1.13901 40.6863 0.949211 40.4957C0.822681 41.3853 2.08799 42.3384 3.1635 41.8301C3.29003 41.8301 3.35329 42.1478 3.1635 42.3384C3.22676 42.4655 3.54309 42.529 3.66962 42.3384C4.11248 41.8936 3.47982 41.4488 4.04921 41.3217C4.17574 41.5759 3.92268 42.0207 4.11248 42.2113C4.4288 42.529 4.8084 41.8936 5.25125 41.8936C5.25125 41.3853 5.82064 41.004 5.50431 40.6863ZM2.21452 39.2249C2.21452 39.2249 2.02472 39.0978 2.27778 38.7801C2.53084 38.5259 2.65737 38.7165 2.65737 38.7165C2.65737 38.7165 2.91044 39.2249 2.9737 39.479C2.72064 39.479 2.21452 39.2249 2.21452 39.2249ZM4.23901 40.8134C4.11248 40.8134 3.79615 41.1311 3.66962 40.9405L2.9737 40.2415L3.35329 39.8603L3.73288 39.479L4.4288 40.178C4.49207 40.3686 4.23901 40.6863 4.23901 40.8134Z" fill="#4988D1"/>
<path d="M5.69398 41.958C5.63071 41.958 5.56745 41.958 5.50418 42.0215C5.44092 42.0851 5.44092 42.2122 5.44092 42.3393C5.44092 42.4663 5.56745 42.5934 5.69398 42.7205C5.75724 42.9111 5.94704 42.9747 6.07357 42.9747C6.13684 42.9747 6.2001 42.9747 6.26337 42.9111C6.3899 42.784 6.32663 42.4028 6.13684 42.2122C6.01031 42.0851 5.82051 41.958 5.69398 41.958Z" fill="#4988D1"/>
<path d="M3.66963 39.8604L3.47984 40.051L3.29004 40.2416C3.29004 40.2416 3.66963 40.7499 3.98596 40.5593C4.17575 40.2416 3.66963 39.8604 3.66963 39.8604Z" fill="#4988D1"/>
<path d="M40.6162 37.9546C40.6162 38.0817 40.1101 38.3359 39.7305 37.6369C39.3509 37.5734 38.9713 37.4463 38.7183 37.3192C39.1611 38.2088 39.5407 38.9713 40.1734 39.3525C41.1223 39.9244 42.5774 39.7973 43.0203 39.1619C42.1979 38.7171 41.2489 37.5734 40.7428 36.4932C40.6162 36.7473 40.4264 37.1921 40.2999 37.5098C40.3632 37.6369 40.4897 37.8275 40.6162 37.9546Z" fill="#4988D1"/>
<path d="M49.4104 24.0387C50.4227 23.5939 51.8778 22.5772 52.5737 21.9418C52.637 22.0689 52.89 22.6408 52.1308 23.2762C51.5614 23.721 50.4227 24.2928 49.6002 24.6105C49.2206 25.1824 48.4614 25.8178 47.4492 26.5168C49.4737 26.1991 51.8778 25.373 53.0798 24.2293C55.2941 22.0053 54.1553 19.3366 53.839 18.7012C52.3839 20.5439 49.6002 22.4501 47.0063 23.4668C47.8921 23.5939 48.7778 23.7845 49.4104 24.0387Z" fill="#4988D1"/>
<path d="M47.7655 19.9725C49.0941 18.8923 50.4859 16.7318 50.739 15.9693C51.0553 16.16 51.1819 16.7954 50.8023 17.4943C50.1063 18.7016 48.841 19.7818 47.7655 20.6714C47.7023 21.4339 47.3859 22.387 47.0063 23.086C48.588 22.0058 50.4227 20.4173 51.2451 19.337C52.3206 17.9391 52.7635 16.5412 52.5737 15.1433C52.637 13.5548 51.4982 11.9662 51.0553 11.585C50.739 13.3006 49.0308 16.2235 47.5125 17.8756C47.639 18.4475 47.7655 19.2735 47.7655 19.9725Z" fill="#4988D1"/>
<path d="M46.7531 30.0117C47.0694 30.393 47.3858 30.8378 47.6388 31.219C48.8409 31.4732 50.296 31.4096 50.296 31.4096C50.296 31.4096 50.2327 32.0451 49.4102 32.1086C49.0306 32.1086 47.8919 31.918 47.449 31.7909C47.2592 31.8544 46.3735 32.1086 45.4878 32.2357C46.7531 32.6805 48.5878 33.1253 49.7266 33.1253C49.8531 33.1253 49.9164 33.1253 50.0429 33.1253C51.8776 32.9346 52.8266 31.219 52.8898 30.2659C52.3204 30.393 51.3715 30.4565 50.4225 30.4565C49.5368 30.4565 47.9551 30.393 46.7531 30.0117Z" fill="#4988D1"/>
<path d="M54.408 25.1826C52.7631 26.0722 49.8529 26.9618 47.512 26.9618C48.0814 27.343 48.6508 27.7243 49.0304 28.1055C49.9794 28.042 51.308 27.7243 52.0672 27.4701C52.0672 27.5972 52.0672 28.2326 51.1814 28.4868C50.5488 28.6774 49.6631 28.6774 48.9672 28.6774C48.3978 29.0587 47.5753 29.3764 46.8794 29.6305C47.512 29.6941 48.3345 29.7576 49.0304 29.7576C50.2325 29.7576 51.3712 29.6305 52.0672 29.3764C52.6998 29.1857 54.7876 28.2962 54.408 25.1826Z" fill="#4988D1"/>
<path d="M45.5511 33.9515C46.247 34.2692 47.0062 34.5234 47.6388 34.5869C47.6388 34.5869 47.5123 35.2223 46.5633 35.0952C45.9939 35.0317 45.3613 34.5869 45.2347 34.5234C44.7919 34.5869 43.9062 34.5869 43.5898 34.5234C44.6654 35.2859 46.3103 36.1755 47.7021 36.3025C47.7654 36.3025 47.8286 36.3025 47.8919 36.3025C49.347 36.3025 50.4858 34.8411 50.8021 34.1421C49.347 34.1421 46.8164 33.5067 45.298 32.6807C45.3613 32.9348 45.4878 33.4432 45.5511 33.9515Z" fill="#4988D1"/>
<path d="M43.0203 35.9211C43.3999 36.3659 44.0325 36.6201 44.0325 36.6201C44.0325 36.6201 43.8428 36.9378 43.4632 36.9378C43.3366 36.9378 43.2101 36.8742 43.0836 36.8107C42.8305 36.6836 42.4509 36.2388 42.4509 36.2388C41.9448 36.1753 41.5019 36.1117 41.0591 35.9846C41.8183 36.9378 43.0836 38.1451 44.4754 38.4628C44.6652 38.5263 44.855 38.5263 45.1081 38.5263C46.3101 38.5263 47.3223 37.6367 47.5754 37.0648C46.1836 36.8742 44.1591 35.794 43.1468 34.7773C43.1468 35.1586 43.0836 35.6034 43.0203 35.9211Z" fill="#4988D1"/>
<path d="M33.9737 51.4887C34.6696 51.4887 35.1125 51.2345 35.4288 50.5355C34.4798 50.9803 33.4676 50.7262 31.5696 50.1543C31.5696 50.1543 30.8737 50.472 30.4308 50.5355C31.5696 50.8533 33.2145 51.4251 33.4676 52.0605C33.5941 52.5689 33.2778 52.696 33.2778 52.696C32.6451 51.9335 31.8859 51.4887 30.241 50.9803C30.241 51.298 30.1778 51.4887 30.1778 51.4887C30.1778 51.4887 29.8615 51.5522 29.1023 51.4251C29.7349 51.9335 31.2533 53.2678 31.4431 54.6658C31.5696 55.6189 30.8737 55.6824 30.8737 55.6824C30.8104 54.221 30.1778 53.3314 28.7859 51.8699C28.7859 51.8699 28.5329 52.1876 28.2798 52.3783C28.2798 52.3783 27.7737 52.3147 27.3941 51.997C27.5839 53.9033 27.6472 58.4783 27.5206 59.1772C27.4574 59.6855 27.141 59.9397 27.141 59.9397C27.141 59.9397 26.8247 59.7491 26.7615 59.1772C26.6349 58.4147 26.7615 53.8397 26.888 51.997C26.4451 52.2512 26.0023 52.3783 26.0023 52.3783C25.6859 52.1876 25.4961 51.8699 25.4961 51.8699C24.1676 53.3314 23.5349 54.2845 23.4084 55.6824C23.4084 55.6824 22.7757 55.6189 22.839 54.6658C23.0288 53.2678 24.5472 51.9335 25.1798 51.4251C24.4839 51.5522 24.1043 51.4887 24.1043 51.4887C24.1043 51.4887 24.041 51.298 24.041 50.9803C22.3961 51.4887 21.7002 51.9335 21.0043 52.696C21.0043 52.696 20.688 52.6324 20.8145 52.0605C21.0676 51.4251 22.7125 50.9168 23.8512 50.5355C23.4717 50.472 22.7125 50.1543 22.7125 50.1543C20.8778 50.7262 19.8023 50.9803 18.8533 50.5355C19.1064 51.2345 19.6125 51.4887 20.3084 51.4887C19.4227 51.8064 18.6002 52.696 18.3472 53.5855C18.9798 55.9366 21.0043 56.6355 21.0043 56.6355C20.4982 55.4918 20.688 53.2678 23.7247 51.7428C21.89 53.5855 21.1308 55.3012 21.637 56.8897C22.0798 58.3512 23.5982 58.923 24.6737 58.9866C23.9145 56.572 24.2308 54.348 25.8757 52.6324C25.1798 54.5387 24.1676 60.448 27.0145 61.4012C29.8615 60.448 28.8492 54.5387 28.1533 52.6324C29.7982 54.4116 30.1145 56.572 29.3553 58.9866C30.4941 58.9866 31.9492 58.3512 32.3921 56.8897C32.8982 55.3012 32.2023 53.5855 30.3043 51.7428C33.341 53.2678 33.5308 55.5553 33.0247 56.6355C33.0247 56.6355 35.0492 55.9366 35.6819 53.5855C35.6819 52.696 34.7961 51.8699 33.9737 51.4887Z" fill="#4988D1"/>
<path d="M14.3611 39.3525C14.9938 38.9713 15.3733 38.2088 15.8162 37.3192C15.5631 37.4463 15.1835 37.5734 14.804 37.6369C14.4244 38.3359 13.9182 38.0817 13.9182 37.9546C14.0448 37.8275 14.1713 37.6369 14.2346 37.5098C14.108 37.1921 13.9182 36.7473 13.7917 36.4932C13.2856 37.6369 12.2733 38.7171 11.5142 39.1619C11.957 39.7973 13.4121 39.9244 14.3611 39.3525Z" fill="#4988D1"/>
<path d="M7.0224 26.5167C5.94689 25.8178 5.25098 25.1824 4.87138 24.6105C3.98567 24.2928 2.84689 23.7209 2.34077 23.2761C1.58159 22.6407 1.83465 22.0688 1.89791 21.9417C2.53057 22.6407 3.98567 23.5938 5.06118 24.0386C5.69383 23.7844 6.57955 23.5938 7.46526 23.4667C4.87138 22.5136 2.08771 20.5438 0.632608 18.7646C0.316282 19.3365 -0.885759 22.0688 1.39179 24.2928C2.53057 25.373 4.99791 26.199 7.0224 26.5167Z" fill="#4988D1"/>
<path d="M7.46524 23.0225C7.08565 22.3236 6.76932 21.434 6.70606 20.6079C5.63055 19.7819 4.42851 18.7017 3.66932 17.4309C3.28973 16.7319 3.41626 16.0965 3.73259 15.9059C3.98565 16.6684 5.37749 18.8288 6.70606 19.909C6.70606 19.21 6.83259 18.384 7.02239 17.8121C5.50402 16.16 3.73259 13.2371 3.47953 11.5215C3.03667 11.9027 1.8979 13.4913 1.96116 15.0798C1.77137 16.4777 2.21422 17.8757 3.28973 19.2736C4.04892 20.3538 5.88361 22.0059 7.46524 23.0225Z" fill="#4988D1"/>
<path d="M6.83278 31.219C7.02257 30.8378 7.40216 30.393 7.71849 30.0117C6.51645 30.3294 4.93482 30.393 4.11237 30.393C3.10012 30.393 2.15114 30.3294 1.64502 30.2023C1.70828 31.219 2.65726 32.9346 4.49196 33.0617C4.61849 33.0617 4.68175 33.0617 4.80828 33.0617C5.94706 33.0617 7.78175 32.6169 9.04706 32.1721C8.16135 32.0451 7.27563 31.8544 7.08584 31.7273C6.57971 31.9815 5.44094 32.1721 5.06135 32.1086C4.2389 32.0451 4.17563 31.4096 4.17563 31.4096C4.17563 31.4096 5.63073 31.4732 6.83278 31.219Z" fill="#4988D1"/>
<path d="M2.40417 29.4398C3.10008 29.694 4.17559 29.8211 5.4409 29.8211C6.20009 29.8211 6.95927 29.7576 7.59192 29.694C6.896 29.4398 6.07355 29.1221 5.50417 28.7409C4.80825 28.7409 3.85927 28.6773 3.28988 28.5503C2.40417 28.2961 2.40417 27.6607 2.40417 27.5336C3.16335 27.8513 4.49192 28.169 5.4409 28.169C5.82049 27.8513 6.32662 27.4065 6.95927 27.0253C4.68172 27.0253 1.70825 26.1357 0.0633497 25.2461C-0.316242 28.2961 1.77151 29.1857 2.40417 29.4398Z" fill="#4988D1"/>
<path d="M6.64263 36.2391C6.70589 36.2391 6.76916 36.2391 6.83242 36.2391C8.22426 36.112 9.86916 35.2225 10.9447 34.46C10.6283 34.5235 9.67936 34.5235 9.29977 34.46C9.17324 34.587 8.47732 34.9683 7.9712 35.0318C6.95895 35.1589 6.89569 34.5235 6.89569 34.5235C7.52834 34.46 8.28752 34.2058 8.98344 33.8881C9.04671 33.3798 9.17324 32.8714 9.29977 32.5537C7.71814 33.4433 5.18752 34.0787 3.73242 34.0787C4.04875 34.7777 5.18752 36.2391 6.64263 36.2391Z" fill="#4988D1"/>
<path d="M9.36334 38.5263C9.55314 38.5263 9.8062 38.5263 9.996 38.4628C11.3246 38.1451 12.6531 36.9378 13.4123 35.9846C12.9695 36.1117 12.5266 36.2388 12.0205 36.2388C12.0205 36.2388 11.7042 36.6201 11.3878 36.8107C11.2613 36.8742 11.1348 36.9378 11.0082 36.9378C10.6286 36.9378 10.4389 36.6201 10.4389 36.6201C10.4389 36.6201 11.0715 36.3023 11.4511 35.9211C11.3878 35.6034 11.3246 35.1586 11.3246 34.7773C10.2491 35.8576 8.28783 36.8742 6.896 37.0648C7.14906 37.6367 8.09804 38.5263 9.36334 38.5263Z" fill="#4988D1"/>
<path d="M26.6978 3.76911C26.6978 4.08682 26.9508 4.27745 27.2039 4.27745C27.4569 4.27745 27.71 4.02328 27.71 3.76911C27.71 3.4514 27.4569 3.26078 27.2039 3.26078C26.9508 3.19724 26.6978 3.4514 26.6978 3.76911Z" fill="#4988D1"/>
<path d="M26.8878 2.62533H27.5837L27.5205 1.73574L28.2796 1.86283V1.16387L27.5205 1.22741L27.5837 0.401367H26.8878L26.9511 1.22741L26.1919 1.16387V1.86283L26.9511 1.73574L26.8878 2.62533Z" fill="#4988D1"/>
<path d="M24.4203 11.0131C24.4836 11.0131 24.6101 11.0766 24.6734 11.0766H29.7346C29.8611 11.0766 29.9244 11.0766 29.9877 11.0131C30.1775 10.9495 30.2407 10.8225 30.304 10.6318H24.104C24.1673 10.886 24.2938 10.9495 24.4203 11.0131Z" fill="#4988D1"/>
<path d="M29.9878 10.2505C30.051 10.2505 30.051 10.187 30.051 10.187V9.80573C30.051 9.74219 29.9878 9.74219 29.9878 9.74219H24.4837C24.4204 9.74219 24.4204 9.80573 24.4204 9.80573V10.187C24.4204 10.2505 24.4837 10.2505 24.4837 10.2505H29.9878Z" fill="#4988D1"/>
<path d="M30.5574 9.29701C30.6839 9.10638 31.3798 7.77201 31.3798 6.37409C31.3798 5.10325 29.7982 4.4043 28.9125 4.4043C28.786 6.18346 28.09 8.9793 27.2043 8.9793C26.3819 8.9793 25.6227 6.18346 25.4962 4.4043C24.5472 4.4043 23.0288 5.10325 23.0288 6.37409C23.0288 7.77201 23.7247 9.16992 23.8513 9.29701H30.5574Z" fill="#4988D1"/>
<path d="M27.2042 8.09036C27.6471 8.09036 28.1532 6.75599 28.343 5.42161C28.343 5.16745 27.9001 4.7862 27.2042 4.72266C26.5083 4.72266 26.0654 5.10391 26.0654 5.42161C26.2552 6.62891 26.8246 8.09036 27.2042 8.09036Z" fill="#4988D1"/>
<path d="M35.2385 28.932C35.2385 28.7413 35.112 28.6143 34.9222 28.6143H19.5487C19.359 28.6143 19.2324 28.7413 19.2324 28.932V39.5434V39.607V39.6705C19.2324 39.6705 19.2324 40.2424 19.4855 40.8778C19.8018 41.6403 21.1304 42.9111 22.7753 43.8007C25.1161 45.008 26.5079 45.9611 27.2039 46.533C27.8998 45.9611 29.2916 45.008 31.6324 43.8007C33.3406 42.9111 34.6059 41.6403 34.9222 40.8778C35.2385 40.1788 35.1753 39.6705 35.1753 39.6705L35.2385 28.932ZM30.0508 32.808V32.8715C30.2406 33.634 30.4304 34.4601 30.4936 35.2226C31.1263 35.7309 31.6957 36.2393 32.2018 36.7476C33.1508 35.6674 33.6569 34.6507 33.6569 33.8247C33.2141 33.8247 32.8345 33.4434 32.8345 32.9986C32.8345 32.808 32.8977 32.6809 32.961 32.5538C32.5181 32.3632 32.012 32.2997 31.5692 32.2997C31.1896 32.2997 30.81 32.3632 30.3671 32.4268H30.3039L30.1773 32.4903L30.2406 32.4268C30.3039 32.2997 30.3039 32.2361 30.3671 32.109C31.6324 31.8549 32.6447 31.982 33.2773 32.3632C33.4039 32.2997 33.5304 32.2361 33.6569 32.2361C34.0998 32.2361 34.4794 32.6174 34.4794 33.0622C34.4794 33.3799 34.2896 33.634 34.0365 33.7611C34.0365 34.6507 33.5304 35.7945 32.4549 37.0653C32.5181 37.1288 32.5814 37.1924 32.6447 37.2559C32.7079 37.3195 32.7079 37.3195 32.7712 37.383V37.4465C32.7079 37.5101 32.6447 37.5736 32.5814 37.6372H32.5181C32.5181 37.6372 32.5181 37.6372 32.4549 37.6372C32.3916 37.5736 32.3916 37.5736 32.3916 37.5101C32.3283 37.4465 32.3283 37.383 32.2651 37.3195C32.1385 37.4465 32.012 37.5736 31.8855 37.7007L31.759 37.8913C31.5692 38.0184 31.3794 38.082 31.2528 38.0184H31.1896L31.2528 37.9549C31.5692 37.7007 31.8222 37.383 32.0753 37.1924C31.6957 36.7476 31.1896 36.3028 30.6834 35.858C30.7467 36.3028 30.7467 36.7476 30.7467 37.1924C30.7467 37.5736 30.7467 38.0184 30.6834 38.4632C30.6202 38.5268 30.4936 38.5903 30.4304 38.6538L30.3671 38.7174V38.6538C30.4304 38.1455 30.4304 37.6372 30.4304 37.1924C30.4304 37.0653 30.4304 36.8747 30.4304 36.7476V36.6205C30.4304 36.3028 30.3671 35.4132 30.3039 34.8413C30.2406 34.333 30.1141 33.8247 29.9875 33.3163V33.2528C30.0508 33.1893 30.1141 33.1257 30.1773 33.0622L30.0508 32.808ZM24.863 31.6643C25.4957 30.1393 26.3814 29.3132 27.2671 29.3132C28.1528 29.3132 29.0385 30.1393 29.6712 31.6643V31.7278H29.6079C29.5447 31.7278 29.4814 31.7913 29.3549 31.8549H29.2916V31.7913C28.7222 30.457 27.963 29.6945 27.2039 29.6945C26.4447 29.6945 25.6855 30.457 25.1161 31.7913V31.8549H25.0528C24.9896 31.7278 24.863 31.7278 24.863 31.6643ZM24.61 32.0455C24.7998 32.1726 25.3692 32.4903 26.0018 32.2997C26.5712 32.109 27.2039 32.109 27.2039 32.109C27.2039 32.109 27.8998 32.109 28.4059 32.2997C29.0385 32.4903 29.6079 32.1726 29.7977 32.0455C29.861 32.0455 29.861 32.0455 29.861 32.109C29.7977 32.3632 29.6079 32.9986 28.659 33.2528C27.7732 33.4434 27.3304 34.4601 27.2039 34.9049C27.2039 34.9684 27.1406 34.9684 27.0773 34.9049C26.9508 34.4601 26.5079 33.4434 25.6222 33.2528C24.6732 33.0622 24.4834 32.3632 24.4202 32.109C24.5467 32.0455 24.61 32.0455 24.61 32.0455ZM26.1283 34.5872C26.2549 34.5872 26.4447 34.5236 26.5712 34.4601C26.6345 34.5872 26.6977 34.7778 26.761 34.9049C26.5712 35.032 26.3814 35.0955 26.1283 35.0955C25.4324 35.0955 24.9263 34.5236 24.9263 33.8882C24.9263 33.6976 24.9896 33.5705 25.0528 33.4434C25.1794 33.507 25.3059 33.5705 25.4957 33.634C25.4324 33.6976 25.4324 33.8247 25.4324 33.8882C25.3692 34.2695 25.7487 34.5872 26.1283 34.5872ZM25.812 33.8247C25.812 33.7611 25.812 33.7611 25.812 33.6976C26.0018 33.7611 26.1916 33.9518 26.3181 34.0788C26.2549 34.1424 26.1916 34.1424 26.1283 34.1424C25.9385 34.1424 25.812 34.0153 25.812 33.8247ZM26.1283 35.4768C26.3814 35.4768 26.6977 35.4132 26.9508 35.2226C27.0141 35.2861 27.1406 35.5403 27.2039 35.5403C27.3304 35.5403 27.3936 35.2861 27.4569 35.2226C27.71 35.3497 28.0263 35.4768 28.2794 35.4768C28.7222 35.4768 29.1018 35.2861 29.4181 35.032C29.4181 35.032 29.4181 35.032 29.4181 35.0955C29.5447 35.6038 29.6079 36.2393 29.5447 36.4934C29.5447 36.7476 29.4181 37.0018 29.3549 37.2559C29.2283 37.5736 29.1651 37.8278 29.1651 37.8278C29.1651 37.8278 29.1651 37.8913 29.1018 38.0184C29.0385 38.2726 28.8488 38.7174 28.5957 39.1622C28.0896 38.8445 27.5834 38.7174 26.9508 38.7174C26.3814 38.7174 25.8753 38.8445 25.4324 39.0986C25.2426 38.6538 25.0528 38.2726 24.9896 38.082C24.9263 37.9549 24.9263 37.8913 24.9263 37.8913C24.9263 37.8913 24.7998 37.6372 24.6732 37.2559C24.61 37.0653 24.5467 36.8111 24.5467 36.557C24.5467 36.3663 24.4834 35.7309 24.6732 35.159C24.6732 35.0955 24.7365 35.032 24.7365 34.9684C25.1794 35.2226 25.6855 35.4768 26.1283 35.4768ZM28.3426 34.5872C28.7855 34.5872 29.1018 34.2695 29.1018 33.8247C29.1018 33.6976 29.1018 33.634 29.0385 33.5705C29.1651 33.507 29.3549 33.4434 29.4814 33.3799C29.5447 33.507 29.6079 33.6976 29.6079 33.8247C29.6079 34.5236 29.0385 35.032 28.4059 35.032C28.1528 35.032 27.963 34.9684 27.7732 34.8413C27.8365 34.7143 27.8998 34.5872 27.963 34.3965C28.0263 34.5236 28.2161 34.5872 28.3426 34.5872ZM28.1528 34.0788C28.2794 33.8882 28.4692 33.7611 28.659 33.6976C28.659 33.7611 28.659 33.7611 28.659 33.8247C28.659 34.0153 28.5324 34.1424 28.3426 34.1424C28.2794 34.1424 28.2161 34.1424 28.1528 34.0788ZM20.8141 32.2997C21.0039 32.2997 21.1304 32.3632 21.2569 32.4268C21.6998 32.1726 22.2059 32.0455 22.9018 32.0455C23.2814 32.0455 23.661 32.109 24.1039 32.1726H24.1671C24.1671 32.2361 24.2304 32.3632 24.2936 32.4903L24.3569 32.5538L24.2304 32.4903C24.1671 32.4903 24.1671 32.4903 24.1039 32.4903C23.7243 32.4268 23.3447 32.3632 22.9651 32.3632C22.5222 32.3632 21.9528 32.4268 21.5732 32.6809C21.6365 32.808 21.6998 32.9351 21.6998 33.1257C21.6998 33.5705 21.3202 33.9518 20.8773 33.9518C20.8773 34.7143 21.3834 35.7309 22.3324 36.8747C22.8385 36.3663 23.4079 35.7945 24.0406 35.3497C24.1039 34.5872 24.2936 33.7611 24.4834 32.9986V32.9351L24.5467 32.9986C24.61 33.0622 24.6732 33.1257 24.7365 33.1893C24.7365 33.1893 24.7365 33.1893 24.7998 33.2528V33.3163C24.6732 33.8247 24.5467 34.2695 24.4834 34.7778V34.8413C24.4202 35.2226 24.3569 35.7309 24.3569 36.2393C24.3569 36.6205 24.2936 36.9382 24.2936 37.1924C24.2936 37.5736 24.2936 37.9549 24.3569 38.4632V38.5268H24.2936C24.1671 38.4632 24.1039 38.4632 24.0406 38.4632H23.9773V38.3997C23.9773 38.082 23.9141 37.6372 23.9141 37.1924C23.9141 36.7476 23.9141 36.3028 23.9773 35.858C23.4712 36.3028 22.9651 36.7476 22.5855 37.1924C22.9018 37.5736 23.3447 37.9549 23.8508 38.3997L23.9141 38.4632H23.8508C23.7243 38.5268 23.5345 38.5268 23.4079 38.4632C23.0283 38.082 22.712 37.8278 22.3957 37.5101C22.3324 37.5736 22.2692 37.6372 22.2692 37.7007L22.2059 37.7643C22.1426 37.7643 22.0794 37.8278 21.9528 37.8913L21.8896 37.8278C21.8896 37.8278 21.8263 37.8278 21.8263 37.7643H21.763V37.7007C21.8896 37.5101 22.0161 37.383 22.1426 37.2559C21.0671 36.0486 20.561 34.9049 20.561 34.0153C20.3079 33.8882 20.1181 33.634 20.1181 33.3163C19.9916 32.6809 20.3712 32.2997 20.8141 32.2997ZM29.7977 42.1486C29.3549 43.4195 28.7222 44.309 28.0263 44.6903C27.963 45.0715 27.6467 45.3893 27.2671 45.3893C26.8875 45.3893 26.5712 45.0715 26.5079 44.6903C25.812 44.309 25.1794 43.483 24.7365 42.2122V42.1486L25.1161 42.0215V42.0851C25.4957 43.1653 26.0018 43.9278 26.5712 44.309C26.6977 43.9913 26.9508 43.7372 27.3304 43.7372C27.71 43.7372 27.963 43.9913 28.0896 44.2455C28.659 43.8643 29.1651 43.1018 29.5447 42.0851V42.0215H29.6079C29.6079 42.0851 29.6712 42.0851 29.7977 42.1486ZM26.5712 42.0851C26.5712 41.8309 26.6345 41.132 26.761 40.8778C26.8875 40.8143 27.0773 40.7507 27.2671 40.7507C27.4569 40.7507 27.6467 40.8143 27.8365 40.9413C27.8998 41.1955 28.0263 41.8309 28.0263 42.0851C28.0263 42.3393 27.3936 42.5299 27.3304 42.5934C27.1406 42.5299 26.5712 42.4028 26.5712 42.0851ZM34.6692 39.5434C34.6059 39.607 34.5426 39.6705 34.4794 39.6705C34.4161 39.6705 34.3528 39.734 34.2263 39.734H34.163C34.0365 39.734 33.91 39.734 33.8467 39.6705C33.7834 39.6705 33.7834 39.607 33.7202 39.607C33.5304 39.607 33.0875 39.734 32.961 39.7976C33.0243 39.7976 33.5936 39.8611 33.9732 40.1788C34.163 40.3059 34.5426 40.3695 34.6692 40.3695C34.6692 40.433 34.0365 40.8778 32.8345 40.6236L32.5181 40.5601C31.9488 40.433 31.4426 40.3695 30.8732 40.3695C30.9365 40.3695 30.9998 40.433 30.9998 40.433C31.1263 40.4965 31.3161 40.5601 31.4426 40.6236C31.4426 40.6236 31.5059 40.6236 31.5059 40.6872H31.5692C31.6324 40.6872 31.6957 40.6872 31.6957 40.7507C31.759 40.7507 31.8222 40.8143 31.8855 40.8143C31.9488 40.8778 32.0753 40.9413 32.0753 41.0049C32.0753 41.0684 32.1385 41.0684 32.1385 41.132C32.1385 41.259 32.1385 41.3226 32.0753 41.4497C31.8855 41.7038 31.6324 41.7038 31.3794 41.4497L31.3161 41.3861C31.2528 41.3226 31.1896 41.259 31.1263 41.132V41.0684C31.1263 41.0684 31.1263 41.0684 31.063 41.0684C30.9365 41.0049 30.8732 40.8778 30.7467 40.8778C30.5569 40.8143 30.3039 40.7507 30.1141 40.6872C30.0508 40.6872 29.9875 40.6872 29.9243 40.6872C30.1141 40.8143 30.3039 40.9413 30.3671 41.0684C30.3671 41.0684 30.3671 41.0684 30.3671 41.132C30.4936 41.3226 30.4936 41.5132 30.5569 41.7038C30.7467 42.0851 30.81 42.1486 30.9998 42.2757C30.81 42.3393 29.861 42.3393 29.4181 41.6403C29.4181 41.6403 29.3549 41.5768 29.3549 41.5132C29.2283 41.259 29.1651 41.0049 29.1018 40.8143C29.0385 40.6236 29.1651 40.433 29.0385 40.3695C28.912 40.3059 28.8487 40.3695 28.8487 40.3695C28.7855 40.433 28.7855 40.433 28.7855 40.433V40.4965C28.7855 40.5601 28.7222 40.5601 28.7222 40.5601V40.6236C28.7222 40.6236 28.7222 40.6872 28.659 40.6872C28.659 40.6872 28.659 40.6872 28.5957 40.6872C28.5324 40.6872 28.5324 40.6872 28.4692 40.6872C28.4692 40.6872 28.4692 40.6872 28.4059 40.6872C28.4059 40.6872 28.3426 40.6872 28.3426 40.7507C28.2794 40.7507 28.2161 40.8143 28.1528 40.8143C28.0896 40.8143 28.0263 40.7507 28.0263 40.6872C28.0263 40.6236 28.0263 40.6236 28.0263 40.5601C27.963 40.5601 27.963 40.5601 27.8998 40.5601C27.8365 40.5601 27.8365 40.5601 27.7732 40.4965C27.7732 40.433 27.7732 40.3695 27.7732 40.3695C27.7732 40.3059 27.7732 40.3059 27.7732 40.3059C27.71 40.3695 27.71 40.3695 27.6467 40.3695C27.5834 40.3695 27.5834 40.3695 27.5202 40.3695C27.4569 40.3695 27.4569 40.3059 27.4569 40.2424V40.1788C27.4569 40.1788 27.4569 40.1788 27.4569 40.1153C27.4569 40.1153 27.4569 40.1153 27.3936 40.1153H27.3304C27.2671 40.1153 27.1406 40.0518 27.0773 40.0518C27.0773 40.0518 27.0773 40.0518 27.0141 40.0518C26.9508 40.0518 26.8243 40.1153 26.761 40.1153H26.6977H26.6345C26.6345 40.1153 26.6345 40.1153 26.6345 40.0518C26.6345 40.0518 26.6345 40.0518 26.6345 39.9882L26.6977 39.9247C26.6977 39.9247 26.6977 39.9247 26.6977 39.8611C26.6345 39.8611 26.6345 39.8611 26.5712 39.8611V39.9247C26.5712 39.9247 26.5712 39.9247 26.5079 39.9247V39.9882V40.0518C26.5079 40.1153 26.5079 40.1788 26.4447 40.1788C26.3814 40.2424 26.3814 40.2424 26.3181 40.1788C26.3181 40.1788 26.2549 40.1788 26.2549 40.1153C26.2549 40.1153 26.1916 40.1153 26.1916 40.0518C26.1916 40.0518 26.1916 40.1153 26.2549 40.1153C26.2549 40.1788 26.2549 40.1788 26.2549 40.2424C26.1916 40.3059 26.1916 40.3059 26.1283 40.3059H26.0651H26.0018C26.0018 40.3695 26.0651 40.3695 26.0018 40.433C26.0018 40.4965 25.9385 40.4965 25.8753 40.4965C25.812 40.4965 25.812 40.4965 25.7487 40.4965C25.7487 40.4965 25.7487 40.4965 25.6855 40.4965H25.6222L25.559 40.433C25.559 40.433 25.4957 40.433 25.4324 40.433C25.4324 40.433 25.3692 40.433 25.3692 40.3695L25.3059 40.3059V40.2424C25.1794 40.1153 24.9896 40.5601 24.9896 40.5601C24.4202 41.7674 23.0283 42.0216 23.0283 41.958C23.0283 41.958 23.3447 41.8309 23.4712 41.3861C23.5345 41.132 23.5345 41.0684 23.661 40.8143C23.661 40.7507 23.7243 40.7507 23.7243 40.6872C23.7875 40.5601 23.9773 40.4965 24.1039 40.3695C24.0406 40.3695 23.9773 40.3695 23.9141 40.3695C23.7243 40.433 23.5345 40.433 23.2814 40.5601C23.1549 40.6236 23.0916 40.6872 22.9651 40.7507C22.9651 40.7507 22.9651 40.7507 22.9018 40.7507V40.8143C22.9018 40.8778 22.8385 40.9413 22.7753 41.0684L22.712 41.132C22.459 41.3861 22.2692 41.3861 22.0161 41.132L21.9528 41.0684C21.8896 41.0049 21.8896 40.8778 21.9528 40.8143C21.9528 40.7507 22.0161 40.6872 22.0794 40.6236C22.1426 40.5601 22.2059 40.5601 22.2692 40.4965C22.3324 40.433 22.3957 40.433 22.459 40.433C22.5222 40.433 22.5222 40.433 22.5855 40.3695C22.5855 40.3695 22.6487 40.3695 22.712 40.3695C22.712 40.3695 22.712 40.3059 22.7753 40.3059C22.8385 40.3059 22.9018 40.2424 22.9651 40.2424C23.0283 40.2424 23.0916 40.1788 23.1549 40.1788C23.1549 40.1788 23.2181 40.1788 23.2814 40.1153C22.7753 40.1153 22.2692 40.1788 21.6998 40.3059C21.6365 40.3059 21.51 40.3695 21.3834 40.3695C20.7508 40.4965 19.5487 40.1788 19.5487 40.1153C19.5487 40.0518 19.8651 40.0518 20.1814 39.8611C20.4345 39.734 20.561 39.607 20.7508 39.5434C21.0671 39.7976 21.4467 39.7976 21.51 39.7976C21.3834 39.734 20.8141 39.6705 20.6243 39.607C20.6243 39.607 20.561 39.6705 20.4977 39.6705C20.3712 39.734 20.2447 39.734 20.1181 39.734C20.0549 39.734 19.9283 39.734 19.8651 39.6705C19.8018 39.6705 19.7385 39.607 19.6753 39.5434C19.612 39.4799 19.612 39.4163 19.612 39.2257C19.6753 38.9715 19.9283 38.8445 20.2447 38.908C20.4345 38.9715 20.561 39.0351 20.6243 39.0986L20.6875 39.1622C20.8773 39.1622 21.1304 39.2893 21.3834 39.3528C21.6365 39.4799 21.8263 39.5434 21.9528 39.5434C21.8896 39.5434 21.8263 39.4799 21.763 39.4799C21.6998 39.4799 21.6365 39.4163 21.6365 39.4163C21.5732 39.3528 21.51 39.3528 21.4467 39.2893C21.0671 39.0986 20.6875 38.908 20.4345 38.6538C20.2447 38.3997 20.1814 38.2726 20.1181 38.0184C20.0549 37.4465 19.8018 37.1924 19.8018 37.1288C19.8651 37.0653 20.7508 37.5101 21.0671 37.8278C21.2569 38.082 21.3202 38.2726 21.3834 38.4632V38.5268C21.4467 38.7174 21.6365 38.908 21.9528 39.0986C22.0161 39.0986 22.0161 39.1622 22.0794 39.1622C22.0161 39.0351 21.9528 38.9715 21.8896 38.8445V38.7809L21.8263 38.7174C21.8263 38.7174 21.763 38.6538 21.763 38.5903C21.6998 38.5268 21.6998 38.4632 21.6365 38.3997C21.5732 38.209 21.5732 38.0184 21.6365 37.9549C21.6998 37.8913 21.763 37.8278 21.8896 37.7643C22.1426 37.7007 22.3324 37.8278 22.3957 38.209C22.3957 38.2726 22.3957 38.3361 22.3957 38.3997C22.3957 38.4632 22.3957 38.5268 22.3957 38.5903V38.6538C22.3957 38.6538 22.3957 38.6538 22.3957 38.7174C22.5222 39.0986 22.8385 39.4163 23.2181 39.6705C22.7753 39.2893 22.5222 38.3997 22.5855 38.3997C22.6487 38.3361 23.0283 38.5903 23.4079 38.7809C23.5977 38.8445 23.7875 38.9715 23.9773 39.0986C24.1039 39.1622 24.2304 39.2893 24.2936 39.3528C24.4202 39.4163 24.4834 39.5434 24.5467 39.607C24.61 39.6705 24.6732 39.734 24.7365 39.7976C24.7998 39.8611 24.7998 39.8611 24.863 39.9247C24.9896 39.9882 25.1794 39.9247 25.1794 39.9247C25.2426 39.9247 25.3059 39.9247 25.3692 39.8611C25.3692 39.8611 25.3692 39.8611 25.4324 39.7976C25.4957 39.734 25.559 39.734 25.6222 39.734V39.6705C25.6222 39.5434 25.6855 39.4799 25.812 39.4163C25.812 39.4163 25.8753 39.4163 25.8753 39.3528H25.9385H26.0018H26.0651C26.0651 39.2893 26.1283 39.2893 26.1916 39.2257C26.3181 39.1622 26.5079 39.1622 26.6345 39.2893C26.6977 39.3528 26.6977 39.4163 26.761 39.4799V39.5434C26.761 39.607 26.761 39.607 26.761 39.6705C26.761 39.734 26.761 39.734 26.761 39.7976C26.8243 39.7976 26.9508 39.7976 27.0141 39.7976C27.0773 39.7976 27.0773 39.7976 27.1406 39.7976C27.2039 39.7976 27.2671 39.7976 27.3304 39.8611C27.3936 39.8611 27.4569 39.7976 27.5202 39.7976C27.5834 39.7976 27.5834 39.7976 27.6467 39.7976H27.71C27.71 39.734 27.71 39.6705 27.71 39.607C27.71 39.5434 27.71 39.4799 27.7732 39.4163C27.7732 39.4163 27.7732 39.3528 27.8365 39.3528L27.8998 39.2893C28.0263 39.2257 28.1528 39.2257 28.2794 39.2893C28.3426 39.2893 28.3426 39.3528 28.4059 39.4163C28.4692 39.4163 28.4692 39.4163 28.5324 39.4163H28.5957H28.659C28.7855 39.4799 28.8487 39.5434 28.8487 39.6705C28.8487 39.6705 28.8488 39.6705 28.912 39.6705H28.9753C28.9753 39.6705 29.2916 39.6705 29.3549 39.734H29.6712C29.7345 39.6705 29.7345 39.6705 29.7977 39.607C29.861 39.5434 29.9875 39.4163 30.0508 39.3528C30.1773 39.2893 30.2406 39.1622 30.3671 39.0986C30.5569 38.9715 30.81 38.908 30.9998 38.8445C31.6324 38.5903 31.6957 38.209 31.759 38.209C31.8222 38.2726 31.6324 39.2893 31.1896 39.6705C31.5059 39.4163 31.8222 39.0986 32.012 38.7174C32.012 38.7174 32.012 38.7174 32.012 38.6538V38.5903C32.012 38.5268 32.012 38.4632 32.012 38.3997C32.012 38.3361 32.012 38.2726 32.012 38.209C32.1385 37.8913 32.2651 37.7007 32.5181 37.7643C32.6447 37.8278 32.7079 37.8913 32.7712 37.9549C32.8345 38.082 32.8345 38.209 32.7712 38.3997C32.7712 38.4632 32.7079 38.5268 32.6447 38.5903C32.5814 38.6538 32.5814 38.6538 32.5181 38.7174L32.4549 38.7809V38.8445C32.3916 38.9715 32.3283 39.0351 32.2018 39.1622C32.2651 39.0986 32.2651 39.0986 32.3283 39.0351C32.6447 38.7809 32.8345 38.5903 32.8977 38.3997C32.961 38.209 33.0243 38.0184 33.2141 37.7643C33.5304 37.4465 33.5936 37.3195 33.91 37.1288C33.9732 37.0653 34.4161 37.0018 34.4794 37.0018C34.5426 37.0653 34.163 37.1924 34.0365 37.8278C33.9732 38.0184 33.91 38.3361 33.7202 38.5903C33.4671 38.908 33.2141 38.9715 32.8977 39.1622L32.8345 39.2257C32.7712 39.2893 32.7079 39.2893 32.5814 39.3528C32.4549 39.4163 32.3916 39.4799 32.3283 39.4799C32.5181 39.4163 32.7079 39.3528 32.961 39.2893C33.1508 39.1622 33.4039 39.0986 33.6569 39.0986C33.6569 39.0986 33.6569 39.0351 33.7202 39.0351C33.7834 38.9715 33.91 38.908 34.0998 38.8445C34.4161 38.7174 34.6692 38.8445 34.7324 39.1622C34.7957 39.3528 34.7324 39.4799 34.6692 39.5434Z" fill="#4988D1"/>
<path d="M45.7406 26.7715C46.6896 26.3267 48.2713 25.2465 48.9039 24.484C48.0182 24.1663 46.2468 23.9756 45.2345 23.9756C47.3223 22.5142 47.3855 19.4642 46.8162 17.2402C46.31 19.0194 45.0447 20.4809 44.2223 21.3704C44.2855 22.26 44.0325 23.785 43.5264 24.6746C44.2223 24.9288 45.0447 25.31 45.6141 25.7548C45.2345 26.2632 44.4121 26.9621 43.9059 27.4069C44.3488 27.8517 45.0447 28.6777 45.4243 29.1861C44.9182 29.5673 43.9059 29.9486 43.3366 30.1392C43.5896 30.7111 43.9692 31.6642 44.0957 32.3631C43.4631 32.4902 42.6406 32.5538 41.7549 32.5538C41.8182 33.1892 41.6917 34.2059 41.5651 34.8413C40.7427 34.7777 39.7937 34.46 39.3508 34.2059C39.0978 35.0954 38.5284 35.985 38.5284 36.0486C37.7692 35.159 37.01 34.8413 36.3141 34.8413V34.2694C37.01 34.2694 37.7692 34.5236 38.3386 35.0954C38.5917 34.6506 38.8447 33.8246 38.9712 33.3163C39.4774 33.5704 40.2998 33.8882 40.9957 34.0152C41.059 33.3798 41.1223 32.5538 41.059 31.9184C41.7549 31.9819 42.5141 31.9819 43.3366 31.8548C43.21 31.2829 42.7039 30.3298 42.3876 29.8215C43.0835 29.6309 43.9692 29.2496 44.4121 28.9954C44.0325 28.4871 43.3998 27.7882 42.957 27.3434C43.4631 26.9621 44.2855 26.3267 44.6019 25.9454C44.0325 25.5642 43.2733 25.1829 42.6406 24.9288C43.5264 23.7215 43.7161 21.2434 43.5264 20.0996C42.7672 22.7048 40.4896 24.6111 39.0978 25.5007C39.0345 25.5642 38.9712 25.6277 38.908 25.6277C38.8447 25.6913 38.5917 26.009 38.7182 26.3902C38.7182 26.5173 38.7815 26.5809 38.7815 26.7079C38.908 27.2163 38.908 27.9788 38.1488 28.6777C37.5161 29.2496 36.757 29.3132 36.3141 29.2496V27.8517C36.3141 27.6611 36.1876 27.534 35.9978 27.534H35.0488L34.6059 27.0892C34.6059 27.0892 35.0488 27.0892 35.5549 27.0892C36.061 27.0257 36.6304 26.7715 36.6304 26.7715C36.6304 26.7715 36.061 26.7715 35.808 26.7079C35.4917 26.7715 34.7957 26.4538 34.2264 25.8184C34.0366 25.5642 33.8468 25.31 33.7202 25.0559C33.2141 24.6111 32.6447 24.0392 32.2651 23.2132C32.0121 22.6413 31.8855 21.8152 31.8223 21.3069C31.6325 21.434 31.4427 21.6882 31.1896 22.0059C30.7468 22.5777 30.557 23.4038 30.557 23.4038L30.3672 24.0392L30.0508 23.4673C30.0508 23.4673 29.608 22.7048 29.5447 21.7517C29.5447 21.3069 29.5447 20.9257 29.608 20.6079C29.4815 20.6715 29.2917 20.7986 29.1019 20.9257C28.3427 21.4975 27.8998 22.0694 27.8998 22.0694C27.5202 22.5777 27.2672 23.0225 27.2039 23.2132C27.1406 22.959 26.8876 22.5777 26.508 22.0694C26.508 22.0694 26.1284 21.434 25.3059 20.9257C25.1161 20.7986 24.9264 20.6715 24.7998 20.6079C24.8631 20.9257 24.8631 21.3704 24.8631 21.7517C24.7998 22.7048 24.357 23.4038 24.357 23.4673L24.0406 23.9756L23.8508 23.3402C23.8508 23.3402 23.5978 22.5142 23.2182 21.9423C22.9651 21.6246 22.7753 21.3704 22.5855 21.2434C22.5223 21.7517 22.3957 22.6413 22.1427 23.1496C21.7631 23.9757 21.257 24.6111 20.6876 24.9923C20.561 25.2465 20.3713 25.5007 20.1815 25.7548C19.6121 26.3902 18.9162 26.7079 18.5998 26.7715C18.3468 26.835 17.7774 26.835 17.7774 26.835C17.7774 26.835 18.3468 27.0892 18.8529 27.1527C19.359 27.2163 19.8019 27.1527 19.8019 27.1527L19.359 27.5975H18.41C18.2202 27.5975 18.0937 27.7246 18.0937 27.9152V29.3132C17.6508 29.3767 16.8284 29.3131 16.259 28.7413C15.5631 28.0423 15.4998 27.2798 15.6264 26.7715C15.6896 26.7079 15.6896 26.5809 15.6896 26.4538C15.8161 26.0725 15.5631 25.7548 15.4998 25.6913C15.4366 25.6277 15.3733 25.5642 15.31 25.5642C13.9182 24.6746 11.7039 22.7684 10.8815 20.1632C10.6917 21.3069 10.9447 23.7215 11.7672 24.9923C11.1345 25.2465 10.3121 25.6277 9.80595 26.009C10.1223 26.3902 10.9447 27.0892 11.4508 27.4069C11.008 27.7882 10.3121 28.5506 9.99574 29.059C10.4386 29.3131 11.3243 29.6944 12.0202 29.885C11.7039 30.3934 11.1978 31.3465 11.0713 31.9184C11.8304 32.0454 12.6529 32.0454 13.3488 31.9819C13.2855 32.6173 13.3488 33.5069 13.4121 34.0788C14.108 33.9517 14.9304 33.6975 15.4366 33.3798C15.5631 33.8246 15.8162 34.7142 16.0692 35.159C16.6386 34.5871 17.3978 34.3329 18.0937 34.3329V34.9048C17.3978 34.9048 16.6386 35.2225 15.8794 36.1121C15.8794 36.0486 15.31 35.159 15.057 34.2694C14.6141 34.46 13.6651 34.8413 12.8427 34.9048C12.7162 34.2694 12.6529 33.2527 12.6529 32.6173C11.7672 32.6173 10.9447 32.5538 10.3121 32.4267C10.4386 31.7277 10.8182 30.7746 11.0713 30.2027C10.5019 30.0121 9.48962 29.5673 8.9835 29.2496C9.29982 28.7413 10.059 27.9152 10.5019 27.4704C9.99574 27.0892 9.17329 26.3267 8.7937 25.8184C9.36309 25.3736 10.1855 24.9923 10.8815 24.7382C10.3753 23.785 10.1223 22.26 10.1855 21.434C9.29982 20.5444 8.03452 19.0829 7.59166 17.3038C6.95901 19.5277 7.08554 22.6413 9.17329 24.0392C8.16105 24.0392 6.38962 24.2934 5.50391 24.5475C6.13656 25.31 7.71819 26.3267 8.66717 26.835C7.90799 27.0892 6.57942 27.8517 6.01003 28.36C6.70595 28.8048 8.28758 29.3131 9.04676 29.5038C8.60391 29.885 7.71819 30.9017 7.40187 31.41C8.03452 31.6006 9.29982 31.7913 10.1223 31.7913C9.86921 32.3632 9.55289 33.3163 9.48962 33.8882C9.86921 33.9517 11.1978 33.8882 11.8937 33.6975C11.8304 34.2694 11.8304 35.2225 11.957 35.6673C12.5896 35.6038 13.5386 35.2861 13.9815 35.159C14.108 35.6673 14.5508 36.684 14.7406 36.9382C15.057 36.8746 15.3733 36.8111 15.6896 36.684C16.5753 36.3663 17.5243 36.7475 17.9039 37.5736C18.5366 39.035 18.2835 40.7507 17.0815 40.4329C15.6896 40.6871 16.6386 42.4663 15.8161 43.0381C16.8917 43.8006 17.208 42.0215 18.5998 42.3392C18.4733 42.9746 18.4733 44.1819 18.5998 44.6902C19.0427 44.3725 19.6753 44.1184 20.0549 44.0548C19.9284 44.4361 19.8651 45.3256 19.9917 45.8975C20.2447 45.7069 22.0794 45.1986 22.0794 45.1986C22.0794 45.1986 21.3835 46.5965 21.8264 47.9944C22.0794 48.185 23.7243 47.359 23.7243 46.9142C23.7876 47.4861 23.0917 48.7569 22.0161 49.0111C23.1549 50.1548 24.1672 50.0913 24.2937 50.0913C24.4835 50.0913 24.61 50.0913 24.7366 49.9642C24.6733 50.2819 24.61 50.7267 24.6733 50.9809C24.7366 50.9809 24.7998 50.9809 24.8631 50.9809C25.1794 50.9809 25.4325 50.9173 25.6223 50.8538C25.6855 51.1715 25.8121 51.4892 26.0019 51.7434C26.0651 51.8069 26.0651 51.8069 26.1284 51.8704C26.3815 51.8704 27.0141 51.5527 27.1406 51.3621C27.2672 51.5527 27.8998 51.8704 28.1529 51.8704C28.2161 51.8069 28.2794 51.8069 28.2794 51.7434C28.5325 51.4892 28.659 51.1079 28.659 50.8538C28.9121 50.9809 29.1651 50.9809 29.4182 50.9809C29.4815 50.9809 29.5447 50.9809 29.608 50.9809C29.6712 50.7267 29.6713 50.2819 29.5447 49.9642C29.6713 50.0277 29.861 50.0913 29.9876 50.0913C30.1141 50.0913 31.1264 50.1548 32.2651 49.0111C31.1896 48.7569 30.4937 47.4861 30.557 46.9142C30.557 47.4225 32.2019 48.185 32.4549 47.9944C32.8978 46.5965 32.2019 45.1986 32.2019 45.1986C32.2019 45.1986 33.9733 45.6434 34.2896 45.8975C34.4161 45.3256 34.3529 44.4361 34.2264 44.0548C34.6059 44.0548 35.2386 44.3725 35.6815 44.6902C35.808 44.1819 35.808 43.0381 35.6815 42.3392C37.01 42.0215 37.3264 43.8006 38.4651 43.0381C37.7059 42.4663 38.6549 40.6871 37.1998 40.4329C35.9978 40.8142 35.7447 39.035 36.3774 37.5736C36.757 36.7475 37.7692 36.3663 38.5917 36.684C38.908 36.8111 39.2243 36.8746 39.5406 36.9382C39.6672 36.684 40.1733 35.6673 40.2998 35.159C40.7427 35.3496 41.6917 35.6038 42.3243 35.6673C42.3876 35.2225 42.4508 34.2694 42.3876 33.6975C43.0202 33.8246 44.4121 33.8882 44.7917 33.8882C44.7284 33.2527 44.4121 32.2996 44.159 31.7913C44.9815 31.7277 46.2468 31.6006 46.8794 31.41C46.5631 30.8382 45.6774 29.8215 45.2345 29.5038C45.9937 29.3131 47.5753 28.8048 48.2713 28.36C47.8284 27.7882 46.4998 27.0257 45.7406 26.7715ZM35.4917 41.0684C35.4284 41.1954 35.3651 41.259 35.3019 41.3861C35.3019 41.4496 35.2386 41.4496 35.2386 41.5131C35.1753 41.5767 35.1121 41.6402 35.0488 41.7673C34.9855 41.8309 34.9855 41.8309 34.9223 41.8944C34.859 42.0215 34.7325 42.085 34.6692 42.2121C34.6059 42.2757 34.5427 42.3392 34.4794 42.4027C34.4161 42.4663 34.3529 42.5298 34.2896 42.5934C34.2264 42.6569 34.1631 42.7204 34.0366 42.8475C33.9733 42.9111 33.9733 42.9111 33.91 42.9746C33.7202 43.1652 33.4672 43.3559 33.2141 43.4829C32.8978 43.7371 32.5815 43.9277 32.2019 44.1184C32.0753 44.1819 31.9488 44.2454 31.8223 44.309C28.9753 45.7704 27.5835 46.9142 27.1406 47.2319H27.0774C26.6345 46.8506 25.2427 45.7704 22.3957 44.309C22.2692 44.2454 22.1427 44.1819 22.0161 44.1184C21.6366 43.9277 21.3202 43.7371 21.0039 43.4829C20.7508 43.2923 20.561 43.1017 20.308 42.9746C20.2447 42.9111 20.1815 42.9111 20.1815 42.8475C20.1182 42.784 19.9917 42.7204 19.9284 42.5934C19.8651 42.5298 19.8019 42.4663 19.7386 42.4027C19.6753 42.3392 19.6121 42.2757 19.5488 42.2121C19.4223 42.085 19.359 42.0215 19.2957 41.8944C19.2325 41.8309 19.2325 41.8309 19.1692 41.7673C19.1059 41.7038 19.0427 41.6402 18.9794 41.5131C18.9794 41.4496 18.9162 41.4496 18.9162 41.3861C18.8529 41.259 18.7896 41.1954 18.7264 41.0684C18.3468 40.2423 18.41 39.5434 18.41 39.5434V28.4236C18.41 28.2329 18.5366 28.1059 18.7264 28.1059H19.6753H27.2039H34.4794H35.4284C35.6182 28.1059 35.7447 28.2329 35.7447 28.4236V39.5434C35.808 39.5434 35.8712 40.2423 35.4917 41.0684Z" fill="#4988D1"/>
<path d="M35.112 10.5683C35.3651 10.5683 35.4916 10.3777 35.4916 10.1235C35.4916 9.86934 35.3018 9.67871 35.112 9.67871C34.859 9.67871 34.7324 9.86934 34.7324 10.1235C34.7324 10.3777 34.9222 10.5683 35.112 10.5683Z" fill="#4988D1"/>
<path d="M35.1121 12.9191C35.3651 12.9191 35.6182 11.8389 35.6182 11.3306C35.6182 11.0129 35.3651 10.8223 35.1121 10.8223C34.859 10.8223 34.606 11.0129 34.606 11.3306C34.606 11.8389 34.859 12.9191 35.1121 12.9191Z" fill="#4988D1"/>
<path d="M34.8592 9.04284H35.4286L35.3021 8.34388L35.998 8.40742V7.83555L35.3021 7.96263L35.4286 7.26367H34.8592L34.9225 7.96263L34.2266 7.83555V8.40742L34.9225 8.34388L34.8592 9.04284Z" fill="#4988D1"/>
<path d="M32.6451 14.1895C32.8349 14.253 33.0247 14.253 33.2145 14.3165H33.2777H33.341C33.4043 14.3165 33.4043 14.3165 33.4043 14.3165H33.5308C33.5941 14.3165 33.6573 14.3165 33.7206 14.3165C33.7838 14.3165 33.7838 14.3165 33.8471 14.3165C33.9104 14.3165 33.9736 14.3165 34.0369 14.3165C34.543 14.3165 35.0492 14.1895 35.5553 14.0624C36.0614 13.9353 36.5675 13.8082 37.1369 13.8082H37.2002H37.2634H37.3267H37.39H37.4532H37.5165C37.643 13.2363 37.8328 12.6009 37.8328 12.2197C37.8328 11.4572 37.39 10.6311 35.9349 10.377C35.9349 11.3301 35.492 13.554 34.9859 13.554H34.9226C34.4165 13.554 33.9736 11.3301 33.9736 10.377C32.5185 10.6311 32.0757 11.4572 32.0757 12.2197C32.0757 12.6645 32.2655 13.4905 32.4553 14.0624C32.6451 14.1259 32.6451 14.1259 32.6451 14.1895Z" fill="#4988D1"/>
<path d="M40.2367 10.187C40.2367 10.187 39.8571 9.17038 40.4897 8.85267C41.1856 8.59851 40.2367 8.72559 40.7428 7.32767C41.3122 5.67559 42.5775 6.05684 42.5775 6.05684C41.6918 5.35788 40.9958 5.42142 40.4897 5.80267C40.1734 6.05684 39.7305 6.56517 39.4142 7.58184C39.1611 8.85267 39.604 10.06 40.2367 10.187Z" fill="#4988D1"/>
<path d="M43.5264 7.70906C43.5897 9.80594 47.0693 10.6955 47.0693 10.6955C47.0693 10.6955 45.0448 9.23406 45.4244 8.15386C45.4244 8.15386 46.753 8.72573 48.2713 8.47156C45.0448 7.77261 46.1203 6.75594 45.2979 5.9299C44.4754 5.04031 43.2101 4.97677 42.8938 4.91323C42.0713 4.84969 42.0081 4.84969 41.0591 5.10386C43.2734 5.1674 43.5264 6.31115 43.5264 7.70906Z" fill="#4988D1"/>
<path d="M43.0838 11.6479C43.5267 9.99579 42.7042 9.23329 42.7042 9.23329C42.4512 8.91558 41.1226 8.97913 40.6165 9.29683C40.6165 9.29683 41.8818 9.29683 41.692 11.1395C41.5022 12.9822 38.9716 13.3635 38.2757 13.427L38.2124 13.6812C39.4144 13.6812 42.5777 13.3 43.0838 11.6479Z" fill="#4988D1"/>
<path d="M29.861 11.585H28.5957C29.2284 13.3641 31.063 13.936 32.2651 14.1266L32.2018 13.936C30.9365 13.4277 30.3039 12.9193 29.861 11.585Z" fill="#4988D1"/>
<path d="M19.3591 10.5683C19.6122 10.5683 19.7387 10.3777 19.7387 10.1235C19.7387 9.86934 19.5489 9.67871 19.3591 9.67871C19.1061 9.67871 18.9795 9.86934 18.9795 10.1235C18.9163 10.3777 19.1061 10.5683 19.3591 10.5683Z" fill="#4988D1"/>
<path d="M19.3592 12.9191C19.6122 12.9191 19.8653 11.8389 19.8653 11.3306C19.8653 11.0129 19.6122 10.8223 19.3592 10.8223C19.1061 10.8223 18.853 11.0129 18.853 11.3306C18.853 11.8389 19.0428 12.9191 19.3592 12.9191Z" fill="#4988D1"/>
<path d="M19.043 9.04284H19.6124L19.5491 8.34388L20.2451 8.40742V7.83555L19.5491 7.96263L19.6124 7.26367H19.043L19.1696 7.96263L18.4736 7.83555V8.40742L19.1696 8.34388L19.043 9.04284Z" fill="#4988D1"/>
<path d="M16.8286 13.8091H16.8919H16.9551H17.0817C17.1449 13.8091 17.1449 13.8091 17.1449 13.8091H17.2082C17.7776 13.8727 18.347 13.9362 18.7898 14.0633C19.2327 14.1904 19.8021 14.3174 20.3082 14.3174C20.3715 14.3174 20.4347 14.3174 20.498 14.3174C20.5613 14.3174 20.5613 14.3174 20.6245 14.3174C20.6878 14.3174 20.751 14.3174 20.8143 14.3174H20.9408H21.0041H21.0674H21.1306C21.3204 14.3174 21.5102 14.2539 21.7 14.1904C21.7 14.1268 21.7 14.1268 21.7633 14.1268C21.9531 13.5549 22.1429 12.7289 22.1429 12.2841C22.1429 11.5216 21.7633 10.6956 20.2449 10.4414C20.2449 11.331 19.8021 13.6185 19.2959 13.6185H19.2327C18.7266 13.6185 18.2837 11.3945 18.2837 10.4414C16.8286 10.6956 16.3857 11.5216 16.3857 12.2841C16.3857 12.6654 16.5123 13.3008 16.7021 13.8727C16.7653 13.8091 16.7653 13.8091 16.8286 13.8091Z" fill="#4988D1"/>
<path d="M11.8306 6.05693C11.8306 6.05693 13.0959 5.67568 13.6653 7.32777C14.1714 8.72568 13.2224 8.5986 13.9183 8.85277C14.6142 9.10693 14.1714 10.1871 14.1714 10.1871C14.8673 10.0601 15.3102 8.85277 14.9306 7.51839C14.6142 6.50173 14.1714 5.99339 13.8551 5.73923C13.3489 5.42152 12.7163 5.35798 11.8306 6.05693Z" fill="#4988D1"/>
<path d="M8.98345 8.15371C9.36304 9.23392 7.33855 10.6954 7.33855 10.6954C7.33855 10.6954 10.8814 9.80579 10.8814 7.70892C10.9447 6.311 11.1345 5.16725 13.2855 5.10371C12.3365 4.91309 12.2732 4.91309 11.4508 4.91309C11.1345 4.91309 9.86916 5.04017 9.04671 5.92975C8.28753 6.75579 9.29977 7.77246 6.07324 8.47142C7.65487 8.72559 8.98345 8.15371 8.98345 8.15371Z" fill="#4988D1"/>
<path d="M12.7796 11.1404C12.5898 9.29767 13.8551 9.29767 13.8551 9.29767C13.4123 8.97996 12.0837 8.97996 11.7674 9.23413C11.7674 9.23413 10.9449 9.93309 11.3878 11.6487C11.8306 13.3008 15.0572 13.682 16.2592 13.682L16.1959 13.4279C15.5 13.3643 12.9694 12.9831 12.7796 11.1404Z" fill="#4988D1"/>
<path d="M25.8754 11.585H24.6101C24.1673 12.9193 23.5346 13.4277 22.2693 13.936L22.2061 14.1266C23.4714 13.936 25.2428 13.3641 25.8754 11.585Z" fill="#4988D1"/>
<path d="M28.8489 19.4001C28.4693 19.9719 28.153 20.6074 27.8999 21.2428C28.0897 20.9886 28.406 20.7344 28.7224 20.4803C29.2917 20.099 29.7979 19.8449 29.7979 19.8449L30.304 19.6542L30.1775 20.1626C30.1775 20.1626 29.9877 20.9886 30.0509 21.6876C30.0509 22.0053 30.1775 22.323 30.2407 22.5136C30.3672 22.1959 30.557 21.8782 30.7468 21.5605C31.3795 20.7344 31.8856 20.4167 31.8856 20.4167L32.2652 20.2261V20.6709C32.2652 20.6709 32.3917 22.1324 32.7081 22.8949C33.2775 24.1657 34.353 24.8646 34.9856 25.1824C34.9224 25.1188 34.7958 24.9917 34.6693 24.8646C34.353 24.5469 34.0366 23.9751 33.8468 22.7678C33.7203 21.7511 34.0999 20.7344 34.2264 20.4167C34.2897 20.6709 34.4162 20.9251 34.5428 20.9886C34.5428 20.9886 34.5428 20.7344 34.606 20.4803C34.7326 19.7813 35.4917 18.7011 36.504 18.0657C36.6938 17.9386 36.8836 17.8115 37.0101 17.748C37.1999 17.6844 37.3264 17.5574 37.453 17.4303C37.2632 17.4303 37.0101 17.4938 36.8203 17.4938H36.757C36.6305 17.4938 36.4407 17.4938 36.1877 17.4938C35.6815 17.4938 35.1121 17.4303 34.6693 17.049C34.2264 16.6678 34.0366 16.2865 33.9734 16.0324C33.7836 16.0324 33.5305 16.0324 33.2142 16.0324C32.8346 16.0324 32.5183 15.9053 32.3285 15.9053C31.8224 16.223 31.3162 16.3501 30.6836 16.4136C30.6203 16.4136 30.4938 16.4136 30.4305 16.4136C30.6203 16.6042 30.8734 16.7313 31.0632 16.8584C31.0632 16.8584 31.0632 16.8584 31.1264 16.8584L30.9999 16.9219C31.0632 16.8584 30.1775 17.3667 28.8489 19.4001Z" fill="#4988D1"/>
<path d="M37.1368 15.8418C36.8838 15.8418 36.694 15.8418 36.4409 15.8418C36.4409 15.9689 36.4409 16.096 36.4409 16.223C36.5042 16.4137 36.5674 16.5408 36.694 16.6678C36.8838 16.5408 37.0736 16.223 37.1368 15.8418Z" fill="#4988D1"/>
<path d="M37.6428 14.3801C37.5795 14.3801 37.5795 14.3801 37.6428 14.3801H37.5795C37.5795 14.3801 37.5795 14.3801 37.5163 14.3801C37.453 14.3801 37.453 14.3801 37.3897 14.3801C36.8836 14.3801 36.3775 14.5072 35.8714 14.6342C35.3652 14.7613 34.7959 14.8884 34.2897 14.8884C34.1632 14.8884 34.0999 14.8884 33.9734 14.8884C33.9101 14.8884 33.8469 14.8884 33.7836 14.8884C33.7203 14.8884 33.7203 14.8884 33.6571 14.8884C33.5938 14.8884 33.5938 14.8884 33.5305 14.8884C33.5305 14.8884 33.5305 14.8884 33.4673 14.8884C33.4673 14.8884 33.4673 14.8884 33.404 14.8884C32.2652 14.7613 31.5061 14.3801 31.1265 14.1895C31.1897 14.3165 31.3163 14.4436 31.5061 14.6342C31.5693 14.6978 31.6326 14.7613 31.6959 14.8249C31.8224 14.952 32.0122 15.079 32.202 15.2061C32.455 15.3332 33.5305 15.778 34.9224 15.5874C36.504 15.3332 36.8203 15.3967 37.1999 15.3967H37.3265C37.8959 15.4603 38.7183 15.778 39.0346 15.9686C39.1612 15.6509 39.351 15.3332 39.4142 15.0155C39.351 14.952 39.2244 14.8249 38.9714 14.6978C38.9081 14.6342 38.8448 14.6342 38.7183 14.5707C38.5918 14.5072 38.402 14.4436 38.1489 14.4436C37.8959 14.3801 37.7693 14.3801 37.6428 14.3801Z" fill="#4988D1"/>
<path d="M42.0712 19.5906C42.0079 19.5906 41.4385 19.9083 40.2365 19.1458C39.0345 18.3833 38.1487 18.0656 37.6426 17.9385C37.5161 18.002 37.4528 18.0656 37.3263 18.1291C37.1998 18.1926 37.01 18.3197 36.8202 18.4468C36.7569 18.5104 36.6936 18.5104 36.6304 18.5739C36.6304 18.5739 36.6936 18.5739 36.7569 18.5739C37.8957 18.701 38.7814 19.3364 38.8447 19.5906H38.9079C39.0345 19.2093 38.8447 18.8916 38.8447 18.8916C38.8447 18.8916 39.3508 19.2093 40.363 19.7812C41.4385 20.4801 41.8814 19.8447 42.0712 19.5906Z" fill="#4988D1"/>
<path d="M36.0611 16.4771C35.9978 16.4135 35.9345 16.2865 35.8713 16.2229C35.808 16.0958 35.808 16.0323 35.808 15.9688C35.5549 15.9688 35.2386 16.0323 34.859 16.0958C34.7958 16.0958 34.6692 16.0958 34.606 16.0958C34.7958 16.4771 35.1121 16.8583 35.7447 16.9854C35.808 16.9854 35.808 16.9854 35.8713 16.9854C35.9345 16.9854 35.9345 16.9854 35.9978 16.9854C36.2509 17.049 36.5672 17.049 36.757 17.049C37.1998 17.049 37.706 16.9854 38.2121 16.8583C38.3386 16.7312 38.4019 16.5406 38.5284 16.4135C38.5284 16.4135 38.4651 16.35 38.4019 16.35C38.2753 16.2865 37.959 16.0958 37.7692 16.0323C37.706 16.2229 37.5794 16.4135 37.4529 16.5406C37.2631 16.6677 37.01 16.7313 36.757 16.7313C36.5039 16.7313 36.2509 16.6677 36.1243 16.5406C36.0611 16.5406 36.0611 16.4771 36.0611 16.4771Z" fill="#4988D1"/>
<path d="M39.4141 15.5244C39.0345 16.5411 38.4018 17.3036 37.959 17.6848C40.8059 16.9223 41.312 18.3838 41.312 18.4473C41.312 18.5109 41.312 18.5109 41.3753 18.4473C41.4386 18.3838 42.3876 17.3671 41.6916 16.414C41.1223 15.6515 39.8569 15.5244 39.4141 15.5244ZM39.4141 16.2869C39.5406 16.1598 39.6039 15.9057 39.6039 15.9057C39.7937 15.9057 40.1733 15.9692 40.1733 16.2234C39.9202 16.1598 39.6039 16.1598 39.4141 16.2869Z" fill="#4988D1"/>
<path d="M18.0304 16.223C18.0304 16.096 18.0304 15.9689 18.0304 15.8418C17.7773 15.8418 17.5243 15.8418 17.3345 15.8418C17.3977 16.223 17.5875 16.5408 17.7773 16.6678C17.9039 16.5408 17.9671 16.4137 18.0304 16.223Z" fill="#4988D1"/>
<path d="M21.2569 14.8249C21.1937 14.8249 21.1937 14.8249 21.2569 14.8249C21.1937 14.8249 21.1937 14.8249 21.1937 14.8249C21.1937 14.8249 21.1937 14.8249 21.1304 14.8249C21.0671 14.8249 21.0671 14.8249 21.0039 14.8249C20.9406 14.8249 20.9406 14.8249 20.8773 14.8249C20.8141 14.8249 20.7508 14.8249 20.6875 14.8249C20.561 14.8249 20.4977 14.8249 20.3712 14.8249C19.8018 14.8249 19.2957 14.6979 18.7896 14.5708C18.2202 14.5072 17.7141 14.3801 17.208 14.3801C17.1447 14.3801 17.1447 14.3801 17.0814 14.3801C17.0814 14.3801 17.0814 14.3801 17.0182 14.3801C16.8916 14.3801 16.7651 14.3801 16.7018 14.3801C16.4488 14.3801 16.259 14.4437 16.1324 14.5072C16.0692 14.5708 15.9426 14.5708 15.8794 14.6343C15.6896 14.7614 15.5631 14.8249 15.4365 14.952C15.4998 15.2697 15.6896 15.651 15.8161 15.9051C16.1324 15.7145 16.9549 15.3333 17.5243 15.3333H17.6508C18.0304 15.3333 18.3467 15.2697 19.9284 15.5239C21.3202 15.7145 22.3324 15.2697 22.6488 15.1426C22.8386 15.0156 23.0284 14.8885 23.1549 14.7614C23.2182 14.6979 23.2814 14.6343 23.3447 14.5708C23.4712 14.3801 23.5977 14.2531 23.7243 14.126C23.1549 14.3166 22.3957 14.6979 21.2569 14.8249Z" fill="#4988D1"/>
<path d="M12.3999 19.5914C12.5897 19.782 13.0326 20.481 14.0448 19.9091C15.057 19.3372 15.5632 19.0195 15.5632 19.0195C15.5632 19.0195 15.3734 19.3372 15.4999 19.7185C15.4999 19.7185 15.4999 19.7185 15.5632 19.7185C15.6897 19.4643 16.5754 18.7654 17.6509 18.7018C17.7142 18.7018 17.7142 18.7018 17.7775 18.7018C17.7142 18.6383 17.6509 18.6383 17.5877 18.5747C17.3979 18.4477 17.2081 18.3206 17.0815 18.257C16.955 18.1935 16.8917 18.1299 16.7652 18.0664C16.2591 18.1299 15.3734 18.5112 14.1713 19.2737C13.0326 19.9091 12.4632 19.5914 12.3999 19.5914Z" fill="#4988D1"/>
<path d="M16.7021 16.0323C16.5755 16.0958 16.1959 16.2865 16.0694 16.35C16.0061 16.35 16.0061 16.4135 15.9429 16.4135C16.0694 16.6042 16.1327 16.7312 16.2592 16.8583C16.7653 16.9854 17.2714 17.049 17.7143 17.049C17.9674 17.049 18.2204 17.049 18.4735 16.9854C18.5367 16.9854 18.5367 16.9854 18.6 16.9854C18.6633 16.9854 18.6633 16.9854 18.7265 16.9854C19.3592 16.8583 19.7388 16.4135 19.8653 16.0958C19.8021 16.0958 19.6755 16.0958 19.6123 16.0958C19.2327 16.0323 18.9163 15.9688 18.6633 15.9688C18.6633 16.0323 18.6 16.1594 18.6 16.2229C18.5367 16.35 18.4735 16.4135 18.4102 16.4771L18.347 16.5406C18.1572 16.6677 17.9674 16.7313 17.7143 16.7313C17.4612 16.7313 17.2082 16.6677 17.0184 16.5406C16.8286 16.4135 16.7653 16.2229 16.7021 16.0323Z" fill="#4988D1"/>
<path d="M12.7162 16.414C12.0203 17.3671 12.9693 18.3838 13.0325 18.4473C13.0958 18.5109 13.0958 18.4473 13.0958 18.4473C13.0958 18.3838 13.6019 16.9223 16.4489 17.6848C16.006 17.3036 15.3734 16.5411 14.9938 15.5244C14.6142 15.5244 13.2856 15.6515 12.7162 16.414ZM15.057 16.2869C14.8672 16.1598 14.5509 16.1598 14.2978 16.2234C14.2978 15.9692 14.6774 15.9057 14.8672 15.9057C14.8672 15.9057 14.9305 16.1598 15.057 16.2869Z" fill="#4988D1"/>
<path d="M23.9775 16.4136C23.9143 16.4136 23.7877 16.4136 23.7245 16.4136C23.0918 16.4136 22.5857 16.223 22.0796 15.9053C21.8898 15.9688 21.5102 16.0324 21.1939 16.0324C20.8775 16.0324 20.5612 16.0324 20.4347 16.0324C20.3714 16.2865 20.1816 16.7313 19.7388 17.049C19.2959 17.4303 18.7265 17.4938 18.2204 17.4938C17.9673 17.4938 17.7775 17.4938 17.651 17.4938H17.5877C17.4612 17.4938 17.2081 17.4303 16.9551 17.4303C17.1449 17.5574 17.2714 17.6209 17.3979 17.748C17.5245 17.8115 17.7143 17.9386 17.9041 18.0657C18.9163 18.7646 19.6755 19.7813 19.802 20.4803C19.8653 20.7344 19.8653 20.9886 19.8653 20.9886C19.9918 20.9251 20.1183 20.6709 20.1816 20.4167C20.3081 20.7344 20.751 21.7511 20.5612 22.7678C20.3714 23.9751 20.0551 24.5469 19.7388 24.8646C19.6122 24.9917 19.4857 25.1188 19.4224 25.1824C20.0551 24.8646 21.1306 24.1657 21.7 22.8949C22.0163 22.1959 22.1428 20.7344 22.1428 20.7344V20.2896L22.5224 20.4803C22.5224 20.4803 23.0918 20.798 23.6612 21.624C23.851 21.9417 24.0408 22.2594 24.1673 22.5771C24.2306 22.323 24.2939 22.0688 24.3571 21.7511C24.4204 20.9886 24.2306 20.2261 24.2306 20.2261L24.1041 19.7178L24.6102 19.9084C24.6102 19.9084 25.1163 20.099 25.6857 20.5438C26.0653 20.798 26.3183 21.0521 26.5081 21.3063C26.2551 20.6709 26.002 20.0355 25.5592 19.4636C24.2306 17.4303 23.4081 16.9855 23.4081 16.9855L23.2816 16.9219C23.2816 16.9219 23.2816 16.9219 23.3449 16.9219C23.5347 16.7313 23.7877 16.5407 23.9775 16.4136Z" fill="#4988D1"/>
<path d="M3.13878 82.5179H2V75.5283H3.13878L5.47959 78.7054L7.82041 75.5283H8.95918V82.5179H7.82041V77.1804L5.79592 79.8492H5.1L3.07551 77.1804L3.13878 82.5179Z" fill="white"/>
<path d="M11.8062 82.5179H10.7939V75.5283H11.9327V80.6752L15.9184 75.5283H16.9307V82.5179H15.7919V77.371L11.8062 82.5179Z" fill="white"/>
<path d="M19.8409 82.5179H18.7021V75.5283H19.8409V78.3242H23.6368V75.5283H24.7756V82.5179H23.6368V79.2773H19.8409V82.5179Z" fill="white"/>
<path d="M27.5593 82.5179H26.6104V75.5283H27.7491V80.6752L31.7348 75.5283H32.7471V82.5179H31.6083V77.371L27.5593 82.5179Z" fill="white"/>
<path d="M37.9981 82.6451C36.9226 82.6451 35.9736 82.3274 35.2777 81.6285C34.5185 80.9295 34.2021 80.0399 34.2021 79.0232C34.2021 77.943 34.5817 77.117 35.2777 76.418C36.0368 75.7191 36.9226 75.4014 37.9981 75.4014C38.7573 75.4014 39.3899 75.592 39.9593 75.8462V76.9264C39.3899 76.5451 38.7573 76.3545 37.9981 76.3545C37.2389 76.3545 36.6062 76.6087 36.1001 77.117C35.594 77.6253 35.3409 78.1972 35.3409 78.9597C35.3409 79.7222 35.594 80.3576 36.1001 80.8024C36.6062 81.3107 37.2389 81.5649 38.0613 81.5649C38.8838 81.5649 39.5797 81.3743 40.1491 80.9295V82.0097C39.4532 82.4545 38.7573 82.6451 37.9981 82.6451Z" fill="white"/>
<path d="M41.0347 76.545V75.5283H46.9816V76.545H44.5775V82.5814H43.4388V76.545H41.0347Z" fill="white"/>
<path d="M53.4979 82.5179H48.1836V75.5283H53.3713V76.545H49.3224V78.3242H52.6122V79.3408H49.3224V81.5012H53.4979V82.5179Z" fill="white"/>
<path d="M55.8387 82.5179H54.7632V75.5283H57.9264C58.6856 75.5283 59.3183 75.7189 59.6979 76.1002C60.1407 76.4814 60.3938 76.9898 60.3938 77.5617C60.3938 78.1335 60.1407 78.6419 59.6979 79.0867C59.255 79.4679 58.6856 79.6585 57.9264 79.6585H55.902V82.5179H55.8387ZM55.8387 76.545V78.6419H57.7367C58.1795 78.6419 58.4958 78.5148 58.7489 78.3877C59.002 78.1971 59.1285 77.9429 59.1285 77.6252C59.1285 77.3075 59.002 77.0533 58.7489 76.8627C58.4958 76.6721 58.1795 76.6085 57.7367 76.6085L55.8387 76.545Z" fill="white"/>
<path d="M65.1387 82.6451C64.0632 82.6451 63.1142 82.3274 62.4183 81.6285C61.6591 80.9295 61.3428 80.0399 61.3428 79.0232C61.3428 77.943 61.7224 77.117 62.4183 76.418C63.1775 75.7191 64.0632 75.4014 65.1387 75.4014C65.8979 75.4014 66.5305 75.592 67.0999 75.8462V76.9264C66.5305 76.5451 65.8979 76.3545 65.1387 76.3545C64.3795 76.3545 63.7469 76.6087 63.2407 77.117C62.7346 77.6253 62.4816 78.1972 62.4816 78.9597C62.4816 79.7222 62.7346 80.3576 63.2407 80.8024C63.7469 81.3107 64.3795 81.5649 65.202 81.5649C66.0244 81.5649 66.7203 81.3743 67.2897 80.9295V82.0097C66.6571 82.4545 65.9611 82.6451 65.1387 82.6451Z" fill="white"/>
<path d="M68.1753 76.545V75.5283H74.1222V76.545H71.7182V82.5814H70.5794V76.545H68.1753Z" fill="white"/>
<path d="M78.8676 82.5179H75.3247V75.5283H78.6145C79.3104 75.5283 79.7533 75.7189 80.1961 75.9731C80.5757 76.2908 80.7655 76.7356 80.7655 77.2439C80.7655 77.5617 80.639 77.8794 80.5125 78.1335C80.3227 78.3877 80.1329 78.5783 79.8165 78.6419C80.2594 78.7054 80.639 78.9596 80.8921 79.2773C81.1451 79.595 81.3349 80.0398 81.3349 80.5481C81.3349 81.12 81.0818 81.6283 80.639 82.0096C80.2594 82.3273 79.69 82.5179 78.8676 82.5179ZM76.4635 76.545V78.3242H78.4247C78.8043 78.3242 79.1206 78.2606 79.3104 78.07C79.5002 77.8794 79.6267 77.6887 79.6267 77.371C79.6267 77.0533 79.5002 76.8627 79.3104 76.6721C79.1206 76.4814 78.8043 76.4179 78.4247 76.4179H76.4635V76.545ZM76.4635 79.2773V81.5012H78.6778C79.1206 81.5012 79.5002 81.3742 79.69 81.1835C79.9431 80.9929 80.0696 80.7387 80.0696 80.3575C80.0696 80.0398 79.9431 79.7856 79.69 79.5314C79.4369 79.3408 79.1206 79.2773 78.6778 79.2773H76.4635Z" fill="white"/>
<path d="M88.8002 81.6285C88.1042 82.3274 87.2185 82.6451 86.143 82.6451C85.0675 82.6451 84.1818 82.3274 83.4859 81.6285C82.79 80.9295 82.4736 80.0399 82.4736 79.0232C82.4736 78.0066 82.79 77.117 83.4859 76.4816C84.1818 75.7826 85.0675 75.4014 86.143 75.4014C87.2185 75.4014 88.1042 75.7826 88.8002 76.4816C89.4961 77.1805 89.8757 78.0701 89.8757 79.0232C89.8757 79.9764 89.4961 80.9295 88.8002 81.6285ZM84.3716 80.866C84.8777 81.3743 85.4471 81.6285 86.143 81.6285C86.8389 81.6285 87.4716 81.3743 87.9144 80.866C88.4206 80.3576 88.6736 79.7222 88.6736 79.0232C88.6736 78.2607 88.4206 77.6253 87.9144 77.1805C87.4083 76.6722 86.8389 76.418 86.143 76.418C85.4471 76.418 84.8144 76.6722 84.3716 77.1805C83.8655 77.6889 83.6124 78.2607 83.6124 79.0232C83.6124 79.7857 83.8655 80.3576 84.3716 80.866Z" fill="white"/>
<path d="M95.253 82.5179H94.1143V75.5283H95.253V78.3242H99.049V75.5283H100.188V82.5179H99.049V79.2773H95.253V82.5179Z" fill="white"/>
<path d="M102.529 82.518H101.327L104.49 75.4648H105.565L108.729 82.518H107.527L106.704 80.8023H103.288L102.529 82.518ZM105.059 76.8628L103.731 79.7857H106.388L105.059 76.8628Z" fill="white"/>
<path d="M110.943 82.6451C110.5 82.6451 110.12 82.5815 109.931 82.4544V81.4378C110.184 81.5648 110.437 81.6284 110.753 81.6284C111.069 81.6284 111.259 81.5648 111.512 81.3742C111.702 81.2471 111.892 80.9294 112.145 80.4211L109.298 75.4648H110.626L112.777 79.2773L114.549 75.4648H115.751L113.094 80.993C112.524 82.1367 111.828 82.6451 110.943 82.6451Z" fill="white"/>
<path d="M117.965 82.5179H116.827V75.5283H117.965V78.3877L120.939 75.5283H122.394L119.041 78.7054L122.963 82.5179H121.445L118.029 79.1502V82.5179H117.965Z" fill="white"/>
<path d="M124.988 82.5179H124.039V75.5283H125.177V80.6752L129.163 75.5283H130.175V82.5179H129.037V77.371L124.988 82.5179Z" fill="white"/>
<path d="M3.01246 94.6546H2.06348V87.665H3.20225V92.8119L7.18797 87.665H8.20021V94.6546H7.06144V89.5077L3.01246 94.6546Z" fill="white"/>
<path d="M16.2348 94.6546H12.6919V87.665H15.9817C16.6776 87.665 17.1205 87.8557 17.5633 88.1098C17.9429 88.4275 18.1327 88.8723 18.1327 89.3807C18.1327 89.6984 18.0062 90.0161 17.8796 90.2702C17.7531 90.5244 17.5001 90.715 17.1837 90.7786C17.6266 90.8421 18.0062 91.0963 18.2592 91.414C18.5123 91.7317 18.7021 92.1765 18.7021 92.6848C18.7021 93.2567 18.449 93.765 18.0062 94.1463C17.5633 94.464 16.9939 94.6546 16.2348 94.6546ZM13.8307 88.6182V90.3973H15.7919C16.1715 90.3973 16.4878 90.3338 16.6776 90.1432C16.8674 89.9525 16.9939 89.7619 16.9939 89.4442C16.9939 89.1265 16.8674 88.9359 16.6776 88.7452C16.4878 88.5546 16.1715 88.4911 15.7919 88.4911H13.8307V88.6182ZM13.8307 91.414V93.638H16.045C16.4878 93.638 16.8674 93.5109 17.0572 93.3202C17.3103 93.1296 17.4368 92.8755 17.4368 92.4942C17.4368 92.1765 17.3103 91.9223 17.0572 91.6682C16.8041 91.4775 16.4878 91.414 16.045 91.414H13.8307Z" fill="white"/>
<path d="M22.8774 94.6546H20.0938V87.665H21.2325V90.0796H22.8774C23.6999 90.0796 24.3958 90.2702 24.9019 90.715C25.408 91.1598 25.6611 91.6682 25.6611 92.3671C25.6611 93.0661 25.408 93.5744 24.9019 94.0192C24.3325 94.464 23.6999 94.6546 22.8774 94.6546ZM21.2325 91.0963V93.638H22.8142C23.3203 93.638 23.6999 93.5109 24.0162 93.3202C24.3325 93.1296 24.4591 92.8119 24.4591 92.3671C24.4591 91.9223 24.3325 91.6046 24.0162 91.414C23.6999 91.2234 23.3203 91.0963 22.8142 91.0963H21.2325ZM27.6856 94.6546H26.5468V87.665H27.6856V94.6546Z" fill="white"/>
<path d="M32.9365 94.7818C31.861 94.7818 30.9121 94.4641 30.2161 93.7652C29.4569 93.0662 29.1406 92.1766 29.1406 91.16C29.1406 90.0798 29.5202 89.2537 30.2161 88.5548C30.9753 87.8558 31.861 87.5381 32.9365 87.5381C33.6957 87.5381 34.3284 87.7287 34.8978 87.9829V89.0631C34.3284 88.6818 33.6957 88.4912 32.9365 88.4912C32.1774 88.4912 31.5447 88.7454 31.0386 89.2537C30.5325 89.762 30.2794 90.3339 30.2794 91.0964C30.2794 91.8589 30.5325 92.4943 31.0386 92.9391C31.5447 93.4475 32.1774 93.7016 32.9998 93.7016C33.8223 93.7016 34.5182 93.511 35.0876 93.0662V94.1464C34.4549 94.5912 33.759 94.7818 32.9365 94.7818Z" fill="white"/>
<path d="M45.3366 94.6546H36.4795V87.665H37.6183V93.7015H40.3387V87.665H41.4774V93.7015H44.1979V87.665H45.3366V94.6546Z" fill="white"/>
<path d="M52.3592 94.6546H47.0449V87.665H52.2327V88.6817H48.1837V90.3973H51.4735V91.414H48.1837V93.638H52.3592V94.6546Z" fill="white"/>
<path d="M54.7633 94.6546H53.6245V87.665H58.749V88.6817H54.7633V94.6546Z" fill="white"/>
<path d="M65.7714 93.7652C65.0754 94.4641 64.1897 94.7818 63.1142 94.7818C62.0387 94.7818 61.153 94.4641 60.4571 93.7652C59.7612 93.0662 59.4448 92.1766 59.4448 91.16C59.4448 90.1433 59.7612 89.2537 60.4571 88.6183C61.153 87.9193 62.0387 87.5381 63.1142 87.5381C64.1897 87.5381 65.0754 87.9193 65.7714 88.6183C66.4673 89.3173 66.8469 90.2068 66.8469 91.16C66.8469 92.1131 66.4673 93.0662 65.7714 93.7652ZM61.2795 93.0027C61.7856 93.511 62.355 93.7652 63.051 93.7652C63.7469 93.7652 64.3795 93.511 64.8224 93.0027C65.3285 92.4943 65.5816 91.8589 65.5816 91.16C65.5816 90.3975 65.3285 89.762 64.8224 89.3173C64.3163 88.8089 63.7469 88.5548 63.051 88.5548C62.355 88.5548 61.7224 88.8089 61.2795 89.3173C60.7734 89.8256 60.5203 90.3975 60.5203 91.16C60.5836 91.9225 60.7734 92.4943 61.2795 93.0027Z" fill="white"/>
<path d="M77.159 93.7652C76.4631 94.4641 75.5774 94.7818 74.5019 94.7818C73.4264 94.7818 72.5407 94.4641 71.8448 93.7652C71.1488 93.0662 70.8325 92.1766 70.8325 91.16C70.8325 90.1433 71.1488 89.2537 71.8448 88.6183C72.5407 87.9193 73.4264 87.5381 74.5019 87.5381C75.5774 87.5381 76.4631 87.9193 77.159 88.6183C77.855 89.3173 78.2346 90.2068 78.2346 91.16C78.2346 92.1131 77.855 93.0662 77.159 93.7652ZM72.6672 93.0027C73.1733 93.511 73.7427 93.7652 74.4386 93.7652C75.1346 93.7652 75.7672 93.511 76.2101 93.0027C76.7162 92.4943 76.9693 91.8589 76.9693 91.16C76.9693 90.3975 76.7162 89.762 76.2101 89.3173C75.7039 88.8089 75.1346 88.5548 74.4386 88.5548C73.7427 88.5548 73.1101 88.8089 72.6672 89.3173C72.1611 89.8256 71.908 90.3975 71.908 91.16C71.9713 91.9225 72.2244 92.4943 72.6672 93.0027Z" fill="white"/>
<path d="M82.7267 94.6546H79.6899V87.665H84.8144V88.6817H80.8287V90.1432H82.7899C83.6124 90.1432 84.245 90.3338 84.7512 90.7786C85.194 91.1598 85.5104 91.7317 85.5104 92.4307C85.5104 93.1296 85.2573 93.638 84.7512 94.0827C84.245 94.464 83.5491 94.6546 82.7267 94.6546ZM80.7655 91.1598V93.638H82.6001C83.1063 93.638 83.4859 93.5109 83.8022 93.3202C84.0552 93.0661 84.2451 92.8119 84.2451 92.4307C84.2451 92.0494 84.1185 91.7317 83.8022 91.4775C83.4859 91.2234 83.1063 91.1598 82.6001 91.1598H80.7655Z" fill="white"/>
<path d="M87.8512 94.6546H86.7124V87.665H89.8124C90.5716 87.665 91.2042 87.8557 91.5838 88.2369C92.0267 88.6182 92.2798 89.1265 92.2798 89.6984C92.2798 90.2702 92.0267 90.7786 91.5838 91.2234C91.141 91.6046 90.5716 91.7952 89.8124 91.7952H87.7879V94.6546H87.8512ZM87.8512 88.6182V90.715H89.7491C90.192 90.715 90.5083 90.588 90.7614 90.4609C91.0144 90.3338 91.141 90.0161 91.141 89.6984C91.141 89.3807 91.0144 89.1265 90.7614 88.9359C90.5083 88.7452 90.192 88.6817 89.7491 88.6817L87.8512 88.6182Z" fill="white"/>
<path d="M93.3549 94.6547H92.1528L95.3161 87.6016H96.3916L99.5549 94.6547H98.4161L97.5936 92.9391H94.1773L93.3549 94.6547ZM95.8855 88.9359L94.5569 91.8589H97.2141L95.8855 88.9359Z" fill="white"/>
<path d="M103.035 94.7819C102.022 94.7819 101.2 94.5913 100.504 94.21V93.1298C100.82 93.3204 101.2 93.5111 101.643 93.5746C102.086 93.7017 102.465 93.7652 102.908 93.7652C103.477 93.7652 103.984 93.6381 104.363 93.4475C104.743 93.1934 104.869 92.9392 104.869 92.5579C104.869 92.2402 104.679 91.9861 104.363 91.7319C104.047 91.5413 103.604 91.4142 103.035 91.4142H102.212V90.3975H103.224C103.667 90.3975 104.047 90.2704 104.237 90.1434C104.49 89.9527 104.616 89.7621 104.616 89.4444C104.616 89.1267 104.49 88.9361 104.173 88.7454C103.92 88.5548 103.477 88.4913 103.035 88.4913C102.275 88.4913 101.516 88.6819 100.82 88.9996V87.9829C101.516 87.6017 102.275 87.4746 103.098 87.4746C103.92 87.4746 104.553 87.6652 104.996 87.9829C105.502 88.3007 105.755 88.809 105.755 89.3809C105.755 89.7621 105.628 90.0798 105.375 90.334C105.122 90.5882 104.869 90.7788 104.616 90.8423C104.996 90.9694 105.312 91.16 105.628 91.4777C105.945 91.7954 106.071 92.1767 106.071 92.6215C106.071 93.2569 105.818 93.7652 105.249 94.21C104.616 94.5913 103.92 94.7819 103.035 94.7819Z" fill="white"/>
<path d="M113.474 93.7652C112.778 94.4641 111.892 94.7818 110.816 94.7818C109.741 94.7818 108.855 94.4641 108.159 93.7652C107.463 93.0662 107.147 92.1766 107.147 91.16C107.147 90.1433 107.463 89.2537 108.159 88.6183C108.855 87.9193 109.741 87.5381 110.816 87.5381C111.892 87.5381 112.778 87.9193 113.474 88.6183C114.169 89.3173 114.549 90.2068 114.549 91.16C114.549 92.1131 114.169 93.0662 113.474 93.7652ZM108.982 93.0027C109.488 93.511 110.057 93.7652 110.753 93.7652C111.449 93.7652 112.082 93.511 112.525 93.0027C113.031 92.4943 113.284 91.8589 113.284 91.16C113.284 90.3975 113.031 89.762 112.525 89.3173C112.018 88.8725 111.449 88.5548 110.753 88.5548C110.057 88.5548 109.425 88.8089 108.982 89.3173C108.476 89.8256 108.222 90.3975 108.222 91.16C108.286 91.9225 108.539 92.4943 108.982 93.0027Z" fill="white"/>
<path d="M119.547 94.6546H116.004V87.665H119.294C119.99 87.665 120.432 87.8557 120.875 88.1098C121.255 88.4275 121.445 88.8723 121.445 89.3807C121.445 89.6984 121.318 90.0161 121.192 90.2702C121.002 90.5244 120.812 90.715 120.496 90.7786C120.939 90.8421 121.318 91.0963 121.571 91.414C121.824 91.7317 122.014 92.1765 122.014 92.6848C122.014 93.2567 121.761 93.765 121.318 94.1463C120.875 94.464 120.243 94.6546 119.547 94.6546ZM117.079 88.6182V90.3973H119.041C119.42 90.3973 119.737 90.3338 119.926 90.1432C120.116 89.9525 120.243 89.7619 120.243 89.4442C120.243 89.1265 120.116 88.9359 119.926 88.7452C119.737 88.5546 119.42 88.4911 119.041 88.4911H117.079V88.6182ZM117.079 91.414V93.638H119.294C119.737 93.638 120.116 93.5109 120.306 93.3202C120.559 93.1296 120.686 92.8755 120.686 92.4942C120.686 92.1765 120.559 91.9223 120.306 91.6682C120.053 91.4775 119.737 91.414 119.294 91.414H117.079Z" fill="white"/>
<path d="M123.849 94.6547H122.647L125.81 87.6016H126.886L130.049 94.6547H128.847L128.025 92.9391H124.608L123.849 94.6547ZM126.38 88.9359L125.051 91.8589H127.708L126.38 88.9359Z" fill="white"/>
<path d="M132.39 94.6547H131.251V87.6651H132.39V90.3974H136.186V87.6016H137.324V94.5911H136.186V91.3505H132.39V94.6547Z" fill="white"/>
<path d="M140.045 94.6546H139.096V87.665H140.234V92.8119L144.22 87.665H145.232V94.6546H144.094V89.5077L140.045 94.6546Z" fill="white"/>
<path d="M147.763 94.6546H146.372L148.712 91.6046C148.206 91.4775 147.827 91.2868 147.51 90.9056C147.194 90.5879 147.068 90.1431 147.068 89.6983C147.068 89.1264 147.257 88.6181 147.7 88.2368C148.143 87.8556 148.712 87.7285 149.472 87.7285H152.761V94.7181H151.623V91.6681H149.914L147.763 94.6546ZM149.535 90.715H151.686V88.6181H149.535C149.155 88.6181 148.776 88.7452 148.586 88.8723C148.333 89.0629 148.27 89.3171 148.27 89.6348C148.27 89.9525 148.396 90.2066 148.586 90.3973C148.839 90.5879 149.155 90.715 149.535 90.715Z" fill="white"/>
<path d="M3.13878 106.791H2V99.8018H5.16327C5.92245 99.8018 6.5551 99.9924 6.9347 100.374C7.37755 100.755 7.63061 101.263 7.63061 101.835C7.63061 102.407 7.37755 102.915 6.9347 103.36C6.49184 103.741 5.92245 103.932 5.16327 103.932H3.13878V106.791ZM3.13878 100.755V102.852H5.03674C5.47959 102.852 5.79592 102.725 6.04898 102.598C6.30204 102.407 6.42857 102.153 6.42857 101.835C6.42857 101.517 6.30204 101.263 6.04898 101.073C5.79592 100.882 5.47959 100.818 5.03674 100.818L3.13878 100.755Z" fill="white"/>
<path d="M14.9696 105.837C14.2737 106.536 13.388 106.854 12.3125 106.854C11.2369 106.854 10.3512 106.536 9.65531 105.837C8.95939 105.138 8.64307 104.249 8.64307 103.232C8.64307 102.216 8.95939 101.326 9.65531 100.691C10.3512 99.9916 11.2369 99.6104 12.3125 99.6104C13.388 99.6104 14.2737 99.9916 14.9696 100.691C15.6655 101.39 16.0451 102.279 16.0451 103.232C16.0451 104.249 15.6655 105.138 14.9696 105.837ZM10.541 105.075C11.0471 105.583 11.6165 105.837 12.3125 105.837C13.0084 105.837 13.641 105.583 14.0839 105.075C14.59 104.567 14.8431 103.931 14.8431 103.232C14.8431 102.533 14.59 101.834 14.0839 101.39C13.5778 100.881 13.0084 100.627 12.3125 100.627C11.6165 100.627 10.9839 100.881 10.541 101.39C10.0349 101.898 9.78184 102.47 9.78184 103.232C9.78184 103.995 10.0349 104.63 10.541 105.075Z" fill="white"/>
<path d="M21.106 106.918C20.0305 106.918 19.0815 106.6 18.3856 105.901C17.6264 105.202 17.3101 104.312 17.3101 103.296C17.3101 102.215 17.6896 101.389 18.3856 100.69C19.1448 99.9915 20.0305 99.6738 21.106 99.6738C21.8652 99.6738 22.4978 99.8645 23.0672 100.119V101.199C22.4978 100.818 21.8652 100.627 21.106 100.627C20.3468 100.627 19.7141 100.881 19.208 101.389C18.7019 101.898 18.4488 102.47 18.4488 103.232C18.4488 103.995 18.7019 104.63 19.208 105.075C19.7141 105.583 20.3468 105.837 21.1692 105.837C21.9917 105.837 22.6876 105.647 23.257 105.202V106.282C22.6243 106.727 21.9284 106.918 21.106 106.918Z" fill="white"/>
<path d="M28.002 106.918C26.9265 106.918 25.9775 106.6 25.2816 105.901C24.5224 105.202 24.2061 104.312 24.2061 103.296C24.2061 102.215 24.5856 101.389 25.2816 100.69C26.0407 99.9915 26.9265 99.6738 28.002 99.6738C28.7612 99.6738 29.3938 99.8645 29.9632 100.119V101.199C29.3938 100.818 28.7612 100.627 28.002 100.627C27.2428 100.627 26.6101 100.881 26.104 101.389C25.5979 101.898 25.3448 102.47 25.3448 103.232C25.3448 103.995 25.5979 104.63 26.104 105.075C26.6101 105.583 27.2428 105.837 28.0652 105.837C28.8877 105.837 29.5836 105.647 30.153 105.202V106.282C29.4571 106.727 28.7612 106.918 28.002 106.918Z" fill="white"/>
<path d="M32.4304 106.791H31.4814V99.8018H32.6202V104.949L36.6059 99.8018H37.6182V106.791H36.4794V101.644L32.4304 106.791Z" fill="white"/>
<path d="M40.3386 106.791H39.3896V99.801H40.5284V104.948L44.5141 99.801H45.5264V106.791H44.3876V101.644L40.3386 106.791ZM42.4264 99.2927C41.9203 99.2927 41.4141 99.1021 41.0978 98.8479C40.7815 98.5302 40.5917 98.149 40.5917 97.6406H41.5407C41.5407 97.8948 41.6039 98.0854 41.7937 98.2125C41.9835 98.4031 42.1733 98.4667 42.4264 98.4667C42.6794 98.4667 42.9325 98.4031 43.059 98.2125C43.2488 98.0219 43.3121 97.8312 43.3121 97.6406H44.2611C44.2611 98.149 44.0713 98.5302 43.755 98.8479C43.4386 99.1656 42.9958 99.2927 42.4264 99.2927Z" fill="white"/>
<path d="M50.7774 106.918C49.7019 106.918 48.7529 106.6 48.057 105.901C47.2978 105.202 46.9814 104.312 46.9814 103.296C46.9814 102.215 47.361 101.389 48.057 100.69C48.8161 99.9915 49.7019 99.6738 50.7774 99.6738C51.5365 99.6738 52.1692 99.8645 52.7386 100.119V101.199C52.1692 100.818 51.5365 100.627 50.7774 100.627C50.0182 100.627 49.3855 100.881 48.8794 101.389C48.3733 101.898 48.1202 102.47 48.1202 103.232C48.1202 103.995 48.3733 104.63 48.8794 105.075C49.3855 105.583 50.0182 105.837 50.8406 105.837C51.6631 105.837 52.359 105.647 52.9284 105.202V106.282C52.2957 106.727 51.5998 106.918 50.7774 106.918Z" fill="white"/>
<path d="M55.4591 106.791H54.3203V99.8018H55.4591V102.661L58.4326 99.8018H59.8877L56.5346 102.979L60.457 106.791H58.8754L55.4591 103.424V106.791Z" fill="white"/>
<path d="M66.847 105.837C66.1511 106.536 65.2654 106.854 64.1899 106.854C63.1144 106.854 62.2287 106.536 61.5327 105.837C60.8368 105.138 60.5205 104.249 60.5205 103.232C60.5205 102.216 60.8368 101.326 61.5327 100.691C62.2287 99.9916 63.1144 99.6104 64.1899 99.6104C65.2654 99.6104 66.1511 99.9916 66.847 100.691C67.543 101.39 67.9225 102.279 67.9225 103.232C67.8593 104.249 67.543 105.138 66.847 105.837ZM62.3552 105.075C62.8613 105.583 63.4307 105.837 64.1266 105.837C64.8225 105.837 65.4552 105.583 65.8981 105.075C66.4042 104.567 66.6572 103.931 66.6572 103.232C66.6572 102.533 66.4042 101.834 65.8981 101.39C65.3919 100.881 64.8225 100.627 64.1266 100.627C63.4307 100.627 62.7981 100.881 62.3552 101.39C61.8491 101.898 61.596 102.47 61.596 103.232C61.6593 103.995 61.8491 104.63 62.3552 105.075Z" fill="white"/>
<path d="M70.3267 106.791H69.3145V99.801H70.4532V104.948L74.4389 99.801H75.4512V106.791H74.3124V101.644L70.3267 106.791ZM72.3512 99.2927C71.8451 99.2927 71.3389 99.1021 71.0226 98.8479C70.7063 98.5302 70.5165 98.149 70.5165 97.6406H71.4655C71.4655 97.8948 71.5287 98.0854 71.7185 98.2125C71.9083 98.4031 72.0981 98.4667 72.3512 98.4667C72.6043 98.4667 72.8573 98.4031 72.9838 98.2125C73.1736 98.0219 73.2369 97.8312 73.2369 97.6406H74.1859C74.1859 98.149 73.9961 98.5302 73.6798 98.8479C73.3002 99.1656 72.9206 99.2927 72.3512 99.2927Z" fill="white"/>
<path d="M84.3716 106.981H83.2328V106.219C82.094 106.155 81.2083 105.901 80.5757 105.329C80.0063 104.757 79.6899 104.058 79.6899 103.232C79.6899 102.851 79.7532 102.47 79.943 102.152C80.0695 101.771 80.3226 101.453 80.5757 101.199C80.8287 100.881 81.2716 100.691 81.7144 100.5C82.1573 100.309 82.7267 100.246 83.2961 100.182V99.4834H84.4348V100.182C85.0042 100.182 85.5103 100.309 86.0165 100.437C86.4593 100.627 86.8389 100.818 87.1552 101.135C87.4716 101.453 87.6614 101.707 87.7879 102.089C87.9144 102.47 88.041 102.851 88.041 103.169C88.041 103.487 87.9777 103.931 87.7879 104.249C87.5981 104.567 87.4083 104.948 87.1552 105.202C86.8389 105.52 86.4593 105.71 86.0165 105.901C85.5736 106.092 85.0042 106.155 84.4348 106.155L84.3716 106.981ZM83.2328 105.266V101.135C82.4736 101.135 81.841 101.326 81.4614 101.707C81.0818 102.089 80.892 102.597 80.892 103.169C80.892 103.741 81.0818 104.249 81.4614 104.63C81.841 105.012 82.4736 105.202 83.2328 105.266ZM84.3716 101.135V105.266C85.194 105.266 85.7634 105.075 86.143 104.694C86.5226 104.313 86.7124 103.804 86.7124 103.232C86.7124 102.66 86.5226 102.152 86.143 101.771C85.7634 101.326 85.1308 101.135 84.3716 101.135Z" fill="white"/>
<path d="M94.557 106.791H89.2427V99.8018H94.4304V100.818H90.3815V102.598H93.6712V103.614H90.3815V105.838H94.557V106.791Z" fill="white"/>
<path d="M96.5819 108.253H95.5063V105.775H96.2023C96.5819 105.203 96.8982 104.567 97.0247 103.805C97.2145 103.042 97.2778 102.026 97.2778 100.755V99.8018H102.086V105.838H103.098V108.316H102.023V106.791H96.5186L96.5819 108.253ZM97.4043 105.711H100.947V100.691H98.3533C98.3533 101.835 98.29 102.852 98.1002 103.614C98.037 104.504 97.7839 105.203 97.4043 105.711Z" fill="white"/>
<path d="M109.614 106.791H104.3V99.8018H109.488V100.818H105.439V102.598H108.728V103.614H105.439V105.838H109.614V106.791Z" fill="white"/>
<path d="M112.018 106.791H110.879V99.8018H114.043C114.802 99.8018 115.434 99.9924 115.814 100.374C116.257 100.755 116.51 101.263 116.51 101.835C116.51 102.407 116.257 102.915 115.814 103.36C115.371 103.741 114.802 103.932 114.043 103.932H112.018V106.791ZM112.018 100.755V102.852H113.916C114.359 102.852 114.675 102.725 114.928 102.598C115.181 102.407 115.308 102.153 115.308 101.835C115.308 101.517 115.181 101.263 114.928 101.073C114.675 100.882 114.359 100.818 113.916 100.818L112.018 100.755Z" fill="white"/>
<path d="M117.522 106.791H116.32L119.484 99.7383H120.559L123.722 106.791H122.52L121.698 105.076H118.282L117.522 106.791ZM120.053 101.073L118.724 103.996H121.382L120.053 101.073Z" fill="white"/>
<path d="M131.82 108.253H130.745V106.728H124.924V99.7383H126.063V105.775H129.606V99.7383H130.745V105.775H131.757V108.253H131.82Z" fill="white"/>
<path d="M133.971 106.791H133.022V99.8018H134.161V104.949L138.147 99.8018H139.159V106.791H138.02V101.644L133.971 106.791Z" fill="white"/>
<path d="M141.88 106.791H140.931V99.8018H142.069V104.949L146.055 99.8018H147.067V106.791H145.929V101.644L141.88 106.791Z" fill="white"/>
</g>
<defs>
<clipPath id="clip0_2447_6809">
<rect width="160" height="115" fill="white" transform="translate(0 0.401367)"/>
</clipPath>
</defs>
</svg>
