<svg width="20" height="20" viewBox="0 0 20 20" fill="none" xmlns="http://www.w3.org/2000/svg">
<path d="M7.05732 15.8079C6.99925 15.866 6.95319 15.9349 6.92176 16.0108C6.89034 16.0867 6.87416 16.168 6.87416 16.2501C6.87416 16.3322 6.89034 16.4135 6.92176 16.4894C6.95319 16.5653 6.99925 16.6342 7.05732 16.6923C7.11539 16.7504 7.18433 16.7964 7.2602 16.8278C7.33607 16.8593 7.41739 16.8755 7.49951 16.8755C7.58163 16.8755 7.66295 16.8593 7.73882 16.8278C7.81469 16.7964 7.88363 16.7504 7.9417 16.6923L14.1917 10.4423C14.2498 10.3842 14.2959 10.3153 14.3274 10.2394C14.3588 10.1636 14.375 10.0822 14.375 10.0001C14.375 9.91797 14.3588 9.83664 14.3274 9.76077C14.2959 9.68489 14.2498 9.61596 14.1917 9.55792L7.9417 3.30792C7.82442 3.19064 7.66536 3.12476 7.49951 3.12476C7.33366 3.12476 7.1746 3.19064 7.05732 3.30792C6.94004 3.42519 6.87416 3.58425 6.87416 3.7501C6.87416 3.91596 6.94004 4.07502 7.05732 4.19229L12.8659 10.0001L7.05732 15.8079Z" fill="#1B2A3B"/>
</svg>
