<svg width="24" height="24" viewBox="0 0 24 24" fill="none" xmlns="http://www.w3.org/2000/svg"><path d="M21.311 6.878l-4.19-4.188a1.5 1.5 0 00-2.121 0L3.44 14.25A1.487 1.487 0 003 15.31v4.19A1.5 1.5 0 004.5 21h4.19a1.487 1.487 0 001.06-.44l7.844-7.843.326 1.303-3.45 3.45a.75.75 0 001.06 1.06l3.75-3.75a.748.748 0 00.198-.712l-.646-2.588L21.312 9a1.5 1.5 0 000-2.122zM4.5 16.81l2.69 2.69H4.5v-2.69zM9 19.19L4.81 15l7.94-7.94 4.19 4.19L9 19.19zm9-9L13.811 6l2.25-2.25 4.189 4.19L18 10.19z" fill="#78213A"/></svg>