<svg width="24" height="24" viewBox="0 0 24 24" fill="none" xmlns="http://www.w3.org/2000/svg"><path d="M23.25 8.689a1.489 1.489 0 00-.44-1.06l-6.438-6.44a1.5 1.5 0 00-2.122 0l-2.665 2.665-5.438 2.041a1.506 1.506 0 00-.958 1.158L3.01 20.126a.75.75 0 00.864.864l13.072-2.18a1.499 1.499 0 001.158-.952l2.041-5.438 2.665-2.67a1.49 1.49 0 00.44-1.061zM16.7 17.33L5.936 19.125l4.441-4.441a2.625 2.625 0 10-1.061-1.061l-4.441 4.443L6.668 7.299l5.144-1.928 6.816 6.816-1.928 5.144zm-6.2-4.956a1.124 1.124 0 112.249 0 1.124 1.124 0 01-2.249 0zm9-1.436L13.06 4.5l2.25-2.25 6.44 6.439-2.25 2.25z" fill="#fff"/></svg>