<svg width="9" height="16" viewBox="0 0 9 16" fill="none" xmlns="http://www.w3.org/2000/svg">
<path d="M0.213997 8.51452L7.48636 15.7869C7.55392 15.8544 7.63414 15.908 7.72242 15.9446C7.8107 15.9812 7.90532 16 8.00088 16C8.09643 16 8.19105 15.9812 8.27933 15.9446C8.36761 15.908 8.44783 15.8544 8.5154 15.7869C8.58296 15.7193 8.63656 15.6391 8.67313 15.5508C8.70969 15.4625 8.72852 15.3679 8.72852 15.2724C8.72852 15.1768 8.70969 15.0822 8.67313 14.9939C8.63656 14.9056 8.58296 14.8254 8.5154 14.7578L1.75665 8L8.5154 1.24216C8.65185 1.1057 8.72852 0.920622 8.72852 0.72764C8.72852 0.534658 8.65185 0.34958 8.5154 0.213121C8.37894 0.0766618 8.19386 1.43783e-09 8.00088 0C7.80789 -1.43783e-09 7.62281 0.0766618 7.48636 0.213121L0.213997 7.48548C0.14638 7.55302 0.0927401 7.63323 0.0561428 7.72151C0.0195446 7.8098 0.00070858 7.90443 0.00070858 8C0.00070858 8.09557 0.0195446 8.1902 0.0561428 8.27849C0.0927401 8.36677 0.14638 8.44698 0.213997 8.51452Z" fill="#1B2A3B"/>
</svg>
