<svg width="52" height="52" viewBox="0 0 52 52" fill="none" xmlns="http://www.w3.org/2000/svg"><rect width="52" height="52" rx="26" fill="#4988D1"/><path d="M29.138 26.81h-9.083v-3.572h9.083c.53 0 .9.091 1.085.252.185.16.3.458.3.893v1.283c0 .458-.115.756-.3.916-.185.16-.554.228-1.085.228zm.623-6.94H16.203v15.277h3.852v-4.97h7.099l3.369 4.97h4.313l-3.714-4.994c1.37-.202 1.984-.618 2.491-1.306.507-.687.762-1.786.762-3.253V24.45c0-.87-.093-1.557-.255-2.084a3.467 3.467 0 00-.83-1.397 3.758 3.758 0 00-1.43-.847c-.554-.16-1.246-.252-2.099-.252zm8.039-.002c1.634 0 2.959-1.3 2.959-2.905 0-1.605-1.325-2.905-2.96-2.905-1.634 0-2.96 1.3-2.96 2.905 0 1.604 1.326 2.905 2.96 2.905z" fill="#fff"/></svg>