<svg width="3008" height="995" viewBox="0 0 3008 995" fill="none" xmlns="http://www.w3.org/2000/svg">
<g clip-path="url(#clip0_87_175)">
<path fill-rule="evenodd" clip-rule="evenodd" d="M507 0H522C529.5 23 537.5 45.8333 546 68.5C573.816 73.4118 601.104 80.9454 627.5 91C644.647 75.18 661.147 58.68 677 41.5L679 41C710.12 58.06 741.12 75.3933 772 93L773 95C767.833 119 763 143 758.5 167C865.72 252.78 921.387 364.78 925.5 503C932.92 640.08 888.92 757.413 793.5 855C735.127 911.625 666.368 956.446 591 987C589.7 939.78 588.7 892.613 588 845.5C627.497 826.131 664.445 801.947 698 773.5C771.613 705.413 807.947 620.913 807 520C803.26 398 751.593 302.5 652 233.5C561.02 175.633 463.687 161.967 360 192.5C248.74 231.433 173.907 306.6 135.5 418C125.324 451.219 120.102 485.757 120 520.5C121.273 609.333 122.273 698.167 123 787C82.96 787.46 42.96 788.127 3 789C1.71333 743.84 0.713333 698.84 0 654V567C1.6 528.833 3.1 490.5 4.5 452C16.7761 382.911 44.087 317.365 84.5 260C111.196 222.14 142.997 188.152 179 159C172.743 139.636 167.568 119.939 163.5 100C194.093 81.2933 224.927 62.96 256 45C272.913 59.7 290.08 74.0333 307.5 88C335.586 78.1039 364.55 70.9048 394 66.5C394.562 66.2697 395.072 65.9301 395.501 65.501C395.93 65.0718 396.27 64.5616 396.5 64C401.98 43.4 407.147 22.7333 412 2C443.813 1.33333 475.48 0.666667 507 0Z" fill="#4887D0"/>
<path opacity="0.99" fill-rule="evenodd" clip-rule="evenodd" d="M1740 160H1811V193C1846.75 194.093 1881.87 202.786 1914 218.5C1960.3 244.573 1983.3 284.407 1983 338C1982.08 403.073 1951.08 446.573 1890 468.5C1864.47 476.975 1837.88 481.855 1811 483V519H1740V482C1702.76 481.605 1666.12 472.532 1633 455.5C1588.58 429.167 1566.58 390 1567 338C1567.04 276.733 1595.37 234.567 1652 211.5C1679.9 201.053 1709.25 194.982 1739 193.5C1739.99 182.363 1740.32 171.177 1740 160ZM1738 254C1740 309.66 1740.67 365.66 1740 422C1714.23 420.472 1689.35 412.007 1668 397.5C1645.2 376.087 1637.03 349.92 1643.5 319C1649.39 291.733 1665.56 273.567 1692 264.5C1706.93 259.429 1722.35 255.911 1738 254ZM1811 254C1832.61 255.729 1853.67 261.674 1873 271.5C1897.14 286.947 1908.81 309.113 1908 338C1908.29 372.587 1892.62 396.753 1861 410.5C1845.01 416.833 1828.15 420.71 1811 422V254Z" fill="#FDFDFD"/>
<path opacity="0.99" fill-rule="evenodd" clip-rule="evenodd" d="M1400 168C1445.38 164.84 1486.71 176.007 1524 201.5C1533.78 208.782 1542.53 217.361 1550 227C1533.68 242.494 1517.18 257.827 1500.5 273C1470.1 239.087 1432.6 227.254 1388 237.5C1347.13 249.374 1322.63 276.207 1314.5 318C1307.91 356.5 1318.08 389.667 1345 417.5C1376.88 442.94 1412.55 449.94 1452 438.5C1470.73 431.603 1487.42 420.079 1500.5 405C1517.46 419.58 1533.96 434.747 1550 450.5C1520.52 484.574 1483.19 503.907 1438 508.5C1380.94 515.254 1330.61 500.254 1287 463.5C1246.86 423.76 1229.69 375.594 1235.5 319C1246.93 242.334 1290.09 193.834 1365 173.5C1376.56 171.067 1388.25 169.231 1400 168Z" fill="#FDFDFD"/>
<path opacity="0.99" fill-rule="evenodd" clip-rule="evenodd" d="M2039 174H2289V236H2116V306H2269V367H2116V442H2295V504H2039V174Z" fill="#FDFDFD"/>
<path opacity="0.99" fill-rule="evenodd" clip-rule="evenodd" d="M2356 174C2410.33 173.833 2464.66 174 2519 174.5C2552.14 176.433 2581.47 187.767 2607 208.5C2636.41 238.42 2647.57 274.253 2640.5 316C2632.79 355.38 2610.62 383.213 2574 399.5C2556.49 406.792 2537.92 411.183 2519 412.5C2490.33 413 2461.67 413.167 2433 413V504H2356V174ZM2433 237C2458 236.833 2483 237 2508 237.5C2550.29 242.44 2568.45 265.94 2562.5 308C2558.5 324.667 2548.67 336.5 2533 343.5C2524.97 346.592 2516.56 348.609 2508 349.5C2483 350 2458 350.167 2433 350V237Z" fill="#FDFDFD"/>
<path opacity="0.99" fill-rule="evenodd" clip-rule="evenodd" d="M3008 501V504C2980.99 504.333 2953.99 504 2927 503C2917.27 480.12 2907.93 457.12 2899 434C2848 433.833 2797 434 2746 434.5L2717 503.5C2690.66 504.333 2664.33 504.167 2638 503C2686.96 393.42 2735.63 283.753 2784 174C2809.91 173.667 2835.74 174 2861.5 175C2910.11 283.88 2958.95 392.547 3008 501ZM2822 251C2839.41 292.04 2856.74 333.207 2874 374.5C2839.67 375.167 2805.34 375.167 2771 374.5C2788.14 333.38 2805.14 292.213 2822 251Z" fill="#FDFDFD"/>
<path opacity="0.99" fill-rule="evenodd" clip-rule="evenodd" d="M472 256C482.131 255.276 492.308 256.463 502 259.5C544.373 295.54 587.04 331.207 630 366.5C636.526 371.864 640.662 379.595 641.5 388C644.068 397.8 644.41 408.051 642.5 418C641.376 421.578 639.688 424.954 637.5 428C574.5 506 511.167 583.667 447.5 661L404 625.5C403.671 625.37 403.37 625.176 403.116 624.93C402.862 624.683 402.66 624.388 402.52 624.063C402.381 623.738 402.307 623.388 402.304 623.034C402.3 622.68 402.367 622.328 402.5 622C459.133 554.374 516.133 487.04 573.5 420C575.713 414.354 574.547 409.52 570 405.5L482 331.5C472.813 327.34 465.313 329.507 459.5 338L300 539.5C299.884 539.656 299.733 539.782 299.559 539.868C299.385 539.955 299.194 540 299 540C298.806 540 298.615 539.955 298.441 539.868C298.267 539.782 298.116 539.656 298 539.5L253 502.5L447.5 264C455.021 259.659 463.366 256.934 472 256Z" fill="#4887D0"/>
<path fill-rule="evenodd" clip-rule="evenodd" d="M477 386C478.028 385.851 479.077 386.026 480 386.5C493.707 398.54 507.707 410.207 522 421.5C522.33 421.63 522.63 421.824 522.884 422.07C523.138 422.317 523.341 422.612 523.48 422.937C523.62 423.263 523.693 423.612 523.697 423.967C523.7 424.321 523.633 424.672 523.5 425L352.5 627C350.387 632.06 351.22 636.56 355 640.5L444 715.5C453.187 719.66 460.687 717.493 466.5 709L625 508C625.149 507.752 625.35 507.54 625.59 507.377C625.829 507.215 626.1 507.106 626.385 507.058C626.67 507.011 626.962 507.026 627.241 507.102C627.52 507.178 627.779 507.314 628 507.5C642.98 519.5 657.647 531.833 672 544.5C607.44 625.073 542.107 705.073 476 784.5C459.582 791.68 441.136 792.744 424 787.5C379.207 750.38 334.707 712.88 290.5 675C286.284 667.089 283.672 658.422 282.813 649.499C281.955 640.575 282.869 631.57 285.5 623C349.34 543.973 413.174 464.973 477 386Z" fill="#791F39"/>
<path opacity="0.93" fill-rule="evenodd" clip-rule="evenodd" d="M2162 646H2173C2175.1 657.16 2181.93 662.494 2193.5 662C2204.7 662.454 2211.53 657.287 2214 646.5C2217.64 646.004 2221.33 645.837 2225 646C2224.33 659.48 2217.33 667.647 2204 670.5C2195.66 671.374 2187.24 671.037 2179 669.5C2167.75 665.74 2162.09 657.907 2162 646Z" fill="#FDFDFD"/>
<path opacity="0.94" fill-rule="evenodd" clip-rule="evenodd" d="M1235 680C1240.35 679.672 1245.73 680.007 1251 681C1265.99 711 1281.49 740.666 1297.5 770C1312.91 740.166 1328.58 710.5 1344.5 681C1349.58 679.7 1354.92 679.7 1360 681C1338.97 719.54 1318.13 758.206 1297.5 797C1285.24 817.2 1268.41 822.7 1247 813.5C1247.96 809.396 1249.65 805.499 1252 802C1263.96 807.4 1274.13 805.066 1282.5 795C1284.54 791.42 1286.71 787.92 1289 784.5C1270.57 749.806 1252.57 714.973 1235 680Z" fill="#FDFDFD"/>
<path opacity="0.94" fill-rule="evenodd" clip-rule="evenodd" d="M1373 680H1388C1387.55 698.68 1388.05 717.371 1389.5 736C1396.74 750.393 1408.57 757.06 1425 756C1438.48 755.712 1451.76 752.649 1464 747C1465 724.68 1465.33 702.347 1465 680H1480V816H1465V761C1444.72 769.303 1422.4 771.221 1401 766.5C1385.85 761.693 1376.68 751.527 1373.5 736C1373 717.333 1372.83 698.667 1373 680Z" fill="#FDFDFD"/>
<path opacity="0.97" fill-rule="evenodd" clip-rule="evenodd" d="M1524 680H1618V694H1540V740H1609V754H1540V803H1621V816H1524V680Z" fill="#FDFDFD"/>
<path opacity="0.94" fill-rule="evenodd" clip-rule="evenodd" d="M1651 680H1751V693H1666V736C1682 735.833 1698 736 1714 736.5C1747.62 737.107 1762.12 753.94 1757.5 787C1753.69 800.14 1745.19 808.64 1732 812.5C1726.44 814.018 1720.75 815.022 1715 815.5C1693.67 816 1672.33 816.167 1651 816V680ZM1666 749C1683.33 748.833 1700.67 749 1718 749.5C1734.26 750.927 1742.93 759.76 1744 776C1742.38 791.12 1734.05 799.953 1719 802.5C1701.34 803 1683.67 803.167 1666 803V749Z" fill="#FDFDFD"/>
<path opacity="0.93" fill-rule="evenodd" clip-rule="evenodd" d="M1791 680H1806V740H1889V680H1904V816H1889V754H1806V816H1791V680Z" fill="#FDFDFD"/>
<path opacity="0.94" fill-rule="evenodd" clip-rule="evenodd" d="M1949 680H1964V728C1980 727.833 1996 728 2012 728.5C2044 730.92 2058.17 748.087 2054.5 780C2052.44 795.3 2044.27 805.8 2030 811.5C2023.86 813.623 2017.48 814.966 2011 815.5C1990.33 816 1969.67 816.167 1949 816V680ZM1964 741C1980 740.833 1996 741 2012 741.5C2034.97 745.58 2043.8 759.08 2038.5 782C2034.63 793.873 2026.47 800.707 2014 802.5C1997.33 803 1980.67 803.167 1964 803V741Z" fill="#FDFDFD"/>
<path opacity="0.93" fill-rule="evenodd" clip-rule="evenodd" d="M2077 680H2092V816H2077V680Z" fill="#FDFDFD"/>
<path opacity="0.94" fill-rule="evenodd" clip-rule="evenodd" d="M2137 680H2152C2151.83 716.667 2151.99 753.333 2152.5 790C2180.28 753.22 2208.45 716.72 2237 680.5C2241.65 679.999 2246.33 679.831 2251 680V816H2236C2236.17 779.333 2236.01 742.667 2235.5 706C2207.26 742.147 2179.26 778.48 2151.5 815C2146.73 815.97 2141.86 816.307 2137 816V680Z" fill="#FDFDFD"/>
<path opacity="0.96" fill-rule="evenodd" clip-rule="evenodd" d="M2345 680H2360V803H2441V680H2456V803H2477V847H2463V816H2345V680Z" fill="#FDFDFD"/>
<path opacity="0.97" fill-rule="evenodd" clip-rule="evenodd" d="M2504 680H2598V694H2520V740H2589V754H2520V803H2601V816H2504V680Z" fill="#FDFDFD"/>
<path opacity="0.95" fill-rule="evenodd" clip-rule="evenodd" d="M2631 680H2646V740H2730V680H2745V816H2730V754H2646V816H2631V680Z" fill="#FDFDFD"/>
<path opacity="0.93" fill-rule="evenodd" clip-rule="evenodd" d="M2768 680H2878V694H2831V816H2816V694H2768V680Z" fill="#FDFDFD"/>
<path opacity="0.95" fill-rule="evenodd" clip-rule="evenodd" d="M3008 717V737C3001.89 757.927 2987.89 769.76 2966 772.5C2949.67 773 2933.34 773.167 2917 773V816H2902V680C2921.33 679.833 2940.67 680 2960 680.5C2971.07 679.698 2982.06 682.963 2990.89 689.683C2999.73 696.403 3005.81 706.116 3008 717ZM2917 694C2932.67 693.833 2948.34 694 2964 694.5C2985.59 698.833 2995.09 712 2992.5 734C2987.89 750.24 2977.06 758.74 2960 759.5C2945.67 760 2931.34 760.167 2917 760V694Z" fill="#FDFDFD"/>
<path opacity="0.99" fill-rule="evenodd" clip-rule="evenodd" d="M522 846H535C535.333 893.7 536 941.367 537 989H475C474.9 941.667 474.567 894.333 474 847C490.173 847.333 506.173 847 522 846Z" fill="#4887D0"/>
<path opacity="0.98" fill-rule="evenodd" clip-rule="evenodd" d="M365 848H426C426.32 895.333 426.653 942.667 427 990C406.647 989.74 386.313 990.073 366 991C365.513 943.34 365.18 895.673 365 848Z" fill="#4887D0"/>
<path opacity="0.98" fill-rule="evenodd" clip-rule="evenodd" d="M253 849H314C314.333 896.333 314.667 943.667 315 991C294.667 991.233 274.333 991.567 254 992C253.54 944.333 253.207 896.667 253 849Z" fill="#4887D0"/>
<path opacity="0.99" fill-rule="evenodd" clip-rule="evenodd" d="M10 995H4C3.54667 947.333 2.88 899.667 2 852C70 851.453 138 850.787 206 850C206.92 897.333 207.587 944.667 208 992C141.84 992.88 75.84 993.88 10 995Z" fill="#4887D0"/>
</g>
<defs>
<clipPath id="clip0_87_175">
<rect width="3008" height="995" fill="white"/>
</clipPath>
</defs>
</svg>
