<svg width="54" height="54" viewBox="0 0 54 54" fill="none" xmlns="http://www.w3.org/2000/svg"><path d="M48.279 5.524a1.899 1.899 0 00-1.932-.33L3.598 21.922a3 3 0 00.513 5.74l11.076 2.174v12.35a3.358 3.358 0 002.11 3.129 3.356 3.356 0 003.693-.787l5.34-5.54 8.474 7.417a3.35 3.35 0 003.272.677 3.343 3.343 0 002.25-2.453l8.562-37.247a1.898 1.898 0 00-.61-1.859zm-12.897 7.594L16.484 26.652 6.022 24.599l29.36-11.48zm-16.82 29.07V32.172l5.229 4.586-5.23 5.43zm18.463 1.687l-17.44-15.293 25.102-17.99-7.662 33.283z" fill="#78213A"/></svg>