<svg width="52" height="52" viewBox="0 0 52 52" fill="none" xmlns="http://www.w3.org/2000/svg"><rect width="52" height="52" rx="26" fill="#fff"/><path fill-rule="evenodd" clip-rule="evenodd" d="M35.827 21.07c.146-.489 0-.848-.702-.848h-2.317c-.59 0-.862.31-1.01.652 0 0-1.177 2.858-2.847 4.715-.54.538-.785.709-1.08.709-.147 0-.369-.171-.369-.66v-4.569c0-.586-.162-.847-.653-.847h-3.644c-.368 0-.59.271-.59.53 0 .555.835.684.921 2.247v3.396c0 .745-.135.88-.43.88-.786 0-2.697-2.871-3.83-6.156-.22-.64-.443-.897-1.035-.897h-2.32c-.661 0-.794.31-.794.652 0 .61.786 3.64 3.66 7.647 1.915 2.736 4.611 4.22 7.068 4.22 1.473 0 1.655-.33 1.655-.898v-2.068c0-.659.14-.79.606-.79.345 0 .933.171 2.309 1.49 1.57 1.564 1.83 2.265 2.714 2.265h2.317c.662 0 .994-.329.803-.98-.21-.647-.96-1.587-1.955-2.702-.54-.635-1.35-1.319-1.597-1.661-.343-.44-.245-.635 0-1.026 0 0 2.825-3.958 3.119-5.302z" fill="#232616"/></svg>