<svg width="52" height="52" viewBox="0 0 52 52" fill="none" xmlns="http://www.w3.org/2000/svg"><rect width="52" height="52" rx="26" fill="#4988D1"/><path fill-rule="evenodd" clip-rule="evenodd" d="M35.828 21.07c.147-.489 0-.848-.702-.848H32.81c-.59 0-.861.31-1.009.653 0 0-1.178 2.857-2.847 4.714-.54.538-.786.709-1.08.709-.148 0-.37-.171-.37-.66v-4.569c0-.586-.162-.847-.653-.847h-3.644c-.368 0-.59.272-.59.53 0 .555.836.684.922 2.247v3.396c0 .745-.136.88-.43.88-.786 0-2.697-2.871-3.831-6.156-.22-.64-.443-.897-1.035-.897h-2.319c-.662 0-.794.31-.794.653 0 .61.786 3.639 3.659 7.646 1.915 2.736 4.612 4.22 7.068 4.22 1.474 0 1.655-.33 1.655-.898v-2.068c0-.659.14-.79.607-.79.344 0 .933.172 2.308 1.49 1.571 1.564 1.83 2.265 2.714 2.265h2.317c.663 0 .994-.329.804-.98-.21-.647-.96-1.587-1.956-2.702-.54-.635-1.35-1.319-1.596-1.661-.344-.44-.246-.635 0-1.026 0 0 2.824-3.957 3.118-5.301h.001z" fill="#fff"/></svg>