<svg width="52" height="52" viewBox="0 0 52 52" fill="none" xmlns="http://www.w3.org/2000/svg"><rect width="52" height="52" rx="26" fill="#4988D1"/><path d="M35.19 20.702c.44 1.716.44 5.298.44 5.298s0 3.582-.44 5.298c-.244.949-.96 1.695-1.866 1.947-1.646.459-7.323.459-7.323.459s-5.675 0-7.324-.459c-.91-.256-1.624-1.001-1.866-1.947-.44-1.716-.44-5.298-.44-5.298s0-3.582.44-5.298c.245-.949.96-1.695 1.866-1.947 1.649-.459 7.324-.459 7.324-.459s5.677 0 7.323.459c.91.256 1.625 1.001 1.866 1.947zM24.075 29.37L29.853 26l-5.778-3.37v6.74z" fill="#fff"/></svg>