<svg width="65" height="32" viewBox="0 0 65 32" fill="none" xmlns="http://www.w3.org/2000/svg"><mask id="path-1-outside-1_627_3939" maskUnits="userSpaceOnUse" x="0" y="0" width="65" height="32" fill="#000"><path fill="#fff" d="M0 0h65v32H0z"/><path d="M13.84 30.64c-2.48 0-4.68-.573-6.6-1.72-1.893-1.147-3.387-2.813-4.48-5-1.067-2.187-1.6-4.827-1.6-7.92s.533-5.733 1.6-7.92c1.093-2.187 2.587-3.853 4.48-5 1.92-1.147 4.12-1.72 6.6-1.72 2.48 0 4.667.573 6.56 1.72 1.92 1.147 3.413 2.813 4.48 5 1.093 2.187 1.64 4.827 1.64 7.92s-.547 5.733-1.64 7.92c-1.067 2.187-2.56 3.853-4.48 5-1.893 1.147-4.08 1.72-6.56 1.72zm0-7.56c.613 0 1.16-.213 1.64-.64.48-.427.853-1.16 1.12-2.2.293-1.04.44-2.453.44-4.24 0-1.813-.147-3.227-.44-4.24-.267-1.04-.64-1.773-1.12-2.2-.48-.427-1.027-.64-1.64-.64s-1.16.213-1.64.64c-.48.427-.867 1.16-1.16 2.2-.267 1.013-.4 2.427-.4 4.24 0 1.787.133 3.2.4 4.24.293 1.04.68 1.773 1.16 2.2.48.427 1.027.64 1.64.64zM28.425 30v-5.8l10.12-9.36c.64-.613 1.106-1.147 1.4-1.6.32-.453.533-.853.64-1.2a3.8 3.8 0 00.16-1.04c0-.693-.227-1.227-.68-1.6-.454-.4-1.134-.6-2.04-.6-.827 0-1.614.227-2.36.68-.747.427-1.334 1.067-1.76 1.92l-7.12-3.56c1.013-1.92 2.533-3.48 4.56-4.68 2.026-1.2 4.546-1.8 7.56-1.8 2.213 0 4.173.36 5.88 1.08 1.706.72 3.04 1.733 4 3.04s1.44 2.853 1.44 4.64c0 .907-.12 1.813-.36 2.72-.214.907-.667 1.867-1.36 2.88-.694.987-1.72 2.093-3.08 3.32l-7.6 6.92-1.48-3.28h14.52V30h-22.44zm29.686.4c-1.493 0-2.746-.48-3.76-1.44-1.013-.987-1.52-2.24-1.52-3.76 0-1.547.507-2.787 1.52-3.72 1.014-.933 2.267-1.4 3.76-1.4 1.494 0 2.747.467 3.76 1.4 1.014.933 1.52 2.173 1.52 3.72 0 1.52-.506 2.773-1.52 3.76-1.013.96-2.266 1.44-3.76 1.44z"/></mask><path d="M7.24 28.92l-.518.855.005.004.513-.859zm-4.48-5l-.899.438.005.01.894-.448zm0-15.84l-.894-.447-.005.009.899.438zm4.48-5l-.513-.859-.005.004.518.855zm13.16 0l-.518.855.005.004.513-.859zm4.48 5l-.899.438.005.01.894-.448zm0 15.84l-.895-.447-.004.009.899.438zm-4.48 5l-.513-.859-.005.004.518.855zm-3.8-8.68l-.962-.271-.004.011-.003.012.969.248zm0-8.48l-.969.248.004.015.004.015.961-.278zm-1.12-2.2l.664-.747-.664.747zm-3.28 0l-.664-.747.664.747zm-1.16 2.2l-.962-.271-.003.008-.002.008.967.255zm0 8.48l-.969.248.003.012.004.012.962-.272zm2.8 9.4c-2.32 0-4.339-.534-6.087-1.579L6.727 29.78c2.093 1.247 4.473 1.86 7.113 1.86v-2zm-6.082-1.575c-1.715-1.04-3.086-2.556-4.104-4.592l-1.788.894c1.168 2.337 2.785 4.154 4.856 5.408l1.036-1.71zm-4.1-4.583C2.675 21.463 2.16 18.982 2.16 16h-2c0 3.205.552 6.003 1.701 8.358l1.798-.876zM2.16 16c0-2.981.514-5.463 1.499-7.482L1.86 7.642C.712 9.997.16 12.795.16 16h2zm1.494-7.473c1.018-2.036 2.389-3.553 4.104-4.592l-1.036-1.71c-2.071 1.254-3.688 3.07-4.856 5.408l1.788.894zM7.753 3.94C9.5 2.894 11.52 2.36 13.84 2.36v-2c-2.64 0-5.021.612-7.113 1.861L7.753 3.94zm6.087-1.58c2.32 0 4.323.534 6.042 1.575l1.036-1.71C18.85.972 16.48.36 13.84.36v2zm6.047 1.579c1.739 1.038 3.105 2.551 4.094 4.58l1.798-.877c-1.144-2.346-2.765-4.166-4.866-5.42l-1.026 1.717zm4.099 4.588c1.008 2.016 1.534 4.495 1.534 7.473h2c0-3.209-.567-6.01-1.746-8.367l-1.788.894zM25.52 16c0 2.978-.526 5.457-1.534 7.473l1.788.894c1.18-2.357 1.746-5.159 1.746-8.367h-2zm-1.539 7.482c-.99 2.028-2.355 3.541-4.094 4.58l1.026 1.716c2.101-1.255 3.722-3.074 4.866-5.42l-1.798-.876zm-4.099 4.583c-1.719 1.04-3.722 1.575-6.042 1.575v2c2.64 0 5.01-.612 7.078-1.865l-1.036-1.71zM13.84 24.08c.87 0 1.65-.312 2.304-.893l-1.328-1.494c-.307.272-.62.387-.976.387v2zm2.304-.893c.699-.62 1.138-1.582 1.425-2.699l-1.938-.496c-.247.963-.554 1.468-.815 1.7l1.328 1.495zm1.419-2.675c.329-1.168.477-2.685.477-4.512h-2c0 1.746-.145 3.055-.402 3.968l1.925.544zM18.04 16c0-1.85-.148-3.372-.48-4.518l-1.92.556c.254.881.4 2.186.4 3.962h2zm-.471-4.488c-.287-1.117-.726-2.078-1.425-2.7l-1.328 1.495c.261.233.568.738.815 1.701l1.938-.496zm-1.425-2.7c-.653-.58-1.433-.892-2.304-.892v2c.356 0 .67.115.976.387l1.328-1.494zM13.84 7.92c-.87 0-1.65.312-2.304.893l1.328 1.494c.307-.272.62-.387.976-.387v-2zm-2.304.893c-.69.613-1.145 1.563-1.458 2.675l1.925.543c.272-.968.591-1.484.861-1.724l-1.328-1.494zm-1.463 2.692C9.774 12.641 9.64 14.153 9.64 16h2c0-1.78.133-3.094.367-3.986l-1.934-.508zM9.64 16c0 1.823.135 3.331.431 4.488l1.938-.496c-.237-.923-.369-2.242-.369-3.992h-2zm.438 4.512c.313 1.111.768 2.062 1.458 2.675l1.328-1.494c-.27-.24-.589-.757-.862-1.725l-1.924.544zm1.458 2.675c.653.581 1.433.893 2.304.893v-2c-.356 0-.67-.115-.976-.387l-1.328 1.494zM28.425 30h-1v1h1v-1zm0-5.8l-.68-.734-.32.297v.437h1zm10.12-9.36l.679.734.006-.006.007-.006-.692-.722zm1.4-1.6l-.817-.577-.012.017-.01.017.839.543zm.64-1.2l.956.294.002-.01.003-.01-.961-.274zm-.52-2.64l-.662.75.013.011.013.01.636-.771zm-4.4.08l.496.868.011-.006.012-.007-.52-.855zm-1.76 1.92l-.447.894.894.448.447-.895-.894-.447zm-7.12-3.56l-.885-.467-.477.904.915.457.447-.894zm4.56-4.68l.51.86-.51-.86zm13.44-.72l-.389.921.389-.921zm4 3.04l-.806.592.806-.592zm1.08 7.36l-.967-.256-.004.014-.003.013.974.229zm-1.36 2.88l.818.575.007-.01-.825-.565zm-3.08 3.32l-.67-.743-.004.004.674.739zm-7.6 6.92l-.912.411.567 1.256 1.018-.928-.673-.739zm-1.48-3.28v-1h-1.549l.637 1.411.912-.411zm14.52 0h1v-1h-1v1zm0 7.32v1h1v-1h-1zm-21.44 0v-5.8h-2V30h2zm-.321-5.066l10.12-9.36-1.358-1.468-10.12 9.36 1.358 1.468zm10.133-9.372c.665-.637 1.194-1.232 1.547-1.779l-1.679-1.086c-.233.36-.637.832-1.252 1.421l1.384 1.444zm1.525-1.745c.352-.5.629-.997.779-1.483l-1.912-.588c-.064.207-.213.51-.501.917l1.634 1.154zm.784-1.502c.127-.445.199-.885.199-1.315h-2c0 .21-.035.463-.122.765l1.923.55zM41.745 11c0-.932-.318-1.774-1.045-2.372l-1.271 1.544c.18.148.316.373.316.828h2zm-1.019-2.35c-.708-.625-1.67-.85-2.701-.85v2c.78 0 1.18.175 1.378.35l1.323-1.5zm-2.701-.85c-1.02 0-1.985.283-2.88.825l1.039 1.71c.6-.364 1.208-.535 1.84-.535v-2zm-2.856.812c-.937.535-1.654 1.33-2.159 2.34l1.79.895c.348-.697.804-1.18 1.36-1.499l-.991-1.736zm-.817 1.894l-7.12-3.56-.895 1.788 7.12 3.56.895-1.788zm-6.683-2.2c.92-1.742 2.303-3.171 4.185-4.286L30.835 2.3c-2.171 1.285-3.828 2.976-4.935 5.073l1.77.934zm4.185-4.286c1.835-1.086 4.167-1.66 7.05-1.66v-2c-3.143 0-5.85.626-8.069 1.94l1.02 1.72zm7.05-1.66c2.106 0 3.93.342 5.492 1.001l.777-1.842C43.323.738 41.226.36 38.905.36v2zm5.492 1.001c1.565.66 2.744 1.57 3.583 2.711l1.612-1.184c-1.082-1.472-2.569-2.59-4.418-3.37l-.777 1.843zm3.583 2.711c.82 1.118 1.246 2.451 1.246 4.048h2c0-1.977-.535-3.736-1.634-5.232l-1.612 1.184zm1.246 4.048c0 .817-.108 1.638-.327 2.464l1.933.512c.262-.987.394-1.98.394-2.976h-2zm-.334 2.491c-.177.755-.567 1.602-1.212 2.544l1.651 1.13c.742-1.085 1.26-2.158 1.508-3.216l-1.947-.458zm-1.204 2.534c-.635.903-1.602 1.953-2.932 3.152l1.34 1.486c1.39-1.254 2.475-2.417 3.228-3.488l-1.636-1.15zm-2.936 3.156l-7.6 6.92 1.347 1.478 7.6-6.92-1.347-1.478zm-6.015 7.248l-1.48-3.28-1.823.822 1.48 3.28 1.823-.822zm-2.391-1.869h14.52v-2h-14.52v2zm13.52-1V30h2v-7.32h-2zm1 6.32h-22.44v2h22.44v-2zm3.486-.04l-.697.716.01.01.687-.726zm0-7.48l-.677-.736.677.736zm7.52 0l.678-.736-.678.736zm0 7.48l.688.726.01-.01-.698-.716zm-3.76.44c-1.257 0-2.258-.395-3.072-1.166l-1.376 1.452c1.213 1.149 2.719 1.714 4.448 1.714v-2zm-3.062-1.156c-.805-.784-1.218-1.771-1.218-3.044h-2c0 1.768.6 3.287 1.823 4.477l1.395-1.433zM53.83 25.2c0-1.305.416-2.265 1.198-2.985l-1.355-1.47c-1.245 1.146-1.843 2.667-1.843 4.455h2zm1.198-2.985c.812-.748 1.817-1.135 3.082-1.135v-2c-1.721 0-3.223.546-4.437 1.665l1.355 1.47zm3.082-1.135c1.266 0 2.27.387 3.083 1.136l1.355-1.472c-1.215-1.118-2.716-1.664-4.438-1.664v2zm3.083 1.136c.781.72 1.197 1.679 1.197 2.984h2c0-1.788-.597-3.309-1.842-4.456l-1.355 1.471zM62.39 25.2c0 1.273-.413 2.26-1.217 3.044l1.395 1.433c1.222-1.19 1.822-2.71 1.822-4.477h-2zm-1.207 3.034c-.814.771-1.816 1.166-3.073 1.166v2c1.73 0 3.235-.565 4.448-1.714l-1.375-1.452z" fill="#78213A" mask="url(#path-1-outside-1_627_3939)"/></svg>