<svg width="579" height="655" viewBox="0 0 579 655" fill="none" xmlns="http://www.w3.org/2000/svg"><path fill-rule="evenodd" clip-rule="evenodd" d="M425.282 218.286l110.362 91.739c6.327 5.258 12.821 35.588 4.273 46.057L378.603 553.628l-38.101-31.713 137.447-161.697c4.082-6.904 10.714-6.291 7.659-18.195l-9.289-7.928-64.46-54.166c-5.988-3.616-7.756-8.492-18.376-2.92l-5.365 5.646-134.92 169.222-38.565-31.294L378.48 221.764c6.251-7.577 38.695-10.215 46.802-3.478z" fill="#5093E0"/><path fill-rule="evenodd" clip-rule="evenodd" d="M357.72 658.349l-110.362-91.74c-6.327-5.262-12.821-35.585-4.273-46.056l161.312-197.551 38.1 31.716L305.046 516.42c-4.082 6.898-10.71 6.29-7.654 18.192l9.286 7.922 64.458 54.175c5.99 3.616 7.762 8.487 18.382 2.923l5.362-5.647L529.801 424.76l38.565 31.291L404.519 654.87c-6.25 7.583-38.698 10.216-46.799 3.479z" fill="#5093E0"/><path fill-rule="evenodd" clip-rule="evenodd" d="M498.119 707.935l1.315 118.689c141.736-58.212 260.51-168.082 281.858-333.567 13-180.177-49.598-281.499-140.727-353.65l12.954-61.275-79.724-44.473-42.291 42.854a378.892 378.892 0 00-70.61-19.481L440.666 0 349.19.996l-14.009 54.188c-26.083 3.694-51.388 9.963-75.911 18.811l-42.845-36.447-78.719 46.198 13.952 49.427C77.092 190.285 17.458 288.957 3.635 380.734L0 494.108c.73 63.622 1.88 163.677 1.96 166.08l101.603-1.106c-.245-4.802-2.282-216.85-2.336-221.801-.566-51.133 11.962-99.167 37.647-143.544 25.737-44.486 60.923-79.923 105.468-106.324 44.227-26.306 92.442-39.789 144.49-40.463 52.041-.458 100.549 11.97 145.345 37.306 45.124 25.427 81.026 60.114 107.803 104.002 26.644 43.897 40.251 91.497 40.817 142.691 1.6 144.378-79.416 226.829-184.678 276.986zm-44.811 120.152l-1.314-118.547-50.839.554 1.313 118.548 50.84-.555zm-92.448 1.008l-1.314-118.547-50.845.553 1.314 118.549 50.845-.555zm-94.752 1.032l-1.313-118.549-50.837.554 1.314 118.548 50.836-.553zm-90.797 1.003L3.526 833 2.212 714.437l171.785-1.87 1.314 118.563z" fill="#5093E0"/></svg>