<svg width="20" height="21" viewBox="0 0 20 21" fill="none" xmlns="http://www.w3.org/2000/svg"><path d="M3.932 16.598a.66.66 0 00-.183.464.686.686 0 00.183.465.625.625 0 00.443.192.6.6 0 00.442-.192l6.25-6.563a.662.662 0 00.183-.464.685.685 0 00-.183-.464l-6.25-6.563a.61.61 0 00-.442-.192.61.61 0 00-.443.192.674.674 0 00-.183.464c0 .175.066.342.183.465L9.741 10.5l-5.809 6.098zM15.991 10.5l-5.809-6.098A.674.674 0 0110 3.937c0-.174.066-.34.183-.464a.61.61 0 01.442-.192.61.61 0 01.443.192l6.25 6.563a.66.66 0 01.183.464.686.686 0 01-.183.464l-6.25 6.563a.625.625 0 01-.443.192.6.6 0 01-.442-.192.661.661 0 01-.183-.465.684.684 0 01.183-.464l5.809-6.098z" fill="currentColor"/></svg>