<svg width="24" height="24" viewBox="0 0 24 24" fill="none" xmlns="http://www.w3.org/2000/svg"><path d="M20.25 3.75H3.75a1.5 1.5 0 00-1.5 1.5v13.5a1.5 1.5 0 001.5 1.5h1.255a.75.75 0 00.678-.428 4.5 4.5 0 018.134 0 .75.75 0 00.678.428h5.755a1.5 1.5 0 001.5-1.5V5.25a1.5 1.5 0 00-1.5-1.5zM7.5 13.5a2.25 2.25 0 114.5 0 2.25 2.25 0 01-4.5 0zm12.75 5.25h-5.303a6.036 6.036 0 00-2.703-2.453 3.75 3.75 0 10-4.988 0 6.036 6.036 0 00-2.703 2.453H3.75V5.25h16.5v13.5zM5.25 9V7.5A.75.75 0 016 6.75h12a.75.75 0 01.75.75v9a.75.75 0 01-.75.75h-1.5a.75.75 0 110-1.5h.75v-7.5H6.75V9a.75.75 0 01-1.5 0z" fill="#fff"/></svg>