<svg width="54" height="54" viewBox="0 0 54 54" fill="none" xmlns="http://www.w3.org/2000/svg"><path d="M47.25 27a1.687 1.687 0 01-1.688 1.688H27a1.688 1.688 0 110-3.375h18.563A1.688 1.688 0 0147.25 27zM27 15.187h18.563a1.687 1.687 0 000-3.374H27a1.688 1.688 0 000 3.374zm18.563 23.626H27a1.688 1.688 0 000 3.374h18.563a1.687 1.687 0 000-3.374zM17.369 8.93l-5.556 5.558-2.182-2.183a1.688 1.688 0 10-2.387 2.388l3.375 3.375a1.689 1.689 0 002.387 0l6.75-6.75A1.689 1.689 0 0017.37 8.93zm0 13.5l-5.556 5.558-2.182-2.183a1.688 1.688 0 10-2.387 2.388l3.375 3.375a1.689 1.689 0 002.387 0l6.75-6.75a1.689 1.689 0 00-2.387-2.388zm0 13.5l-5.556 5.558-2.182-2.183a1.687 1.687 0 10-2.387 2.388l3.375 3.375a1.689 1.689 0 002.387 0l6.75-6.75a1.689 1.689 0 00-2.387-2.388z" fill="#78213A"/></svg>