<svg width="9" height="16" viewBox="0 0 9 16" fill="none" xmlns="http://www.w3.org/2000/svg">
<path d="M8.51501 8.51452L1.24265 15.7869C1.17508 15.8544 1.09487 15.908 1.00658 15.9446C0.918303 15.9812 0.823684 16 0.728129 16C0.632573 16 0.537954 15.9812 0.449672 15.9446C0.361391 15.908 0.281176 15.8544 0.213609 15.7869C0.146041 15.7193 0.0924436 15.6391 0.0558763 15.5508C0.0193089 15.4625 0.000488281 15.3679 0.000488281 15.2724C0.000488281 15.1768 0.0193089 15.0822 0.0558763 14.9939C0.0924436 14.9056 0.146041 14.8254 0.213609 14.7578L6.97236 8L0.213609 1.24216C0.0771498 1.1057 0.00048828 0.920622 0.000488281 0.72764C0.000488283 0.534658 0.0771498 0.34958 0.213609 0.213121C0.350068 0.0766618 0.535146 1.43783e-09 0.728129 0C0.921111 -1.43783e-09 1.10619 0.0766618 1.24265 0.213121L8.51501 7.48548C8.58262 7.55302 8.63626 7.63323 8.67286 7.72151C8.70946 7.8098 8.7283 7.90443 8.7283 8C8.7283 8.09557 8.70946 8.1902 8.67286 8.27849C8.63626 8.36677 8.58262 8.44698 8.51501 8.51452Z" fill="#1B2A3B"/>
</svg>
