<svg width="24" height="25" viewBox="0 0 24 25" fill="none" xmlns="http://www.w3.org/2000/svg"><path d="M6.75 10.25a.75.75 0 01.75-.75h9a.75.75 0 110 1.5h-9a.75.75 0 01-.75-.75zM7.5 14h9a.75.75 0 100-1.5h-9a.75.75 0 100 1.5zm14.25-8.25V20a.75.75 0 01-1.086.67L18 19.338l-2.664 1.332a.75.75 0 01-.672 0L12 19.338 9.336 20.67a.75.75 0 01-.672 0L6 19.338 3.336 20.67A.75.75 0 012.25 20V5.75a1.5 1.5 0 011.5-1.5h16.5a1.5 1.5 0 011.5 1.5zm-1.5 0H3.75v13.037l1.914-.958a.75.75 0 01.672 0L9 19.162l2.664-1.333a.75.75 0 01.672 0L15 19.162l2.664-1.333a.75.75 0 01.672 0l1.914.958V5.75z" fill="#4988D1"/></svg>